<svg xmlns="http://www.w3.org/2000/svg" viewBox="0 0 500 500"><g id="freepik--Floor--inject-36"><ellipse id="freepik--floor--inject-36" cx="252" cy="375.81" rx="235.22" ry="113.25" style="fill:#f0f0f0"></ellipse></g><g id="freepik--Shadows--inject-36"><path id="freepik--Shadow--inject-36" d="M216,336.57c-26.72,15.05-27,39.92-.6,55.54s69.47,16.09,96.2,1,27-39.92.6-55.55S242.74,321.51,216,336.57Z" style="fill:#e0e0e0"></path><path id="freepik--shadow--inject-36" d="M337.4,382.09c-26,14.62-26.22,38.78-.58,54s67.48,15.63,93.45,1,26.23-38.78.58-54S363.36,367.46,337.4,382.09Z" style="fill:#e0e0e0"></path><path id="freepik--shadow--inject-36" d="M76.81,378.82c-26.1,14.7-26.36,39-.59,54.24s67.84,15.71,93.95,1,26.37-39,.58-54.25S102.91,364.12,76.81,378.82Z" style="fill:#e0e0e0"></path></g><g id="freepik--Confetti--inject-36"><g id="freepik--confetti--inject-36"><path d="M373.34,17.07s-.29,5.23,3.59,8.14L381,24s-2.73-1.3-4.08-6.9Z" style="fill:#455a64"></path><path d="M408.92,122.55s-.29,5.23,3.59,8.14l4.08-1.24s-2.72-1.3-4.08-6.9Z" style="fill:#37474f"></path><path d="M480.86,51.48s-2.37,4.67-7.2,5.24l-2.9-3.11s3,.23,7-3.94Z" style="fill:#455a64"></path><path d="M458,164.05s-2.37,4.67-7.19,5.24l-2.91-3.11s3,.23,7-3.94Z" style="fill:#455a64"></path><path d="M339.06,93.23s-2.37,4.68-7.19,5.25L329,95.37s3,.23,7-3.94Z" style="fill:#455a64"></path><path d="M396.88,60s-2.37,4.67-7.19,5.24l-2.91-3.11s3.56.55,7.53-3.62Z" style="fill:#455a64"></path><path d="M402.12,66.85s-.93,5.16-5.39,7.09l-3.67-2.14a13.54,13.54,0,0,0,6.17-5.64Z" style="fill:#37474f"></path><path d="M122.25,26.83s.29,5.23-3.59,8.14l-4.08-1.24s2.72-1.3,4.08-6.9Z" style="fill:#455a64"></path><path d="M209.14,102.07s.29,5.23-3.6,8.14L201.47,109s2.72-1.31,4.07-6.91Z" style="fill:#455a64"></path><path d="M27.94,35.44s2.37,4.68,7.2,5.25L38,37.58s-3,.23-7-3.94Z" style="fill:#455a64"></path><path d="M43.78,163.12s2.37,4.67,7.19,5.24l2.91-3.11s-3,.23-7-3.93Z" style="fill:#455a64"></path><path d="M186.62,51.61s2.37,4.68,7.2,5.25l2.9-3.11s-3,.23-7-3.94Z" style="fill:#455a64"></path><path d="M296.19,22.5c-4.23-.42-9.93,6.63-5.8,10,2.29,1.89,7.3,1.07,7.24-2.45a.45.45,0,0,0-.37-.39c-3.32-.76-6.61.66-6.05,4.54a7.46,7.46,0,0,0,7,6.12c.2,0,.13-.35,0-.38-2.89-.61-5.62-2.41-6.19-5.5a4,4,0,0,1,.62-3.2,3.15,3.15,0,0,1,1.52-1c.49-.16,2.27-.44,2.66,0,.79.81-1.33,2.18-2,2.39a4.48,4.48,0,0,1-3.83-.36c-1.75-1.22-1.32-3.54-.47-5.18a7,7,0,0,1,5.74-4.1c.24,0,.12-.45-.07-.46Z" style="fill:#FF7D7D"></path><path d="M324.9,123.34c1.59-3.58,1.43-7.29,6.06-8.48,2-.52,6.85-1,8.38.82a2.19,2.19,0,0,1-.4,2.78c-1.21,1.08-2.11-.21-2.42-1.35a5.23,5.23,0,0,1,2.31-5.61,9.31,9.31,0,0,1,12.42,2c.16.21.35,0,.27-.24-3.55-8.17-20.59-2.49-15.12,5.35,1.65,2.37,4.58.28,4-2.23-.61-2.78-5.36-2.64-7.45-2.5a8.64,8.64,0,0,0-5.76,2.21c-1.85,1.83-2.1,4.71-2.49,7.15,0,.11.1.27.17.11Z" style="fill:#FF7D7D"></path><path d="M426.9,22.36c3.33-1,7.89-.7,10.68,1.55,2.14,1.72,3.37,5.47.2,6.76-1.24.51-5.34.51-5.83-1.19-.35-1.18.92-1.88,1.93-2,3-.45,5.77,2.68,5.7,5.49-.1,4.21-5,5.6-8.46,5.64-.23,0-.17.42,0,.44,5.9.57,12.48-4.89,7.24-10.37-1.41-1.47-3.62-2.52-5.65-1.71-1.15.46-2.06,1.5-1.49,2.75.92,2,4.63,2.35,6.42,1.83a3.59,3.59,0,0,0,2.49-4.63c-1.45-5.32-8.9-6.43-13.32-4.83-.13.05-.08.36.07.31Z" style="fill:#FF7D7D"></path><path d="M450.88,77.85c-4,1.18-7.64,8.14-4,11.32,3.12,2.7,9.44,2.08,8.4-3.06a.33.33,0,0,0-.22-.25c-4.15-1-5.52,3.85-4.65,7.06,1.35,5,6.37,4.91,10,2.31.12-.09.07-.43-.1-.35-3,1.49-7.12,2.8-8.93-1-1-2-1-5.36.87-6.92a2.61,2.61,0,0,1,1.78-.71c1.38.17,1.15,1.67.37,2.61-1.24,1.52-3.74,1.36-5.41.77-5.7-2-1.78-9.41,1.93-11.49.11-.06.09-.35-.07-.3Z" style="fill:#FF7D7D"></path><path d="M475.68,170.57c6.74.54,5.52,13.34.08,15.07a2.66,2.66,0,0,1-2.07-.11,3,3,0,0,1-1.22-2.6c.64-2.2,4.27.58,4.75,1.44a6.3,6.3,0,0,1-.51,7.36c-2.78,3-8.08,3.15-11.55,1.4-.18-.09-.21.25-.09.33,3.73,2.4,10,2,12.76-1.74,2.21-3,.68-11.07-4.15-10.35-4.5.66-1.39,5.78,2,5.11s4.63-5.21,5-8c.42-3.53-.64-8.3-5-8.22-.14,0-.12.31,0,.32Z" style="fill:#FF7D7D"></path><path d="M366.82,68c-3.53-.45-11.13,2.53-9.15,7.34,1.05,2.58,5.77,4.23,7.32,1.28a.35.35,0,0,0-.18-.44c-7.37-4.17-15.12,7.88-7.3,12.31.24.14.23-.27.09-.38a6.15,6.15,0,0,1-1.53-8.65,8,8,0,0,1,3.28-3c1-.47,3.54-1.14,4.47-.16.43.46.42-.12.2.42-.14.33-.59.51-.9.63a3.65,3.65,0,0,1-2.42-.08,3.39,3.39,0,0,1-2.5-3.89c.87-3.62,5.49-4.94,8.71-5,.23,0,.09-.42-.09-.44Z" style="fill:#FF7D7D"></path><path d="M396,115.16s-2.37,4.67-7.19,5.25l-2.91-3.12s3,.24,7-3.93Z" style="fill:#FF7D7D"></path><path d="M432.35,73.62s-5.2.65-8.37-3l1-4.15s1.49,2.63,7.17,3.59Z" style="fill:#FF7D7D"></path><path d="M353,36.31s-5.2.64-8.37-3l1-4.14s1.49,2.62,7.16,3.59Z" style="fill:#FF7D7D"></path><path d="M268,30.4s-5.2.64-8.37-3l.95-4.15s1.49,2.63,7.17,3.6Z" style="fill:#FF7D7D"></path><path d="M477.06,134s-5.2.65-8.37-3l1-4.15s1.49,2.62,7.17,3.59Z" style="fill:#FF7D7D"></path><path d="M214.63,27.85c5.05-.5,11.88,7.94,6.94,12-2.74,2.26-8.73,1.28-8.67-2.93a.56.56,0,0,1,.45-.47c4-.91,7.91.79,7.23,5.43a8.89,8.89,0,0,1-8.35,7.32c-.24,0-.16-.41,0-.45,3.46-.73,6.73-2.88,7.41-6.58a4.76,4.76,0,0,0-.75-3.83,3.8,3.8,0,0,0-1.81-1.21c-.59-.18-2.72-.52-3.19,0-.94,1,1.6,2.6,2.35,2.86a5.39,5.39,0,0,0,4.57-.43c2.1-1.47,1.58-4.24.57-6.2-1.37-2.65-3.78-4.81-6.87-4.91-.28,0-.13-.53.09-.55Z" style="fill:#FF7D7D"></path><path d="M75.73,34.82c-2.85-.83-6.77-.6-9.17,1.33-1.84,1.48-2.89,4.7-.17,5.81,1.07.43,4.59.43,5-1,.3-1-.79-1.61-1.66-1.74-2.56-.4-4.95,2.3-4.9,4.71.09,3.61,4.3,4.81,7.28,4.84.19,0,.14.37,0,.38-5.07.49-10.72-4.2-6.22-8.91C67.09,39,69,38.05,70.73,38.75c1,.39,1.77,1.28,1.28,2.36-.79,1.72-4,2-5.52,1.57a3.08,3.08,0,0,1-2.13-4C65.6,34.13,72,33.18,75.8,34.55c.11,0,.07.31-.07.27Z" style="fill:#FF7D7D"></path><path d="M32.71,68.88c4,1.17,7.65,8.14,4,11.32-3.13,2.7-9.45,2.08-8.41-3.06,0-.1.11-.23.22-.25,4.15-1,5.53,3.85,4.66,7.06-1.36,5-6.38,4.91-10,2.3-.12-.08-.06-.42.1-.34,3,1.49,7.12,2.8,8.93-1,1-2,1-5.37-.87-6.93a2.58,2.58,0,0,0-1.78-.7c-1.38.17-1.15,1.66-.37,2.61,1.25,1.51,3.75,1.36,5.41.77,5.71-2,1.79-9.41-1.93-11.49-.11-.06-.08-.35.07-.3Z" style="fill:#FF7D7D"></path><path d="M24.71,162.64c-6.74.54-5.53,13.34-.08,15.07a2.63,2.63,0,0,0,2.06-.11,3,3,0,0,0,1.22-2.6c-.64-2.21-4.27.58-4.75,1.44a6.28,6.28,0,0,0,.52,7.36c2.77,3,8.07,3.15,11.54,1.4.19-.09.22.25.09.33-3.73,2.4-10,2.05-12.75-1.74-2.22-3-.69-11.07,4.14-10.36,4.5.67,1.39,5.79-2,5.11s-4.64-5.2-5-8c-.41-3.53.64-8.3,5-8.22.14,0,.13.31,0,.32Z" style="fill:#FF7D7D"></path><path d="M71.68,73.9s5.2.65,8.37-3l-1-4.15s-1.49,2.63-7.17,3.59Z" style="fill:#FF7D7D"></path><path d="M160.28,30.48s5.2.65,8.37-3l-1-4.15s-1.48,2.63-7.16,3.59Z" style="fill:#FF7D7D"></path><path d="M34.58,126.23s5.2.64,8.37-3L42,119s-1.49,2.63-7.17,3.6Z" style="fill:#FF7D7D"></path><g style="opacity:0.4"><path d="M296.19,22.5c-4.23-.42-9.93,6.63-5.8,10,2.29,1.89,7.3,1.07,7.24-2.45a.45.45,0,0,0-.37-.39c-3.32-.76-6.61.66-6.05,4.54a7.46,7.46,0,0,0,7,6.12c.2,0,.13-.35,0-.38-2.89-.61-5.62-2.41-6.19-5.5a4,4,0,0,1,.62-3.2,3.15,3.15,0,0,1,1.52-1c.49-.16,2.27-.44,2.66,0,.79.81-1.33,2.18-2,2.39a4.48,4.48,0,0,1-3.83-.36c-1.75-1.22-1.32-3.54-.47-5.18a7,7,0,0,1,5.74-4.1c.24,0,.12-.45-.07-.46Z" style="fill:#fff"></path><path d="M324.9,123.34c1.59-3.58,1.43-7.29,6.06-8.48,2-.52,6.85-1,8.38.82a2.19,2.19,0,0,1-.4,2.78c-1.21,1.08-2.11-.21-2.42-1.35a5.23,5.23,0,0,1,2.31-5.61,9.31,9.31,0,0,1,12.42,2c.16.21.35,0,.27-.24-3.55-8.17-20.59-2.49-15.12,5.35,1.65,2.37,4.58.28,4-2.23-.61-2.78-5.36-2.64-7.45-2.5a8.64,8.64,0,0,0-5.76,2.21c-1.85,1.83-2.1,4.71-2.49,7.15,0,.11.1.27.17.11Z" style="fill:#fff"></path><path d="M426.9,22.36c3.33-1,7.89-.7,10.68,1.55,2.14,1.72,3.37,5.47.2,6.76-1.24.51-5.34.51-5.83-1.19-.35-1.18.92-1.88,1.93-2,3-.45,5.77,2.68,5.7,5.49-.1,4.21-5,5.6-8.46,5.64-.23,0-.17.42,0,.44,5.9.57,12.48-4.89,7.24-10.37-1.41-1.47-3.62-2.52-5.65-1.71-1.15.46-2.06,1.5-1.49,2.75.92,2,4.63,2.35,6.42,1.83a3.59,3.59,0,0,0,2.49-4.63c-1.45-5.32-8.9-6.43-13.32-4.83-.13.05-.08.36.07.31Z" style="fill:#fff"></path><path d="M450.88,77.85c-4,1.18-7.64,8.14-4,11.32,3.12,2.7,9.44,2.08,8.4-3.06a.33.33,0,0,0-.22-.25c-4.15-1-5.52,3.85-4.65,7.06,1.35,5,6.37,4.91,10,2.31.12-.09.07-.43-.1-.35-3,1.49-7.12,2.8-8.93-1-1-2-1-5.36.87-6.92a2.61,2.61,0,0,1,1.78-.71c1.38.17,1.15,1.67.37,2.61-1.24,1.52-3.74,1.36-5.41.77-5.7-2-1.78-9.41,1.93-11.49.11-.06.09-.35-.07-.3Z" style="fill:#fff"></path><path d="M475.68,170.57c6.74.54,5.52,13.34.08,15.07a2.66,2.66,0,0,1-2.07-.11,3,3,0,0,1-1.22-2.6c.64-2.2,4.27.58,4.75,1.44a6.3,6.3,0,0,1-.51,7.36c-2.78,3-8.08,3.15-11.55,1.4-.18-.09-.21.25-.09.33,3.73,2.4,10,2,12.76-1.74,2.21-3,.68-11.07-4.15-10.35-4.5.66-1.39,5.78,2,5.11s4.63-5.21,5-8c.42-3.53-.64-8.3-5-8.22-.14,0-.12.31,0,.32Z" style="fill:#fff"></path><path d="M366.82,68c-3.53-.45-11.13,2.53-9.15,7.34,1.05,2.58,5.77,4.23,7.32,1.28a.35.35,0,0,0-.18-.44c-7.37-4.17-15.12,7.88-7.3,12.31.24.14.23-.27.09-.38a6.15,6.15,0,0,1-1.53-8.65,8,8,0,0,1,3.28-3c1-.47,3.54-1.14,4.47-.16.43.46.42-.12.2.42-.14.33-.59.51-.9.63a3.65,3.65,0,0,1-2.42-.08,3.39,3.39,0,0,1-2.5-3.89c.87-3.62,5.49-4.94,8.71-5,.23,0,.09-.42-.09-.44Z" style="fill:#fff"></path><path d="M396,115.16s-2.37,4.67-7.19,5.25l-2.91-3.12s3,.24,7-3.93Z" style="fill:#fff"></path><path d="M432.35,73.62s-5.2.65-8.37-3l1-4.15s1.49,2.63,7.17,3.59Z" style="fill:#fff"></path><path d="M353,36.31s-5.2.64-8.37-3l1-4.14s1.49,2.62,7.16,3.59Z" style="fill:#fff"></path><path d="M268,30.4s-5.2.64-8.37-3l.95-4.15s1.49,2.63,7.17,3.6Z" style="fill:#fff"></path><path d="M477.06,134s-5.2.65-8.37-3l1-4.15s1.49,2.62,7.17,3.59Z" style="fill:#fff"></path><path d="M214.63,27.85c5.05-.5,11.88,7.94,6.94,12-2.74,2.26-8.73,1.28-8.67-2.93a.56.56,0,0,1,.45-.47c4-.91,7.91.79,7.23,5.43a8.89,8.89,0,0,1-8.35,7.32c-.24,0-.16-.41,0-.45,3.46-.73,6.73-2.88,7.41-6.58a4.76,4.76,0,0,0-.75-3.83,3.8,3.8,0,0,0-1.81-1.21c-.59-.18-2.72-.52-3.19,0-.94,1,1.6,2.6,2.35,2.86a5.39,5.39,0,0,0,4.57-.43c2.1-1.47,1.58-4.24.57-6.2-1.37-2.65-3.78-4.81-6.87-4.91-.28,0-.13-.53.09-.55Z" style="fill:#fff"></path><path d="M75.73,34.82c-2.85-.83-6.77-.6-9.17,1.33-1.84,1.48-2.89,4.7-.17,5.81,1.07.43,4.59.43,5-1,.3-1-.79-1.61-1.66-1.74-2.56-.4-4.95,2.3-4.9,4.71.09,3.61,4.3,4.81,7.28,4.84.19,0,.14.37,0,.38-5.07.49-10.72-4.2-6.22-8.91C67.09,39,69,38.05,70.73,38.75c1,.39,1.77,1.28,1.28,2.36-.79,1.72-4,2-5.52,1.57a3.08,3.08,0,0,1-2.13-4C65.6,34.13,72,33.18,75.8,34.55c.11,0,.07.31-.07.27Z" style="fill:#fff"></path><path d="M32.71,68.88c4,1.17,7.65,8.14,4,11.32-3.13,2.7-9.45,2.08-8.41-3.06,0-.1.11-.23.22-.25,4.15-1,5.53,3.85,4.66,7.06-1.36,5-6.38,4.91-10,2.3-.12-.08-.06-.42.1-.34,3,1.49,7.12,2.8,8.93-1,1-2,1-5.37-.87-6.93a2.58,2.58,0,0,0-1.78-.7c-1.38.17-1.15,1.66-.37,2.61,1.25,1.51,3.75,1.36,5.41.77,5.71-2,1.79-9.41-1.93-11.49-.11-.06-.08-.35.07-.3Z" style="fill:#fff"></path><path d="M24.71,162.64c-6.74.54-5.53,13.34-.08,15.07a2.63,2.63,0,0,0,2.06-.11,3,3,0,0,0,1.22-2.6c-.64-2.21-4.27.58-4.75,1.44a6.28,6.28,0,0,0,.52,7.36c2.77,3,8.07,3.15,11.54,1.4.19-.09.22.25.09.33-3.73,2.4-10,2.05-12.75-1.74-2.22-3-.69-11.07,4.14-10.36,4.5.67,1.39,5.79-2,5.11s-4.64-5.2-5-8c-.41-3.53.64-8.3,5-8.22.14,0,.13.31,0,.32Z" style="fill:#fff"></path><path d="M71.68,73.9s5.2.65,8.37-3l-1-4.15s-1.49,2.63-7.17,3.59Z" style="fill:#fff"></path><path d="M160.28,30.48s5.2.65,8.37-3l-1-4.15s-1.48,2.63-7.16,3.59Z" style="fill:#fff"></path><path d="M34.58,126.23s5.2.64,8.37-3L42,119s-1.49,2.63-7.17,3.6Z" style="fill:#fff"></path></g><path d="M116.07,71.72s2.37,4.67,7.19,5.24l2.91-3.11s-3.56.55-7.53-3.62Z" style="fill:#455a64"></path><path d="M110.83,78.62s.93,5.15,5.38,7.09l3.68-2.15a13.48,13.48,0,0,1-6.17-5.63Z" style="fill:#37474f"></path><path d="M273.91,53.66s-2.37,4.67-7.19,5.24l-2.91-3.11s3.56.55,7.54-3.62Z" style="fill:#455a64"></path><path d="M254.4,48.85S253.47,54,249,56l-3.68-2.15a13.48,13.48,0,0,0,6.17-5.63Z" style="fill:#37474f"></path></g></g><g id="freepik--Balloons--inject-36"><g id="freepik--balloons--inject-36"><polygon points="443.53 427.43 430.04 419.64 430.04 414.17 429.76 414 429.76 410.03 443.53 417.98 443.53 427.43" style="fill:#FF7D7D"></polygon><polygon points="443.53 427.43 430.04 419.64 430.04 414.17 429.76 414 429.76 410.03 443.53 417.98 443.53 427.43" style="opacity:0.1"></polygon><polygon points="443.53 421.96 438.37 418.98 430.04 414.17 430.04 414.74 443.53 422.53 443.53 421.96" style="opacity:0.15"></polygon><polygon points="443.53 427.43 456.95 419.69 456.95 414.21 457.31 414 457.31 410.03 443.53 417.98 443.53 427.43" style="fill:#FF7D7D"></polygon><polygon points="456.95 414.21 443.53 421.96 443.53 422.53 456.95 414.79 456.95 414.21" style="opacity:0.1"></polygon><polygon points="457.31 410.03 443.53 402.07 429.76 410.03 443.53 417.98 457.31 410.03" style="fill:#FF7D7D"></polygon><polygon points="457.31 410.03 443.53 402.07 429.76 410.03 443.53 417.98 457.31 410.03" style="fill:#fff;opacity:0.4"></polygon><path d="M450.42,423.79a.34.34,0,0,1-.34-.34v-9.26l-13.61-7.85a.35.35,0,0,1-.12-.47.33.33,0,0,1,.46-.12l13.78,7.95a.33.33,0,0,1,.17.3v9.45A.34.34,0,0,1,450.42,423.79Z" style="fill:#455a64"></path><path d="M436.53,423.79a.34.34,0,0,1-.34-.34V414a.34.34,0,0,1,.17-.3l13.77-7.95a.35.35,0,0,1,.47.12.34.34,0,0,1-.13.47l-13.6,7.85v9.26A.34.34,0,0,1,436.53,423.79Z" style="fill:#455a64"></path><g id="freepik--Balloons--inject-36"><path d="M438.08,245.72c-1.32,6-3.22,11.84-4.43,17.86a48.08,48.08,0,0,0-.69,16.18c1.41,10.23,5.9,19.7,9.29,29.36a74.87,74.87,0,0,1,3.88,14.93,44.06,44.06,0,0,1-1,16.57c-1.33,5.38-3.31,10.56-4.89,15.87a80.33,80.33,0,0,0-3,17.2,96.8,96.8,0,0,0,.61,17.93,50,50,0,0,0,3.6,14.82,24.44,24.44,0,0,0,1.81,3.34c.19.3.56.12.37-.19-2.67-4.42-3.73-9.58-4.45-14.63a105.37,105.37,0,0,1-1.13-17A80,80,0,0,1,440.27,360c1.35-5.29,3.29-10.4,4.82-15.62a50,50,0,0,0,2.39-15.86,57.77,57.77,0,0,0-2.69-14.67c-3-9.84-7.66-19.14-10-29.18a46.55,46.55,0,0,1-1.2-15.42c.64-6.45,2.59-12.65,4-19,.32-1.47.57-3,.81-4.45,0-.18-.21-.4-.27-.15Z" style="fill:#e0e0e0"></path><path d="M462.23,278.7c-.68,4.81-2.63,9.3-4.22,13.86a43.45,43.45,0,0,0-2.52,13.05c-.23,8.61,1.86,17.07,3.81,25.39s4,17,3.43,25.65a57.43,57.43,0,0,1-2.79,13,76.93,76.93,0,0,1-5,12.61c-2,4-4.49,7.67-6.58,11.6a44.44,44.44,0,0,0-4.62,12.19,25.48,25.48,0,0,0-.41,3.26c0,.27.51.6.58.23a54.47,54.47,0,0,1,1.49-6.58,45.11,45.11,0,0,1,2.47-6.17c1.9-3.94,4.24-7.62,6.39-11.41A71.91,71.91,0,0,0,459.76,373c.73-2.15,1.37-4.32,2-6.5A54.2,54.2,0,0,0,463.2,360c1.19-8.45-.41-17-2.29-25.2-1.93-8.44-4.33-16.87-4.73-25.57a42.48,42.48,0,0,1,1.36-13.09c1.27-4.66,3.3-9.08,4.38-13.79a30,30,0,0,0,.56-3.52c0-.15-.22-.32-.25-.1Z" style="fill:#e0e0e0"></path><path d="M454.73,352.73c-1,2.24-2,4.45-3.08,6.62-.86,1.68-1.7,3.35-2.42,5.09a70.72,70.72,0,0,0-3.2,10.18,118,118,0,0,0-3.14,23.14,71.21,71.21,0,0,0,.37,11.95c0,.18.26.22.26,0a140.36,140.36,0,0,1,.93-22.26,94.13,94.13,0,0,1,5.13-21.91c.73-1.9,1.6-3.73,2.51-5.55a34.92,34.92,0,0,0,3-7c0-.16-.24-.54-.34-.28Z" style="fill:#e0e0e0"></path><path d="M435.91,246.08a3.56,3.56,0,0,1-3.36,3.27,2.49,2.49,0,0,1-2.17-1.13c-.15-.29-.19-.65.14-.83a1,1,0,0,1,.81,0,1.92,1.92,0,0,1,1.17.93,2.87,2.87,0,0,1-1.51,3.91,2.34,2.34,0,0,1-2.22-.41,1.67,1.67,0,0,1-.57-.88c-.11-.45.07-1.16.7-.86a1.91,1.91,0,0,1,.76,2.36,2.22,2.22,0,0,1-2.9,1.08c-.33-.13-.31.45-.1.57a2.58,2.58,0,0,0,3.31-.7,2.78,2.78,0,0,0-.13-3.21,1.84,1.84,0,0,0-1.38-.85,1.05,1.05,0,0,0-1,.86c-.3,1.14.71,2.24,1.68,2.66,2.51,1.08,4.83-1.45,4.22-3.93a3,3,0,0,0-2.8-2.32,1,1,0,0,0-1,1,2,2,0,0,0,.8,1.62,3.56,3.56,0,0,0,3.75.54,3.81,3.81,0,0,0,2.12-3.66c0-.26-.33-.31-.36,0Z" style="fill:#e0e0e0"></path><path d="M433.28,245.54h0c.14-1.53,3.69-5.44,4.29-5.39s3.09,4.42,2.94,6h0a1.78,1.78,0,0,1-1.18,1.38,5.63,5.63,0,0,1-5.12-.46,1.81,1.81,0,0,1-.93-1.58Z" style="fill:#FF7D7D"></path><path d="M433.28,245.54h0c.14-1.53,3.69-5.44,4.29-5.39s3.09,4.42,2.94,6h0a1.78,1.78,0,0,1-1.18,1.38,5.63,5.63,0,0,1-5.12-.46,1.81,1.81,0,0,1-.93-1.58Z" style="opacity:0.4"></path><path d="M418.87,210.76c-1.06,11.7,6.78,27.31,18.54,31.2,12.39-2.28,22.79-15.65,23.85-27.36s-5.49-23.32-19.14-24.56S419.93,199.05,418.87,210.76Z" style="fill:#FF7D7D"></path><path d="M418.87,210.76c-1.06,11.7,6.78,27.31,18.54,31.2,12.39-2.28,22.79-15.65,23.85-27.36s-5.49-23.32-19.14-24.56S419.93,199.05,418.87,210.76Z" style="opacity:0.2"></path><path d="M459.79,220.63s-4.17,11-18.15,10.59c-13.48-.35-23-16.05-21.75-25.75a26.61,26.61,0,0,0-1,5.29c-1.06,11.7,6.78,27.31,18.54,31.2,10.26-1.89,19.16-11.4,22.51-21.26Z" style="opacity:0.1"></path><path d="M456.32,354.43a3.76,3.76,0,0,0,4.39,4.71c1-.25,2.55-1.41,1.5-2.52a1.9,1.9,0,0,0-1.76-.31,2.72,2.72,0,0,0-1.67,1,3.38,3.38,0,0,0,2.42,5.38,2.72,2.72,0,0,0,2.72-1.62,1.25,1.25,0,0,0-1.77-1.54,2.67,2.67,0,0,0-1.3,3.32,2.74,2.74,0,0,0,3.25,1.55c.3-.1,0-.58-.28-.54a2.11,2.11,0,0,1-2.24-1,2.07,2.07,0,0,1,.28-2.21c.24-.3.73-.72,1.14-.6.22.06.23.05.24.29a1.27,1.27,0,0,1,0,.28,1.38,1.38,0,0,1-.3.62,2.27,2.27,0,0,1-2.05.76c-1.78-.23-2.39-2.5-1.63-3.92a2.22,2.22,0,0,1,2.23-1.23c.68.11.24.86-.09,1.13a2.45,2.45,0,0,1-1.34.57c-2.22.25-3.5-1.92-3.33-3.9,0-.17-.31-.5-.38-.23Z" style="fill:#e0e0e0"></path><path d="M451.26,353.83h0c.25-1.51,4.09-5.14,4.69-5s2.74,4.63,2.47,6.25h0a1.82,1.82,0,0,1-1.29,1.29,5.68,5.68,0,0,1-5.06-.85,1.82,1.82,0,0,1-.81-1.65Z" style="fill:#FF7D7D"></path><g style="opacity:0.4"><path d="M451.26,353.83h0c.25-1.51,4.09-5.14,4.69-5s2.74,4.63,2.47,6.25h0a1.82,1.82,0,0,1-1.29,1.29,5.68,5.68,0,0,1-5.06-.85,1.82,1.82,0,0,1-.81-1.65Z"></path></g><path d="M439.54,318.05c-2,11.59,4.68,27.75,16.11,32.53,12.52-1.34,23.91-13.88,25.86-25.47s-3.69-23.67-17.21-25.94S441.49,306.46,439.54,318.05Z" style="fill:#FF7D7D"></path><path d="M439.54,318.05c-2,11.59,4.68,27.75,16.11,32.53,12.52-1.34,23.91-13.88,25.86-25.47s-3.69-23.67-17.21-25.94S441.49,306.46,439.54,318.05Z" style="opacity:0.2"></path><path d="M479.59,331s-5,10.59-18.91,9.16c-13.41-1.37-21.74-17.75-19.72-27.32a26.52,26.52,0,0,0-1.42,5.19c-2,11.59,4.68,27.75,16.11,32.53,10.38-1.11,20-9.91,24.07-19.49Z" style="opacity:0.1"></path><path d="M463.63,286.35a3.75,3.75,0,0,0,2.05,6.09c.95.18,2.71-.1,2.45-1.46s-2.32-1.47-3.3-1a3.36,3.36,0,0,0-.37,5.89,2.89,2.89,0,0,0,3.11-.09,1.24,1.24,0,0,0-.64-2.27,2.64,2.64,0,0,0-2.75,2.44,2.75,2.75,0,0,0,2.3,2.76c.34.05.23-.51,0-.58a2,2,0,0,1-.34-3.81c.28-.13,1.3-.42,1.35.18,0,.36-.5.75-.78.88a2.25,2.25,0,0,1-2.17-.25c-1.39-1-1-3.1.09-4.1a2.43,2.43,0,0,1,1.17-.6,2.07,2.07,0,0,1,1.59.35c.5.5-.47.95-.84,1a2.58,2.58,0,0,1-1.32-.13c-2.06-.76-2.25-3.22-1.29-4.92.1-.18-.11-.59-.3-.36Z" style="fill:#e0e0e0"></path><path d="M458,285.71h0c.26-1.51,4.12-5.12,4.72-5s2.71,4.66,2.43,6.27h0a1.83,1.83,0,0,1-1.3,1.28,5.63,5.63,0,0,1-5.06-.88,1.79,1.79,0,0,1-.79-1.65Z" style="fill:#FF7D7D"></path><path d="M458,285.71h0c.26-1.51,4.12-5.12,4.72-5s2.71,4.66,2.43,6.27h0a1.83,1.83,0,0,1-1.3,1.28,5.63,5.63,0,0,1-5.06-.88,1.79,1.79,0,0,1-.79-1.65Z" style="opacity:0.30000000000000004"></path><path d="M446.46,249.85c-2,11.58,4.5,27.79,15.9,32.63,12.54-1.25,24-13.72,26-25.29s-3.54-23.7-17.05-26.06S448.49,238.27,446.46,249.85Z" style="fill:#FF7D7D"></path><path d="M486.43,263.07s-5.06,10.57-19,9.05c-13.4-1.46-21.63-17.89-19.54-27.45a27.22,27.22,0,0,0-1.46,5.18c-2,11.58,4.5,27.79,15.9,32.63,10.39-1,20-9.78,24.2-19.33Z" style="opacity:0.1"></path></g><path d="M443.38,409.89a8.39,8.39,0,0,0,4.65-.29c1.25-.35,2.88-1.06,3.26-2.44s-1-2.28-2.12-2.42a5.15,5.15,0,0,0-3.51,1.13,7.31,7.31,0,0,0-1.5,1.54,6.31,6.31,0,0,0-.58.93,4.53,4.53,0,0,0-.27.54,2.8,2.8,0,0,0-.16.72c0,.22.31.45.45.23a16.23,16.23,0,0,1,1.89-2.83,5.16,5.16,0,0,1,2.74-1.54c.91-.16,2.45.1,2.31,1.36a2.15,2.15,0,0,1-1,1.34,5.65,5.65,0,0,1-1.78.82,11.21,11.21,0,0,1-4.45.49c-.26,0-.12.37,0,.42Z" style="fill:#455a64"></path><path d="M443.26,409.47a6.5,6.5,0,0,1-1.74.36,5.28,5.28,0,0,1-1.63-.25,5.4,5.4,0,0,1-2.63-1.58,3,3,0,0,1-.71-1.38c-.07-.63.54-.81,1.05-.83a5.3,5.3,0,0,1,3,1.26,9.33,9.33,0,0,1,2.69,2.73c.09.16.27.06.23-.1a5.35,5.35,0,0,0-2.33-3,6.29,6.29,0,0,0-3.61-1.53,1.91,1.91,0,0,0-1.54.58,1.61,1.61,0,0,0,.09,1.64,5.28,5.28,0,0,0,2.83,2.43,7.39,7.39,0,0,0,2.21.55,3.55,3.55,0,0,0,2.38-.52c.19-.14-.1-.46-.29-.4Z" style="fill:#455a64"></path><path d="M443.73,409.62a5.05,5.05,0,0,0,1.95-.58,6.94,6.94,0,0,0,1.58-1.06,5.26,5.26,0,0,0,1.74-3.21c.13-1.18.13-2.93-1.43-3a3.87,3.87,0,0,0-3.28,2.06,7.73,7.73,0,0,0-1.16,5.21c0,.24.51.39.52.08a10.62,10.62,0,0,1,.74-4,4.58,4.58,0,0,1,2.51-2.65,2,2,0,0,1,.8-.09c.39.05.53.32.59.68a5.63,5.63,0,0,1,0,1.64,4.76,4.76,0,0,1-1.44,2.76,5.89,5.89,0,0,1-1.45,1c-.62.32-1.29.46-1.93.72-.27.11.05.46.24.45Z" style="fill:#455a64"></path><path d="M443.43,409.49a8.34,8.34,0,0,1-3.1-1.87,3.9,3.9,0,0,1-1.31-3.3,1.41,1.41,0,0,1,1.11-1.14,1.84,1.84,0,0,1,1.59.76,5.73,5.73,0,0,1,1.12,2.59,20.39,20.39,0,0,1,.33,3.11c0,.16.29.4.41.19a2.82,2.82,0,0,0,.22-1.7,13.45,13.45,0,0,0-.28-1.78,5.66,5.66,0,0,0-1.63-3.13,2.12,2.12,0,0,0-3.37.46c-.61,1.3.15,2.87,1,3.88a6.38,6.38,0,0,0,3.93,2.35c.24,0,.12-.36,0-.42Z" style="fill:#455a64"></path><path d="M443.16,409.17a8.13,8.13,0,0,1-.85,3.19,12.44,12.44,0,0,1-1.84,2.06,9.49,9.49,0,0,0-1.63,1.95,2.66,2.66,0,0,0-.19,2.56c.42,1,1,2.12.54,3.26-.35.93-1.32,1.38-2,2a3,3,0,0,0-.18,4.6c.2.18.39-.08.23-.27a2.78,2.78,0,0,1-.1-3.21,11.57,11.57,0,0,1,2-1.89,2.79,2.79,0,0,0,.85-2.2,8.56,8.56,0,0,0-.8-2.62c-.68-1.85,1.47-3.43,2.58-4.6a6.82,6.82,0,0,0,1.27-1.75,5.2,5.2,0,0,0,.28-3.07c0-.09-.14-.17-.16,0Z" style="fill:#455a64"></path><path d="M443.12,409.21a3.9,3.9,0,0,0,1.08,2.32c.84.77,2,1.33,2.25,2.55s-.69,2.14-.76,3.26a1.89,1.89,0,0,0,1,1.84,8,8,0,0,1,1.13.58,1.51,1.51,0,0,1,.25,1.78c-.33.91-1,1.79-.65,2.8.44,1.4,2.22,1.75,2.71,3.08.07.19.37.25.34,0-.23-1.64-2.7-2.09-2.46-3.82.14-1,.95-1.86.89-2.95a1.91,1.91,0,0,0-1.25-1.6c-.42-.21-.95-.36-1.19-.79a2.1,2.1,0,0,1,.1-1.73,4,4,0,0,0,.44-2.63,4.27,4.27,0,0,0-1.66-2.07,5.29,5.29,0,0,1-1.34-1.16,5.77,5.77,0,0,1-.68-1.47c-.05-.15-.26-.17-.23,0Z" style="fill:#455a64"></path><path d="M459.07,244.83c-1,0-1.52.1-2.52.21l-.3,2.35-1.11.06.67-5.44,1.16-.25c-.11.88-.17,1.32-.28,2.2,1-.14,1.52-.2,2.54-.27.13-.94.2-1.41.33-2.35l1.17-.12c-.36,2.45-.53,3.67-.89,6.12h-1.12Z" style="fill:#fafafa"></path><path d="M462.3,246.17l-.63,1.24c-.47,0-.71,0-1.19,0l3.28-6.26c.53,0,.79,0,1.32,0,.52,2.63.77,4,1.23,6.73-.48-.07-.73-.1-1.21-.15-.09-.54-.13-.81-.22-1.35C463.85,246.26,463.33,246.22,462.3,246.17Zm2.12-2.47c-.11-.56-.22-1.14-.23-1.15h0l-.59,1.11c-.28.55-.42.83-.71,1.38.72,0,1.08.06,1.8.12Z" style="fill:#fafafa"></path><path d="M470.11,241.73a2.13,2.13,0,0,1,1.81,2.68,2,2,0,0,1-2.59,1.7l-.86-.16-.39,2.19c-.45-.08-.67-.12-1.12-.18.45-2.63.67-3.94,1.13-6.56C468.9,241.51,469.31,241.57,470.11,241.73Zm-.54,3.24a.92.92,0,0,0,1.22-.81,1,1,0,0,0-.86-1.23l-.9-.17c-.14.82-.22,1.23-.36,2.05Z" style="fill:#fafafa"></path><path d="M475,243.07a2.42,2.42,0,0,1,1.69,2.89,1.74,1.74,0,0,1-2.52,1.34l-.84-.24c-.17.85-.25,1.28-.41,2.13l-1.11-.28c.49-2.59.74-3.88,1.23-6.47C473.82,242.67,474.21,242.79,475,243.07Zm-.58,3.14c.67.22,1.07,0,1.19-.64a1.09,1.09,0,0,0-.81-1.34l-.87-.29c-.15.8-.23,1.2-.39,2Z" style="fill:#fafafa"></path><path d="M479,251.21,478,250.8c.21-1,.31-1.43.52-2.39-.5-1.73-.75-2.63-1.27-4.44.5.21.74.33,1.23.56.24.89.35,1.32.57,2.18.14.5.23.89.24.91h0s.24-.25.53-.51c.53-.47.79-.7,1.31-1.12l1.08.68a26.63,26.63,0,0,0-2.67,2.21C479.35,249.81,479.25,250.28,479,251.21Z" style="fill:#fafafa"></path><path d="M459.14,253.78h0s-.09.75-.21,1.53l-.38,2.58-1-.23.85-6,1.11.11c.81,1.73,1.21,2.65,2,4.52h0s.11-.8.22-1.51c.17-1.08.25-1.62.42-2.7l1.11.15-1,6.46-1.08-.22C460.33,256.51,459.94,255.57,459.14,253.78Z" style="fill:#fafafa"></path><path d="M464.21,252.35c1.59.23,2.38.36,4,.65-.08.48-.13.73-.21,1.21-1.14-.21-1.71-.3-2.84-.49l-.23,1.38,2.12.36c-.09.49-.13.74-.22,1.22l-2.11-.37c-.1.62-.16.93-.26,1.54l2.82.51c-.08.48-.13.72-.21,1.21-1.56-.27-2.34-.42-3.89-.72C463.57,256.25,463.78,255,464.21,252.35Z" style="fill:#fafafa"></path><path d="M472.3,257.63c-.05-.91-.06-1.56-.06-1.57h0s-.26.6-.67,1.5-.7,1.52-1.16,2.55l-1.22-.19c-.17-2.7-.26-4.07-.46-6.82l1.22.23.15,3c.05,1,.1,1.92.1,1.94h0s.36-.81.68-1.52l1.05-2.31,1.31.28c0,1,0,1.51.09,2.5,0,.76.06,1.57.06,1.58h0s.36-.79.78-1.65c.5-1.06.76-1.58,1.26-2.61l1.06.27c-1.15,2.21-1.72,3.37-2.88,5.74l-1.16-.16C472.41,259.32,472.37,258.76,472.3,257.63Z" style="fill:#fafafa"></path><path d="M457.45,268.63c-.39-.17-.59-.26-1-.45.15-1,.22-1.48.36-2.47-.54-1.75-.81-2.61-1.37-4.27l1.15.41c.26.82.38,1.23.64,2.07.15.49.25.88.26.89h0l.48-.62c.48-.59.72-.9,1.21-1.52l1.1.31c-1,1.3-1.52,1.93-2.5,3.11C457.67,267.11,457.6,267.62,457.45,268.63Z" style="fill:#fafafa"></path><path d="M460.89,263.14c1.49.39,2.24.56,3.76.85l-.21,1.21c-1.09-.21-1.63-.33-2.7-.6l-.22,1.36c.8.21,1.2.31,2,.48l-.21,1.22c-.8-.18-1.2-.28-2-.5l-.25,1.53a27.57,27.57,0,0,0,2.68.66c-.08.48-.13.72-.21,1.21a25.85,25.85,0,0,1-3.67-1C460.28,267,460.48,265.71,460.89,263.14Z" style="fill:#fafafa"></path><path d="M465.73,269.58l-.63,1.26-1.1-.19c1.29-2.47,2-3.73,3.3-6.22l1.2.17c.38,2.7.56,4,.91,6.58-.45,0-.68,0-1.13,0-.06-.52-.09-.79-.16-1.31C467.16,269.77,466.68,269.72,465.73,269.58Zm2.06-2.41c-.07-.58-.15-1.18-.16-1.19h0l-.59,1.1-.71,1.37c.66.09,1,.13,1.66.19C467.9,268.06,467.87,267.76,467.79,267.17Z" style="fill:#fafafa"></path><path d="M472.28,269h-.76l-.44,2.18-1.06,0,1.25-6.3c.76.06,1.14.09,1.9.12,1.32.06,1.93.79,1.67,2a2.27,2.27,0,0,1-1.43,1.71c.3.9.46,1.34.76,2.17l-1.25.16C472.66,270.21,472.54,269.8,472.28,269Zm.35-1a1.07,1.07,0,0,0,1.12-.92c.13-.61-.14-.94-.75-.95l-.89,0c-.16.76-.24,1.14-.39,1.9Z" style="fill:#fafafa"></path></g><g id="freepik--balloons--inject-36"><polygon points="56.78 427.43 70.27 419.64 70.27 414.17 70.56 414 70.56 410.03 56.78 417.98 56.78 427.43" style="fill:#FF7D7D"></polygon><polygon points="56.78 427.43 70.27 419.64 70.27 414.17 70.56 414 70.56 410.03 56.78 417.98 56.78 427.43" style="opacity:0.1"></polygon><polygon points="56.78 421.96 61.95 418.98 70.27 414.17 70.27 414.74 56.78 422.53 56.78 421.96" style="opacity:0.15"></polygon><polygon points="56.78 427.43 43.36 419.69 43.36 414.21 43.01 414 43.01 410.03 56.78 417.98 56.78 427.43" style="fill:#FF7D7D"></polygon><polygon points="43.36 414.21 56.78 421.96 56.78 422.53 43.36 414.79 43.36 414.21" style="opacity:0.1"></polygon><polygon points="43.01 410.03 56.78 402.07 70.56 410.03 56.78 417.98 43.01 410.03" style="fill:#FF7D7D"></polygon><polygon points="43.01 410.03 56.78 402.07 70.56 410.03 56.78 417.98 43.01 410.03" style="fill:#fff;opacity:0.4"></polygon><path d="M49.89,423.79a.34.34,0,0,0,.34-.34v-9.26l13.61-7.85a.34.34,0,0,0,.12-.47.33.33,0,0,0-.46-.12L49.72,413.7a.35.35,0,0,0-.17.3v9.45A.34.34,0,0,0,49.89,423.79Z" style="fill:#455a64"></path><path d="M63.78,423.79a.34.34,0,0,0,.34-.34V414a.34.34,0,0,0-.17-.3l-13.77-7.95a.34.34,0,1,0-.34.59l13.6,7.85v9.26A.34.34,0,0,0,63.78,423.79Z" style="fill:#455a64"></path><g id="freepik--balloons--inject-36"><path d="M62,245.83c1,5.85,2.69,11.51,3.85,17.32a47.75,47.75,0,0,1,.62,16.77c-1.55,10.24-6,19.67-9.45,29.37a74.92,74.92,0,0,0-3.78,14.65A44.13,44.13,0,0,0,54,339.6c1.21,5.35,3.14,10.5,4.75,15.74A79.58,79.58,0,0,1,62,372.43a97,97,0,0,1-.29,17.79c-.53,5.1-1.19,10.38-3,15.2a26.59,26.59,0,0,1-2,4.09c-.12.2.24.62.39.39,2.9-4.42,4.21-9.67,5-14.84a101.36,101.36,0,0,0,1.23-17,81,81,0,0,0-2.19-17.74c-1.31-5.34-3.27-10.49-4.84-15.76a49.93,49.93,0,0,1-2.47-16.44,58.83,58.83,0,0,1,3-15.08c3.13-9.86,7.76-19.26,9.92-29.42a45.64,45.64,0,0,0,.7-15.59c-.79-6-2.54-11.77-4-17.6-.4-1.56-.8-3.12-1.14-4.7,0-.24-.3-.18-.26.06Z" style="fill:#e0e0e0"></path><path d="M37.84,278.79c.5,4.75,2.32,9.17,3.85,13.66a44,44,0,0,1,2.48,13.14c.22,8.74-2,17.33-4,25.76-2,8.23-3.92,16.68-3.39,25.2a57.81,57.81,0,0,0,2.68,12.86,79.92,79.92,0,0,0,4.74,12.32c1.95,4,4.38,7.69,6.51,11.58a48.41,48.41,0,0,1,5,12.49c.27,1.18.49,2.39.7,3.59.05.28.59.47.57.08-.46-8.82-5.63-16.55-9.91-24A70.84,70.84,0,0,1,41.41,373c-.73-2.14-1.38-4.31-2-6.48a54.32,54.32,0,0,1-1.54-6.77c-1.2-8.58.51-17.22,2.43-25.56s4.23-16.81,4.5-25.45a41.41,41.41,0,0,0-1.51-12.92C42,291.31,40,287,38.82,282.42a32.66,32.66,0,0,1-.74-3.67c0-.22-.26-.18-.24,0Z" style="fill:#e0e0e0"></path><path d="M45.24,352.89A34.13,34.13,0,0,0,48,359.45c.87,1.72,1.72,3.44,2.43,5.23a74,74,0,0,1,3.2,10.3,123.27,123.27,0,0,1,3.13,23c.17,3.9.14,7.81,0,11.72,0,.15.22.33.26.1a62.58,62.58,0,0,0,.41-10.51q-.16-5.82-.88-11.59a92.52,92.52,0,0,0-5.09-22c-1.7-4.41-4.16-8.46-5.91-12.85-.09-.23-.42-.22-.35.06Z" style="fill:#e0e0e0"></path><path d="M64.4,246.08a3.57,3.57,0,0,0,3.36,3.27,2.47,2.47,0,0,0,2.17-1.13c.15-.29.19-.65-.13-.83a1,1,0,0,0-.81,0,1.94,1.94,0,0,0-1.18.93,2.87,2.87,0,0,0,1.51,3.91,2.34,2.34,0,0,0,2.22-.41,1.69,1.69,0,0,0,.58-.88c.1-.45-.08-1.16-.71-.86a1.91,1.91,0,0,0-.75,2.36,2.22,2.22,0,0,0,2.9,1.08c.32-.13.3.45.09.57a2.58,2.58,0,0,1-3.31-.7,2.79,2.79,0,0,1,.14-3.21,1.83,1.83,0,0,1,1.37-.85,1.06,1.06,0,0,1,1,.86c.29,1.14-.72,2.24-1.69,2.66-2.51,1.08-4.83-1.45-4.21-3.93a3,3,0,0,1,2.8-2.32,1,1,0,0,1,1,1,2,2,0,0,1-.8,1.62,3.56,3.56,0,0,1-3.75.54,3.82,3.82,0,0,1-2.11-3.66c0-.26.32-.31.35,0Z" style="fill:#e0e0e0"></path><path d="M67,245.54h0c-.14-1.53-3.69-5.44-4.29-5.39s-3.09,4.42-2.94,6h0A1.81,1.81,0,0,0,61,247.58a5.61,5.61,0,0,0,5.11-.46,1.81,1.81,0,0,0,.93-1.58Z" style="fill:#FF7D7D"></path><path d="M67,245.54h0c-.14-1.53-3.69-5.44-4.29-5.39s-3.09,4.42-2.94,6h0A1.81,1.81,0,0,0,61,247.58a5.61,5.61,0,0,0,5.11-.46,1.81,1.81,0,0,0,.93-1.58Z" style="opacity:0.4"></path><path d="M81.44,210.76c1.06,11.7-6.78,27.31-18.54,31.2-12.38-2.28-22.78-15.65-23.85-27.36S44.54,191.28,58.19,190,80.38,199.05,81.44,210.76Z" style="fill:#FF7D7D"></path><path d="M81.44,210.76c1.06,11.7-6.78,27.31-18.54,31.2-12.38-2.28-22.78-15.65-23.85-27.36S44.54,191.28,58.19,190,80.38,199.05,81.44,210.76Z" style="opacity:0.2"></path><path d="M40.52,220.63s4.17,11,18.16,10.59c13.47-.35,23-16.05,21.74-25.75a25.92,25.92,0,0,1,1,5.29c1.06,11.7-6.78,27.31-18.54,31.2-10.26-1.89-19.16-11.4-22.51-21.26Z" style="opacity:0.1"></path><path d="M44,354.43a3.77,3.77,0,0,1-4.4,4.71c-1-.25-2.55-1.41-1.5-2.52a1.92,1.92,0,0,1,1.77-.31,2.69,2.69,0,0,1,1.66,1,3.38,3.38,0,0,1-2.42,5.38,2.72,2.72,0,0,1-2.72-1.62,1.25,1.25,0,0,1,1.77-1.54,2.67,2.67,0,0,1,1.31,3.32,2.75,2.75,0,0,1-3.25,1.55c-.31-.1,0-.58.27-.54a2.13,2.13,0,0,0,2.25-1,2.08,2.08,0,0,0-.29-2.21c-.24-.3-.73-.72-1.14-.6-.22.06-.23.05-.24.29a1.27,1.27,0,0,0,0,.28,1.38,1.38,0,0,0,.3.62,2.27,2.27,0,0,0,2.05.76c1.79-.23,2.39-2.5,1.63-3.92a2.21,2.21,0,0,0-2.22-1.23c-.69.11-.24.86.08,1.13a2.48,2.48,0,0,0,1.34.57c2.23.25,3.5-1.92,3.33-3.9,0-.17.31-.5.39-.23Z" style="fill:#e0e0e0"></path><path d="M49.05,353.83h0c-.25-1.51-4.09-5.14-4.68-5s-2.75,4.63-2.48,6.25h0a1.82,1.82,0,0,0,1.3,1.29,5.69,5.69,0,0,0,5.06-.85,1.83,1.83,0,0,0,.8-1.65Z" style="fill:#FF7D7D"></path><g style="opacity:0.4"><path d="M49.05,353.83h0c-.25-1.51-4.09-5.14-4.68-5s-2.75,4.63-2.48,6.25h0a1.82,1.82,0,0,0,1.3,1.29,5.69,5.69,0,0,0,5.06-.85,1.83,1.83,0,0,0,.8-1.65Z"></path></g><path d="M60.77,318.05c1.95,11.59-4.67,27.75-16.1,32.53-12.53-1.34-23.92-13.88-25.87-25.47S22.49,301.44,36,299.17,58.82,306.46,60.77,318.05Z" style="fill:#FF7D7D"></path><path d="M60.77,318.05c1.95,11.59-4.67,27.75-16.1,32.53-12.53-1.34-23.92-13.88-25.87-25.47S22.49,301.44,36,299.17,58.82,306.46,60.77,318.05Z" style="opacity:0.2"></path><path d="M20.73,331s5,10.59,18.9,9.16c13.41-1.37,21.75-17.75,19.72-27.32a26.52,26.52,0,0,1,1.42,5.19c1.95,11.59-4.67,27.75-16.1,32.53-10.38-1.11-20-9.91-24.07-19.49Z" style="opacity:0.1"></path><path d="M36.68,286.35a3.75,3.75,0,0,1-2,6.09c-1,.18-2.72-.1-2.46-1.46s2.33-1.47,3.31-1a3.36,3.36,0,0,1,.36,5.89,2.87,2.87,0,0,1-3.1-.09,1.24,1.24,0,0,1,.63-2.27,2.63,2.63,0,0,1,2.75,2.44,2.74,2.74,0,0,1-2.3,2.76c-.34.05-.22-.51,0-.58a2,2,0,0,0,.33-3.81c-.28-.13-1.29-.42-1.34.18,0,.36.5.75.78.88a2.25,2.25,0,0,0,2.17-.25c1.38-1,1-3.1-.1-4.1a2.39,2.39,0,0,0-1.17-.6,2.07,2.07,0,0,0-1.59.35c-.49.5.47.95.84,1a2.62,2.62,0,0,0,1.33-.13c2-.76,2.24-3.22,1.28-4.92-.1-.18.11-.59.3-.36Z" style="fill:#e0e0e0"></path><path d="M42.36,285.71h0c-.27-1.51-4.13-5.12-4.72-5s-2.72,4.66-2.43,6.27h0a1.79,1.79,0,0,0,1.29,1.28,5.63,5.63,0,0,0,5.06-.88,1.83,1.83,0,0,0,.8-1.65Z" style="fill:#FF7D7D"></path><path d="M42.36,285.71h0c-.27-1.51-4.13-5.12-4.72-5s-2.72,4.66-2.43,6.27h0a1.79,1.79,0,0,0,1.29,1.28,5.63,5.63,0,0,0,5.06-.88,1.83,1.83,0,0,0,.8-1.65Z" style="opacity:0.30000000000000004"></path><path d="M53.85,249.85c2,11.58-4.5,27.79-15.9,32.63-12.53-1.25-24-13.72-26-25.29s3.54-23.7,17-26.06S51.82,238.27,53.85,249.85Z" style="fill:#FF7D7D"></path><path d="M13.88,263.07s5.07,10.57,19,9.05c13.4-1.46,21.63-17.89,19.55-27.45a26.48,26.48,0,0,1,1.45,5.18c2,11.58-4.5,27.79-15.9,32.63-10.39-1-20-9.78-24.19-19.33Z" style="opacity:0.1"></path></g><path d="M56.88,409.47a11.16,11.16,0,0,1-3.9-.35,4.66,4.66,0,0,1-3-1.78c-.61-1.1.58-2,1.59-1.94a4.55,4.55,0,0,1,2.79,1.1,6.22,6.22,0,0,1,1.23,1.33,6.06,6.06,0,0,1,.48.76l.21.4a8,8,0,0,0,.51.78c.1.17.47.22.42,0a3.32,3.32,0,0,0-.28-1.07c-.15-.29-.31-.57-.49-.85a7.27,7.27,0,0,0-1.29-1.53,5.67,5.67,0,0,0-3.38-1.53c-1.17-.09-2.67.51-2.75,1.87s1.69,2.44,2.87,2.84a13.06,13.06,0,0,0,2.55.57,5.7,5.7,0,0,0,2.63-.13c.22-.07,0-.43-.14-.42Z" style="fill:#455a64"></path><path d="M56.84,409.85a4.55,4.55,0,0,0,3.9.25A5.86,5.86,0,0,0,63.89,408a2.5,2.5,0,0,0,.56-1.67,1.35,1.35,0,0,0-1.13-1.06,4.87,4.87,0,0,0-3.72,1.08c-1.2.8-2.5,1.79-2.81,3.26,0,.1.14.38.25.23a10.63,10.63,0,0,1,2.12-2.32,7.52,7.52,0,0,1,3-1.65,1.8,1.8,0,0,1,1.49.17c.39.39-.06,1.16-.29,1.52a5,5,0,0,1-2.62,1.9,5,5,0,0,1-3.8,0c-.25-.07-.21.29-.07.39Z" style="fill:#455a64"></path><path d="M56.71,409.17c-.56-.23-1.15-.36-1.7-.62a6,6,0,0,1-1.33-.85,4.83,4.83,0,0,1-1.63-2.65,5.92,5.92,0,0,1-.06-1.68,1.54,1.54,0,0,1,.21-.75.92.92,0,0,1,.88-.28,3.8,3.8,0,0,1,2.64,2.25,9.92,9.92,0,0,1,1,4.37c0,.26.47.48.52.14a7.86,7.86,0,0,0-.83-4.64,4.74,4.74,0,0,0-3.09-2.68,1.59,1.59,0,0,0-1.71.54,3.42,3.42,0,0,0-.28,1.9,5.3,5.3,0,0,0,1.45,3.38,6.51,6.51,0,0,0,1.65,1.26,5.43,5.43,0,0,0,2.33.76c.32,0,.2-.36,0-.45Z" style="fill:#455a64"></path><path d="M57,409.91a6.22,6.22,0,0,0,3.65-2.09c.89-1,1.7-2.5,1.24-3.84a2.09,2.09,0,0,0-3.19-1,4.79,4.79,0,0,0-1.81,3,11.67,11.67,0,0,0-.36,2,6.53,6.53,0,0,0,0,.88,2,2,0,0,0,.26.9c.06.12.36.26.39,0a29.81,29.81,0,0,1,.28-3,6.69,6.69,0,0,1,1.06-2.69,2.22,2.22,0,0,1,1.53-1,1.21,1.21,0,0,1,1.24.91c.39,1.17-.4,2.53-1.17,3.37a7.12,7.12,0,0,1-1.58,1.26,13.31,13.31,0,0,1-1.68.76c-.23.1,0,.46.17.44Z" style="fill:#455a64"></path><path d="M57,409.17a5,5,0,0,0,1.29,4.49c1,1.16,3.34,2.76,3,4.54a23.1,23.1,0,0,0-.9,2.7,3,3,0,0,0,.6,2.22c.55.68,1.37,1.07,1.94,1.73a2.82,2.82,0,0,1,.15,3.66c-.13.15.17.48.33.34,1.48-1.26,1-3.34-.25-4.57-.7-.68-1.73-1.14-2-2.14s.23-2.2.63-3.23c.72-1.83-.77-3.34-2-4.53a10.9,10.9,0,0,1-1.78-2,7.69,7.69,0,0,1-.79-3.17c0-.09-.14-.17-.16,0Z" style="fill:#455a64"></path><path d="M57,409.14a4.92,4.92,0,0,1-1.85,2.5,4.4,4.4,0,0,0-1.81,2.12,3.75,3.75,0,0,0,.4,2.58,2.2,2.2,0,0,1,.11,1.84,2.26,2.26,0,0,1-1.12.79,1.86,1.86,0,0,0-1.31,1.71c0,1.09.87,1.95.91,3,.05,1.64-2.26,2-2.48,3.62,0,.17.26.41.35.18.56-1.42,2.65-1.81,2.79-3.47.09-1.07-.7-1.9-.88-2.91-.22-1.32.9-1.46,1.75-2,2-1.32-.5-3.53.13-5.2.38-1,1.29-1.52,2.07-2.19a3.72,3.72,0,0,0,1.17-2.43c0-.13-.16-.31-.23-.13Z" style="fill:#455a64"></path><path d="M22.23,247.59c-.94.4-1.4.61-2.3,1.06.21.92.31,1.39.52,2.31l-1,.44c-.49-2.14-.74-3.21-1.23-5.34.4-.27.6-.39,1-.64l.48,2.17c.9-.48,1.36-.71,2.3-1.13-.2-.92-.3-1.39-.49-2.31.42-.22.63-.32,1.06-.52l1.25,6.06c-.43.14-.64.22-1.06.37Z" style="fill:#fafafa"></path><path d="M25.72,247.75c-.07.55-.1.83-.16,1.38l-1.14.36c.36-2.74.55-4.15.94-7,.5-.18.75-.27,1.25-.43,1.39,2.29,2.08,3.49,3.46,5.91l-1.19.27-.67-1.19C27.21,247.3,26.71,247.44,25.72,247.75Zm1.15-3.05-.6-1h0s-.09.63-.17,1.24-.12.93-.19,1.55c.68-.22,1-.32,1.72-.51Z" style="fill:#fafafa"></path><path d="M31.55,240.91a2.13,2.13,0,0,1,2.61,1.91,2,2,0,0,1-1.85,2.47l-.87.15.39,2.19-1.12.21-1.18-6.55C30.33,241.11,30.74,241,31.55,240.91Zm.59,3.23A.91.91,0,0,0,33,243a1,1,0,0,0-1.22-.87c-.36.05-.55.08-.91.15.15.82.22,1.23.36,2.05Z" style="fill:#fafafa"></path><path d="M36.59,240.51a2.42,2.42,0,0,1,2.58,2.14c.19,1.27-.53,2-1.92,2.12l-.87,0c.14.86.2,1.29.34,2.15l-1.13.11c-.42-2.6-.64-3.9-1.06-6.5C35.35,240.53,35.76,240.51,36.59,240.51Zm.52,3.14c.71,0,1-.39.91-1a1.08,1.08,0,0,0-1.22-1l-.92,0c.13.8.19,1.21.32,2Z" style="fill:#fafafa"></path><path d="M43.18,246.77l-1.13,0c-.13-1-.2-1.45-.33-2.42L39,240.58c.54,0,.81.06,1.36.11l1.28,1.86.52.76h0s.14-.31.33-.66c.33-.63.5-.93.84-1.5l1.25.27a27.58,27.58,0,0,0-1.76,3C43,245.36,43.05,245.83,43.18,246.77Z" style="fill:#fafafa"></path><path d="M25.35,256h0s.16.74.32,1.51c.21,1,.32,1.53.53,2.56l-1.06.13-1.25-6,1.07-.27c1.36,1.35,2,2.07,3.41,3.57h0s-.17-.79-.3-1.49c-.21-1.07-.32-1.61-.52-2.68l1.08-.24c.49,2.57.74,3.85,1.23,6.42l-1.1.16C27.4,258.15,26.71,257.39,25.35,256Z" style="fill:#fafafa"></path><path d="M29.63,252.9c1.57-.32,2.36-.47,3.94-.73.09.48.13.72.21,1.21-1.13.19-1.7.29-2.83.51l.25,1.37,2.12-.38.21,1.22-2.11.37c.11.61.17.92.28,1.54l2.83-.49c.08.48.12.73.21,1.21-1.56.28-2.34.41-3.9.65Z" style="fill:#fafafa"></path><path d="M39,255.11c-.36-.84-.58-1.44-.59-1.45h0s0,.65-.11,1.64-.14,1.67-.23,2.8l-1.21.24c-1.08-2.49-1.64-3.75-2.76-6.26l1.23-.2,1.17,2.78.75,1.79h0s.06-.88.11-1.66l.2-2.53,1.33-.18c.38.93.56,1.39.93,2.31.3.71.6,1.46.61,1.47h0s.08-.86.17-1.82c.12-1.16.18-1.74.3-2.88l1.09-.11c-.33,2.47-.47,3.75-.75,6.38l-1.14.24Z" style="fill:#fafafa"></path><path d="M28.82,270.52l-1.06-.09c-.21-1-.31-1.47-.51-2.45-1.1-1.46-1.65-2.18-2.75-3.54h1.22c.52.68.79,1,1.31,1.73.31.41.54.74.55.75h0s.1-.34.24-.75c.25-.72.37-1.09.62-1.84l1.14-.08c-.52,1.57-.77,2.33-1.28,3.77Z" style="fill:#fafafa"></path><path d="M30.19,264.18c1.53-.14,2.3-.24,3.82-.49l.22,1.21c-1.1.18-1.65.25-2.75.36.11.54.16.81.26,1.36.82-.08,1.23-.13,2.06-.24L34,267.6c-.81.11-1.22.15-2,.22.11.61.17.91.28,1.52,1.1-.08,1.65-.13,2.75-.3.08.49.12.73.21,1.21a25.28,25.28,0,0,1-3.79.32C30.93,268,30.68,266.74,30.19,264.18Z" style="fill:#fafafa"></path><path d="M36.94,268.59c-.07.55-.1.83-.17,1.39l-1.1.2c.38-2.76.57-4.17,1-7l1.19-.26,3.1,5.88-1.07.36-.6-1.18C38.35,268.27,37.88,268.39,36.94,268.59Zm1.11-3c-.27-.51-.55-1.05-.55-1.06h0s-.09.62-.17,1.23l-.2,1.54c.65-.14,1-.22,1.62-.39Z" style="fill:#fafafa"></path><path d="M42.88,265.76l-.32.13-.39.15.33,2.19c-.4.17-.59.24-1,.39l-1-6.34c.73-.21,1.1-.31,1.82-.54,1.27-.39,2.09.08,2.25,1.28a2.27,2.27,0,0,1-.77,2.1c.6.74.89,1.1,1.46,1.77-.44.24-.67.36-1.12.58C43.67,266.81,43.41,266.47,42.88,265.76Zm0-1a1,1,0,0,0,.74-1.24c-.09-.62-.45-.84-1-.64l-.86.28c.12.76.18,1.15.29,1.92Z" style="fill:#fafafa"></path></g></g><g id="freepik--character-3--inject-36"><g id="freepik--Character--inject-36"><g id="freepik--Bottom--inject-36"><path d="M414.14,382a92.78,92.78,0,0,1,2.23,9.57c.64,3.62,1.05,6.31,2.42,12.5,1.24,5.64,2.69,9.81-1.36,14.77-3.32,4.07-10.84,5.28-13.15,1.09-2.63-4.78-1.58-11.75-1.46-16.7s-.6-7.38-.72-11.31c-.11-3.46,0-4.89.08-7.88C406.11,383.64,410.22,382.44,414.14,382Z" style="fill:#37474f"></path><path d="M414.14,382c-.25-4.64-.44-10.81-.35-19,.11-9.55,0-10.57-.42-20.66-.35-7.65,1.23-14.35-2.19-28.88,0,0,.53-16.87-1.32-49.05S399.29,225,395.2,219.1l-40.6.56s-4.31,59-5.4,73.63C348.69,300.17,349,312,349,312c.76,13.6,1.19,60.06,1.09,64.33a34.48,34.48,0,0,1-2.28,10.86,75.5,75.5,0,0,1-4.66,11,10.83,10.83,0,0,1-1.72,2.61,32,32,0,0,1-3.18,3c-2.29,1.9-3.43,2.84-3.24,4.6s1.55,2.47,3.1,2.91c3.66,1.06,7.82.62,11.5,0s7.79-2.3,9.36-5.68a13.48,13.48,0,0,0,.89-3.11,43.2,43.2,0,0,1,2.83-10.28,22.77,22.77,0,0,1,2.05-4c1-1.34,2.15-2.8,2.34-4.48.15-1.4-1-3.38-2.42-5.49l0-.05c-1.27-1.84-.92-3.11-.46-8.9.44-5.57,5.05-24.82,6.61-33.22s1.83-12.2,1.75-22.44l6.29-33.95,10.65,35.81c2.51,15,7.09,39.75,8.83,47.81s2.85,13.47,3.78,20c.8,5.7,1.72,17.19,2.69,22.4,1.54,8.33,10.4,5.39,11.54-2.07C417.09,398.72,414.49,388.39,414.14,382Z" style="fill:#ffbda7"></path><path d="M364.11,406.35l-1.35-.19c-.08-4.1.17-7.84-.88-9.77l1.94-5Z" style="fill:#263238"></path><path d="M367.48,387.71c-.31,2.8-2,5.68-2.1,11.21a45.37,45.37,0,0,0,.13,7.07l-1.4.36-.29-15Z" style="fill:#263238"></path><path d="M335.39,410.13s.06,1.64.8,2.17,2.26,2.16,9.74,1.73,10.1-2.21,12.66-4.46,3.24-8.15,3.63-10.93c.75-5.39,3.08-8.21,5.26-10.93a4.64,4.64,0,0,0,.22-2.8s-5,.9-7.72,7.5-5.94,13-12,14.86A106,106,0,0,1,335.39,410.13Z" style="fill:#263238"></path><path d="M367.06,380.81c-1.06-1.81-2-2.31-3.06-3.87a7.68,7.68,0,0,0-2.42,3.8c-.46,1.44-1.67,8.51-3.49,14.14-1.36,4.22-3.64,6.46-6.77,7.61a13,13,0,0,1-6.16.67h0c-3.89-.51-3-3.21-3-3.21-.91,1.19-4.61,4.11-6.81,6.25-1.25,1.22-.67,3.06.27,4.25,1.08.9,3.61,2.7,12.89,1.39,8.24-1.16,10.18-4.83,11-6.48a37.91,37.91,0,0,0,1.73-7.45,23,23,0,0,1,2.91-7.91c.18-.31.37-.59.54-.84h0c.56-.78,1.21-1.65,2-2.52.57-.67,1-1,1.2-1.63A5.88,5.88,0,0,0,367.06,380.81Z" style="fill:#37474f"></path></g><g id="freepik--Top--inject-36"><path d="M301,152.6c0-.73.51-.91,1.09-.88a4.16,4.16,0,0,1,2.37.95,27.37,27.37,0,0,1,2.86,3c1.47,1.53,3.83,4,5.92,4.58.43.12,1.34.22.94-.48a17.77,17.77,0,0,1-1.5-2.78,3.8,3.8,0,0,1,0-3.08,1.32,1.32,0,0,1,.67-.65c.42-.14.61.09.82.38a6.63,6.63,0,0,0,.74.85l1.58,1.72c3.05,3.38,6,7.12,7,11.65.15.66.7,5.66,1.16,8.52.31,2.58,2.92,18.72,2.92,18.72s13.59-13.41,18.93-18.71a23.24,23.24,0,0,1,9.1-5.8,71,71,0,0,1,8.12-2L354.61,195s-16.91,12-24.55,17.31c-6.9,4.82-9.48,3.34-12,.46s-4.43-5.48-3.8-22.58c.07-1.79,0-5-.06-6.83a39.29,39.29,0,0,0-.56-6.87c-.5-2.28-2.27-3-3.42-3.79a20.92,20.92,0,0,1-4.34-3.79,19.16,19.16,0,0,1-3-4.08,5.71,5.71,0,0,1-.93-2.26,19.08,19.08,0,0,0,.24-2,21.76,21.76,0,0,1-.54-2.33,6.93,6.93,0,0,1,.45-1.82,3.2,3.2,0,0,0-.63-2.52A3.06,3.06,0,0,1,301,152.6Z" style="fill:#ffbda7"></path><path d="M327.62,195.14a36.53,36.53,0,0,1,.91,10.74s2.64-6.71.89-12.52Z" style="fill:#f0997a"></path><path d="M315,162.91a13.93,13.93,0,0,0,2.77,7.23,8.18,8.18,0,0,1-2.64-3.26C314.34,164.81,314.55,163.82,315,162.91Z" style="fill:#f0997a"></path><g id="freepik--glass-of-wine--inject-36"><path d="M310.29,157a.75.75,0,0,1,.74.75L311,174.37a1.54,1.54,0,0,0,1.32,1.53c1.64.24,2.78.79,2.77,1.57,0,1.08-2.18,1.94-4.85,1.92s-4.84-.9-4.83-2c0-.78,1.12-1.3,2.75-1.53a1.54,1.54,0,0,0,1.35-1.52l.07-16.65A.74.74,0,0,1,310.29,157Z" style="fill:#FF7D7D"></path><path d="M310.29,157a.75.75,0,0,1,.74.75L311,174.37a1.54,1.54,0,0,0,1.32,1.53c1.64.24,2.78.79,2.77,1.57,0,1.08-2.18,1.94-4.85,1.92s-4.84-.9-4.83-2c0-.78,1.12-1.3,2.75-1.53a1.54,1.54,0,0,0,1.35-1.52l.07-16.65A.74.74,0,0,1,310.29,157Z" style="fill:#fff;opacity:0.30000000000000004"></path><path d="M309.55,157.7a.74.74,0,0,1,.74-.74.75.75,0,0,1,.74.75v4.15a2.36,2.36,0,0,1-1.49,0Z" style="fill:#FF7D7D"></path><path d="M304.33,134c.43-1.29,2.76-2.28,5.88-2.28s5.42.92,5.86,2.32,2.16,15.36,2.14,19a8,8,0,0,1-16,.05A157.28,157.28,0,0,1,304.33,134Z" style="fill:#FF7D7D"></path><g style="opacity:0.30000000000000004"><path d="M304.33,134c.43-1.29,2.76-2.28,5.88-2.28s5.42.92,5.86,2.32,2.16,15.36,2.14,19a8,8,0,0,1-16,.05A157.28,157.28,0,0,1,304.33,134Z" style="fill:#fff"></path></g><path d="M315.57,141.73c.52,4.32,1,9.35,1,11.32a6.39,6.39,0,0,1-12.73,0c0-1.94.47-7,1-11.36C305.14,139.88,315.3,139.88,315.57,141.73Z" style="fill:#FF7D7D"></path><g style="opacity:0.4"><path d="M315.57,141.73c.52,4.32,1,9.35,1,11.32a6.39,6.39,0,0,1-12.73,0c0-1.94.47-7,1-11.36C305.14,139.88,315.3,139.88,315.57,141.73Z"></path></g><path d="M314.07,157c3.79-3.55,3.17-15,2.4-20.85.68,4.36,1.76,14,1.74,16.95a7.56,7.56,0,0,1-8,7.43,8.19,8.19,0,0,1-4.85-1.42A9.53,9.53,0,0,0,314.07,157Z" style="opacity:0.2"></path><g style="opacity:0.2"><path d="M307.46,158.35c0,.62,1.23,1.12,2.75,1.12s2.75-.5,2.75-1.12-1.23-1.13-2.75-1.13S307.46,157.73,307.46,158.35Z" style="fill:#FF7D7D"></path></g><path d="M304.9,134.37c0,1.19,2.37,2.17,5.31,2.17s5.31-1,5.31-2.17-2.38-2.17-5.31-2.17S304.9,133.17,304.9,134.37Z" style="fill:#FF7D7D"></path></g><path d="M406,232.75c-1.44-2.8-3.34-5.4-5.75-9.33-2.66-4.34-6-7.67-4.4-12.46.72-2.14,3.46-7.93,6-15.48,1.84-5.37.42-7-.41-13.28-.88-6.74-4-11.1-6.2-12.26a161.44,161.44,0,0,0-16.55-1.68,112.45,112.45,0,0,0-15,.41c-4,3.58-8.41,7.42-13.12,15-2.82,4.53-5.18,12.07,2.88,19.09,0,1.4-.19,7.18-.14,14-1.35,9.44-2.25,13.05-4,26.19-2.88,24.69-4.81,49.82-6,93,15.06,13.81,57.61,7.68,57.61,7.68l-1.31-94.4L412,340.82s7.06-1.49,8.86-3.51C416.64,298.81,413.54,248.27,406,232.75Z" style="fill:#37474f"></path><path d="M366.36,203.35s5.29,5.3,12.3,3.77a12.06,12.06,0,0,0,6.85-4,.48.48,0,0,1,.8.53c-1.1,2.21-3.37,4.73-8,5.54A11.17,11.17,0,0,1,366.36,203.35Z" style="opacity:0.15"></path><path d="M399.62,144.91c0,12.7-10.79,16.3-11.92,18-7.53,0-16.18-22.55-26.13-21.08-3.77.55-8.37-4.84-7.19-11,1.95-10.09,11.66-15.66,24-13.89,8.66,1.25,12.53,3.42,14.55,10.2C400.05,129.35,399.62,138.54,399.62,144.91Z" style="fill:#263238"></path><path d="M363.56,126.86c-1.51.69-5.66,5.74-5.21,19.31.37,11.16,2.34,13.79,5.4,15.1a19.14,19.14,0,0,0,7.41,1.08v6.42s-10.24,9.77-1.16,10.77c5.65.63,9.3-1.4,12.64-4a15.53,15.53,0,0,0,4.71-5.71l.87-15s2.15,2.16,5.74-.57c3-2.25,3.53-6.83,1.51-9.2a5.06,5.06,0,0,0-8,1s-3.29,2.9-4-4.1c-.29-2.87-.3-7.81-5.91-8.59C370.26,132.38,365.52,132.67,363.56,126.86Z" style="fill:#ffbda7"></path><path d="M371.16,162.35c3.61-.22,10.86-2.16,12.68-6.09,0,0-.41,3.43-2.76,5.14-3.58,2.61-9.93,3.27-9.93,3.27Z" style="fill:#f0997a"></path><path d="M374.13,151.48l-6.07,1.68a3.1,3.1,0,0,0,3.82,2.3A3.3,3.3,0,0,0,374.13,151.48Z" style="fill:#b16668"></path><path d="M370.5,155.5a2.92,2.92,0,0,1,3.09-2.7,2.61,2.61,0,0,1,.57.09,3.25,3.25,0,0,1-2.28,2.57A2.94,2.94,0,0,1,370.5,155.5Z" style="fill:#f28f8f"></path><polygon points="368.83 140.48 368.04 149.78 363.24 147.81 368.83 140.48" style="fill:#f0997a"></polygon><path d="M364.07,141.19a1.6,1.6,0,0,1-1.41,1.7,1.48,1.48,0,0,1-1.67-1.34,1.59,1.59,0,0,1,1.4-1.71A1.5,1.5,0,0,1,364.07,141.19Z" style="fill:#263238"></path><path d="M376,142.17a1.59,1.59,0,0,1-1.4,1.71,1.5,1.5,0,0,1-1.68-1.35,1.59,1.59,0,0,1,1.4-1.7A1.49,1.49,0,0,1,376,142.17Z" style="fill:#263238"></path><circle cx="361.12" cy="141.37" r="4.92" style="fill:#FF7D7D;opacity:0.30000000000000004"></circle><path d="M379.55,142.29a4.92,4.92,0,1,1-4.92-4.92A4.92,4.92,0,0,1,379.55,142.29Z" style="fill:#FF7D7D;opacity:0.30000000000000004"></path><path d="M391.35,143.57l-11.33-2a5.43,5.43,0,0,0-10.59-.84,2.2,2.2,0,0,0-1.16-.51,2.65,2.65,0,0,0-1.77.4,5.45,5.45,0,1,0,0,1.61h0a1.55,1.55,0,0,1,1.63-.93,1.14,1.14,0,0,1,1,1.09h0a5.45,5.45,0,0,0,10.89.29l9.12,1.65A5.2,5.2,0,0,1,391.35,143.57Zm-30.23,2.17a4.38,4.38,0,1,1,4.37-4.37A4.38,4.38,0,0,1,361.12,145.74Zm13.51.92a4.38,4.38,0,1,1,4.37-4.37A4.38,4.38,0,0,1,374.63,146.66Z" style="fill:#FF7D7D"></path><path d="M376.58,135.77l3.2,2.41a1.92,1.92,0,0,0-.32-2.77A2.1,2.1,0,0,0,376.58,135.77Z" style="fill:#263238"></path><path d="M360.23,135.51l3.85-1.11a1.92,1.92,0,0,0-2.41-1.41A2.11,2.11,0,0,0,360.23,135.51Z" style="fill:#263238"></path><path d="M433.56,163.56c-1.82,2.1-10.61,9.26-20.68,17.78-5.72,4.84-8.84,7.49-11,14.14-13.89-6.63-6.61-25.54-6.61-25.54s22.79-14.32,25.47-17.66c0,0,.91-4.9,1.38-7.19.77-3.74,3.69-17.29,4.46-23.35.17-1.28-1.37-3.78-2.16-4.81-2.32-3-2.41-4.4-3.95-7.22-1.2-2.22-2.52-3-2.14-3.54a2.87,2.87,0,0,1,3.88-.3,12.1,12.1,0,0,1,3.32,2.53c-.17-.89-.38-1.79-.57-2.61-.3-1.21-.6-2.48-1-3.67-.58-1.64-.84-2.38-1.07-3.21-1.11-4.11-1.25-5.84-.9-7.41a1.86,1.86,0,0,1,1.22-1.43c1.31-.36,2.06,1.55,2.51,2.41a.54.54,0,0,0,.15.21.61.61,0,0,0,.35.09,3.18,3.18,0,0,1,2.69,1.33c.18.34.29.77.64,1a1.77,1.77,0,0,0,.61.1A2.94,2.94,0,0,1,432.62,97c.09.25.16.55.4.68a1.22,1.22,0,0,0,.42.09,3.28,3.28,0,0,1,1.92,1.09,9.46,9.46,0,0,1,1.25,1.86A19.74,19.74,0,0,1,439,106a41.89,41.89,0,0,1,.84,6.22,119.18,119.18,0,0,1-.2,13.2c-.54,10.11-1.51,19.8-2.4,28.32C436.79,157.73,437.3,159.24,433.56,163.56Z" style="fill:#ffbda7"></path><path d="M428.17,110.09c3,1.56,5.27,3.94,5.58,6.87C434.23,113.65,431.84,110.06,428.17,110.09Z" style="fill:#f0997a"></path><path d="M388.21,154.89c-.15,2.62-4.11,8.63-6.09,9,2.86,2,7.73.67,9.23-1-.2,1.83-1.53,2.51-3.08,3.12,3.57,1.95,9.24-.33,10.73-5.57s.63-18.17.63-18.17-.6,8.7-4.24,12.06S388.31,157,388.21,154.89Z" style="fill:#263238"></path><g id="freepik--Hat--inject-36"><path d="M370.34,116.92c.9,9.78,18.11,17,26.65,13.11L398,92.22Z" style="fill:#FF7D7D"></path><path d="M396.26,129.37a1.66,1.66,0,0,0,.25.85L397,130l.06-2A1.6,1.6,0,0,0,396.26,129.37Z" style="fill:#fff"></path><path d="M381.7,111.62a1.62,1.62,0,1,0-1.62-1.61A1.61,1.61,0,0,0,381.7,111.62Z" style="fill:#fff"></path><path d="M397.32,118l.09-3.06a1.61,1.61,0,0,0-.69,2.69,1.63,1.63,0,0,0,.51.34A.32.32,0,0,0,397.32,118Z" style="fill:#fff"></path><path d="M393,97.07a1.62,1.62,0,1,0,3.23,0,1.6,1.6,0,0,0-1-1.48,1.18,1.18,0,0,0-.3-.1,1.84,1.84,0,0,0-.33,0,1.52,1.52,0,0,0-.21,0L393,96.67A1.76,1.76,0,0,0,393,97.07Z" style="fill:#fff"></path><path d="M396.22,103.52a1.61,1.61,0,0,0,.71,1.34,1.55,1.55,0,0,0,.58.24.5.5,0,0,0,.17,0l.09-3.21A1.62,1.62,0,0,0,396.22,103.52Z" style="fill:#fff"></path><path d="M395.52,111.33a1.68,1.68,0,0,0,.68-1,1.66,1.66,0,0,0,0-.32,1.61,1.61,0,0,0-.13-.63,1.51,1.51,0,0,0-.15-.28,1.55,1.55,0,0,0-.71-.58,1.6,1.6,0,0,0-2.11.86,1.48,1.48,0,0,0-.13.63,1.84,1.84,0,0,0,0,.33c0,.1.06.2.1.3a1.5,1.5,0,0,0,.35.51,1.6,1.6,0,0,0,1.14.47A1.64,1.64,0,0,0,395.52,111.33Z" style="fill:#fff"></path><path d="M371.38,118a1.51,1.51,0,0,0,.63.13,1.84,1.84,0,0,0,.33,0,2.64,2.64,0,0,0,.3-.1,1.41,1.41,0,0,0,.51-.35,1.57,1.57,0,0,0,.48-1.14,1.62,1.62,0,0,0-1.1-1.52l-2.08,1.86A1.58,1.58,0,0,0,371.38,118Z" style="fill:#fff"></path><path d="M375.25,124.56a1.62,1.62,0,1,0,0-3.23,1.61,1.61,0,0,0-1.19,2.69l.11.12A1.62,1.62,0,0,0,375.25,124.56Z" style="fill:#fff"></path><path d="M394.64,124.53a1.62,1.62,0,1,0-1.62-1.62A1.62,1.62,0,0,0,394.64,124.53Z" style="fill:#fff"></path><path d="M388.18,124.54a1.62,1.62,0,1,0-1.62-1.62A1.62,1.62,0,0,0,388.18,124.54Z" style="fill:#fff"></path><path d="M391.4,118.07a1.62,1.62,0,1,0-1.62-1.61,1.59,1.59,0,0,0,.71,1.33,1.76,1.76,0,0,0,.58.25A1.84,1.84,0,0,0,391.4,118.07Z" style="fill:#fff"></path><path d="M386.57,129.38a1.62,1.62,0,0,0-1.62-1.61,1.69,1.69,0,0,0-.63.13,1.43,1.43,0,0,0-.27.15,1.57,1.57,0,0,0-.71,1.34,1.26,1.26,0,0,0,0,.27,27.94,27.94,0,0,0,2.76.81A1.59,1.59,0,0,0,386.57,129.38Z" style="fill:#fff"></path><path d="M389.83,129.7a1.67,1.67,0,0,0,.25.58,1.63,1.63,0,0,0,.43.44,1.74,1.74,0,0,0,.58.24l.33,0a1.62,1.62,0,0,0,1.14-.47,1.64,1.64,0,0,0,.44-.82,1.76,1.76,0,0,0,0-.33,1.62,1.62,0,0,0-.47-1.14,1.64,1.64,0,0,0-1.15-.47,1.62,1.62,0,0,0-1.61,1.62A1.66,1.66,0,0,0,389.83,129.7Z" style="fill:#fff"></path><path d="M384.29,105a1.61,1.61,0,0,0,2.24-1.49,1.51,1.51,0,0,0-.25-.84l-2.35,2.09A1.74,1.74,0,0,0,384.29,105Z" style="fill:#fff"></path><path d="M380.23,123.56a1.51,1.51,0,0,0,.15.28,1.61,1.61,0,0,0,2.82-.28,1.69,1.69,0,0,0,.13-.63,1.84,1.84,0,0,0,0-.33c0-.1-.06-.2-.1-.3a1.5,1.5,0,0,0-.35-.51,1.52,1.52,0,0,0-1.14-.47,1.61,1.61,0,0,0-1.61,1.61A1.45,1.45,0,0,0,380.23,123.56Z" style="fill:#fff"></path><path d="M379.61,115.33a1.62,1.62,0,1,0,.35,1.77c0-.1.07-.2.1-.3a1.84,1.84,0,0,0,0-.33A1.59,1.59,0,0,0,379.61,115.33Z" style="fill:#fff"></path><path d="M384.94,118.08a1.66,1.66,0,0,0,.32,0,1.67,1.67,0,0,0,.58-.25,1.47,1.47,0,0,0,.43-.43,1.76,1.76,0,0,0,.25-.58,1.84,1.84,0,0,0,0-.33,1.59,1.59,0,0,0-.48-1.14,1.54,1.54,0,0,0-1.14-.47,1.62,1.62,0,1,0,0,3.23Z" style="fill:#fff"></path><path d="M388.16,111.61a1.62,1.62,0,1,0-1.62-1.61A1.61,1.61,0,0,0,388.16,111.61Z" style="fill:#fff"></path><path d="M393,103.53a1.61,1.61,0,0,0-1.62-1.61,1.59,1.59,0,0,0-1.48,1,1.12,1.12,0,0,0-.1.31,1.66,1.66,0,0,0,0,.32,1.61,1.61,0,0,0,.71,1.34,1.58,1.58,0,0,0,.91.28A1.62,1.62,0,0,0,393,103.53Z" style="fill:#fff"></path><path d="M402.45,103.81l-1.56,1.24c-1-1.41-1.05-3.91-.41-7S398,93,398,93l0-.73a5.61,5.61,0,0,1,3.42,2.9c1.13,2-.09,4.44.06,6.23A3.6,3.6,0,0,0,402.45,103.81Z" style="fill:#FF7D7D"></path><path d="M398,93s2.92-1,4.76.73,1.37,3.07,1.81,4.74a3.75,3.75,0,0,0,3.45,2.67l.26-1.57s-1.91-.56-2.24-2.06c-.38-1.73-1.15-4.35-3.07-5.22a6.23,6.23,0,0,0-4.94,0Z" style="fill:#FF7D7D"></path><path d="M398,93s2.92-1,4.76.73,1.37,3.07,1.81,4.74a3.75,3.75,0,0,0,3.45,2.67l.26-1.57s-1.91-.56-2.24-2.06c-.38-1.73-1.15-4.35-3.07-5.22a6.23,6.23,0,0,0-4.94,0Z" style="opacity:0.1"></path><path d="M398,93a10.35,10.35,0,0,1,4-2.37c2.51-.68,4.07.68,5.29,1.66,1.47,1.19,2.43,1.4,3.29,1.27L410.57,92a5.88,5.88,0,0,1-3.26-1.45,5.82,5.82,0,0,0-6.06-.71A8.59,8.59,0,0,0,398,92.22Z" style="fill:#FF7D7D"></path><path d="M398,93a10.35,10.35,0,0,1,4-2.37c2.51-.68,4.07.68,5.29,1.66,1.47,1.19,2.43,1.4,3.29,1.27L410.57,92a5.88,5.88,0,0,1-3.26-1.45,5.82,5.82,0,0,0-6.06-.71A8.59,8.59,0,0,0,398,92.22Z" style="opacity:0.2"></path></g></g></g></g><g id="freepik--character-2--inject-36"><g id="freepik--character--inject-36"><g id="freepik--bottom--inject-36"><path d="M303.91,339c-3.18-11.14-3.87-31.59-5.73-41.72-2.16-11.87-11.75-23.2-11.75-23.2s.57-28.4.83-42.09c.65-34.53-5.91-42.35-10.34-50.34-1.34-2.43-6.62-11-6.62-11l-39.55.91c-.92,5.81-2.81,10.76-3.91,25-1,19.75-2.71,69.36-1.18,88.44,1.17,14.62,4,55.06,4.28,56.6a6.82,6.82,0,0,0,7.44,3.6c4.51-1,7-6.21,6.93-6.69l.19-1.83c.34-10.82,5-27.26,5.76-38.32a156.7,156.7,0,0,0,.09-18.24l4.16-29.92a219.72,219.72,0,0,0,12,40.69C272.43,305.08,292.3,347,292.3,347c1.85,4.42,11.3,1.61,12.12-6.17Z" style="fill:#f28f8f"></path><path d="M303.91,339c2.38-.54,2.5,7.8,4.2,12.78,1.81,5.33,4.73,8.84,6.28,13.2,1.76,5,1.69,7.26.46,12-1,3.69-8.29,10.22-12.43,6.28s-6-9.14-6.68-14.36A82,82,0,0,0,292.92,356c-1.25-4.25-3.95-11.67-2.22-12.34l1.15,2.42c1.5,1.65,12.1-1.22,12.57-5.2Z" style="fill:#37474f"></path><path d="M246.36,348.51c.67,2.61.09,9.79.09,9.79s-1.11,2.49-5.13,4.19l-1.93-10Z" style="fill:#263238"></path><polygon points="241.32 362.49 232.38 359.66 230.14 351.78 240.14 356.38 241.32 362.49"></polygon><path d="M229.87,340.05l-.23-2.47c-1.2.61-1.08,10.4-7.38,17.37-4.66,5.14-10,8.22-12.1,10.9-2.79,3.58,4.07,9.35,12.88,7.37,4.37-1,11-3.87,12.73-6.84s2.92-7.81,4.37-10,5.53-3.94,6.45-6.35c1-2.67.08-6.23-.7-8.67-.71-2.25-.35-4.67-1.39-4.7l-.19,1.83c-.58,1.21-4.09,2.87-8.54,3.16C233.65,341.8,230.86,342,229.87,340.05Z" style="fill:#37474f"></path></g><g id="freepik--top--inject-36"><path d="M262.5,151.05a14.11,14.11,0,0,0,1.7-1.67c2.58-3,4.08-7.1,7.51-9.07,2.11-1.21,4.79-1.08,6.84-2.26,1.59-.92,2.88-3,3.68-4.6a17.76,17.76,0,0,0,1-12.3c-1.06-3.93-3.24-6.69-5.8-9.73-2.21-2.63-1.63-6-1.36-9.27s.62-6.87-.26-10.16a10.73,10.73,0,0,0-3.56-5.64A17.82,17.82,0,0,0,269.62,85c-.88-.49-.89-.92-1.23-1.88-1.28-3.71-4.4-5.72-8-6.89A39.19,39.19,0,0,0,246.91,75c-4.07.55-7.13,1.22-11.24,1.17-1.06,0-3.57-.21-4.46.38a3.52,3.52,0,0,0-1.44,4c.39,1.8,2.31,3.29,2.11,5.68-1.12,1.18-2.55,3.37-.77,4.66a3.76,3.76,0,0,0,1.76.62,12.7,12.7,0,0,0-2,2.09A4.7,4.7,0,0,0,230,96.3a2.91,2.91,0,0,0,1.28,2.45,5.11,5.11,0,0,0,1.14.45L235,100c-.21.35-.37.61-.43.69-2.14,3-5.35,5.84-6,9.61-.81,4.34,3.46,7.21.44,11.59a20.25,20.25,0,0,1-3.36,3.31c-3,2.77-5.34,7-4,10.93,1.11,3.36,4.49,5.41,7.79,6.67s6.88,2.1,9.64,4.31c1.39,1.11,2.51,2.53,3.84,3.71a15,15,0,0,0,19.68.25Z" style="fill:#263238"></path><path d="M158.66,111.51a6,6,0,0,0,1.7,4.08,5.56,5.56,0,0,1,1.14,4.46c-.11,1.13-1.14,7.45-1.75,8.79a11.62,11.62,0,0,1-1.16,2.08,4,4,0,0,0,1.56,2.09,16,16,0,0,0,2.77,1.46s3.3-8,2.33-12.89S163,114.43,158.66,111.51Z" style="fill:#b16668"></path><path d="M162.7,138.41h.08a.41.41,0,0,0,.39-.4l-1-51.37a.41.41,0,0,0-.4-.39.4.4,0,0,0-.39.41l1,51.36A.41.41,0,0,0,162.7,138.41Z" style="fill:#263238"></path><path d="M164.92,84.51a11.2,11.2,0,0,1,4-.73,14.59,14.59,0,0,1,4,.54,18.08,18.08,0,0,1,3.64,1.49c.6.24,1.14.62,1.75.87a7.12,7.12,0,0,0,1.95.68l.14-.2a5.48,5.48,0,0,0-1.44-1.55c-.29-.2-.6-.37-.9-.55a5.84,5.84,0,0,0-.94-.46c-.33-.13-.65-.27-1-.38s-.68-.19-1-.28a8.4,8.4,0,0,0-1-.23c-.34-.06-.68-.13-1-.18a16.79,16.79,0,0,0-4.13,0,14.45,14.45,0,0,0-4,1Z" style="fill:#FF7D7D"></path><path d="M164.05,85.32a6.11,6.11,0,0,1,2.52,0,9.76,9.76,0,0,1,2.37.81A16.64,16.64,0,0,1,171,87.4a10.06,10.06,0,0,0,1.05.63,2.8,2.8,0,0,0,1.3.36l.15-.19a2.67,2.67,0,0,0-.73-1.19,6.86,6.86,0,0,0-1.09-.76,7,7,0,0,0-1.24-.51c-.42-.15-.85-.27-1.28-.38a12.18,12.18,0,0,0-2.6-.33,8.78,8.78,0,0,0-2.56.26Z" style="fill:#FF7D7D"></path><path d="M162.64,85.71a10.5,10.5,0,0,1,.29-4.89,12.34,12.34,0,0,1,2.33-4.25,17.49,17.49,0,0,1,3.66-3.1c.66-.46,1.38-.83,2-1.31a9.26,9.26,0,0,0,2-1.51l-.1-.23a8.86,8.86,0,0,0-2.49.64c-.38.19-.75.41-1.12.62a10.46,10.46,0,0,0-1.08.7,14.14,14.14,0,0,0-1.91,1.72c-.28.33-.6.62-.85,1l-.77,1a13.39,13.39,0,0,0-2,4.65,11.73,11.73,0,0,0-.06,5Z" style="fill:#FF7D7D"></path><path d="M164,84.46a12.72,12.72,0,0,1,1.82-2.65,13.89,13.89,0,0,1,2.39-2.09A12.38,12.38,0,0,1,171,78.3c.23-.1.47-.19.7-.3a4.66,4.66,0,0,0,.71-.26c.23-.11.47-.23.71-.33a4.78,4.78,0,0,0,.71-.49l0-.24a4.21,4.21,0,0,0-3.35.4,11.53,11.53,0,0,0-2.71,2,17.3,17.3,0,0,0-2.09,2.54A20.3,20.3,0,0,0,164,84.45Z" style="fill:#FF7D7D"></path><path d="M168.37,81.33a14.22,14.22,0,0,1,2.33-1.11,21.66,21.66,0,0,1,2.44-.79A18.45,18.45,0,0,1,178.2,79a16,16,0,0,1,2.49.3c.4.1.8.23,1.2.33l.6.16.58.22c1.6.47,2.94,1.36,4.71,1.8l.14-.2a8.27,8.27,0,0,0-4.44-2.87l-.64-.2c-.22-.06-.45-.08-.67-.12-.44-.07-.88-.14-1.32-.19l-1.33-.06a11.81,11.81,0,0,0-1.33,0,20,20,0,0,0-5.12,1,23,23,0,0,0-4.71,2.13Z" style="fill:#FF7D7D"></path><path d="M163.52,86.7a21.84,21.84,0,0,1,4,2.54,24.81,24.81,0,0,1,3.34,3.3,21.1,21.1,0,0,1,1.42,1.85l.61,1a9.94,9.94,0,0,1,.59,1,28.36,28.36,0,0,0,2.5,4l.23-.08a8.33,8.33,0,0,0-1.59-4.58A20.31,20.31,0,0,0,171.42,92a27.42,27.42,0,0,0-3.76-3,28.14,28.14,0,0,0-4.13-2.35Z" style="fill:#FF7D7D"></path><path d="M166.34,90.73a23.62,23.62,0,0,1,3.28,8.81,20.39,20.39,0,0,1,.13,4.61c-.09,1.54-.49,2.92-.49,4.61l.23.09a7.2,7.2,0,0,0,1.6-4.63,18.2,18.2,0,0,0-.69-4.84,27.13,27.13,0,0,0-1.72-4.5,32.42,32.42,0,0,0-2.31-4.16Z" style="fill:#FF7D7D"></path><path d="M163.24,88.74a16.45,16.45,0,0,1,.77,3.54,17.23,17.23,0,0,1,0,3.59,14.55,14.55,0,0,1-.84,3.38,22.85,22.85,0,0,0-1.22,3.29l.19.16a4.7,4.7,0,0,0,2.3-3,13.13,13.13,0,0,0,.37-3.78,21.39,21.39,0,0,0-.53-3.66,28,28,0,0,0-1-3.5Z" style="fill:#FF7D7D"></path><path d="M161.65,91.1a24.84,24.84,0,0,1-1.88,5.22,26.26,26.26,0,0,1-3,4.63,21.39,21.39,0,0,1-3.91,3.76l-1.06.82c-.38.24-.76.48-1.12.75l-.54.4-.57.38a9.87,9.87,0,0,0-1.1.9l.09.22a9.55,9.55,0,0,0,5.14-2.43,19.85,19.85,0,0,0,3.71-4.33,28.43,28.43,0,0,0,2.58-5,31,31,0,0,0,1.66-5.33Z" style="fill:#FF7D7D"></path><path d="M160.73,88.35a19.56,19.56,0,0,1-2.06,3.32A23,23,0,0,1,156,94.53a21.65,21.65,0,0,1-3,2.31,16.6,16.6,0,0,0-3.11,2.28l.09.23a6,6,0,0,0,3.79-1.42,17.93,17.93,0,0,0,2.86-2.85,26.79,26.79,0,0,0,2.27-3.26,31.23,31.23,0,0,0,1.87-3.46Z" style="fill:#FF7D7D"></path><path d="M160.52,86.56a20.89,20.89,0,0,1-2.17,2.34c-.77.74-1.59,1.43-2.42,2.09a29.49,29.49,0,0,1-5.46,3.23,23.48,23.48,0,0,1-6,1.77l-1.53.25c-.52,0-1,.08-1.55.14-.26,0-.51.08-.77.1l-.79,0a13.55,13.55,0,0,0-1.6.25l0,.24a11.15,11.15,0,0,0,1.6.44l.81.14c.28,0,.55,0,.83,0,.55,0,1.1,0,1.65,0s1.09-.19,1.63-.28a22.22,22.22,0,0,0,6.09-2.37,30.64,30.64,0,0,0,5.27-3.74,32.78,32.78,0,0,0,4.44-4.61Z" style="fill:#FF7D7D"></path><path d="M158,87.13a10.94,10.94,0,0,1-2.32,1.4,12.62,12.62,0,0,1-2.57.77,11.25,11.25,0,0,1-2.58.11c-.21,0-.42,0-.63,0s-.42,0-.63,0a4.53,4.53,0,0,0-1.39.2l-.08.23a3.23,3.23,0,0,0,2.73,1,9.12,9.12,0,0,0,2.8-.68,13.5,13.5,0,0,0,2.47-1.3A18.76,18.76,0,0,0,158,87.15Z" style="fill:#FF7D7D"></path><path d="M161.06,85a18.4,18.4,0,0,1-6-1.21,20.34,20.34,0,0,1-5.25-3,21.89,21.89,0,0,1-4.14-4.3c-.66-.74-1.14-1.63-1.76-2.41a17.44,17.44,0,0,0-1.89-2.42l-.22.11a11,11,0,0,0,1,3c.27.46.55.9.84,1.34a8.76,8.76,0,0,0,.95,1.25c.35.4.68.8,1,1.18s.78.71,1.17,1.06a11.49,11.49,0,0,0,1.23,1,11.33,11.33,0,0,0,1.28.9A20.91,20.91,0,0,0,155,84a20.49,20.49,0,0,0,6.05,1Z" style="fill:#FF7D7D"></path><path d="M155.32,86.17a26.69,26.69,0,0,1-4.73-.34A30.64,30.64,0,0,1,146,84.65a26.56,26.56,0,0,1-4.22-2l-1-.56c-.34-.19-.64-.41-1-.59s-.69-.36-1-.56a8.2,8.2,0,0,0-1.12-.48l-.17.18a8,8,0,0,0,3.69,3.19,22,22,0,0,0,4.62,1.53,32,32,0,0,0,4.75.68,34.54,34.54,0,0,0,4.77.1Z" style="fill:#FF7D7D"></path><path d="M160.75,83.67a25.15,25.15,0,0,1-3.13-5.09,22.69,22.69,0,0,1-1.75-5.65,17.06,17.06,0,0,1,0-5.79c.24-1.92.92-3.66,1.32-5.69l-.21-.12A9.28,9.28,0,0,0,154.53,67a13.47,13.47,0,0,0,0,3.11,19.24,19.24,0,0,0,.55,3,24.06,24.06,0,0,0,2.29,5.6,30,30,0,0,0,3.35,5Z" style="fill:#FF7D7D"></path><path d="M161.13,81.4a24.14,24.14,0,0,1,2-5.78,20.58,20.58,0,0,1,3.46-5,15.45,15.45,0,0,1,4.81-3.44c.43-.23.9-.38,1.34-.58s.92-.35,1.39-.48c.94-.33,1.9-.57,2.89-1l0-.25A9.41,9.41,0,0,0,170.8,66a13.26,13.26,0,0,0-2.63,1.82A17.37,17.37,0,0,0,166,70.12a21.84,21.84,0,0,0-3.11,5.39,28.15,28.15,0,0,0-1.77,5.89Z" style="fill:#FF7D7D"></path><path d="M158.33,83.39a9.17,9.17,0,0,1-3.16-1.23,13.41,13.41,0,0,1-2.6-2.14,18.87,18.87,0,0,1-2-2.66c-.34-.43-.6-.93-1-1.35a4.76,4.76,0,0,0-1.25-1.24l-.22.11a4.33,4.33,0,0,0,.4,1.77c.13.27.29.52.44.77a6.27,6.27,0,0,0,.5.73,10.73,10.73,0,0,0,1.22,1.3A16.38,16.38,0,0,0,152,80.61a15.25,15.25,0,0,0,3,1.79,11.94,11.94,0,0,0,3.29,1Z" style="fill:#FF7D7D"></path><path d="M157.31,80.91a13.59,13.59,0,0,1-2.41-2.56,14.4,14.4,0,0,1-1.67-3,12,12,0,0,1-.74-3.28c0-.28,0-.55-.09-.82s0-.55,0-.83l-.06-.42,0-.42a4.8,4.8,0,0,0-.22-.91l-.24-.05a4.64,4.64,0,0,0-.65,3.64,10.93,10.93,0,0,0,1.35,3.44,16.52,16.52,0,0,0,2.17,2.87,21.15,21.15,0,0,0,2.6,2.41Z" style="fill:#FF7D7D"></path><path d="M160.05,79.2a9.84,9.84,0,0,1-.81-2.64,10.43,10.43,0,0,1-.06-2.73,8.84,8.84,0,0,1,.68-2.53c.07-.2.15-.4.21-.6a5.26,5.26,0,0,0,.26-.59,4.93,4.93,0,0,0,.3-1.39l-.2-.16a3.27,3.27,0,0,0-1.84,2.32,8.15,8.15,0,0,0-.21,2.94,13,13,0,0,0,.59,2.8,18.35,18.35,0,0,0,1.05,2.6Z" style="fill:#FF7D7D"></path><path d="M172.25,81.34a14.53,14.53,0,0,1,3.6.3,15.29,15.29,0,0,1,3.38,1.14,12.65,12.65,0,0,1,2.85,2c.21.19.41.38.63.56s.38.41.6.6a3,3,0,0,0,.33.28l.31.3a4.87,4.87,0,0,0,.78.55l.21-.12a4.7,4.7,0,0,0-2-3.21,11.54,11.54,0,0,0-3.4-1.66,17.69,17.69,0,0,0-3.63-.67,23.33,23.33,0,0,0-3.64-.06Z" style="fill:#FF7D7D"></path><path d="M167.15,86.94a27.5,27.5,0,0,1,4.5,2.67,28.45,28.45,0,0,1,3.88,3.46,23.28,23.28,0,0,1,3,4.15c.84,1.48,1.34,3,2.27,4.58l.24,0a8.09,8.09,0,0,0-1.36-5.21,20.56,20.56,0,0,0-3.55-4,31.4,31.4,0,0,0-4.29-3.11,36.15,36.15,0,0,0-4.63-2.48Z" style="fill:#FF7D7D"></path><path d="M153.05,84.83a14.91,14.91,0,0,1-2.77-.89,19.42,19.42,0,0,1-2.55-1.36,20.58,20.58,0,0,1-2.29-1.7A6.92,6.92,0,0,0,143,79.42l-.18.17A4,4,0,0,0,144.66,82a15.42,15.42,0,0,0,2.71,1.32,25.72,25.72,0,0,0,2.82.91c.94.27,1.9.48,2.85.66Z" style="fill:#FF7D7D"></path><path d="M161.41,77.13a9.69,9.69,0,0,1,.47-3.5,13.91,13.91,0,0,1,1.53-3.15,20.21,20.21,0,0,1,2.23-2.64c.37-.44.82-.8,1.18-1.26a5.39,5.39,0,0,0,1-1.51l-.15-.2a4.71,4.71,0,0,0-1.71.79,8.22,8.22,0,0,0-.69.62,5.68,5.68,0,0,0-.63.67c-.2.25-.39.49-.57.74s-.33.52-.49.78c-.33.52-.59,1.09-.87,1.63a15.23,15.23,0,0,0-1.1,3.47,12.59,12.59,0,0,0-.24,3.57Z" style="fill:#FF7D7D"></path><path d="M162.44,86.79a2.54,2.54,0,0,1,.77.76,6.24,6.24,0,0,1,.48,1c.15.32.19.7.32,1a1,1,0,0,0,1,.7l.22-.1a1,1,0,0,0,0-1.25,5.63,5.63,0,0,0-.85-.84,9,9,0,0,0-.93-.69,8.62,8.62,0,0,0-.94-.59Z" style="fill:#FF7D7D"></path><path d="M161.67,86a6.93,6.93,0,0,1-.26,2,11.67,11.67,0,0,1-.74,1.83c-.29.58-.68,1.11-1,1.65a2.84,2.84,0,0,0-.58,1.93l.2.15A2.31,2.31,0,0,0,160.83,92a10.78,10.78,0,0,0,.59-2,13,13,0,0,0,.25-2.05,13.51,13.51,0,0,0,0-2Z" style="fill:#FF7D7D"></path><path d="M161.09,85.86a4.16,4.16,0,0,1-1.21.21,6.06,6.06,0,0,1-1.2-.15,7,7,0,0,1-1.09-.36,1.24,1.24,0,0,0-1.25.19l-.1.23a1.09,1.09,0,0,0,1.1.89,4.67,4.67,0,0,0,1.35-.15,7.81,7.81,0,0,0,1.24-.39c.4-.13.79-.29,1.17-.45Z" style="fill:#FF7D7D"></path><path d="M162,85a2.84,2.84,0,0,1-.77-1.26,4.76,4.76,0,0,1-.17-1.45,11,11,0,0,1,.17-1.42,1.7,1.7,0,0,0-.39-1.5l-.24,0a1.35,1.35,0,0,0-.61.71,2.69,2.69,0,0,0-.09.8,6.25,6.25,0,0,0,.38,1.59,6.55,6.55,0,0,0,.7,1.43,5.12,5.12,0,0,0,1,1.17Z" style="fill:#FF7D7D"></path><path d="M163.08,85.31a4.36,4.36,0,0,1,.35-1.33,6.33,6.33,0,0,1,.7-1.18,9.19,9.19,0,0,1,.87-1,1.52,1.52,0,0,0,.42-1.36l-.18-.17a1.29,1.29,0,0,0-1.34.77,6.23,6.23,0,0,0-.5,1.43,10.13,10.13,0,0,0-.23,1.43,13.45,13.45,0,0,0-.12,1.4Z" style="fill:#FF7D7D"></path><path d="M163.51,85.81a2.9,2.9,0,0,1,1.09.26,4.87,4.87,0,0,1,1,.59c.29.21.53.51.8.73a1.07,1.07,0,0,0,1.19.2l.15-.19a1,1,0,0,0-.63-1.14,5.62,5.62,0,0,0-1.2-.33,8.3,8.3,0,0,0-1.2-.13,11.08,11.08,0,0,0-1.15,0Z" style="fill:#FF7D7D"></path><path d="M165.85,92.81a13.91,13.91,0,0,1,.59,4.75,16.27,16.27,0,0,1-.92,4.65,18.67,18.67,0,0,1-2.16,4.16c-.37.69-.89,1.27-1.29,1.95a10.28,10.28,0,0,0-1.18,2.12l.18.17a7.41,7.41,0,0,0,2-1.52c.27-.31.52-.65.77-1a8.09,8.09,0,0,0,.68-1c.2-.37.4-.73.59-1.1l.46-1.16a9.59,9.59,0,0,0,.39-1.18c.11-.4.26-.79.33-1.2a17,17,0,0,0,.43-4.87,15.67,15.67,0,0,0-.84-4.76Z" style="fill:#FF7D7D"></path><path d="M169.65,84.64a19.28,19.28,0,0,1,4.85,2,23.52,23.52,0,0,1,4.2,3.06,27.14,27.14,0,0,1,3.45,3.83c.56.65,1,1.37,1.56,2a12.4,12.4,0,0,0,1.77,2l.22-.12a8.64,8.64,0,0,0-.95-2.54,15.25,15.25,0,0,0-1.57-2.18,23.49,23.49,0,0,0-4-3.61,25.64,25.64,0,0,0-4.58-2.68,22.41,22.41,0,0,0-5-1.75Z" style="fill:#FF7D7D"></path><path d="M165.31,79.47a17.39,17.39,0,0,1,1.94-1.9,24.56,24.56,0,0,1,2.13-1.68,23.08,23.08,0,0,1,4.74-2.49,17.71,17.71,0,0,1,5.14-1.06l1.3-.06c.43,0,.86,0,1.29,0h.66l.66,0a9.33,9.33,0,0,0,1.38,0l.07-.23A8.37,8.37,0,0,0,179.14,71a16.89,16.89,0,0,0-5.33,1.66,24.47,24.47,0,0,0-4.6,3,29.12,29.12,0,0,0-3.92,3.77Z" style="fill:#FF7D7D"></path><path d="M153.33,91.43a10.26,10.26,0,0,1-4,1,14.64,14.64,0,0,1-4.08-.36,13.17,13.17,0,0,1-3.7-1.49,39,39,0,0,0-3.5-2l-.18.16a5.81,5.81,0,0,0,3.06,3.05,12.38,12.38,0,0,0,4.19,1.1,16.58,16.58,0,0,0,4.23-.17,12.28,12.28,0,0,0,4-1.24Z" style="fill:#FF7D7D"></path><path d="M157.47,72.86a9.41,9.41,0,0,1,.37-3.62A12.4,12.4,0,0,1,159.4,66a13.77,13.77,0,0,1,2.32-2.66,19.59,19.59,0,0,0,2.55-2.53l-.11-.22a5,5,0,0,0-3.38,1.8,12.41,12.41,0,0,0-2.08,3.22,14.43,14.43,0,0,0-1.12,3.58,12,12,0,0,0-.14,3.69Z" style="fill:#FF7D7D"></path><path d="M151.76,76.26a16.07,16.07,0,0,1-1.94-2.48,16.83,16.83,0,0,1-1.4-2.78,14.29,14.29,0,0,1-.76-2.92,14.42,14.42,0,0,0-.55-3l-.24,0a3.73,3.73,0,0,0-.52,3.29,11.9,11.9,0,0,0,1.36,3,19.6,19.6,0,0,0,1.9,2.59,29.55,29.55,0,0,0,2.13,2.34Z" style="fill:#FF7D7D"></path><path d="M161.94,97.33a9.5,9.5,0,0,1-.89,3,13.78,13.78,0,0,1-1.66,2.57,19.57,19.57,0,0,1-2.13,2.14c-.34.36-.74.66-1.07,1a4.24,4.24,0,0,0-.89,1.34l.14.2A3.72,3.72,0,0,0,157,107c.22-.15.42-.33.63-.5a6.11,6.11,0,0,0,.58-.56c.18-.2.36-.4.52-.61s.31-.44.47-.66c.31-.44.57-.91.85-1.36a17,17,0,0,0,1.25-2.92,13.29,13.29,0,0,0,.66-3Z" style="fill:#FF7D7D"></path><path d="M157.06,97.22a15.9,15.9,0,0,1-2.78,2.53,17.48,17.48,0,0,1-3.25,1.79,13.78,13.78,0,0,1-3.5.86c-.3,0-.59.06-.88.11s-.59,0-.88.06-.6.09-.9.11a5.26,5.26,0,0,0-1,.22l0,.24a5,5,0,0,0,3.88.58,12.76,12.76,0,0,0,3.64-1.47,19.46,19.46,0,0,0,3.07-2.29,24.11,24.11,0,0,0,2.63-2.72Z" style="fill:#FF7D7D"></path><polygon points="161.71 86.11 160.56 84.73 161.84 85.99 162.14 82.67 162.17 86 163.54 84.85 162.29 86.13 165.6 86.43 162.28 86.46 163.42 87.83 162.15 86.58 161.85 89.89 161.82 86.57 160.44 87.71 161.7 86.44 158.38 86.14 161.71 86.11" style="fill:#FF7D7D"></polygon><polygon points="170.73 96.96 169.58 95.58 170.86 96.84 171.15 93.52 171.19 96.85 172.56 95.7 171.31 96.98 174.62 97.28 171.29 97.31 172.44 98.68 171.16 97.43 170.87 100.74 170.83 97.42 169.46 98.56 170.71 97.28 167.4 96.99 170.73 96.96" style="fill:#FF7D7D"></polygon><polygon points="146.87 98.4 145.72 97.03 147 98.28 147.3 94.97 147.33 98.29 148.7 97.14 147.45 98.42 150.76 98.72 147.44 98.75 148.59 100.13 147.31 98.87 147.01 102.19 146.98 98.86 145.6 100.01 146.86 98.73 143.54 98.43 146.87 98.4" style="fill:#FF7D7D"></polygon><polygon points="143.84 86.83 140.52 86.53 143.85 86.5 142.7 85.12 143.98 86.38 144.28 83.06 144.31 86.39 145.68 85.24 144.43 86.52 147.74 86.82 144.42 86.85 145.56 88.22 144.29 86.97 143.99 90.28 143.96 86.95 142.58 88.1 143.84 86.83" style="fill:#FF7D7D"></polygon><polygon points="172.05 68.8 168.74 68.5 172.06 68.47 170.92 67.09 172.19 68.35 172.49 65.03 172.52 68.36 173.9 67.21 172.64 68.49 175.96 68.79 172.63 68.82 173.78 70.19 172.5 68.94 172.2 72.25 172.17 68.92 170.8 70.07 172.05 68.8" style="fill:#FF7D7D"></polygon><polygon points="153.58 68.54 154.73 69.91 153.45 68.66 153.15 71.97 153.12 68.64 151.75 69.79 153 68.52 149.69 68.22 153.01 68.19 151.87 66.81 153.15 68.07 153.44 64.75 153.47 68.08 154.85 66.93 153.59 68.21 156.91 68.51 153.58 68.54" style="fill:#FF7D7D"></polygon><polygon points="181.12 84.88 179.97 83.51 181.25 84.76 181.55 81.45 181.58 84.78 182.95 83.63 181.7 84.91 185.01 85.2 181.69 85.24 182.84 86.61 181.56 85.36 181.26 88.67 181.23 85.34 179.85 86.49 181.11 85.21 177.79 84.92 181.12 84.88" style="fill:#FF7D7D"></polygon><g style="opacity:0.5"><polygon points="161.71 86.11 160.56 84.73 161.84 85.99 162.14 82.67 162.17 86 163.54 84.85 162.29 86.13 165.6 86.43 162.28 86.46 163.42 87.83 162.15 86.58 161.85 89.89 161.82 86.57 160.44 87.71 161.7 86.44 158.38 86.14 161.71 86.11" style="fill:#fff"></polygon><polygon points="170.73 96.96 169.58 95.58 170.86 96.84 171.15 93.52 171.19 96.85 172.56 95.7 171.31 96.98 174.62 97.28 171.29 97.31 172.44 98.68 171.16 97.43 170.87 100.74 170.83 97.42 169.46 98.56 170.71 97.28 167.4 96.99 170.73 96.96" style="fill:#fff"></polygon><polygon points="146.87 98.4 145.72 97.03 147 98.28 147.3 94.97 147.33 98.29 148.7 97.14 147.45 98.42 150.76 98.72 147.44 98.75 148.59 100.13 147.31 98.87 147.01 102.19 146.98 98.86 145.6 100.01 146.86 98.73 143.54 98.43 146.87 98.4" style="fill:#fff"></polygon><polygon points="143.84 86.83 140.52 86.53 143.85 86.5 142.7 85.12 143.98 86.38 144.28 83.06 144.31 86.39 145.68 85.24 144.43 86.52 147.74 86.82 144.42 86.85 145.56 88.22 144.29 86.97 143.99 90.28 143.96 86.95 142.58 88.1 143.84 86.83" style="fill:#fff"></polygon><polygon points="172.05 68.8 168.74 68.5 172.06 68.47 170.92 67.09 172.19 68.35 172.49 65.03 172.52 68.36 173.9 67.21 172.64 68.49 175.96 68.79 172.63 68.82 173.78 70.19 172.5 68.94 172.2 72.25 172.17 68.92 170.8 70.07 172.05 68.8" style="fill:#fff"></polygon><polygon points="153.58 68.54 154.73 69.91 153.45 68.66 153.15 71.97 153.12 68.64 151.75 69.79 153 68.52 149.69 68.22 153.01 68.19 151.87 66.81 153.15 68.07 153.44 64.75 153.47 68.08 154.85 66.93 153.59 68.21 156.91 68.51 153.58 68.54" style="fill:#fff"></polygon><polygon points="181.12 84.88 179.97 83.51 181.25 84.76 181.55 81.45 181.58 84.78 182.95 83.63 181.7 84.91 185.01 85.2 181.69 85.24 182.84 86.61 181.56 85.36 181.26 88.67 181.23 85.34 179.85 86.49 181.11 85.21 177.79 84.92 181.12 84.88" style="fill:#fff"></polygon></g><path d="M182.51,132.43c-3.3-4.83-4.1-7.46-6.09-10.18s-1.49-2.32-4.81-4.18a29.2,29.2,0,0,1-4.56-2.82,20.21,20.21,0,0,1-3.45-4.08c-1.73-.47-1.9,2.92-.86,5s2.11,3.69,1.8,7-1.62,11.33-1.62,11.33,4.64,2.55,6.65,3.33,4.05,2.64,8,8.65a208.45,208.45,0,0,0,14.09,18.88l4.68-18.71C192.18,143.13,185.8,137.26,182.51,132.43Z" style="fill:#f28f8f"></path><path d="M163.47,117.57h0a9.4,9.4,0,0,1,1.07,5.57c-.19,2-.76,5.84-1.17,8.48a3.37,3.37,0,0,0,1.95.67c1.65-.14,1.93-3.1,1.93-3.1l2,.85a1.55,1.55,0,0,0,1.25-2.2,13.2,13.2,0,0,0-1.71-2.9c2.87,0,2.67-2,1.75-3.06S165.25,118.31,163.47,117.57Z" style="fill:#b16668"></path><path d="M170.42,129.32a7.88,7.88,0,0,1,5,3.47c-1.2-2.53-2-3.23-4.78-4.4Z" style="fill:#b16668"></path><path d="M162.7,111.36c-.69.62-.76,2.33-.33,3.82a.94.94,0,0,0,.77,0C164.59,114.36,163.47,112.57,162.7,111.36Z" style="fill:#b16668"></path><path d="M158.69,111.05a3,3,0,0,0,1.17,2.9c.85.86,2.69,2,3.34,1.12s.26-2.31-.9-3.78-1.93-2-2.51-1.84A1.71,1.71,0,0,0,158.69,111.05Z" style="fill:#f28f8f"></path><path d="M158.6,117.61c-.77,1.69-.48,3,1,4s5.49,2.1,6.9,2.64a7.14,7.14,0,0,0,3.21.75,1.39,1.39,0,0,0,.8-2.39,9.58,9.58,0,0,0-2.88-2.11,58.52,58.52,0,0,0-6.19-3.42C160.07,116.52,159,116.74,158.6,117.61Z" style="fill:#f28f8f"></path><path d="M161.87,122.63c-1.28-.52-2.75-.19-3.12.8s-.4,2.59.83,3.25,4.9,1.71,6.07,2.13,2.39,1.29,3.24,1.3a1.41,1.41,0,0,0,1.23-1.91,8.12,8.12,0,0,0-2.27-2.77A18.14,18.14,0,0,0,161.87,122.63Z" style="fill:#f28f8f"></path><path d="M158.79,131.42a4.28,4.28,0,0,1-.38-3c.1-.67.23-1.26,1.27-1.27a8,8,0,0,1,2.64.55,4.36,4.36,0,0,1,2.86,2.22c.86,1.64.86,2.34-.33,2.43s-1.52-.5-3-1S159.45,130.62,158.79,131.42Z" style="fill:#f28f8f"></path><path d="M176.65,136.61a9.61,9.61,0,0,1-2.08,1.87,3.41,3.41,0,0,1-3.74,0A10.5,10.5,0,0,1,172.7,140h0a1.91,1.91,0,0,0,2-.27C175.92,139,176.65,136.61,176.65,136.61Z" style="fill:#b16668"></path><path d="M170.48,138.24l0,0h0Z" style="fill:#b16668"></path><path d="M238.8,125.25c-1.59.2-8.83-2.8-12.19-1.88-4.61,1.26-6.33,5.59-8.81,10-1.18,2.09-18.13,15.73-18.13,15.73l-9.62-8.43A10.42,10.42,0,0,1,186.3,148c-3.67,3-6.14,2.77-6.14,2.77a129.74,129.74,0,0,0,13.59,18.15c2.14,2.24,4.79,2.65,9,0s28.56-19.79,28.56-19.79S246.57,137.61,238.8,125.25Z" style="fill:#37474f"></path><path d="M191.67,142.21a13.81,13.81,0,0,1-3.68,7.38,10.74,10.74,0,0,1-6.37,3.27l-4.88-7.2c5,.3,8.26-2.73,10-8.38Z" style="fill:#455a64"></path><path d="M262.27,159.17a12.75,12.75,0,0,1-12.38,6.19,13.44,13.44,0,0,1-11.09-7.65s-.07,9.38,11,9.89S262.27,159.17,262.27,159.17Z" style="opacity:0.2"></path><path d="M289,219.85c-1.76-25.39-7.21-31.16-11.21-38.4-3.62-6.56-4.85-9.11-4.5-12.4s3.27-15.74,4.89-24.59.38-16.31-2.06-17-12-3-12-3a85.43,85.43,0,0,0-16-1l-9.34,1.83a49,49,0,0,0-10,8.91c-5.69,6.63-7,10.94-6.72,17,.27,5.77,5.35,9.24,5.35,9.24a78.93,78.93,0,0,1,.69,11.5s-1.8,14.2-3.07,28.35c-1.71,19.15-3.48,48.28-3.48,48.28s8,8.85,33.41,8.85S290.61,248,290.61,248,290.26,237.58,289,219.85Z" style="fill:#455a64"></path><path d="M301.15,75.33c1-3.69.14-7.23,1.61-11.73s2.51-8.88,2.9-10.56,3.73.41,3.55,3.88-1.1,6.48-.07,8.72,2.51,2.19,2.51,2.19Z" style="fill:#f28f8f"></path><path d="M316.22,63.27A.73.73,0,0,1,317,64l-.06,16.66a1.54,1.54,0,0,0,1.33,1.53c1.63.25,2.77.79,2.77,1.57,0,1.08-2.18,1.94-4.86,1.93s-4.84-.91-4.83-2c0-.78,1.13-1.31,2.75-1.54a1.53,1.53,0,0,0,1.35-1.51L315.48,64A.72.72,0,0,1,316.22,63.27Z" style="fill:#FF7D7D"></path><path d="M316.22,63.27A.73.73,0,0,1,317,64l-.06,16.66a1.54,1.54,0,0,0,1.33,1.53c1.63.25,2.77.79,2.77,1.57,0,1.08-2.18,1.94-4.86,1.93s-4.84-.91-4.83-2c0-.78,1.13-1.31,2.75-1.54a1.53,1.53,0,0,0,1.35-1.51L315.48,64A.72.72,0,0,1,316.22,63.27Z" style="fill:#fff;opacity:0.30000000000000004"></path><path d="M315.48,64A.74.74,0,0,1,317,64v4.16a2.43,2.43,0,0,1-1.49,0Z" style="opacity:0.15"></path><path d="M293.78,102.58c-2,2.18-24.3,23.12-24.3,23.12s-4.77,21.94,6.9,27.9c1.55-6.81,5.54-12.94,10.42-18.62,9.26-10.79,12.11-13.52,14-15.58,4.71-5.25,6-7.09,6.6-10.63,2.43-14,2.46-16,5.08-28.76.92-4.46,4.19-6.72,8.55-9.33,3.38-2,3.88-1.86,4.78-5.05.33-1.18,1.1-5.08,1.32-6.33a11.76,11.76,0,0,0-.45-3.65c-.44-2.71-.89-5.43-1.33-8.15a1.1,1.1,0,0,0-.44-.87.77.77,0,0,0-.39-.09,2.45,2.45,0,0,0-1.95,1.18,7.7,7.7,0,0,0-.89,2.81c-.23,1.15-.33,2.33-.67,3.45a5.35,5.35,0,0,1-1.24,2.2c-.68.69-3.15.52-3.15.52s-4.67,1.59-6.41,2.29c-8.65,3.53-6.68,8.09-8.14,13.16S293.78,102.58,293.78,102.58Z" style="fill:#f28f8f"></path><path d="M307.54,69.13c1.24-2.49,3.9-4.52,9.42-4.51C312.79,63.6,309,62.49,307.54,69.13Z" style="fill:#b16668"></path><path d="M310.28,39.16c.43-1.29,2.76-2.29,5.87-2.29s5.43.93,5.86,2.32,2.17,15.37,2.14,19a8,8,0,0,1-16,0C308.11,54.58,309.8,40.47,310.28,39.16Z" style="fill:#FF7D7D"></path><g style="opacity:0.30000000000000004"><path d="M310.28,39.16c.43-1.29,2.76-2.29,5.87-2.29s5.43.93,5.86,2.32,2.17,15.37,2.14,19a8,8,0,0,1-16,0C308.11,54.58,309.8,40.47,310.28,39.16Z" style="fill:#fff"></path></g><path d="M321.51,46.87c.52,4.33,1,9.35,1,11.33a6.39,6.39,0,0,1-12.73,0c0-1.94.47-7,1-11.36C311.08,45,321.25,45,321.51,46.87Z" style="fill:#FF7D7D"></path><g style="opacity:0.4"><path d="M321.51,46.87c.52,4.33,1,9.35,1,11.33a6.39,6.39,0,0,1-12.73,0c0-1.94.47-7,1-11.36C311.08,45,321.25,45,321.51,46.87Z"></path></g><path d="M320,62.11c3.78-3.56,3.17-15,2.39-20.85.68,4.35,1.76,14,1.74,17a7.55,7.55,0,0,1-8,7.42,8.23,8.23,0,0,1-4.84-1.41A9.56,9.56,0,0,0,320,62.11Z" style="opacity:0.2"></path><g style="opacity:0.2"><path d="M313.4,63.49c0,.62,1.23,1.13,2.75,1.13s2.75-.51,2.75-1.13-1.23-1.12-2.75-1.12S313.4,62.87,313.4,63.49Z" style="fill:#FF7D7D"></path></g><path d="M310.84,39.51c0,1.2,2.38,2.17,5.31,2.17s5.31-1,5.31-2.17-2.37-2.17-5.31-2.17S310.84,38.31,310.84,39.51Z" style="fill:#FF7D7D"></path><path d="M267.1,125.11a9.74,9.74,0,0,1,3.55-3.59c1.13-.72,3.1-.84,4.11-1.58,3.44-2.49,18.23-17.56,18.23-17.56l6.15-19.69s.37,1.75,5.11,3.41,7.06.31,7.06.31-2.16,18.44-2.74,22.36-.72,4.5-6.25,10.63-20.45,23.14-22.39,27.06-3.89,8.78-3.89,8.78-7.87-5.57-9.65-13.05A31.67,31.67,0,0,1,267.1,125.11Z" style="fill:#37474f"></path><path d="M238.28,85.21c-2.58,1.35-3.62,3-4.23,17.26-.47,11.07,2.17,14.18,5.26,15.46a19.3,19.3,0,0,0,7.47,1l-.13,5.29s-4.77,6.15,3.12,7a14,14,0,0,0,13.12-5.65l.91-14.44s2.2,2.14,5.77-.65c2.95-2.32,3.44-6.93,1.37-9.28a5.09,5.09,0,0,0-8.07,1.1s-3.14,2.32-3.15-1.66.74-11.22-4.24-14.48C246.45,86.11,246.66,93.4,238.28,85.21Z" style="fill:#f28f8f"></path><path d="M250.58,108.89l-4.49,1.31a2.29,2.29,0,0,0,2.86,1.67A2.45,2.45,0,0,0,250.58,108.89Z" style="fill:#b16668"></path><path d="M236.64,95l3.31-1a1.67,1.67,0,0,0-2.11-1.18A1.82,1.82,0,0,0,236.64,95Z" style="fill:#263238"></path><path d="M251.3,94.91l3.17,1.42a1.67,1.67,0,0,0-.81-2.28A1.81,1.81,0,0,0,251.3,94.91Z" style="fill:#263238"></path><polygon points="246.04 96.04 245.4 106.14 240.34 104.84 246.04 96.04" style="fill:#b16668"></polygon><path d="M246.78,118.9c3.63-.28,9.71-.78,13.39-6,0,0-1.21,3.69-3.68,5.24-3.47,2.18-9.76,2.53-9.76,2.53Z" style="fill:#b16668"></path><path d="M253.39,99.22c0,.85-.62-.44-1.48-.42s-1.65,1.32-1.64.47a1.6,1.6,0,0,1,1.58-1.56A1.49,1.49,0,0,1,253.39,99.22Z" style="fill:#263238"></path><path d="M240.74,98.77c-.25.81-.47-.59-1.29-.83s-2,.79-1.71,0a1.61,1.61,0,0,1,2-1A1.5,1.5,0,0,1,240.74,98.77Z" style="fill:#263238"></path></g></g></g><g id="freepik--character-1--inject-36"><g id="freepik--character--inject-36"><g id="freepik--bottom--inject-36"><path d="M145.32,377c.43-4.18,1.93-47.79,1.93-47.79L126.16,340c2.78,26.23,5.51,37.78,5.51,39.9h0a3.2,3.2,0,0,0-.14,1c-.09,4.8,5.54,7.54,9.91,10.86a83.87,83.87,0,0,0,11.84,7.79c3.19,1.63,9.74,2,10.59,0-5.31-4.07-11.47-8.53-15.66-13.13C146.2,384.26,144.79,382,145.32,377Z" style="fill:#c8856a"></path><path d="M173,405c.27,0,.63,2.92-.91,4.11-1.77,1.38-6.92,3.58-13.64,2.56s-10.32-3.1-13-5.32-6.35-5.35-9.39-6.07c-2.82-.68-5.86-2-6.75-2.84s-.67-4.55-.67-4.55Z"></path><path d="M152.6,388.24c-.43-.43-.84-.87-1.24-1.31a14,14,0,0,1-2.43-4,17,17,0,0,1-.8-1.87c-.26-.89-.41-1.81-.62-2.71a6.22,6.22,0,0,0-.39-1.27,1.08,1.08,0,0,0-.58-.62,1.21,1.21,0,0,0-.5,0,19.51,19.51,0,0,0-7.26,1.88c-.6.29-1.09.64-1.1,1.32a5.33,5.33,0,0,1-.27,2.31.8.8,0,0,1-.26.34.59.59,0,0,1-.59,0,1.27,1.27,0,0,1-.45-.41c-.7-.93-.88-2.19-1.67-3a3,3,0,0,0-1.62-.85c-.3-.06-1.39-.12-1.46-.55l-.3-1.84s-.47-.31-.83.87a18.6,18.6,0,0,0-.37,3.69c-.1,1.35-.25,2.4-.45,3.74-.24,1.59-.47,3.19-.68,4.78a16.32,16.32,0,0,0-.31,4.67,2.75,2.75,0,0,0,1,1.76,9.42,9.42,0,0,0,2.82,1.84c1.42.64,2.89,1.15,4.34,1.72a37.94,37.94,0,0,1,9.42,6,28.92,28.92,0,0,0,14.11,5.43c6.7.28,11.47-1.74,12.87-4,.18-1.56.34-3.17-.33-4.31-2.19-3.72-7.36-5.11-11.46-7.28a46.94,46.94,0,0,1-5.14-3.32A27.65,27.65,0,0,1,152.6,388.24Z" style="fill:#FF7D7D"></path><path d="M152.6,388.24c-.43-.43-.84-.87-1.24-1.31a14,14,0,0,1-2.43-4,17,17,0,0,1-.8-1.87c-.26-.89-.41-1.81-.62-2.71a6.22,6.22,0,0,0-.39-1.27,1.08,1.08,0,0,0-.58-.62,1.21,1.21,0,0,0-.5,0,19.51,19.51,0,0,0-7.26,1.88c-.6.29-1.09.64-1.1,1.32a5.33,5.33,0,0,1-.27,2.31.8.8,0,0,1-.26.34.59.59,0,0,1-.59,0,1.27,1.27,0,0,1-.45-.41c-.7-.93-.88-2.19-1.67-3a3,3,0,0,0-1.62-.85c-.3-.06-1.39-.12-1.46-.55l-.3-1.84s-.47-.31-.83.87a18.6,18.6,0,0,0-.37,3.69c-.1,1.35-.25,2.4-.45,3.74-.24,1.59-.47,3.19-.68,4.78a16.32,16.32,0,0,0-.31,4.67,2.75,2.75,0,0,0,1,1.76,9.42,9.42,0,0,0,2.82,1.84c1.42.64,2.89,1.15,4.34,1.72a37.94,37.94,0,0,1,9.42,6,28.92,28.92,0,0,0,14.11,5.43c6.7.28,11.47-1.74,12.87-4,.18-1.56.34-3.17-.33-4.31-2.19-3.72-7.36-5.11-11.46-7.28a46.94,46.94,0,0,1-5.14-3.32A27.65,27.65,0,0,1,152.6,388.24Z" style="opacity:0.2"></path><path d="M149,398.11a.61.61,0,0,0,.76-.11c2.84-2.94,8.3-4.79,10.18-4.18,0,0-.25-.88-2.12-1.37,0,0-4.87-.34-9.56,4.34a.63.63,0,0,0,.14,1Z" style="fill:#fafafa"></path><path d="M155.26,390.63c-2-.71-6.84,1.55-9.18,3.95a.57.57,0,0,1-.76.08l-.61-.43a.58.58,0,0,1-.07-.9c1.32-1.28,5.15-4.56,8.94-4.15C153.58,389.18,155.09,389.89,155.26,390.63Z" style="fill:#fafafa"></path><path d="M151.36,386.93c-1.45-.29-5.24.62-8.36,3.19a.53.53,0,0,1-.8-.14l-.3-.54a.53.53,0,0,1,.12-.66c1.1-.9,4.73-3.63,8.26-3.26A3.42,3.42,0,0,1,151.36,386.93Z" style="fill:#fafafa"></path><path d="M163.69,395.74c-8.31,2-11.39,7.41-12.8,11.84a27,27,0,0,0,9.21,2.53c6.7.28,11.47-1.74,12.87-4,.18-1.56.34-3.17-.33-4.31C170.88,398.82,167.19,397.34,163.69,395.74Z" style="fill:#FF7D7D"></path><path d="M163.69,395.74c-6.74.22-12.87,6-12.8,11.84a27,27,0,0,0,9.21,2.53c6.7.28,11.47-1.74,12.87-4,.18-1.56.34-3.17-.33-4.31C170.88,398.82,167.19,397.34,163.69,395.74Z" style="fill:#fafafa"></path><path d="M111,349,90.79,346.7c.59,10.58.27,24.71.11,36.6a22.36,22.36,0,0,0-.1,7.89c.46,2.28-2.69,18.68-1.55,23.41,1.71,7.11,12.8,4.59,13.18.27s.58-13.18,1.75-24.61c1-9.75,4.3-22.43,6.07-36.74C110.33,352.82,111,349.71,111,349Z" style="fill:#c8856a"></path><path d="M105.15,417.51l-7.09-14.78c-1.9-1-4.17-3.1-6.24-1.85a9.08,9.08,0,0,0-2,1.45c-1.52,1.58-1.6,3.82-2,5.84s-1.79,3.91-2,6c-.51,3.94-.6,6.43.54,10s4.7,5.53,8.23,6.46c3,.79,6.66-.09,8.23-2.63C104.76,424.82,105.12,421.73,105.15,417.51Z"></path><path d="M105.06,417.38c-2.79-3.58-15.87-4.54-19.43-1.18,0-.48.07-1,.11-1.54.44-5,.84-5.88,2-10.53a33.08,33.08,0,0,0,1-6.8c.41-4.58.51-7.43.77-9,.21-1.35.29-2.74.59-4.1.1-.46.23-1,.84-.9,0,0,0,.79-.06,1.27s0,1-.07,1.38c-.07,1,0,1.86,0,2.84a3,3,0,0,0,.15,1.11.34.34,0,0,0,.16.19c.29.12.25-.53.26-.66l.37-2.43a.63.63,0,0,1,.13-.35.82.82,0,0,1,.25-.16,12.49,12.49,0,0,1,6.46-1,20.83,20.83,0,0,1,3.47.74c.82.27,2.28.69,2.75,1.47a1.91,1.91,0,0,1,.14,1.23c-.19,2.39-.54,5.44-.71,7.85a66.41,66.41,0,0,0-.09,6.91c.12,3.15.26,6.29.62,9.42C104.87,414.61,105,416,105.06,417.38Z" style="fill:#FF7D7D"></path><path d="M105.06,417.38c-2.79-3.58-15.87-4.54-19.43-1.18,0-.48.07-1,.11-1.54.44-5,.84-5.88,2-10.53a33.08,33.08,0,0,0,1-6.8c.41-4.58.51-7.43.77-9,.21-1.35.29-2.74.59-4.1.1-.46.23-1,.84-.9,0,0,0,.79-.06,1.27s0,1-.07,1.38c-.07,1,0,1.86,0,2.84a3,3,0,0,0,.15,1.11.34.34,0,0,0,.16.19c.29.12.25-.53.26-.66l.37-2.43a.63.63,0,0,1,.13-.35.82.82,0,0,1,.25-.16,12.49,12.49,0,0,1,6.46-1,20.83,20.83,0,0,1,3.47.74c.82.27,2.28.69,2.75,1.47a1.91,1.91,0,0,1,.14,1.23c-.19,2.39-.54,5.44-.71,7.85a66.41,66.41,0,0,0-.09,6.91c.12,3.15.26,6.29.62,9.42C104.87,414.61,105,416,105.06,417.38Z" style="opacity:0.2"></path><path d="M90,411.65a27.93,27.93,0,0,1,12.38,1.21.35.35,0,0,0,.48-.33l0-1.16a.32.32,0,0,0-.19-.3,21,21,0,0,0-12.61-1.13.35.35,0,0,0-.28.3l-.16,1A.35.35,0,0,0,90,411.65Z" style="fill:#fafafa"></path><path d="M91.21,405.9a20.58,20.58,0,0,1,11.07,1.43.33.33,0,0,0,.47-.3l0-1.07a.33.33,0,0,0-.2-.28c-1-.44-4.53-2.51-11.29-1.35a.35.35,0,0,0-.28.27l-.14.93A.35.35,0,0,0,91.21,405.9Z" style="fill:#fafafa"></path><path d="M92.22,400.66A18.45,18.45,0,0,1,102.57,402a.31.31,0,0,0,.44-.29l0-1a.31.31,0,0,0-.18-.28c-.93-.42-4.22-2.42-10.55-1.24a.33.33,0,0,0-.27.27l-.13.9A.32.32,0,0,0,92.22,400.66Z" style="fill:#fafafa"></path><path d="M85.65,416.24c0,3.54.36,5.95,2.28,8.55,2.46,3.32,11.3,6.27,14.95,1.15,1.82-2.55,2.17-5.47,2.26-8.44C102.56,413.83,89.19,412.83,85.65,416.24Z" style="fill:#fafafa"></path><path d="M93.5,242.82c-2.23,22.87-.47,45.29-1,60s-2.67,19.07-2.27,30.26c.73,20.28.2,40.39.2,40.39s9.53,4.5,16.77,1.92c0,0,6.14-36.62,7.75-48.45,2.31-16.86,5.94-44.55,5.94-44.55L125,314.05a94.94,94.94,0,0,0,.15,23.58c1,7.38,4,28.34,4,28.34s11.3,4.37,17.64-2c0,0,1.59-45.91,1.8-52.73.3-9.65.14-82.62.45-89Z" style="fill:#FF7D7D"></path><path d="M93.5,242.82c-2.23,22.87-.47,45.29-1,60s-2.67,19.07-2.27,30.26c.73,20.28.2,40.39.2,40.39s9.53,4.5,16.77,1.92c0,0,6.14-36.62,7.75-48.45,2.31-16.86,5.94-44.55,5.94-44.55L125,314.05a94.94,94.94,0,0,0,.15,23.58c1,7.38,4,28.34,4,28.34s11.3,4.37,17.64-2c0,0,1.59-45.91,1.8-52.73.3-9.65.14-82.62.45-89Z" style="fill:#fff;opacity:0.4"></path><path d="M120.91,282.4,123,265.45s11.33-3.52,16-11.27c-2.89,9.53-13.34,14-13.34,14l-3.19,16.53L125,314.05Z" style="fill:#FF7D7D;opacity:0.30000000000000004"></path><path d="M120.91,282.4,123,265.45s11.33-3.52,16-11.27c-2.89,9.53-13.34,14-13.34,14l-3.19,16.53L125,314.05Z" style="opacity:0.1"></path></g><g id="freepik--top--inject-36"><path d="M156.94,180c2.43,3.62,11.68,17.18,14.6,21.74,4.75-3.78,14-12.25,16.61-14.76,2.37-2.29,3.39-3.46,4.06-6.21s1.71-5.95,3-7.67,6.81-7.37,9.08-6.86,10,15.39,9.18,17c-1.18,2.23-4.24,4.2-8.21,6.41-2.41,1.35-3.85,1.41-5.65,3.54s-12.22,16.62-23.32,25.18c-2.42,1.87-5.27,3.77-10.68,0-4.36-3.07-20.5-21.14-20.5-21.14L140.22,165C148.47,166.64,149.08,168.26,156.94,180Z" style="fill:#c8856a"></path><path d="M213.71,162.55c2.07-1,3.33.1,3.7,1.13.49,1.41-.67,4.48-.83,6.67-.2,2.81,1.8,6.76-1.58,10.6S214,166.26,214,166.26" style="fill:#c8856a"></path><g id="freepik--glass-of-wine--inject-36"><path d="M206.85,182.51a.76.76,0,0,0-.76.77l.06,17.32a1.6,1.6,0,0,1-1.38,1.59c-1.7.25-2.88.81-2.88,1.63,0,1.12,2.27,2,5.05,2s5-.94,5-2.07c0-.81-1.17-1.36-2.86-1.59a1.6,1.6,0,0,1-1.4-1.58l-.07-17.3A.77.77,0,0,0,206.85,182.51Z" style="fill:#FF7D7D"></path><path d="M206.85,182.51a.76.76,0,0,0-.76.77l.06,17.32a1.6,1.6,0,0,1-1.38,1.59c-1.7.25-2.88.81-2.88,1.63,0,1.12,2.27,2,5.05,2s5-.94,5-2.07c0-.81-1.17-1.36-2.86-1.59a1.6,1.6,0,0,1-1.4-1.58l-.07-17.3A.77.77,0,0,0,206.85,182.51Z" style="fill:#fff;opacity:0.30000000000000004"></path><path d="M207.63,183.28a.77.77,0,0,0-.78-.77.76.76,0,0,0-.76.77v4.32a2.41,2.41,0,0,0,1.55,0Z" style="fill:#FF7D7D"></path><path d="M213.05,158.66c-.45-1.34-2.87-2.38-6.11-2.38s-5.64,1-6.09,2.42-2.25,16-2.22,19.76a8.34,8.34,0,0,0,16.63,0C215.3,174.69,213.54,160,213.05,158.66Z" style="fill:#FF7D7D"></path><g style="opacity:0.30000000000000004"><path d="M213.05,158.66c-.45-1.34-2.87-2.38-6.11-2.38s-5.64,1-6.09,2.42-2.25,16-2.22,19.76a8.34,8.34,0,0,0,16.63,0C215.3,174.69,213.54,160,213.05,158.66Z" style="fill:#fff"></path></g><path d="M201.37,166.68c-.54,4.49-1.06,9.71-1,11.76a6.65,6.65,0,0,0,13.23,0c0-2-.49-7.27-1-11.8C212.21,164.75,201.65,164.75,201.37,166.68Z" style="fill:#FF7D7D"></path><g style="opacity:0.4"><path d="M201.37,166.68c-.54,4.49-1.06,9.71-1,11.76a6.65,6.65,0,0,0,13.23,0c0-2-.49-7.27-1-11.8C212.21,164.75,201.65,164.75,201.37,166.68Z"></path></g><path d="M202.92,182.51c-3.93-3.69-3.29-15.61-2.48-21.67-.71,4.53-1.83,14.56-1.81,17.62a7.85,7.85,0,0,0,8.29,7.71,8.54,8.54,0,0,0,5-1.47A10,10,0,0,1,202.92,182.51Z" style="opacity:0.2"></path><g style="opacity:0.2"><path d="M209.8,184c0,.64-1.28,1.17-2.86,1.17s-2.86-.53-2.86-1.17,1.28-1.17,2.86-1.17S209.8,183.3,209.8,184Z" style="fill:#FF7D7D"></path></g><path d="M212.46,159c0,1.24-2.47,2.25-5.52,2.25s-5.52-1-5.52-2.25,2.48-2.26,5.52-2.26S212.46,157.78,212.46,159Z" style="fill:#FF7D7D"></path></g><path d="M139.58,164.51c6.78,1.16,8,2.42,11.61,6.46s20.35,29.38,20.35,29.38l11.85-8.92s-.44,2.52,2.46,6.2a8,8,0,0,0,7.51,2.72,104,104,0,0,1-8.05,10.53c-4.82,5.56-8.42,9.07-11.32,10.37s-5.2.88-10.35-3.52-21.48-21.53-21.48-21.53Z" style="fill:#263238"></path><path d="M202.46,172c2-.49,3.47-1.3,3.67-.35.57,2.8-3.06,4.24-8.13,6.07l-3.53-3.32C196.29,172.71,198.14,173,202.46,172Z" style="fill:#c8856a"></path><g id="freepik--Chest--inject-36"><path d="M92.52,167.54a71.87,71.87,0,0,0-1.47,15.52c.07,8.52,2.72,20.26,3.17,33.51.31,9.47-1.3,28.91-1.3,28.91,9.63,8.36,48.93,9.46,56-4.31,0,0,.14-14.77,0-30.84-.11-10.76-.91-23.41-1.88-29.16-2.25-13.3-4.84-14.69-7.42-16.66-5-1.28-10.48-2.82-10.48-2.82s-1.84-1.33-12.6-.18C107.1,162.51,92.52,167.54,92.52,167.54Z" style="fill:#37474f"></path></g><g id="freepik--Head--inject-36"><path d="M141.26,131.47c2.2-5.11,0-11.87-2.68-15-3.86-4.58-9.85-6.53-18.86-5.94-6.86.46-13.59,3.34-14.84,10.38-5.51,1.66-4.84,10.71-3.45,14.7,2.81,8.09,8.31,15.11,8.42,19.26Z" style="fill:#263238"></path><path d="M140.61,150.49c-.92,3.95-2.59,6.83-6.21,7.41a30.25,30.25,0,0,1-5.71,0l.17,5c1.74,3.94,1.72,9.23.24,18-5.21-7-14.51-11.62-19-16.92l-.58-16.82s-2.21,2.52-5.86.16a7.94,7.94,0,0,1-2.52-9.73c1.79-3.82,5.42-2.26,6.54-1.11s2.38,3.1,3.35,3c1.5-.11,1.87-1.36,2.23-2.3a20.34,20.34,0,0,0,1.16-7.4,10,10,0,0,0,2.82-2.2A9.15,9.15,0,0,0,119.7,122c7.81-2.49,16.8-1.37,20.06,1.13,1.88,3.28,2.05,11.34,2,15.76A46.69,46.69,0,0,1,140.61,150.49Z" style="fill:#c8856a"></path><path d="M128.69,158c-4-.21-12-2-14.21-4.27s-3.08-6.78-3.08-6.78.35,5.76,2,8.3,5.86,3.64,8.41,4.26a62.15,62.15,0,0,0,7,1Z" style="fill:#af6152"></path><path d="M141.54,144.8c-.08,1.23-4,1.19-7.25,0s-6.69-.85-12.06-.05c-1.88.29-4.42,0-5.88-1.87-1.8-2.29-2.29-6.49-2.12-9.57l-5.56,4.32a15,15,0,0,1,2,4.52c.73,2.78-.14,5.44,2.46,10.27s12.45,5.85,17.87,6.22,8.43-2,9.29-4.39S141.5,147,141.54,144.8Z" style="fill:#263238"></path><path d="M126.09,135.6a1.78,1.78,0,1,1-1.79-1.84A1.81,1.81,0,0,1,126.09,135.6Z" style="fill:#263238"></path><path d="M124.8,129.41l-3.68,2.32a2.27,2.27,0,0,1,.71-3.07A2.12,2.12,0,0,1,124.8,129.41Z" style="fill:#263238"></path><path d="M140.09,131.64l-3.92-2a2.11,2.11,0,0,1,2.88-1A2.3,2.3,0,0,1,140.09,131.64Z" style="fill:#263238"></path><path d="M138.83,135.77a1.78,1.78,0,1,1-1.79-1.84A1.81,1.81,0,0,1,138.83,135.77Z" style="fill:#263238"></path><path d="M129.71,142.39l6.14-.42a24.85,24.85,0,0,0-6.71-10Z" style="fill:#af6152"></path></g><path d="M129.1,181c-.83-1.1-4.07-4.44-7.33-2.44s-4.69,2.93-4.69,2.93-9.36-11-10.28-13.9-1.33-3.22-.13-5.63,1.33-3.5,2-3.93a1.32,1.32,0,0,1,1.2-.21l.06,1.86a19.47,19.47,0,0,0,5.67,8.75C120.22,172.59,127.14,175.05,129.1,181Z" style="fill:#263238"></path><path d="M129.1,181a45.14,45.14,0,0,0,.38-9.75c-.27-2.3-.62-8.27-.62-8.27l-.12-3.64a5.42,5.42,0,0,1,2.43,2.21,31.51,31.51,0,0,1,3.29,6.66,33.55,33.55,0,0,1,1.79,8.84,3,3,0,0,0-4.59,0C130.68,178.38,129.1,181,129.1,181Z" style="fill:#263238"></path><path d="M127,149.08a1.28,1.28,0,1,0,1-1.48A1.29,1.29,0,0,0,127,149.08Z" style="fill:#af6152"></path><g id="freepik--party-blower--inject-36"><path d="M128.35,148a.69.69,0,0,1,.66-.18l6,2.21-.94,2.56-6-2.21a.66.66,0,0,1-.38-.56A2.14,2.14,0,0,1,128.35,148Z" style="fill:#455a64"></path><path d="M134.38,150.2a2.14,2.14,0,0,0-.66,1.82.59.59,0,0,0,1,.38,2.13,2.13,0,0,0,.67-1.81.59.59,0,0,0-1.05-.39Z" style="fill:#37474f"></path><path d="M135.15,150.38a.91.91,0,0,1,.86-.24l17.67,5a1.29,1.29,0,0,1,.26.08l.36.1,5.61,1.59a62.8,62.8,0,0,1-3.51,5.24l-.09.09c-.57.49-1.5.57-2.76,0h0l0,0h0L148.74,160l-13.93-6.53a.88.88,0,0,1-.51-.74A2.76,2.76,0,0,1,135.15,150.38Z" style="fill:#FF7D7D"></path><path d="M151.57,155.53a2.36,2.36,0,0,1,2.11-.39,1.29,1.29,0,0,1,.26.08l.33.12a5.42,5.42,0,0,1,1.56,1.17L154,158c.65,1.12-1.18,2.89-2.83,0A1.8,1.8,0,0,1,151.57,155.53Z" style="fill:#FF7D7D"></path><path d="M151.57,155.53a2.36,2.36,0,0,1,2.11-.39,1.29,1.29,0,0,1,.26.08l.33.12a5.42,5.42,0,0,1,1.56,1.17L154,158a1.07,1.07,0,0,1-.38,1.42c-.58.35-1.54.16-2.45-1.44A1.8,1.8,0,0,1,151.57,155.53Z" style="opacity:0.15"></path><path d="M153.63,159.37A1.07,1.07,0,0,0,154,158l1.82-1.44a6.1,6.1,0,0,1,.56.64Z" style="opacity:0.30000000000000004"></path><path d="M157.86,150.27l.07-.07c1-.8,2.88-.77,4.76,1.54,1,1.26,1.48,3.8.29,4.91,0,0-.06.06-.07.08l-6.51,5.42c1.18-1.1.93-3.84-.07-5.08-1.88-2.33-3.77-2.34-4.76-1.54Z" style="fill:#FF7D7D"></path><path d="M157.86,150.27l.07-.07c1-.8,2.88-.77,4.76,1.54,1,1.26,1.48,3.8.29,4.91,0,0-.06.06-.07.08l-6.51,5.42c1.18-1.1.93-3.84-.07-5.08-1.88-2.33-3.77-2.34-4.76-1.54Z" style="fill:#fff;opacity:0.30000000000000004"></path></g><path d="M64.43,153.61c2,3.46,13,16.95,19.7,27.34,2.12,3.3,7.19,10.31,7.69,11.85a25.21,25.21,0,0,1,.7,2.51c7.82-3.37,10.58-19.14,7-29.08-3.58-3.75-5.66-5.13-7.52-7.45-6.34-7.93-13.29-17-13.29-17s-.16-23.48,1.63-31.59c.31-1.41,2.46-2,3.62-2.9,3.19-2.33,3.94-3.92,6.27-6.73,1.82-2.2,3.67-3.43,3.36-4.07-.39-.81-2.11-1.49-4.47-.58-.65.25-4.37,3.06-4,1A6.41,6.41,0,0,1,86,95.13a62,62,0,0,1,4.67-6.07c.68-.86,1.52-1.63,2.25-2.46.87-1,4.21-4.4,2.42-6.65-.39-.49-.82-.25-1.3.11-1,.79-3,2.61-3,2.61-1.24-.79-2.42-.84-4.12.54-1.21,1-2.19,2-2.19,2-2.22-.92-4,.79-5,1.55a20.59,20.59,0,0,0-2.24,1.84c-2.15-1.07-4,2.26-5.22,3.72-2.33,2.92-3.49,4.36-4.16,6.9a135.44,135.44,0,0,0-2.78,14.33c-1.78,11.36-3.52,19.35-4.22,27.93C60.78,145.45,61.32,148.18,64.43,153.61Z" style="fill:#c8856a"></path><path d="M78.22,98.5c0,3-.84,7.87-4.82,9.76C78.06,107.76,80,103.91,78.22,98.5Z" style="fill:#874c4c"></path><path d="M102.84,164.38c-3.56-.2-4.93-.44-7.63-2.95-5.29-4.91-16.28-19.8-16.28-19.8l.23-20.92c-4,1.78-12,1-14.63-2.28a150.2,150.2,0,0,0-3.93,23.08c-.34,4.26-.57,4.82,2.55,11S80.09,176.24,84.05,182c7,10.1,8.22,14.38,8.22,14.38s6-.6,9.74-9.63C105.94,177.34,105,168.42,102.84,164.38Z" style="fill:#263238"></path></g></g></g></svg>