<svg xmlns="http://www.w3.org/2000/svg" viewBox="0 0 500 500"><g id="freepik--background-simple--inject-33"><path d="M327.83,24.49S248.49-6.68,172.61,37.31,60.28,171.81,28.83,244.25,18.63,391.86,78.41,427.53s98.47-13.38,181-13.52,105.06,12.72,172.29-33.77,76.55-160.45,20.22-246.53S327.83,24.49,327.83,24.49Z" style="fill:#729AF5"></path><path d="M327.83,24.49S248.49-6.68,172.61,37.31,60.28,171.81,28.83,244.25,18.63,391.86,78.41,427.53s98.47-13.38,181-13.52,105.06,12.72,172.29-33.77,76.55-160.45,20.22-246.53S327.83,24.49,327.83,24.49Z" style="fill:#fff;opacity:0.7000000000000001"></path></g><g id="freepik--Floor--inject-33"><ellipse cx="251" cy="467.5" rx="221" ry="13.5" style="fill:#729AF5"></ellipse><ellipse cx="251" cy="467.5" rx="221" ry="13.5" style="fill:#fff;opacity:0.5"></ellipse></g><g id="freepik--Balloons--inject-33"><path d="M363.07,60.83c0,14.88-11.45,37.38-25.58,37.38s-25.57-22.5-25.57-37.38c0-21.63,11.45-31,25.57-31S363.07,41.66,363.07,60.83Z" style="fill:#729AF5;stroke:#263238;stroke-linejoin:round"></path><path d="M324.93,54.58l.45,3.75-1.05.13-1.08-8.32,1.13-.15.45,3.76c.8-.1,1.61-.19,2.41-.26l-.36-3.76,1.14-.11q.35,4.18.71,8.37l-1.05.09-.36-3.76C326.52,54.4,325.72,54.48,324.93,54.58Z" style="fill:#263238"></path><path d="M330.76,56.14c-.09.57-.18,1.14-.26,1.71l-1,.07c.38-2.83.82-5.67,1.3-8.5l1.65-.08c.77,2.76,1.5,5.54,2.17,8.32l-1.05,0c-.14-.56-.29-1.11-.43-1.67C332.37,56.05,331.56,56.09,330.76,56.14Zm.08-.81,2.15-.11c-.43-1.6-.87-3.19-1.33-4.79C331.37,52.06,331.1,53.7,330.84,55.33Z" style="fill:#263238"></path><path d="M337.57,49.23c1.61,0,2.27.82,2.24,2.09l0,1c0,1.34-.77,2-2.31,2h-1l0,3.31h-1c-.05-2.79-.09-5.59-.14-8.39Zm-.1,4.25c.81,0,1.21-.31,1.22-1.12l0-1.11c0-.77-.32-1.16-1.14-1.16h-1.09c0,1.13,0,2.26,0,3.39Z" style="fill:#263238"></path><path d="M343,49.39c1.6.09,2.23.93,2.13,2.19l-.08,1c-.1,1.33-.87,2-2.41,1.88l-1,0c0,1.1-.1,2.2-.14,3.31l-1.05,0q.14-4.2.28-8.4Zm-.32,4.24c.81,0,1.23-.25,1.28-1.06,0-.37.05-.74.07-1.11.05-.77-.25-1.17-1.08-1.22l-1.08-.05-.15,3.39Z" style="fill:#263238"></path><path d="M347.48,55.14q-.75-2.79-1.61-5.56l1.18.1c.4,1.42.78,2.84,1.15,4.26.66-1.31,1.33-2.62,2-3.92l1.07.14q-1.43,2.52-2.75,5.09l-.33,3-1-.11Z" style="fill:#263238"></path><path d="M319.89,69.72l-.84.17q-.84-4.11-1.7-8.22l1.29-.26c1.08,1.85,2.13,3.72,3.13,5.6l-1-6,.9-.15c.44,2.76.89,5.52,1.33,8.29l-1,.16q-1.65-3.17-3.45-6.27Z" style="fill:#263238"></path><path d="M326.39,64l.09.84q-1.07.12-2.13.27c.13,1,.27,2,.41,3,.84-.12,1.69-.23,2.54-.32l.09.85q-1.72.18-3.45.45c-.41-2.77-.83-5.54-1.24-8.31,1.25-.18,2.51-.35,3.77-.49l.09.85c-.91.1-1.82.21-2.72.34l.39,2.84Z" style="fill:#263238"></path><path d="M330.49,68.28l-1.28.11c-.64-2.76-1.31-5.5-2-8.24l1-.1c.58,2.34,1.14,4.68,1.66,7,.13-2.4.28-4.79.45-7.19l1-.07q.72,3.54,1.37,7.09c.21-2.4.43-4.8.69-7.2l.9,0q-.51,4.22-.9,8.43l-1.24.06q-.57-2.82-1.18-5.63C330.78,64.45,330.63,66.37,330.49,68.28Z" style="fill:#263238"></path><path d="M338.69,65q-.87-2.7-1.86-5.4h1.07c.47,1.38.92,2.76,1.34,4.14.5-1.36,1-2.72,1.55-4.08l1,0q-1.11,2.64-2.11,5.31c0,1,0,2-.08,3l-.93,0Z" style="fill:#263238"></path><path d="M345.45,63.72c0,.27-.05.55-.07.83-.72-.06-1.43-.12-2.15-.16l-.19,3c.85,0,1.7.12,2.55.2l-.08.85c-1.15-.11-2.31-.2-3.46-.26l.45-8.38c1.27.07,2.53.16,3.79.28l-.08.85c-.91-.09-1.82-.16-2.74-.22l-.18,2.86C344,63.6,344.73,63.65,345.45,63.72Z" style="fill:#263238"></path><path d="M347.52,66.93c-.18.54-.35,1.09-.52,1.64l-.86-.09q1.22-4.1,2.6-8.16l1.48.19q.31,4.27.48,8.55l-.93-.14-.09-1.72Q348.6,67,347.52,66.93Zm.21-.79,1.92.24c-.1-1.64-.22-3.29-.36-4.93Q348.48,63.79,347.73,66.14Z" style="fill:#263238"></path><path d="M354.81,61.23c1.43.27,1.89,1.06,1.64,2.28-.05.22-.09.44-.14.67a1.57,1.57,0,0,1-1.43,1.47,1.56,1.56,0,0,1,.75,1.94l-.27,1.28a2.09,2.09,0,0,0,0,1l-.94-.19a2.16,2.16,0,0,1,0-1l.25-1.3c.18-.93-.22-1.31-1-1.46l-.68-.12c-.2,1.18-.4,2.36-.61,3.54l-.93-.16c.45-2.76.89-5.52,1.34-8.29Zm-1,3.85c.78.14,1.28,0,1.46-.9l.15-.79c.15-.74-.07-1.19-.82-1.32l-1-.18c-.17,1-.35,2-.52,3.06Z" style="fill:#263238"></path><path d="M337.49,98.21s-2.93,14.75,0,22.62,14.75,14.75,6.39,28.52c-7.25,11.94-15,20.57-13.14,32.91" style="fill:none;stroke:#263238;stroke-linejoin:round"></path><path d="M202.07,54.83c0,14.88-11.45,37.38-25.58,37.38s-25.57-22.5-25.57-37.38c0-21.63,11.45-31,25.57-31S202.07,35.66,202.07,54.83Z" style="fill:#263238;stroke:#263238;stroke-linejoin:round"></path><path d="M164.05,49.06l.45,3.75-1,.13-1.08-8.32,1.13-.15.45,3.76c.8-.1,1.6-.19,2.41-.26L166,44.21l1.13-.11q.36,4.18.71,8.37l-1,.09-.36-3.76C165.65,48.88,164.85,49,164.05,49.06Z" style="fill:#729AF5"></path><path d="M169.88,50.62c-.08.57-.17,1.14-.25,1.71l-1,.07c.39-2.83.82-5.67,1.31-8.5l1.65-.08c.77,2.76,1.49,5.54,2.16,8.32l-1.05,0c-.14-.56-.28-1.11-.43-1.67Zm.09-.81,2.15-.11c-.43-1.6-.88-3.19-1.34-4.79C170.49,46.54,170.22,48.18,170,49.81Z" style="fill:#729AF5"></path><path d="M176.7,43.71c1.6,0,2.27.82,2.24,2.09l0,1c0,1.34-.77,2-2.31,2h-1l0,3.31h-1l-.15-8.39ZM176.6,48c.81,0,1.21-.31,1.22-1.12l0-1.11c0-.77-.32-1.16-1.15-1.16h-1.08c0,1.13,0,2.26,0,3.39Z" style="fill:#729AF5"></path><path d="M182.15,43.87c1.61.09,2.23.93,2.14,2.19l-.08,1c-.1,1.33-.88,2-2.41,1.87l-1,0-.15,3.31-1.05-.05q.15-4.19.28-8.39Zm-.31,4.24c.81,0,1.22-.26,1.28-1.06,0-.37,0-.74.07-1.11.05-.77-.26-1.17-1.08-1.22l-1.09,0-.15,3.39Z" style="fill:#729AF5"></path><path d="M186.61,49.62q-.75-2.79-1.61-5.56l1.18.1q.6,2.13,1.14,4.26c.66-1.31,1.34-2.62,2-3.92l1.07.14q-1.43,2.52-2.76,5.09l-.33,3-1-.11Z" style="fill:#729AF5"></path><path d="M159,64.2l-.83.17c-.57-2.74-1.13-5.48-1.7-8.22l1.28-.26q1.63,2.78,3.13,5.6l-1-6c.3-.06.61-.11.91-.15q.66,4.14,1.33,8.28l-1,.17q-1.63-3.16-3.44-6.27C158.14,59.76,158.57,62,159,64.2Z" style="fill:#729AF5"></path><path d="M165.51,58.45c0,.28.07.56.1.84-.71.08-1.43.17-2.14.27l.41,3c.85-.12,1.7-.23,2.54-.32l.1.85q-1.72.18-3.45.45c-.42-2.77-.83-5.54-1.25-8.31,1.26-.19,2.52-.35,3.78-.49l.09.85c-.91.1-1.82.21-2.73.34l.4,2.84Z" style="fill:#729AF5"></path><path d="M169.62,62.76l-1.29.11c-.63-2.76-1.3-5.5-2-8.24l1-.1q.87,3.51,1.66,7c.12-2.4.27-4.79.45-7.19l1-.07q.72,3.54,1.37,7.09.3-3.6.68-7.2l.9,0q-.49,4.22-.89,8.43l-1.24.06q-.57-2.82-1.18-5.63C169.91,58.93,169.76,60.85,169.62,62.76Z" style="fill:#729AF5"></path><path d="M177.82,59.51q-.88-2.7-1.86-5.4H177c.47,1.37.92,2.76,1.35,4.14.49-1.36,1-2.72,1.54-4.08l1,0q-1.11,2.64-2.11,5.31c0,1-.05,2-.08,3l-.93,0C177.79,61.52,177.8,60.51,177.82,59.51Z" style="fill:#729AF5"></path><path d="M184.58,58.2c0,.27-.05.55-.08.83-.71-.06-1.43-.12-2.14-.16l-.19,3c.85,0,1.7.12,2.55.2l-.08.85c-1.16-.11-2.31-.2-3.47-.26.15-2.79.31-5.59.46-8.38,1.26.07,2.53.16,3.79.28l-.08.85c-.91-.09-1.83-.16-2.74-.22-.06.95-.12,1.91-.19,2.86C183.14,58.08,183.86,58.13,184.58,58.2Z" style="fill:#729AF5"></path><path d="M186.64,61.41l-.51,1.64-.87-.09q1.23-4.1,2.6-8.16l1.48.18q.33,4.29.49,8.56l-.93-.14c0-.58-.06-1.15-.1-1.72Q187.72,61.53,186.64,61.41Zm.22-.79,1.92.24c-.11-1.64-.23-3.29-.37-4.93Q187.62,58.27,186.86,60.62Z" style="fill:#729AF5"></path><path d="M193.93,55.71c1.44.27,1.9,1.06,1.65,2.28-.05.22-.1.44-.14.67-.19.9-.64,1.39-1.43,1.47a1.57,1.57,0,0,1,.74,1.94l-.26,1.28a2.09,2.09,0,0,0,0,1l-.94-.19a2.3,2.3,0,0,1,0-1l.26-1.3c.18-.93-.22-1.31-1-1.46l-.68-.12-.61,3.54-.93-.16,1.34-8.29Zm-1,3.85c.77.14,1.28,0,1.45-.9.06-.26.11-.52.16-.79.14-.74-.08-1.19-.83-1.32l-1-.18c-.18,1-.35,2-.53,3.06Z" style="fill:#729AF5"></path><path d="M176.49,92.21s-2.93,14.75,0,22.62,14.75,14.75,6.39,28.52-16.23,19.17-10.33,34.91,7.87,19.17,7.87,19.17" style="fill:none;stroke:#263238;stroke-linejoin:round"></path><path d="M97.87,105.75l-7.22-6.93A8.6,8.6,0,0,0,83,96.6l-9.8,2a8.61,8.61,0,0,1-9.48-12.19l4.36-9a8.58,8.58,0,0,0-.26-8l-4.94-8.7A8.61,8.61,0,0,1,71.5,47.94l9.91,1.37a8.58,8.58,0,0,0,7.53-2.73l6.74-7.38a8.61,8.61,0,0,1,14.83,4.28l1.77,9.85a8.58,8.58,0,0,0,4.92,6.32l9.1,4.13a8.61,8.61,0,0,1,.51,15.43L118,83.93a8.6,8.6,0,0,0-4.49,6.63l-1.12,9.94A8.6,8.6,0,0,1,97.87,105.75Z" style="fill:#d9d9d9;stroke:#263238;stroke-linejoin:round"></path><path d="M98.46,104.28a7.87,7.87,0,0,1-2.65-1.7l-.63-.61" style="fill:none;stroke:#263238;stroke-linejoin:round"></path><path d="M106.64,102.73a8,8,0,0,1-3.72,1.89" style="fill:none;stroke:#263238;stroke-linejoin:round"></path><path d="M109.34,96.26l-.17,1.49a7.74,7.74,0,0,1-2.53,5" style="fill:none;stroke:#263238;stroke-linejoin:round"></path><path d="M123.59,77.42a7.58,7.58,0,0,1-1.15.75l-8.11,4.34a7.8,7.8,0,0,0-2.67,2.33" style="fill:none;stroke:#263238;stroke-linejoin:round"></path><path d="M110.38,57.51a8,8,0,0,0,3.21,2.67L122,64A7.89,7.89,0,0,1,126.41,73" style="fill:none;stroke:#263238;stroke-linejoin:round"></path><path d="M107.89,47.77l1.18,6.59a8,8,0,0,0,1.31,3.15" style="fill:#fff;stroke:#263238;stroke-linejoin:round"></path><path d="M105.45,41.28a7.83,7.83,0,0,1,2,4" style="fill:none;stroke:#263238;stroke-linejoin:round"></path><path d="M276.64,128.08,267,125.42a8.58,8.58,0,0,0-7.82,1.7l-7.66,6.44a8.61,8.61,0,0,1-14.14-6.21l-.44-10a8.63,8.63,0,0,0-4-6.92l-8.49-5.3a8.61,8.61,0,0,1,1.54-15.36l9.36-3.51a8.59,8.59,0,0,0,5.33-6l2.42-9.71a8.6,8.6,0,0,1,15.08-3.28l6.23,7.82a8.63,8.63,0,0,0,7.34,3.22l10-.7A8.61,8.61,0,0,1,289.46,91L284,99.31a8.59,8.59,0,0,0-.79,8l3.75,9.28A8.61,8.61,0,0,1,276.64,128.08Z" style="fill:#d9d9d9;stroke:#263238;stroke-linejoin:round"></path><path d="M276.46,126.5a7.89,7.89,0,0,1-3.14-.23l-.85-.24" style="fill:none;stroke:#263238;stroke-linejoin:round"></path><path d="M282.92,121.25a8.16,8.16,0,0,1-2.38,3.43" style="fill:#fff;stroke:#263238;stroke-linejoin:round"></path><path d="M282.21,114.27l.56,1.4a7.81,7.81,0,0,1,.15,5.58" style="fill:none;stroke:#263238;stroke-linejoin:round"></path><path d="M285.78,90.93a8.93,8.93,0,0,1-.66,1.2l-5.07,7.67a8,8,0,0,0-1.24,3.32" style="fill:none;stroke:#263238;stroke-linejoin:round"></path><path d="M264.68,79.69a7.9,7.9,0,0,0,4.1.82l9.18-.64a7.88,7.88,0,0,1,8.21,5.85" style="fill:none;stroke:#263238;stroke-linejoin:round"></path><path d="M257.86,72.31,262,77.55a7.91,7.91,0,0,0,2.65,2.14" style="fill:none;stroke:#263238;stroke-linejoin:round"></path><path d="M252.63,67.77a7.78,7.78,0,0,1,3.67,2.58" style="fill:none;stroke:#263238;stroke-linejoin:round"></path><path d="M405.37,98.33l-3-9.53a8.59,8.59,0,0,0-5.69-5.64l-9.57-2.92A8.6,8.6,0,0,1,384.6,65l8.13-5.82a8.61,8.61,0,0,0,3.6-7.16l-.18-10A8.61,8.61,0,0,1,409.87,35l8.05,5.94a8.6,8.6,0,0,0,7.92,1.21l9.45-3.26a8.61,8.61,0,0,1,11,10.86l-3.16,9.49a8.6,8.6,0,0,0,1.3,7.9l6,8a8.61,8.61,0,0,1-6.94,13.79l-10-.07a8.6,8.6,0,0,0-7.12,3.67l-5.73,8.2A8.61,8.61,0,0,1,405.37,98.33Z" style="fill:#d9d9d9;stroke:#263238;stroke-linejoin:round"></path><path d="M406.6,97.32a7.76,7.76,0,0,1-1.51-2.76l-.27-.84" style="fill:none;stroke:#263238;stroke-linejoin:round"></path><path d="M414.52,99.88a8.08,8.08,0,0,1-4.17-.12" style="fill:none;stroke:#263238;stroke-linejoin:round"></path><path d="M420,95.48l-.87,1.23a7.76,7.76,0,0,1-4.6,3.17" style="fill:none;stroke:#263238;stroke-linejoin:round"></path><path d="M441.51,85.76a7.62,7.62,0,0,1-1.37.1l-9.2-.07a7.89,7.89,0,0,0-3.46.77" style="fill:none;stroke:#263238;stroke-linejoin:round"></path><path d="M439.44,62A7.9,7.9,0,0,0,441,65.83l5.54,7.35a7.87,7.87,0,0,1-.43,10.07" style="fill:none;stroke:#263238;stroke-linejoin:round"></path><path d="M441.91,52.2l-2.12,6.36a7.85,7.85,0,0,0-.35,3.39" style="fill:none;stroke:#263238;stroke-linejoin:round"></path><path d="M442.87,45.34a7.78,7.78,0,0,1-.17,4.49" style="fill:none;stroke:#263238;stroke-linejoin:round"></path></g><g id="freepik--character-3--inject-33"><path d="M321.23,155.73s.58-7.7.28-9.33-2.51-4.72-3.78-7.78-3.14-3.13-3.74-1.68.65,4.67.65,4.67l.61,3.24-11.17-5.59c-2.68-1.31-4.2-1.17-4.76-.44h0c-.61.79-.27,1.54,1.44,3l8,4.24-.41,1L296,141.17a1.51,1.51,0,0,0-2.13.71h0a1.51,1.51,0,0,0,.43,1.79L306.19,151l-1.37,0-8.54-4.18a1.48,1.48,0,0,0-2.2,1h0a1.49,1.49,0,0,0,.63,1.52l9.62,5.57-7.76-2.42a1.37,1.37,0,0,0-1.73,1.06h0a1.38,1.38,0,0,0,1,1.59L306,160.21l10.35,4.55,5.78,4,5-8.07Z" style="fill:#fff;stroke:#263238;stroke-linecap:round;stroke-linejoin:round"></path><line x1="309.41" y1="144.92" x2="304.33" y2="156.05" style="fill:#fff;stroke:#263238;stroke-linecap:round;stroke-linejoin:round"></line><path d="M315.25,144.85s-.71,2-.8,2.44-3,4.17-2.11,6.22,4.94,4.11,4.94,4.11" style="fill:#fff;stroke:#263238;stroke-linecap:round;stroke-linejoin:round"></path><path d="M379.65,455.85s-18.66,8.33-22.66,9a3.79,3.79,0,0,0,1.66,4c2.34,1.67,31.34,1.33,36.67,1.33s2.33-9,2.33-9l-16-7Z" style="fill:#fff;stroke:#263238;stroke-linecap:round;stroke-linejoin:round"></path><path d="M374.32,467.18c13.26.25,21.08-.25,24.15-.51-.12,1.87-.88,3.51-3.15,3.51-5.33,0-34.33.34-36.67-1.33a4,4,0,0,1-1.71-2.64C360.05,466.59,365.4,467,374.32,467.18Z" style="fill:#fff;stroke:#263238;stroke-linecap:round;stroke-linejoin:round"></path><path d="M432.65,451.85s-6.33,5.67-10,6.67-9,1.33-7.66,4.33,13.66,3.33,15,3.33a98,98,0,0,1,10,0c3.66.34,14,1.67,15.33.34s0-12.34-1.67-14.67-17.33-2.67-17.33-2.67Z" style="fill:#fff;stroke:#263238;stroke-linecap:round;stroke-linejoin:round"></path><path d="M430,466.18c-1.34,0-13.67-.33-15-3.33a1.64,1.64,0,0,1,.08-1.75c5.76,1.09,14.9,3,24.92,2.75a106.43,106.43,0,0,0,15.85-1.36c.07,2-.07,3.57-.52,4-1.33,1.33-11.67,0-15.33-.34A98,98,0,0,0,430,466.18Z" style="fill:#fff;stroke:#263238;stroke-linecap:round;stroke-linejoin:round"></path><path d="M429.65,300.52s0,10.66-1,14.66-7,15.67-7,15.67l-4,47.67L448,441.18s5.66,4.67,5.66,7.34a25.14,25.14,0,0,0,.67,5.33,70.67,70.67,0,0,1-13-.67c-5.33-1-8.67-1.33-8.67-1.33s-.66-5.33-1-7.33,0-3.67-.66-4.67-34-49-35.67-53-5.67-21.33-5.67-21.33l-7,9.66s6,19.67,6,24.67,8,48.67,8,48.67,2.34,5.66,2,8-.66,6-.66,6l-18.34-6.67s-2-4.67-2-5.67.67-5.33.67-5.33-20.67-62.67-21-65.33-1-8-1-11,20.33-57.67,20.33-57.67l1.67-14s20,5,30.33,4.67a129.46,129.46,0,0,0,21.67-3Z" style="fill:#263238;stroke:#263238;stroke-linecap:round;stroke-linejoin:round"></path><path d="M421.94,201.41s9.21,11,12.89,25.45-3.38,54.91-3.38,59.2,2.46,12,0,14.72-19.32,4.3-28.83,4.3-24.84-5.83-26.07-8.9,2.76-11.35,2.76-13.49,5.52-61,5.52-61S349.25,195.89,344.35,191s-25.46-23-25.46-23l5.83-10.13s62,35.05,63.27,35.67,12.48-.7,20.15,1.75A73.79,73.79,0,0,1,421.94,201.41Z" style="fill:#696969;stroke:#263238;stroke-linejoin:round"></path><path d="M387.9,153.56a64.92,64.92,0,0,0-3.07,8.28c-.61,2.76.62,5.83-.61,7.06s-6.14,3.06-6.14,5.52,2.76,3.68,2.76,3.68l.92,5.52h6.08L383,189.45a38,38,0,0,0,1.54,4.6c.61,1.22,1.22,4.9,4,5.21s7.67-1.53,7.67-1.53l2.15,9.5L421,199l-1.53-12s7.05-5.52,6.13-18.09-7.36-15-15.33-17.49S387.9,153.56,387.9,153.56Z" style="fill:#fff;stroke:#263238;stroke-linecap:round;stroke-linejoin:round"></path><path d="M405.69,176s6.75-6.75,9.51-3.37.61,8.58-1.23,10.73a12.2,12.2,0,0,1-4,3.07s-.61,1.53,3.68,2.45,6.14,1.54,7.67-.61,8.28-11.35,9.51-22.39-11.35-19.32-19.63-19.94S395,147.43,394,147.43s-5.21-6.14-8.58-5.22-.62,5.83-.62,5.83-9.2,2.15-6.44,4.29,14.42,2.15,14.42,2.15,4.9,4.6,6.74,5.52l1.84.92s-2.45-.61-1.84,2.46,4.3,5.52,4.3,5.52-1.84,2.76,0,4.9Z" style="fill:#263238;stroke:#263238;stroke-linecap:round;stroke-linejoin:round"></path><path d="M387.29,170.28c0,1.1.41,2,.92,2s.92-.89.92-2-.42-2-.92-2S387.29,169.18,387.29,170.28Z" style="fill:#263238"></path><path d="M391.89,168s-2.15-4-5.52-3.07" style="fill:none;stroke:#263238;stroke-linecap:round;stroke-linejoin:round"></path><path d="M426.24,114l2.15,47.24S411.21,163.38,397.1,148Z" style="fill:#729AF5;stroke:#263238;stroke-linecap:round;stroke-linejoin:round"></path><polygon points="423.17 195.58 424.4 203.25 391.27 213.68 391.89 205.09 423.17 195.58" style="fill:#696969;stroke:#263238;stroke-linejoin:round"></polygon><path d="M343.59,210.27h0a6,6,0,0,0,6-6l-1.81-16.54h-8.45l-1.81,16.54A6,6,0,0,0,343.59,210.27Z" style="fill:#fff;stroke:#263238;stroke-linecap:round;stroke-linejoin:round"></path><rect x="342.77" y="210.27" width="1.63" height="14.64" transform="translate(687.17 435.17) rotate(180)" style="fill:#fff;stroke:#263238;stroke-linecap:round;stroke-linejoin:round"></rect><path d="M336.57,226.23c0,.73,3.14,1.32,7,1.32s7-.59,7-1.32-3.14-1.32-7-1.32S336.57,225.5,336.57,226.23Z" style="fill:#fff;stroke:#263238;stroke-linecap:round;stroke-linejoin:round"></path><path d="M419.25,233.85s-21.36,38.85-24.2,41.08-6.92,2.85-8.95,1.63-36-44.94-36-44.94-4.88-2.65-5.7-3.05-4.06-1.83-5.28-5.29,0-8.13,0-8.13a5.58,5.58,0,0,1-1.22-3.87c.2-2.23,1.62-2.23,2.64-1.62s4.88,1.22,6.1,1.22h1.22l-.41-1.83a4.36,4.36,0,0,1,4.07,1.22c1.63,1.83,1.83,4.88,1.83,6.5s.61,7.53.61,7.53l31.11,26s8.14-26.85,10-30.51,6.71-8.54,13.82-6.1" style="fill:#696969;stroke:#263238;stroke-linejoin:round"></path><path d="M337.91,211.28c.2-2.23,1.62-2.23,2.64-1.62a10,10,0,0,0,2.41.73l2.88.28a7.57,7.57,0,0,0-.61-2.23c-.41-.61-3.05-2-3.05-4.07s.61-3.46,2-2,4.88,3.86,6.3,5.08,2,4.27,2,4.27l-.07.09a12.89,12.89,0,0,1,.88,5c0,1.63.61,7.53.61,7.53l4.16,3.48-6.06,6.36-2-2.52s-4.88-2.65-5.7-3.05-4.06-1.83-5.28-5.29,0-8.13,0-8.13A5.58,5.58,0,0,1,337.91,211.28Z" style="fill:#fff;stroke:#263238;stroke-linecap:round;stroke-linejoin:round"></path><line x1="361.49" y1="231.01" x2="354.99" y2="237.72" style="fill:none;stroke:#263238;stroke-linecap:round;stroke-linejoin:round"></line><polyline points="418.65 325.85 409.99 327.52 389.65 365.52" style="fill:none;stroke:gray;stroke-linecap:round;stroke-linejoin:round"></polyline></g><g id="freepik--character-2--inject-33"><path d="M220.82,455s-16.2,6.24-10.52,9.29,22.18-3.18,26.37-4S220.82,455,220.82,455Z" style="fill:#263238;stroke:#263238;stroke-linecap:round;stroke-linejoin:round"></path><path d="M266.85,457.65c0,1.28-5.8,11.68,1.22,12.53s12-15,12-15Z" style="fill:#263238;stroke:#263238;stroke-linecap:round;stroke-linejoin:round"></path><path d="M236.36,254.59s-12.1,19.26-17.05,35.7-8.79,43.43-9.51,60.6,4.35,77.61,5.09,86.73.76,15,.76,15,7.23,8.52,28.26,8.74,41.26-6.45,41.26-6.45l.3-3.22s10.09.7,17.91-3.71,8.91-7,8.91-7-11.45-63.25-11.08-82.26-4-42.19-7.55-51.81-13.9-42.29-16.21-46.2a36.83,36.83,0,0,0-2.9-4.54S259,261.54,236.36,254.59Z" style="fill:#729AF5;stroke:#263238;stroke-linecap:round;stroke-linejoin:round"></path><line x1="285.47" y1="451.68" x2="286.85" y2="409.71" style="fill:none;stroke:#263238;stroke-linecap:round;stroke-linejoin:round"></line><line x1="286.93" y1="407" x2="287.3" y2="401.58" style="fill:none;stroke:#263238;stroke-linecap:round;stroke-linejoin:round"></line><path d="M240.75,298.48c-.08,1.59-.15,3.17-.19,4.7" style="fill:none;stroke:#263238;stroke-linecap:round;stroke-linejoin:round"></path><path d="M244.46,260.17S242,277.92,241,294.83" style="fill:none;stroke:#263238;stroke-linecap:round;stroke-linejoin:round"></path><path d="M247,261.55s.25,9.16-.34,29" style="fill:none;stroke:#263238;stroke-linecap:round;stroke-linejoin:round"></path><path d="M275.81,290.65c0,2.31,0,4.74-.07,7.32" style="fill:none;stroke:#263238;stroke-linecap:round;stroke-linejoin:round"></path><path d="M271.63,260.72s3.34,8.35,4.06,25.47" style="fill:none;stroke:#263238;stroke-linecap:round;stroke-linejoin:round"></path><path d="M295.08,333.05s.28-.77-.57,19.07" style="fill:none;stroke:#263238;stroke-linecap:round;stroke-linejoin:round"></path><path d="M287.84,362.87l-.27,2.64" style="fill:none;stroke:#263238;stroke-linecap:round;stroke-linejoin:round"></path><path d="M293,332.3a234.55,234.55,0,0,0-4.68,26.43" style="fill:none;stroke:#263238;stroke-linecap:round;stroke-linejoin:round"></path><path d="M285.88,216.33c-1.18-5-13.47-6.75-17.42-8.53S265.54,194,265.54,194a47,47,0,0,0,5.94-8.83,76,76,0,0,0,4.36-11.87s-12.72-9.72-22.93-14-12.34.3-12.34.3a30.26,30.26,0,0,0-1.16,5.3l-.14,4.66a13.51,13.51,0,0,0-2.61,8.93c.52,5,1.29,12.71,2.93,13.42a69,69,0,0,0,7.95,1.91l-.3,10-9.85-5s-3.16-6.1-5.74-8.84l-4.53-4.81-5.49-16.84-11.4-36.12-2.34-10.33s-3-3-5.64-3.13-4.46.79-4.5,1.9,1.26,7.62,2,8.56,3.64,1.78,3.64,1.78l.77,5.2h.11c.27,9.05,4.93,45.82,6,48.18,1.25,2.7,14.44,26.09,15.73,27.46s4.71,9.81,4.71,9.81-6,10.16-5.19,17.19,9.21,15.28,9.21,15.28,2.85,5.09,19.15,6.58,20.53-1.31,22.28-3.92S287.07,221.36,285.88,216.33Z" style="fill:#fff;stroke:#263238;stroke-linecap:round;stroke-linejoin:round"></path><path d="M248.88,149.18s14.57-7.56,20.27-8.72,16.12,7.48,19.38,9.92,5.13,6.82,5.71,9.84-1.07,13.3-1.59,19.63-.07,13.33-1.79,15a4.76,4.76,0,0,1-3,1.57l-5.3-23.5s-21.6-13.65-25.86-16.12a48.44,48.44,0,0,0-9.55-3.95Z" style="fill:#729AF5;stroke:#263238;stroke-linecap:round;stroke-linejoin:round"></path><path d="M295.12,197.59a5,5,0,1,1-4.85-5.14A5,5,0,0,1,295.12,197.59Z" style="fill:#fff;stroke:#263238;stroke-linecap:round;stroke-linejoin:round"></path><path d="M246.4,165.12l-.42,3s-5.44,3.5-4.81,4.52,3.62,1.78,3.62,1.78" style="fill:none;stroke:#263238;stroke-linecap:round;stroke-linejoin:round"></path><path d="M244,178.72a7,7,0,0,0,8.39-1.75s-.47,4.65-4.2,6.54S244,178.72,244,178.72Z" style="fill:none;stroke:#263238;stroke-linecap:round;stroke-linejoin:round"></path><path d="M252.61,169.31a6.59,6.59,0,0,1,4.48.83" style="fill:none;stroke:#263238;stroke-linecap:round;stroke-linejoin:round"></path><path d="M241,168.29s2.38-1.6,3.66.44" style="fill:none;stroke:#263238;stroke-linecap:round;stroke-linejoin:round"></path><path d="M253.11,164s6-.48,7.54,4.23" style="fill:none;stroke:#263238;stroke-linecap:round;stroke-linejoin:round"></path><path d="M244.8,163.07s-3-1.09-4.05,1.54" style="fill:none;stroke:#263238;stroke-linecap:round;stroke-linejoin:round"></path><path d="M239.59,191.92s13,1.73,18-.12l-9.87,6.37-.2-4.34S242.54,193.68,239.59,191.92Z" style="fill:#263238;stroke:#263238;stroke-linecap:round;stroke-linejoin:round"></path><path d="M209.22,127a82.85,82.85,0,0,0-2.15-8.39c-.7-1.5-3.3-1.21-5.48-2.57s-3.14-.09-2.08,1.79,4.16,2.9,4.16,2.9-.49,4.24.36,6.67a7.17,7.17,0,0,0,3.59,3.62" style="fill:none;stroke:#263238;stroke-linecap:round;stroke-linejoin:round"></path><path d="M199.56,116h0a6,6,0,0,1-5.85-6.22L196,93.33l8.45.25,1.32,16.59A6,6,0,0,1,199.56,116Z" style="fill:#fff;stroke:#263238;stroke-linecap:round;stroke-linejoin:round"></path><rect x="198.53" y="116.01" width="1.63" height="14.64" transform="translate(3.79 -5.92) rotate(1.72)" style="fill:none;stroke:#263238;stroke-linecap:round;stroke-linejoin:round"></rect><path d="M206.09,132.18c0,.73-3.18,1.23-7.05,1.12s-7-.81-7-1.54,3.18-1.22,7.05-1.11S206.12,131.45,206.09,132.18Z" style="fill:#fff;stroke:#263238;stroke-linecap:round;stroke-linejoin:round"></path><path d="M199.9,117.05s-4.59-1.24-5-.15-.26,2.58.28,3,5.53.54,6.1,0S201.76,116.55,199.9,117.05Z" style="fill:#fff;stroke:#263238;stroke-linecap:round;stroke-linejoin:round"></path><path d="M196.1,120.45a1.26,1.26,0,0,0-1.34,1.44c.14,1.49,1.21,2.81,2.13,2.84s5.92.18,6-1.3.79-1.64-1.6-2.08S196.1,120.45,196.1,120.45Z" style="fill:#fff;stroke:#263238;stroke-linecap:round;stroke-linejoin:round"></path><path d="M195.62,124s-.08,2.77.65,3.17,4.23.68,5.18-.22,1.73-2,.25-2S195.62,124,195.62,124Z" style="fill:#fff;stroke:#263238;stroke-linecap:round;stroke-linejoin:round"></path><path d="M197,127.69s-.4.91.87,1.69,2.38.81,3,.09-.13-1.85-.13-1.85Z" style="fill:#fff;stroke:#263238;stroke-linecap:round;stroke-linejoin:round"></path><path d="M276.15,256.8c.75-1.13,3.13-9.82,5.37-17.24-1.19,0-.75.51-2.67-.1-9.25-3-9.84-16.64-9.72-20.64.08-2.46.47-7.21.77-10.48a14.91,14.91,0,0,1-1.44-.54,3.45,3.45,0,0,1-1.44-1.4c-3.42,6.43-16.08,30.53-20.47,42.76,0,0-4.28-20,.55-45.41l-2.31-1.16L230.7,221.67s-6,10.16-5.19,17.19,9.21,15.28,9.21,15.28,2.85,5.09,19.15,6.58S274.4,259.41,276.15,256.8Z" style="fill:#729AF5;stroke:#263238;stroke-linecap:round;stroke-linejoin:round"></path><path d="M264.76,164.67s.68,21.69-.12,26-8.22,7.42-9.23,7.72-1.48,4.63,2.13,6.74,8-.43,8-.43-1.79,3.95-2.8,4.25-2.74,2.25,2.55,4.08,12.67.05,14.69-.56,4.62,1.47,4.62,1.47,1.14-4.63-1.94-13.06-4.57-14.48-4.48-17.48a23.55,23.55,0,0,1,1.53-6.62Z" style="fill:#263238;stroke:#263238;stroke-linecap:round;stroke-linejoin:round"></path><path d="M240.57,159.61s9.67-.05,16.54,4.16,22.45,18.68,22.45,18.68,6.5-5.47,6.93-8.46-9.66-11.63-20.11-18.94-18.49-6.23-20.16-6S240.64,157.27,240.57,159.61Z" style="fill:#fff;stroke:#263238;stroke-linecap:round;stroke-linejoin:round"></path><path d="M274.72,210.32s8.65.93,12.2,4.7,12.48,28.72,16.27,35.84,4.93,13.49,4.86,15.82-8.89,40.42-8.89,40.42,3.37,10.1,3.3,12.44-5.5,12.26-6.84,12.55a16.55,16.55,0,0,1-2.62.21,1.4,1.4,0,0,1-1.4-1.66l1.42-7.72s-3.9-3.45-3.8-6.78,2.72-12.93,2.75-13.93.53-39.67.53-39.67l-14.42-30.78" style="fill:#fff;stroke:#263238;stroke-linecap:round;stroke-linejoin:round"></path><path d="M289.58,313.68a15,15,0,0,0-.93,5.64c.23,2.61,1.08,4.78.86,7.07s.81,3.7,1.62,2a45.1,45.1,0,0,0,1.89-5.51l1.47-4.19" style="fill:#fff;stroke:#263238;stroke-linecap:round;stroke-linejoin:round"></path></g><g id="freepik--character-1--inject-33"><path d="M102.87,459.15l-.28,6.66,3,.79.15-3.66s3.16,4.46,5.13,5.21,14.21,3.26,17,1.37-1.51-3.73-4.38-6.85S102.87,459.15,102.87,459.15Z" style="fill:#263238;stroke:#263238;stroke-linejoin:round"></path><path d="M94.66,254.63s-13.4,25.47-13.44,42.48c-.06,30.34,12.7,47.9,17.93,58.46s9.47,21.08,9.47,21.08S93.26,441.4,92.4,446s-2.05,9.25-2.05,9.25,14.38,7.27,25.7,7.74,15.14-3,15.14-3l.72-25.33s14.43-34.43,18.83-43.92,9.24-23,9.21-29c-.21-35.37-16.45-78.08-16.45-78.08l-5.3-33.25S114.24,257.11,94.66,254.63Z" style="fill:#729AF5"></path><g style="opacity:0.53"><path d="M108.92,396.83l.43-2.35c2.22-12.07,3.13-17.06-1.09-31.54-1.55-5.31-4.46-12.75-7.53-20.62-5.94-15.18-12.66-32.39-13.88-44.18-1.43-13.82,6.06-34.57,9.56-43.31-.59-.06-1.17-.12-1.75-.2,0,0-.6,1.15-1.55,3.11-3.83,10.12-9.57,27.89-8.25,40.61,1.25,12.06,8,29.4,14,44.7,3.06,7.83,5.95,15.22,7.47,20.45,4.09,14,3.26,18.54,1,30.62l-.43,2.36c-1.82,10-7,43.92-9.66,61.86l1.91.74C101.88,441.26,107.09,406.89,108.92,396.83Z" style="fill:#fff"></path><path d="M153.72,356.21c-1.83-25.55-10.78-66.21-11.35-68.78l.3-9-1.58-9.9H141l-.63,18.93a1.06,1.06,0,0,0,0,.25c.1.42,9.47,42.5,11.33,68.61,1.85,25.88-3.64,38.51-3.7,38.64l.68.3c.8-1.82,1.5-3.38,2-4.55s1-2.27,1.54-3.46C153.59,380.79,154.74,370.53,153.72,356.21Z" style="fill:#fff"></path><path d="M134.69,254.07c0,.38-.63,37.92-.63,42.91,0,1.79.92,7.31,2.2,15,2.48,14.8,6.21,37.16,6.63,52.57.62,22.9-10.3,57.31-10.41,57.65l.13,4.68c.11-.35,12.91-39.14,12.28-62.38-.42-15.55-4.17-38-6.66-52.85-1.21-7.27-2.17-13-2.17-14.63,0-5,.62-42.5.63-42.88Z" style="fill:#fff"></path><path d="M110.11,336.59c-6.78-17.83-13.79-36.26-13.79-44.65,0-13.85,5.71-31.19,7.69-36.76l-2.12,0c-2.2,6.26-7.57,23-7.57,36.78,0,8.76,7.08,27.36,13.92,45.36,6.48,17,13.18,34.62,12.58,41-.81,8.44-6.69,42.22-11,66.88-1.26,7.2-2.19,12.55-2.85,16.4.65.17,1.3.33,2,.47.75-4.4,1.77-10.25,2.87-16.53,4.3-24.69,10.19-58.51,11-67C123.46,371.65,117,354.62,110.11,336.59Z" style="fill:#fff"></path><path d="M134,366.44c0-.15-1.1-19.23-2.34-30.45-1.2-10.76-4.69-28.46-5-30.23L131,256.07l-2-.18-4.42,49.84a.88.88,0,0,0,0,.28c0,.19,3.79,19,5,30.2s2.77,26.08,2.79,26.23Z" style="fill:#fff"></path><path d="M122,462.88c1.81-19.71,7.75-88.6,3.89-101.83-4.46-15.33-17.08-66.54-17.64-69.31-.43-2.15,3.64-22.17,6.31-34.28l-2-.43c-.71,3.25-7,31.84-6.31,35.1.56,2.78,13.21,54.12,17.69,69.48,3.73,12.8-2.27,82.39-4,101.42C120.72,463,121.39,463,122,462.88Z" style="fill:#fff"></path><path d="M121.46,255.8c-.72,4-6.95,39.4-6.31,43.24s1.06,7.32,1.07,7.36l2-.24s-.45-3.69-1.08-7.45c-.44-2.65,3.53-26.9,6.31-42.56Z" style="fill:#fff"></path></g><path d="M94.66,254.63s-13.4,25.47-13.44,42.48c-.06,30.34,12.7,47.9,17.93,58.46s9.47,21.08,9.47,21.08S93.26,441.4,92.4,446s-2.05,9.25-2.05,9.25,14.38,7.27,25.7,7.74,15.14-3,15.14-3l.72-25.33s14.43-34.43,18.83-43.92,9.24-23,9.21-29c-.21-35.37-16.45-78.08-16.45-78.08l-5.3-33.25S114.24,257.11,94.66,254.63Z" style="fill:none;stroke:#263238;stroke-linejoin:round"></path><path d="M66.2,185.1s-3.57,5.15-1.11,10.26,3.08,6.13,3.08,6.13-7.91,5.68-3.72,17.2S84.87,233.21,109,231.21s34.35-15.6,34.94-29.92-4.13-21.19-4.13-21.19,5-5.84,2.16-11.92a54.36,54.36,0,0,0-5.61-9.57s-11.57-13.59-20-15.51-18.19,4.82-22.8,11S76.92,173.85,74.1,179.05A12,12,0,0,1,66.2,185.1Z" style="fill:#263238;stroke:#263238;stroke-linejoin:round"></path><path d="M174.53,203.12c-1.12-9.49-10.51-41-10.74-41.84s1.8-11.34.32-14.06-7.12-7.46-9.33-5.43-2.85,4.66-1.71,9.22,5.37,11.37,5.37,11.37L160.78,202s-18.6-12.45-24.12-13.74-18.22,4.29-19.16,1.33-1.35-12.26-1.35-12.26-.81.5-5.09,1.12-13-.81-13-.81,3.31,10,3.17,13.14-1.46,3.39-5.79,5.33c-3.91,1.76-12.89.94-16.53,5-.46.35-2.06,2.06-3.72,9.84-2,9.21-11,40.42-10.94,46.26s4.66,9.21,8.19,7.24,12.76-33.76,13.4-35.94c2,4.65,4.13,9.7,4.39,10.13.5.82,1.42,10.41,1.3,13.33s2.63,7,7.09,8.25,26.27.3,31.92-1.59,8.92-3.88,9.11-8.65-.21-39.82-.21-39.82,3.92,1.49,9.65,4.12,23,8.38,25.25,5.56S175.32,209.79,174.53,203.12Z" style="fill:#fff;stroke:#263238;stroke-linecap:round;stroke-linejoin:round"></path><path d="M116.15,177.35s-.81.5-5.09,1.12c-3.53.51-10.06-.37-12.23-.69.72,1.52,1.42,2.91,1.89,3.69,2.31,3.79,11.64,6.57,16.46,6.77A105.41,105.41,0,0,1,116.15,177.35Z" style="fill:#263238;stroke:#263238;stroke-linejoin:round"></path><path d="M139.68,250c.2-4.77-.21-39.82-.21-39.82s1.67.64,4.42,1.8L146,192.8c-3.82-2.21-7.41-4.06-9.37-4.52-3.08-.72-8.41.71-12.67,1.59l4,21.94c-11.08,4.85-29.94,5.39-29.94,5.39l-5.37-20.28c-4.42.83-10.81.94-13.74,4.19-.46.35-2.06,2.06-3.72,9.84-.41,1.89-1.12,4.73-2,8.07L85,231.53c.48-1.59.8-2.68.9-3,2,4.65,4.13,9.7,4.39,10.13.5.82,1.42,10.41,1.3,13.33s2.63,7,7.09,8.25,26.27.3,31.92-1.59S139.49,254.75,139.68,250Z" style="fill:#263238;stroke:#263238;stroke-linecap:round;stroke-linejoin:round"></path><path d="M154,143.41s2.05-4.29,3.15-3.88,2.12,1.49,2.06,2.15-3.2,4.54-4,4.63S152.45,144.5,154,143.41Z" style="fill:#fff;stroke:#263238;stroke-linecap:round;stroke-linejoin:round"></path><path d="M159.1,142.75a1.25,1.25,0,0,1,2-.07c1,1.07,1.34,2.75.76,3.47s-3.73,4.59-4.87,3.66-1.76-.47-.54-2.57S159.1,142.75,159.1,142.75Z" style="fill:#fff;stroke:#263238;stroke-linecap:round;stroke-linejoin:round"></path><path d="M162.06,144.68s2.15,1.74,2,2.55-2.25,3.65-3.55,3.79-2.63,0-1.7-1.14S162.06,144.68,162.06,144.68Z" style="fill:#fff;stroke:#263238;stroke-linecap:round;stroke-linejoin:round"></path><path d="M164,148.15s.95.3.71,1.77-.94,2.33-1.86,2.3-1.32-1.31-1.32-1.31Z" style="fill:#fff;stroke:#263238;stroke-linecap:round;stroke-linejoin:round"></path><path d="M155.46,156.93a81.64,81.64,0,0,1-5-7.1c-.69-1.51,1.23-3.29,1.62-5.83s2-2.44,2.72-.41-.52,5-.52,5,3.53,2.39,4.82,4.62a7.2,7.2,0,0,1,.4,5.08" style="fill:#fff;stroke:#263238;stroke-linecap:round;stroke-linejoin:round"></path><path d="M121.08,154.46s3,9.95,2.91,13.13c-.23,5.38-4.2,17-10.68,17.29-4.44.17-14.9-2.73-17.36-6.78-1.49-2.45-5.12-10.82-5.12-10.82s-2.7-5.42,2.66-13.16,9.52-11.82,16.16-12.07S121.08,154.46,121.08,154.46Z" style="fill:#fff;stroke:#263238;stroke-linecap:round;stroke-linejoin:round"></path><path d="M110.69,155.36s.17,2.4,2,3.27,5.44,3.14,2.44,5.14c0,0-2.18,1.5-3,1.47" style="fill:none;stroke:#263238;stroke-linecap:round;stroke-linejoin:round"></path><path d="M116.84,167s-.61,2.1-5.41,2.69a47.77,47.77,0,0,1-6.93.51s4,5.48,8.34,3.8S116.84,167,116.84,167Z" style="fill:none;stroke:#263238;stroke-linecap:round;stroke-linejoin:round"></path><path d="M104.65,158.14c.42,1.1.31,2.16-.24,2.36s-1.33-.51-1.74-1.61-.31-2.15.24-2.35S104.24,157.05,104.65,158.14Z" style="fill:#263238"></path><path d="M115.36,155c.42,1.1.31,2.15-.24,2.36s-1.33-.51-1.74-1.61-.31-2.15.24-2.36S115,154,115.36,155Z" style="fill:#263238"></path><path d="M107.14,145.13s-2.47,8.39-10.55,11.24c0,0,.81,5.87-1.5,10.55a10.33,10.33,0,0,1-6.34,5.58s.13,3.19-4.48,5.65-13,6.1-13,6.1l-5.08.85a57,57,0,0,1,11.54-29.61c10.94-14.14,20.31-17,26.75-18.54s13.85-1.14,19.47,4.14,15.12,21,15.12,21S112.08,153.83,107.14,145.13Z" style="fill:#263238;stroke:#263238;stroke-linecap:round;stroke-linejoin:round"></path><path d="M98.75,155.4s1.9-5.72,5.85-4.76" style="fill:none;stroke:#fff;stroke-linecap:round;stroke-linejoin:round"></path><path d="M111.63,152s1.2-3.4,4.54-.61" style="fill:none;stroke:#fff;stroke-linecap:round;stroke-linejoin:round"></path><path d="M80.4,152.83l-.85-37.19,31.26,20.66S100.51,135.08,80.4,152.83Z" style="fill:#729AF5;stroke:#263238;stroke-linecap:round;stroke-linejoin:round"></path><path d="M101.14,186.84s-5.24-2.55-9.07,1.3S88.54,193,88.54,193s-4-.83-5.5,3.78a8.6,8.6,0,0,0,1.67,8.08s-3.23,5.53-1.75,9.93a16.68,16.68,0,0,0,4.39,6.86s-.62,7,.91,10.38a16.88,16.88,0,0,0,5.09,5.88s-1.65,7.6.2,11.35a38.83,38.83,0,0,0,4.06,6.51s-3.66,7.85-2.14,11.58a37.13,37.13,0,0,0,3.4,6.48s-4.54,4.82-3.34,8.21,3.4,6.48,6.16,4.25,3.31-7.53,3.16-11.88,2.45-10.9,1.59-14.27a43,43,0,0,0-2.71-7.12,15.79,15.79,0,0,0,1.1-10.3,29,29,0,0,0-4-8.84,11.22,11.22,0,0,0-.06-6.67c-1.2-3.39-4.68-7.87-4.68-7.87a9.37,9.37,0,0,0,1.32-7.62c-1.16-4.38-5.32-8.56-5.32-8.56s1,.71,2.07-1.58a17.38,17.38,0,0,0,1.28-5.44s4-.35,5.38-2.29S101.14,186.84,101.14,186.84Z" style="fill:#696969;stroke:#263238;stroke-linejoin:round"></path><path d="M121,189.67s3.4-1.53,4.26,1.84.3,8.69,2.23,10.44,2.9,2.45,2.9,2.45-1.66,7.94.53,11.37,3.84,4.16,3.84,4.16a11.35,11.35,0,0,0,.25,10c2.79,5.12,4.07,6.51,4.07,6.51s-2.14,3.24-1.07,9.63,3.94,9.5,3.94,9.5a13.07,13.07,0,0,0-1.76,10.27c1.42,6.07,4.35,7.86,4.35,7.86s-2.73,1.55-1.32,7.61,6.25,2.26,7.48-3.36,2.27-14.58,1.12-19-2-7.42-2-7.42,1.82-3.59.07-9.67-4-8.84-4-8.84a24.81,24.81,0,0,0,.44-10.66c-1.11-5.38-2.71-7.12-2.71-7.12s1.57-5.6.72-9.31-2.79-5.12-2.79-5.12,0-9.34-2.47-12.78-7.57-2.65-7.57-2.65S123.54,177.43,121,189.67Z" style="fill:#696969;stroke:#263238;stroke-linejoin:round"></path><path d="M110,300.38a53,53,0,0,1,7.26,5.9,43.09,43.09,0,0,1,4.13,4.84s8.44-10.33,10.3-14.92" style="fill:none;stroke:#263238;stroke-linejoin:round"></path><path d="M103,295.68s1,.65,2.54,1.65" style="fill:none;stroke:#263238;stroke-linejoin:round"></path><path d="M132.85,420.37c-.51,7.52-.89,13-.89,13" style="fill:none;stroke:#263238;stroke-linejoin:round"></path><path d="M121.34,311.12s13.94,58.29,13.91,67c0,4.88-1.05,21.78-2,35.62" style="fill:none;stroke:#263238;stroke-linejoin:round"></path><path d="M67.1,250s3-2.74,9.64.4" style="fill:none;stroke:#263238;stroke-linecap:round;stroke-linejoin:round"></path><path d="M73.54,254.37a22.39,22.39,0,0,1,.9-4.61c.6-1.41,7.18-4.9,8.29-5.57s1.33,2.39.76,3.26S80,250,80,250s.19,4.12.52,4.67S73.54,254.37,73.54,254.37Z" style="fill:#fff;stroke:#263238;stroke-linecap:round;stroke-linejoin:round"></path><path d="M80.23,250.25h0A6,6,0,0,1,74.45,244l2.49-16.44,8.44.35,1.13,16.59A6.05,6.05,0,0,1,80.23,250.25Z" style="fill:#fff;stroke:#263238;stroke-linecap:round;stroke-linejoin:round"></path><rect x="79.11" y="250.24" width="1.63" height="14.64" transform="translate(10.74 -3.09) rotate(2.37)" style="fill:#fff;stroke:#263238;stroke-linecap:round;stroke-linejoin:round"></rect><path d="M86.58,266.48c0,.73-3.2,1.2-7.07,1s-7-.89-7-1.62,3.19-1.19,7.06-1S86.61,265.76,86.58,266.48Z" style="fill:#fff;stroke:#263238;stroke-linecap:round;stroke-linejoin:round"></path><path d="M79.93,251.56s-9.49-1.31-9.61,1.45,8.85,2.22,11.33,1.71S82.7,251.68,79.93,251.56Z" style="fill:#fff;stroke:#263238;stroke-linecap:round;stroke-linejoin:round"></path><path d="M71.49,254.6s-1,2.42,1.09,3.44,10.15.42,10.52-1.11.75-3.32-1.45-2.21S72.41,254.64,71.49,254.6Z" style="fill:#fff;stroke:#263238;stroke-linecap:round;stroke-linejoin:round"></path><path d="M72.58,258s-2,2.38,1.69,3.76,8.35-.57,8.7-1.79-.24-1.55-1.47-1.6S73.54,257.15,72.58,258Z" style="fill:#fff;stroke:#263238;stroke-linecap:round;stroke-linejoin:round"></path><path d="M74.27,261.8s-2.51,1.13-1.36,3,6.9,4.6,7.9,2.79-4.47-3.57-4.47-3.57l-.57-1.26Z" style="fill:#fff;stroke:#263238;stroke-linecap:round;stroke-linejoin:round"></path></g><g id="freepik--Confetti--inject-33"><polygon points="267.88 53.38 264.38 46.42 260.14 52.26 267.88 53.38" style="fill:#729AF5"></polygon><polygon points="241.32 39.4 243.25 31.85 236.22 33.48 241.32 39.4" style="fill:#729AF5"></polygon><polygon points="210.16 60.76 215.37 66.55 217.92 59.8 210.16 60.76" style="fill:#729AF5"></polygon><polygon points="207.13 28.63 212.34 34.42 214.88 27.67 207.13 28.63" style="fill:#858585"></polygon><polygon points="381.12 21.99 386.33 27.78 388.87 21.03 381.12 21.99" style="fill:#858585"></polygon><polygon points="283.84 30.43 289.05 36.22 291.6 29.47 283.84 30.43" style="fill:#858585"></polygon><polygon points="223.5 84.46 217.07 88.86 223.43 92.27 223.5 84.46" style="fill:#858585"></polygon><polygon points="138.11 26.64 135.12 33.83 142.31 33.23 138.11 26.64" style="fill:#729AF5"></polygon><polygon points="48.41 38.16 41.43 41.61 47.24 45.88 48.41 38.16" style="fill:#729AF5"></polygon><polygon points="45.08 68.36 50.29 74.16 52.84 67.4 45.08 68.36" style="fill:#729AF5"></polygon><polygon points="94.45 31.03 99.66 36.82 102.21 30.07 94.45 31.03" style="fill:#858585"></polygon><polygon points="163.23 71.68 168.44 77.48 170.99 70.72 163.23 71.68" style="fill:#858585"></polygon><polygon points="171.17 32.83 176.38 38.62 178.92 31.86 171.17 32.83" style="fill:#858585"></polygon><polygon points="110.83 86.86 104.39 91.26 110.75 94.67 110.83 86.86" style="fill:#858585"></polygon><polygon points="201.14 112.34 198.14 119.54 205.33 118.94 201.14 112.34" style="fill:#729AF5"></polygon><polygon points="207.84 141.6 200.86 145.06 206.67 149.33 207.84 141.6" style="fill:#729AF5"></polygon><polygon points="168.26 147.9 173.47 153.7 176.02 146.94 168.26 147.9" style="fill:#729AF5"></polygon><polygon points="157.47 116.74 162.69 122.53 165.23 115.78 157.47 116.74" style="fill:#858585"></polygon><polygon points="220.41 164.09 225.62 169.88 228.16 163.12 220.41 164.09" style="fill:#858585"></polygon><polygon points="234.19 118.53 239.4 124.33 241.95 117.57 234.19 118.53" style="fill:#858585"></polygon><polygon points="173.85 172.57 167.42 176.97 173.78 180.38 173.85 172.57" style="fill:#858585"></polygon><polygon points="318.01 87.77 315.01 94.96 322.2 94.36 318.01 87.77" style="fill:#729AF5"></polygon><polygon points="324.71 117.03 317.73 120.49 323.55 124.76 324.71 117.03" style="fill:#729AF5"></polygon><polygon points="285.13 123.33 290.35 129.12 292.89 122.37 285.13 123.33" style="fill:#729AF5"></polygon><polygon points="274.35 92.16 279.56 97.96 282.1 91.2 274.35 92.16" style="fill:#858585"></polygon><polygon points="337.28 139.51 342.49 145.31 345.03 138.55 337.28 139.51" style="fill:#858585"></polygon><polygon points="367.43 125.11 363.07 118.65 359.61 124.98 367.43 125.11" style="fill:#858585"></polygon><polygon points="290.72 147.99 284.29 152.39 290.65 155.81 290.72 147.99" style="fill:#858585"></polygon><polygon points="367.15 35.63 364.16 42.82 371.35 42.22 367.15 35.63" style="fill:#729AF5"></polygon><polygon points="461.01 49.46 454.03 52.92 459.84 57.19 461.01 49.46" style="fill:#729AF5"></polygon><polygon points="334.28 71.19 339.49 76.98 342.04 70.23 334.28 71.19" style="fill:#729AF5"></polygon><polygon points="323.49 40.02 328.7 45.81 331.25 39.06 323.49 40.02" style="fill:#858585"></polygon><polygon points="386.42 87.37 391.63 93.16 394.18 86.41 386.42 87.37" style="fill:#858585"></polygon><polygon points="400.21 41.82 405.42 47.61 407.96 40.86 400.21 41.82" style="fill:#858585"></polygon><polygon points="339.87 95.85 333.44 100.25 339.79 103.67 339.87 95.85" style="fill:#858585"></polygon><polygon points="405.51 114.74 402.51 121.93 409.71 121.33 405.51 114.74" style="fill:#729AF5"></polygon><polygon points="412.22 144 405.23 147.46 411.05 151.73 412.22 144" style="fill:#729AF5"></polygon><polygon points="372.64 150.3 377.85 156.09 380.39 149.34 372.64 150.3" style="fill:#729AF5"></polygon><polygon points="360.25 98.68 355.89 92.22 352.43 98.56 360.25 98.68" style="fill:#858585"></polygon><polygon points="424.78 166.48 429.99 172.28 432.54 165.52 424.78 166.48" style="fill:#858585"></polygon><polygon points="438.57 120.93 443.78 126.73 446.32 119.97 438.57 120.93" style="fill:#858585"></polygon><polygon points="378.23 174.96 371.79 179.36 378.15 182.78 378.23 174.96" style="fill:#858585"></polygon><polygon points="331.79 186.06 328.8 193.26 335.99 192.66 331.79 186.06" style="fill:#729AF5"></polygon><polygon points="338.5 215.32 331.51 218.78 337.33 223.05 338.5 215.32" style="fill:#729AF5"></polygon><polygon points="298.92 221.62 304.13 227.41 306.68 220.66 298.92 221.62" style="fill:#729AF5"></polygon><polygon points="288.13 190.46 293.34 196.25 295.89 189.5 288.13 190.46" style="fill:#858585"></polygon><polygon points="351.06 237.8 356.27 243.6 358.82 236.84 351.06 237.8" style="fill:#858585"></polygon><polygon points="364.85 192.25 370.06 198.05 372.6 191.29 364.85 192.25" style="fill:#858585"></polygon><polygon points="227.88 243.69 223.5 237.24 220.06 243.59 227.88 243.69" style="fill:#729AF5"></polygon><polygon points="199.03 225.2 192.16 228.87 198.1 232.96 199.03 225.2" style="fill:#729AF5"></polygon><polygon points="176.65 252.19 181.87 257.98 184.41 251.23 176.65 252.19" style="fill:#729AF5"></polygon><polygon points="165.87 221.02 171.08 226.81 173.62 220.06 165.87 221.02" style="fill:#858585"></polygon><polygon points="228.8 268.37 234.01 274.16 236.55 267.41 228.8 268.37" style="fill:#858585"></polygon><polygon points="242.58 222.82 247.79 228.61 250.34 221.86 242.58 222.82" style="fill:#858585"></polygon><polygon points="157.36 294.87 160.54 301.98 165.03 296.33 157.36 294.87" style="fill:#858585"></polygon><polygon points="63.29 109.95 60.29 117.14 67.48 116.54 63.29 109.95" style="fill:#729AF5"></polygon><polygon points="69.99 139.21 63.01 142.66 68.83 146.93 69.99 139.21" style="fill:#729AF5"></polygon><polygon points="30.41 145.51 35.63 151.3 38.17 144.54 30.41 145.51" style="fill:#729AF5"></polygon><polygon points="19.63 114.34 24.84 120.13 27.38 113.38 19.63 114.34" style="fill:#858585"></polygon><polygon points="82.56 161.69 87.77 167.48 90.31 160.73 82.56 161.69" style="fill:#858585"></polygon><polygon points="96.34 116.14 101.55 121.93 104.1 115.18 96.34 116.14" style="fill:#858585"></polygon><polygon points="29.06 190.99 22.63 195.39 28.99 198.81 29.06 190.99" style="fill:#858585"></polygon><polygon points="53.46 201.22 50.47 208.41 57.66 207.81 53.46 201.22" style="fill:#729AF5"></polygon><polygon points="60.17 230.48 53.18 233.93 59 238.2 60.17 230.48" style="fill:#729AF5"></polygon><polygon points="72.73 252.96 77.94 258.75 80.49 252 72.73 252.96" style="fill:#858585"></polygon><polygon points="86.52 207.41 91.73 213.2 94.27 206.45 86.52 207.41" style="fill:#858585"></polygon><polygon points="26.18 261.44 19.74 265.84 26.1 269.25 26.18 261.44" style="fill:#858585"></polygon><polygon points="144.56 312.69 141.56 319.89 148.76 319.29 144.56 312.69" style="fill:#729AF5"></polygon><polygon points="151.27 341.95 144.28 345.41 150.1 349.68 151.27 341.95" style="fill:#729AF5"></polygon><polygon points="111.69 348.25 116.9 354.05 119.44 347.29 111.69 348.25" style="fill:#729AF5"></polygon><polygon points="100.9 317.09 106.11 322.88 108.66 316.13 100.9 317.09" style="fill:#858585"></polygon><polygon points="163.83 364.44 169.04 370.23 171.59 363.47 163.83 364.44" style="fill:#858585"></polygon><polygon points="197.89 306.93 204.52 302.84 198.33 299.13 197.89 306.93" style="fill:#858585"></polygon><polygon points="117.28 372.92 110.84 377.31 117.2 380.73 117.28 372.92" style="fill:#858585"></polygon><polygon points="61.85 294.71 58.86 301.91 66.05 301.31 61.85 294.71" style="fill:#729AF5"></polygon><polygon points="68.56 323.97 61.57 327.43 67.39 331.7 68.56 323.97" style="fill:#729AF5"></polygon><polygon points="25.95 330.27 22.23 323.42 18.18 329.4 25.95 330.27" style="fill:#729AF5"></polygon><polygon points="29.2 363.08 25.48 356.24 21.44 362.22 29.2 363.08" style="fill:#858585"></polygon><polygon points="61.98 370.48 60.39 362.85 54.79 367.41 61.98 370.48" style="fill:#858585"></polygon><polygon points="94.91 300.9 100.12 306.7 102.66 299.94 94.91 300.9" style="fill:#858585"></polygon><polygon points="26.24 304.98 33.52 302.19 28.13 297.4 26.24 304.98" style="fill:#858585"></polygon><polygon points="237.46 315.69 234.46 322.88 241.66 322.28 237.46 315.69" style="fill:#729AF5"></polygon><polygon points="244.16 344.95 237.18 348.4 243 352.68 244.16 344.95" style="fill:#729AF5"></polygon><polygon points="204.59 351.25 209.8 357.04 212.34 350.29 204.59 351.25" style="fill:#729AF5"></polygon><polygon points="193.8 320.08 199.01 325.88 201.55 319.12 193.8 320.08" style="fill:#858585"></polygon><polygon points="256.73 367.43 261.94 373.22 264.48 366.47 256.73 367.43" style="fill:#858585"></polygon><polygon points="270.51 321.88 275.73 327.67 278.27 320.92 270.51 321.88" style="fill:#858585"></polygon><polygon points="203.86 399.19 205.35 391.54 198.43 393.58 203.86 399.19" style="fill:#858585"></polygon><polygon points="359.5 297.14 356.71 289.87 351.92 295.27 359.5 297.14" style="fill:#729AF5"></polygon><polygon points="334.46 280.6 337.13 273.27 329.97 274.2 334.46 280.6" style="fill:#729AF5"></polygon><polygon points="310.67 302.1 315.88 307.9 318.43 301.14 310.67 302.1" style="fill:#729AF5"></polygon><polygon points="460.41 168.85 457.42 176.04 464.61 175.44 460.41 168.85" style="fill:#729AF5"></polygon><polygon points="467.12 198.11 460.14 201.57 465.95 205.84 467.12 198.11" style="fill:#729AF5"></polygon><polygon points="427.54 204.41 432.75 210.2 435.3 203.45 427.54 204.41" style="fill:#729AF5"></polygon><polygon points="299.88 270.94 305.09 276.73 307.64 269.98 299.88 270.94" style="fill:#858585"></polygon><polygon points="362.81 318.29 368.02 324.08 370.57 317.32 362.81 318.29" style="fill:#858585"></polygon><polygon points="376.6 272.74 381.81 278.53 384.35 271.77 376.6 272.74" style="fill:#858585"></polygon><polygon points="316.26 326.77 309.82 331.17 316.18 334.58 316.26 326.77" style="fill:#858585"></polygon><polygon points="395.3 367.29 395.66 359.5 389.11 362.52 395.3 367.29" style="fill:#729AF5"></polygon><polygon points="422.77 351.54 415.78 355 421.6 359.27 422.77 351.54" style="fill:#729AF5"></polygon><polygon points="414.07 322.65 407.2 318.98 407.11 326.19 414.07 322.65" style="fill:#729AF5"></polygon><polygon points="372.4 326.68 377.61 332.47 380.16 325.71 372.4 326.68" style="fill:#858585"></polygon><polygon points="435.33 374.02 440.54 379.82 443.09 373.06 435.33 374.02" style="fill:#858585"></polygon><polygon points="449.12 328.47 454.33 334.27 456.87 327.51 449.12 328.47" style="fill:#858585"></polygon><polygon points="452.11 252.96 457.32 258.75 459.87 252 452.11 252.96" style="fill:#858585"></polygon><polygon points="388.78 382.5 382.35 386.9 388.7 390.32 388.78 382.5" style="fill:#858585"></polygon><polygon points="332.75 361.84 329.76 369.03 336.95 368.43 332.75 361.84" style="fill:#729AF5"></polygon><polygon points="339.46 391.1 332.48 394.55 338.29 398.83 339.46 391.1" style="fill:#729AF5"></polygon><polygon points="299.88 397.4 305.09 403.19 307.64 396.44 299.88 397.4" style="fill:#729AF5"></polygon><polygon points="289.09 366.23 294.3 372.02 296.85 365.27 289.09 366.23" style="fill:#858585"></polygon><polygon points="352.02 413.58 357.24 419.37 359.78 412.62 352.02 413.58" style="fill:#858585"></polygon><polygon points="365.81 368.03 371.02 373.82 373.56 367.07 365.81 368.03" style="fill:#858585"></polygon><polygon points="305.47 422.06 299.04 426.46 305.39 429.88 305.47 422.06" style="fill:#858585"></polygon><polygon points="203.54 380.55 200.62 373.32 195.92 378.8 203.54 380.55" style="fill:#729AF5"></polygon><polygon points="204.01 418.67 197.03 422.12 202.84 426.4 204.01 418.67" style="fill:#729AF5"></polygon><polygon points="174.71 405.76 178.31 398.85 171.09 398.83 174.71 405.76" style="fill:#729AF5"></polygon><polygon points="149.32 426.8 152.91 419.89 145.69 419.88 149.32 426.8" style="fill:#858585"></polygon><polygon points="216.57 441.15 221.78 446.94 224.33 440.19 216.57 441.15" style="fill:#858585"></polygon><polygon points="249.64 411.8 254.85 417.59 257.39 410.84 249.64 411.8" style="fill:#858585"></polygon><polygon points="170.02 449.63 163.59 454.03 169.94 457.45 170.02 449.63" style="fill:#858585"></polygon><polygon points="84.93 385.15 91.14 380.44 84.62 377.34 84.93 385.15" style="fill:#729AF5"></polygon><polygon points="93.85 356.49 101.63 357.02 98.75 350.4 93.85 356.49" style="fill:#729AF5"></polygon><polygon points="59.24 405.96 64.46 411.75 67 405 59.24 405.96" style="fill:#729AF5"></polygon><polygon points="21.38 398.01 26.59 403.8 29.13 397.05 21.38 398.01" style="fill:#858585"></polygon><polygon points="94.31 433.36 99.52 439.15 102.06 432.4 94.31 433.36" style="fill:#858585"></polygon><polygon points="30 231 35.21 236.79 37.76 230.04 30 231" style="fill:#858585"></polygon><polygon points="47.75 441.84 41.32 446.24 47.68 449.65 47.75 441.84" style="fill:#858585"></polygon></g></svg>