<svg xmlns="http://www.w3.org/2000/svg" viewBox="0 0 750 500"><g id="freepik--background-simple--inject-127"><path d="M648,163.77l-1.57-3.56c-13.19-30-41.45-50.72-73.83-52.91a83.06,83.06,0,0,0-12.52.07c-30,2.41-58.33,21.15-72.58,48-8.38,15.82-12.63,34.74-26.12,46.39-17.56,15.17-43.6,12.29-66.34,8.58s-48.8-6.53-66.29,8.72c-11,9.55-16,24.51-17.14,39.08-3,38.57,19.18,76.32,50.88,97.81s71.47,28.27,109.6,25.67c53.42-3.65,106.69-26,142.29-66.53S665.51,214.92,648,163.77Z" style="fill:#ebebeb"></path><circle cx="125.9" cy="96.75" r="35.55" style="fill:#ebebeb"></circle><circle cx="186.52" cy="119.33" r="17.78" transform="translate(26.14 272) rotate(-76.2)" style="fill:#ebebeb"></circle><circle cx="86.56" cy="151.54" r="11.95" style="fill:#ebebeb"></circle></g><g id="freepik--Floor--inject-127"><path d="M664.19,470.54c0,.14-133.07.26-297.18.26s-297.2-.12-297.2-.26,133-.26,297.2-.26S664.19,470.4,664.19,470.54Z" style="fill:#263238"></path></g><g id="freepik--Plant--inject-127"><path d="M136.58,421.84s1.69-12.35,3.07-21.9,3.57-14.28-1.23-24.49S135.1,358.1,132.06,354s-4.08-8.17-16.7-8.07-12.64.5-12.64.5,14.62,10.2,19.45,19.6,3.5,7.75,6.1,12.86,4.16,21.39,4.16,21.39L134,421.74Z" style="fill:#FFA15E"></path><path d="M70.88,351.55s.09-7.4,9.68-12,15-3.41,21.72-2.15,15.24,4.61,16.39,5.86,7.47,4.38,7.47,4.38-19-1.23-23.42-1.21-9-.15-15.19-.6-3.75,3.46-10.2,4.61Z" style="fill:#FFA15E"></path><g style="opacity:0.30000000000000004"><path d="M136.58,421.84s1.69-12.35,3.07-21.9,3.57-14.28-1.23-24.49S135.1,358.1,132.06,354s-4.08-8.17-16.7-8.07-12.64.5-12.64.5,14.62,10.2,19.45,19.6,3.5,7.75,6.1,12.86,4.16,21.39,4.16,21.39l1.95,36.87Z"></path></g><path d="M183.31,378.12c-2-1.09-9.19-4.46-15.76,10.17s-11.63,12.37-15.82,15.79-11.13,10.72-12,14.21-1.34,7.56-1.34,7.56l-3.16-.24s-.73-7.35,5.27-17.17,6.48-11.09,10.93-17.85,4.32-9.76,9.47-11A45.07,45.07,0,0,1,170,378.2Z" style="fill:#FFA15E"></path><g style="opacity:0.30000000000000004"><path d="M183.31,378.12c-2-1.09-9.19-4.46-15.76,10.17s-11.63,12.37-15.82,15.79-11.13,10.72-12,14.21-1.34,7.56-1.34,7.56l-3.16-.24s-.73-7.35,5.27-17.17,6.48-11.09,10.93-17.85,4.32-9.76,9.47-11A45.07,45.07,0,0,1,170,378.2Z"></path></g><path d="M189.69,374.91a6.05,6.05,0,0,1,4.05,6.18c-.16,2-.78,3.46-2.77,1.93-3.53-2.71-4.69-2.24-11.18-2.93s-18.91-.61-18.91-.61,19.1-6.67,23.54-6A33.57,33.57,0,0,1,189.69,374.91Z" style="fill:#FFA15E"></path><path d="M173.94,316.65c-6.71,3.26-12.11,8.81-16.12,15.09s-6.74,13.3-9.08,20.38c-8.33,25.22-14,51.5-13.12,78.05v1.26a250.41,250.41,0,0,1,17-51.19c4.69-10.27,10.07-20.23,14.3-30.7S174.18,327.94,173.94,316.65Z" style="fill:#FFA15E"></path><path d="M91.5,354.18c-.54,5.05,1.39,10.07,4,14.39s6,8.14,8.88,12.36c2.08,3.1,3.86,6.42,6.2,9.34,5.08,6.35,12.58,10.5,17.31,17.11,5.92,8.26,6.65,19.08,6.39,29.24a2.87,2.87,0,0,0,3.11-2,8.35,8.35,0,0,0,.17-4l-4.08-34c-.9-7.5-2.06-15.57-7.29-21-3.46-3.62-8.31-5.62-11.89-9.1-2.37-2.31-4.1-5.19-6.06-7.86s-4.25-5.26-7.28-6.59-7-1.09-9.23,1.33" style="fill:#FFA15E"></path><path d="M126.58,402.34a34.3,34.3,0,0,0-6.4,0c-2.66.35-6-4.09-9.24,1.24s-2,12.44-7.11,17.95-5.15,17.6-4.8,26a108,108,0,0,0,1.58,14.09.43.43,0,0,0,.79.15c1-1.58,3-5,2.43-7.67-.71-3.55,3.2-5.86,6-16s6-12.09,8.53-18.14,4.35-7.91,4.35-7.91Z" style="fill:#FFA15E"></path><path d="M134.23,427.93s-1,6.84-1,3.83c0-15.47-10.31-19.91-10.31-19.91l3.64-9.51s2-.71,4.45,7.28A95.29,95.29,0,0,1,134.23,427.93Z" style="fill:#FFA15E"></path><g style="opacity:0.30000000000000004"><path d="M134.23,427.93s-1,6.84-1,3.83c0-15.47-10.31-19.91-10.31-19.91l3.64-9.51s2-.71,4.45,7.28A95.29,95.29,0,0,1,134.23,427.93Z"></path></g><path d="M161.61,337.64a4.78,4.78,0,0,1-.35.83l-1.09,2.31c-.49,1-1.07,2.22-1.71,3.67s-1.42,3.06-2.19,4.89c-1.6,3.63-3.37,8-5.21,12.93s-3.64,10.4-5.35,16.21-3.05,11.43-4.17,16.56-1.95,9.78-2.55,13.71c-.33,1.95-.55,3.74-.77,5.3s-.39,2.91-.52,4-.24,1.92-.32,2.54a5.29,5.29,0,0,1-.15.88,7.36,7.36,0,0,1,.05-.89c.05-.63.12-1.48.22-2.55s.23-2.46.43-4,.39-3.35.7-5.32c.55-3.94,1.37-8.6,2.44-13.75s2.46-10.77,4.14-16.6,3.57-11.31,5.4-16.24,3.68-9.29,5.32-12.91c.79-1.83,1.59-3.44,2.26-4.87s1.28-2.64,1.8-3.63l1.18-2.27A4.78,4.78,0,0,1,161.61,337.64Z" style="fill:#263238"></path><path d="M135.05,435.14a7.46,7.46,0,0,1,0-.88c0-.58.05-1.43.05-2.53,0-2.18,0-5.36-.4-9.25a86.67,86.67,0,0,0-8.13-29.28,59.18,59.18,0,0,0-4.26-7.57,25.22,25.22,0,0,0-5.46-5.87c-2-1.56-4.18-2.81-6-4.21a23.47,23.47,0,0,1-4.58-4.54,45.35,45.35,0,0,1-4.76-8c-.48-1-.84-1.77-1.07-2.29a6.32,6.32,0,0,1-.34-.82,4.52,4.52,0,0,1,.43.77l1.16,2.25a48.2,48.2,0,0,0,4.87,7.84,23.4,23.4,0,0,0,4.55,4.42c1.83,1.37,4,2.6,6.06,4.18a25.52,25.52,0,0,1,5.59,6A59.14,59.14,0,0,1,127,393a84.28,84.28,0,0,1,8,29.48,79.48,79.48,0,0,1,.24,9.29c0,1.1-.11,1.95-.14,2.52A5.57,5.57,0,0,1,135.05,435.14Z" style="fill:#263238"></path><path d="M103.22,440.31a11.77,11.77,0,0,1,.44-1.6c.36-1.1.83-2.55,1.39-4.31,1.22-3.61,2.82-8.64,4.82-14.11,1-2.74,1.94-5.34,2.81-7.73.43-1.18.85-2.3,1.23-3.36a27.61,27.61,0,0,1,1.2-2.9,7.67,7.67,0,0,1,2.92-3.46,3.5,3.5,0,0,1,1.18-.43,1.28,1.28,0,0,1,.43,0,6,6,0,0,0-1.5.62,7.85,7.85,0,0,0-2.7,3.45,25.56,25.56,0,0,0-1.12,2.9c-.38,1.06-.78,2.19-1.19,3.37-.86,2.39-1.79,5-2.76,7.73-2,5.47-3.66,10.48-5,14.06-.63,1.73-1.15,3.17-1.55,4.25A10.51,10.51,0,0,1,103.22,440.31Z" style="fill:#263238"></path><path d="M111,340a8.43,8.43,0,0,1-1.44-.12c-.92-.12-2.25-.25-3.9-.35a57,57,0,0,0-5.81-.07,62.71,62.71,0,0,0-7.06.71,63.92,63.92,0,0,0-6.92,1.59,57.34,57.34,0,0,0-5.48,1.93c-1.53.62-2.75,1.17-3.58,1.58a8.18,8.18,0,0,1-1.33.58,8.83,8.83,0,0,1,1.24-.76,39,39,0,0,1,3.53-1.74,51.21,51.21,0,0,1,5.48-2.05,57.89,57.89,0,0,1,7-1.64,57.16,57.16,0,0,1,7.13-.68,50,50,0,0,1,5.84.18,36.73,36.73,0,0,1,3.91.52A6.76,6.76,0,0,1,111,340Z" style="fill:#263238"></path><path d="M156.69,411.45a14.89,14.89,0,0,0-5.64-.79c-4.8.47-9,5.47-11.05,9.85s-5.29,6.48-4.3,12.05c-.22-3.19,2.23-6.14,5.22-7.29s6.36-.81,9.44.07,6,2.26,9.06,3.19c4.78,1.45,10,1.84,14.18,4.61,2.11,1.4,3.82,3.34,5.84,4.87s4.61,2.66,7.08,2.06C182.84,426.14,170.51,415.52,156.69,411.45Z" style="fill:#FFA15E"></path><path d="M178.61,431.81a8,8,0,0,0-4.77-5.17c-2-1-4.66-1.71-7.28-3.27s-5.19-3.63-8.22-5.24a15.85,15.85,0,0,0-4.67-1.66,10.69,10.69,0,0,0-4.56.23,16.7,16.7,0,0,0-6.74,3.92,45,45,0,0,0-3.69,3.88l-1,1.1a2.22,2.22,0,0,1-.36.37,1.73,1.73,0,0,1,.28-.43c.2-.27.49-.67.89-1.17a37.12,37.12,0,0,1,3.59-4,16.68,16.68,0,0,1,6.86-4.11,11.05,11.05,0,0,1,4.78-.28,16.17,16.17,0,0,1,4.82,1.71c3.1,1.65,5.64,3.79,8.22,5.29s5.19,2.25,7.21,3.35a9.37,9.37,0,0,1,4,3.62,5.11,5.11,0,0,1,.54,1.37A1.52,1.52,0,0,1,178.61,431.81Z" style="fill:#263238"></path><polygon points="116.02 438.26 120.93 470.54 149.47 470.54 156.09 438.72 116.02 438.26" style="fill:#263238"></polygon><path d="M152.1,459c0,.09-7.31.16-16.33.16s-16.33-.07-16.33-.16,7.31-.17,16.33-.17S152.1,458.85,152.1,459Z" style="fill:#455a64"></path><path d="M152.21,457.36c0,.09-7.36.17-16.44.17s-16.45-.08-16.45-.17,7.37-.17,16.45-.17S152.21,457.27,152.21,457.36Z" style="fill:#455a64"></path><path d="M152.15,455.57c0,.09-7.36.16-16.44.16s-16.44-.07-16.44-.16,7.36-.17,16.44-.17S152.15,455.47,152.15,455.57Z" style="fill:#455a64"></path><path d="M124.21,468.7a50.37,50.37,0,0,1-1.42-8.19,25.84,25.84,0,0,1,.87,4.07A26.7,26.7,0,0,1,124.21,468.7Z" style="fill:#455a64"></path><path d="M126.15,468.35a29.27,29.27,0,0,1-.36-4,31.13,31.13,0,0,1-.18-4,19.38,19.38,0,0,1,.52,4A19.19,19.19,0,0,1,126.15,468.35Z" style="fill:#455a64"></path><path d="M129.69,468.35a19.74,19.74,0,0,1-.75-4.06,20.22,20.22,0,0,1-.21-4.13,121.28,121.28,0,0,1,1,8.19Z" style="fill:#455a64"></path><path d="M132.17,468.52a32.48,32.48,0,0,1-.27-8.28,35.15,35.15,0,0,1,.21,4.14A37.36,37.36,0,0,1,132.17,468.52Z" style="fill:#455a64"></path><path d="M136.57,468.35a21.8,21.8,0,0,1-.3-3.92,22.92,22.92,0,0,1,0-3.93,23.09,23.09,0,0,1,.3,3.92A24.21,24.21,0,0,1,136.57,468.35Z" style="fill:#455a64"></path><path d="M139.78,468.52a48.46,48.46,0,0,1,.06-8.11,23.21,23.21,0,0,1,.14,4.06A25.24,25.24,0,0,1,139.78,468.52Z" style="fill:#455a64"></path><path d="M142.79,468.09a28.06,28.06,0,0,1,.24-4.24,27.43,27.43,0,0,1,.58-4.2,28.06,28.06,0,0,1-.24,4.24A27.43,27.43,0,0,1,142.79,468.09Z" style="fill:#455a64"></path><path d="M146.67,467.67a14.31,14.31,0,0,1,.48-3.61,14.8,14.8,0,0,1,1.06-3.47,30.6,30.6,0,0,1-.73,3.55A31.17,31.17,0,0,1,146.67,467.67Z" style="fill:#455a64"></path><path d="M112.74,431.87v6a2.38,2.38,0,0,0,2.38,2.37h41.33a2.37,2.37,0,0,0,2.37-2.37v-6Z" style="fill:#263238"></path><path d="M155.24,440.31c0,.14-8.83.26-19.72.26s-19.72-.12-19.72-.26,8.83-.26,19.72-.26S155.24,440.16,155.24,440.31Z" style="fill:#455a64"></path></g><g id="freepik--Chat--inject-127"><path d="M317.24,321.1H244.19a16,16,0,0,0-16.05,16h0a16,16,0,0,0,16.05,16.05H296a16,16,0,0,0,16-16.05h0a16,16,0,0,0-2.26-8.21Z" style="fill:#f5f5f5"></path><path d="M251.25,333.56v7.79h-1.11v-3.48h-4.47v3.48h-1.12v-7.79h1.12v3.35h4.47v-3.35Z" style="fill:#263238"></path><path d="M258.74,338.75H254a2,2,0,0,0,2.14,1.73,2.22,2.22,0,0,0,1.7-.71l.59.69a3.21,3.21,0,0,1-5.49-2.06,2.89,2.89,0,0,1,3-3,2.84,2.84,0,0,1,2.91,3C258.76,338.52,258.75,338.65,258.74,338.75ZM254,338h3.79a1.91,1.91,0,0,0-3.79,0Z" style="fill:#263238"></path><path d="M260.24,333.09h1.07v8.26h-1.07Z" style="fill:#263238"></path><path d="M263.34,333.09h1.07v8.26h-1.07Z" style="fill:#263238"></path><path d="M265.9,338.4a3.07,3.07,0,1,1,3.07,3A2.94,2.94,0,0,1,265.9,338.4Zm5.05,0a2,2,0,1,0-4,0,2,2,0,1,0,4,0Z" style="fill:#263238"></path><path d="M273.26,340.7A.71.71,0,0,1,274,340a.71.71,0,1,1,0,1.42A.72.72,0,0,1,273.26,340.7Zm.1-7.14h1.26l-.21,5.33h-.84Z" style="fill:#263238"></path><path d="M276.25,340.7A.7.7,0,0,1,277,340a.71.71,0,1,1,0,1.42A.71.71,0,0,1,276.25,340.7Zm.1-7.14h1.25l-.21,5.33h-.84Z" style="fill:#263238"></path><path d="M286.1,337.86a1.55,1.55,0,0,0-.38-.88,1.48,1.48,0,0,0-.77-.51,1.23,1.23,0,0,0-1,.15,1.3,1.3,0,0,0-.41.43,1.15,1.15,0,0,0-.35-.41,1.24,1.24,0,0,0-1-.22,1.54,1.54,0,0,0-.81.46,1.62,1.62,0,0,0-.44.85,1.88,1.88,0,0,0,.2,1.19,2.73,2.73,0,0,0,.91.91c.6.4,1.39.89,1.39.89s.7-.49,1.33-.84a2.74,2.74,0,0,0,1-.85A1.91,1.91,0,0,0,286.1,337.86Z" style="fill:#FFA15E"></path><path d="M293.36,337.86A1.61,1.61,0,0,0,293,337a1.51,1.51,0,0,0-.78-.51,1.23,1.23,0,0,0-1,.15,1.27,1.27,0,0,0-.4.43,1.29,1.29,0,0,0-.36-.41,1.24,1.24,0,0,0-1-.22,1.54,1.54,0,0,0-.81.46,1.62,1.62,0,0,0-.44.85,2,2,0,0,0,.2,1.19,2.73,2.73,0,0,0,.91.91c.6.4,1.39.89,1.39.89s.7-.49,1.33-.84a2.74,2.74,0,0,0,1-.85A1.91,1.91,0,0,0,293.36,337.86Z" style="fill:#FFA15E"></path><circle cx="209.97" cy="338.21" r="14.82" transform="translate(-177.65 247.53) rotate(-45)" style="fill:#e0e0e0"></circle><path d="M215.24,333.27A5.27,5.27,0,1,1,210,328,5.26,5.26,0,0,1,215.24,333.27Z" style="fill:#fafafa"></path><path d="M199.59,347s3.28-7.67,10.67-7.67,10.41,7.38,10.41,7.38a12.36,12.36,0,0,1-10.34,5.24A13.44,13.44,0,0,1,199.59,347Z" style="fill:#fafafa"></path></g><g id="freepik--Clock--inject-127"><circle cx="642.42" cy="96.08" r="32.22" transform="translate(445.67 715.13) rotate(-80.87)" style="fill:#FFA15E"></circle><circle cx="642.57" cy="95.93" r="29.33" transform="translate(89.69 437.13) rotate(-40.17)" style="fill:#fafafa"></circle><path d="M613.3,94s0,.16,0,.47v1.4c0,.31,0,.65,0,1s.07.79.1,1.23.09.93.14,1.44a14.78,14.78,0,0,0,.27,1.62,28.08,28.08,0,0,0,2.73,8,29.26,29.26,0,0,0,6.87,8.76l1.2,1c.42.32.87.62,1.31.93s.88.66,1.37.92l1.47.82.74.42.79.35,1.6.7c.55.22,1.12.38,1.69.57a12.78,12.78,0,0,0,1.73.52,27.47,27.47,0,0,0,3.66.67c.62.06,1.25.16,1.89.2l1.93,0c.33,0,.66,0,1,0l1-.08c.66-.07,1.32-.1,2-.19a32.66,32.66,0,0,0,4-.88l1-.3c.16,0,.33-.09.49-.15l.49-.19,1.94-.78c.63-.3,1.25-.65,1.88-1,.31-.17.64-.31.94-.51l.9-.58a34.1,34.1,0,0,0,3.48-2.59l1.59-1.53.4-.39.36-.42.73-.85.72-.85.65-.92.65-.92.33-.47c.1-.16.18-.33.28-.49.37-.66.75-1.32,1.12-2l.93-2.1a28.84,28.84,0,0,0,1.21-18.37l-.65-2.21c-.28-.71-.57-1.41-.85-2.11l-.22-.53-.26-.5-.52-1-.52-1-.61-.94-.61-.94-.31-.46-.34-.44-1.37-1.72a33,33,0,0,0-3.12-3l-.82-.7c-.27-.23-.57-.41-.86-.62-.58-.4-1.15-.83-1.74-1.2l-1.82-1-.46-.25-.47-.22-.94-.41a32.35,32.35,0,0,0-3.81-1.4c-.64-.17-1.29-.29-1.94-.44l-1-.22c-.32-.06-.64-.08-1-.12l-1.92-.23c-.63,0-1.27,0-1.9,0a26.73,26.73,0,0,0-3.71.18,15.17,15.17,0,0,0-1.79.29c-.59.12-1.18.2-1.75.35l-1.68.49-.82.24-.8.31-1.56.63a15.46,15.46,0,0,0-1.47.73c-.48.25-1,.49-1.43.75l-1.32.85a29.12,29.12,0,0,0-8,7.79,27.74,27.74,0,0,0-3.75,7.55c-.17.56-.39,1.07-.49,1.57s-.22,1-.32,1.41-.2.84-.26,1.22-.09.71-.13,1c-.07.61-.13,1.07-.17,1.39s-.08.47-.08.47,0-.16,0-.48.08-.78.15-1.38c0-.31.07-.65.11-1s.16-.78.25-1.22.2-.91.3-1.41a14.79,14.79,0,0,1,.48-1.59,27.38,27.38,0,0,1,3.72-7.61,29.16,29.16,0,0,1,8-7.88l1.33-.87c.47-.26,1-.5,1.44-.76s1-.54,1.48-.74l1.57-.63.8-.32.84-.25,1.69-.5c.57-.15,1.17-.23,1.76-.35A13.65,13.65,0,0,1,639,66.7a27.15,27.15,0,0,1,3.74-.2c.64,0,1.28,0,1.92,0l1.94.22c.33,0,.66.07,1,.13l1,.21c.65.15,1.31.27,2,.45A32.29,32.29,0,0,1,654.4,69l1,.42.48.22.46.26,1.84,1c.6.37,1.17.8,1.76,1.21a10.68,10.68,0,0,1,.87.63l.83.71a32.3,32.3,0,0,1,3.15,3l1.39,1.74.35.44.31.47.62.95.61,1,.53,1,.53,1,.27.5.21.54.87,2.14.66,2.23a31.63,31.63,0,0,1,.9,9.39,31.2,31.2,0,0,1-2.13,9.18l-.94,2.13-1.14,2c-.09.16-.18.33-.28.49l-.33.47-.66.94-.65.93-.74.86-.73.85-.37.43-.4.39L662,118.1a33.81,33.81,0,0,1-3.53,2.61l-.91.59c-.3.2-.63.34-.94.51-.64.33-1.26.68-1.91,1l-2,.78-.49.2c-.16.06-.33.1-.5.15l-1,.29a29.52,29.52,0,0,1-4,.89c-.66.09-1.33.12-2,.19l-1,.08c-.33,0-.66,0-1,0l-2,0c-.64,0-1.27-.14-1.91-.21a26,26,0,0,1-3.68-.68,14.86,14.86,0,0,1-1.76-.52c-.57-.2-1.15-.36-1.7-.58l-1.61-.72-.79-.35-.75-.42-1.48-.84c-.49-.27-.92-.63-1.37-.93s-.9-.62-1.33-.94l-1.2-1a29.36,29.36,0,0,1-6.88-8.85,27.84,27.84,0,0,1-2.69-8c-.09-.58-.24-1.12-.27-1.63s-.08-1-.11-1.45-.08-.86-.09-1.24,0-.72,0-1c0-.61,0-1.07,0-1.4S613.3,94,613.3,94Z" style="fill:#263238"></path><path d="M656,96.56a7.66,7.66,0,0,1-1,.07l-2.85.05c-2.42,0-5.79.06-9.6.06h-.18V94.66c0-4.25,0-8.1.06-10.88,0-1.34,0-2.46.06-3.3a8.36,8.36,0,0,1,.07-1.21,7.33,7.33,0,0,1,.08,1.21c0,.84,0,2,.06,3.3,0,2.78,0,6.63,0,10.88v1.9l-.19-.19c3.81,0,7.18,0,9.6.06l2.85.06A4.92,4.92,0,0,1,656,96.56Z" style="fill:#263238"></path><path d="M642.64,71.14a8,8,0,0,1,.19,2.47,7.93,7.93,0,0,1-.19,2.46,8.31,8.31,0,0,1-.19-2.46A8.41,8.41,0,0,1,642.64,71.14Z" style="fill:#263238"></path><path d="M656,75.1A8.07,8.07,0,0,1,654.42,77a8.07,8.07,0,0,1-1.85,1.59A15,15,0,0,1,656,75.1Z" style="fill:#263238"></path><path d="M663.82,83.64a10.66,10.66,0,0,1-2,1.35,10.65,10.65,0,0,1-2.13,1.17,6.62,6.62,0,0,1,1.93-1.5A6.26,6.26,0,0,1,663.82,83.64Z" style="fill:#263238"></path><path d="M668.4,96.3a29.8,29.8,0,0,1-6.72,0,29.8,29.8,0,0,1,6.72,0Z" style="fill:#263238"></path><path d="M621.82,95.85a26.62,26.62,0,0,1-6.35,0,26.62,26.62,0,0,1,6.35,0Z" style="fill:#263238"></path><path d="M625.11,105.28a13.35,13.35,0,0,1-2.4,2.18,14.3,14.3,0,0,1-2.63,1.88,13.49,13.49,0,0,1,2.39-2.18A14.38,14.38,0,0,1,625.11,105.28Z" style="fill:#263238"></path><path d="M633.24,112.58a23.54,23.54,0,0,1-1.63,2.82,20.8,20.8,0,0,1-1.74,2.77,10.81,10.81,0,0,1,1.41-3A10.46,10.46,0,0,1,633.24,112.58Z" style="fill:#263238"></path><path d="M642.64,122a15.35,15.35,0,0,1-.19-3.36,15.42,15.42,0,0,1,.19-3.36,14.71,14.71,0,0,1,.19,3.36A14.64,14.64,0,0,1,642.64,122Z" style="fill:#263238"></path><path d="M657.12,117.51a10.08,10.08,0,0,1-2.77-1.9,9.61,9.61,0,0,1-2.25-2.49,32.58,32.58,0,0,1,2.5,2.2A31.21,31.21,0,0,1,657.12,117.51Z" style="fill:#263238"></path><path d="M663.92,110.19a12,12,0,0,1-2.23-2,11.49,11.49,0,0,1-2-2.22A11.49,11.49,0,0,1,662,108,11.65,11.65,0,0,1,663.92,110.19Z" style="fill:#263238"></path><path d="M624.8,86.82a8.81,8.81,0,0,1-2-1.69,9,9,0,0,1-1.7-2,9,9,0,0,1,2,1.7A8.81,8.81,0,0,1,624.8,86.82Z" style="fill:#263238"></path><path d="M633.19,78a8.63,8.63,0,0,1-1.93-1.66,8.16,8.16,0,0,1-1.66-1.92,9.28,9.28,0,0,1,1.93,1.65A8.63,8.63,0,0,1,633.19,78Z" style="fill:#263238"></path><path d="M616.65,96A29.15,29.15,0,0,1,644.07,67c-.57,0-1.15-.06-1.73-.06a29.16,29.16,0,1,0,0,58.31c.58,0,1.16,0,1.73-.06A29.15,29.15,0,0,1,616.65,96Z" style="fill:#e0e0e0"></path></g><g id="freepik--character-3--inject-127"><polygon points="553.24 466.23 547.77 470.65 463.26 377.34 468.47 372.62 553.24 466.23" style="fill:#263238"></polygon><polygon points="463.61 470.54 458.4 465.07 544.95 373.1 550.06 377.92 463.61 470.54" style="fill:#263238"></polygon><polygon points="596.63 229.94 541.32 231.32 480.17 372.65 548.13 372.81 596.63 229.94" style="fill:#455a64"></polygon><polygon points="604.07 235.97 552.67 383.12 407.57 383.12 407.57 372.81 548.13 372.81 596.63 229.94 604.07 235.97" style="fill:#455a64"></polygon><path d="M596.63,229.94s-.06.25-.21.73l-.69,2.09-2.68,8.06c-2.36,7-5.76,17.11-10,29.6-8.47,25-20.15,59.48-33.06,97.58-.56,1.67-1.13,3.34-1.66,4.89l-.06.18h-.18L448.54,373l-30-.09-8.13,0-2.12,0-.72,0,.72,0,2.12,0,8.13,0,30-.09,99.59-.07-.25.17c.53-1.55,1.09-3.21,1.66-4.89l33.2-97.53c4.27-12.46,7.72-22.55,10.12-29.54l2.77-8,.74-2.08C596.53,230.18,596.63,229.94,596.63,229.94Z" style="fill:#263238"></path><polygon points="522.96 466.23 517.49 470.65 432.98 377.34 438.19 372.62 522.96 466.23" style="fill:#455a64"></polygon><polygon points="433.16 470.54 428.12 465.07 514.66 373.1 519.78 377.92 433.16 470.54" style="fill:#455a64"></polygon><rect x="475.01" y="415.24" width="32.79" height="7.59" style="fill:#455a64"></rect><polygon points="386.54 382.1 417.11 412.34 430.03 394.21 413.84 372.81 405.02 372.81 386.54 382.1" style="fill:#ffbe9d"></polygon><path d="M435.74,398.77l28.36,27.64L430.3,462.5c-4.81-3.47,7.64-29.91,7.64-29.91l-22.87-21.1Z" style="fill:#e0e0e0"></path><path d="M439.91,451.8c-.07,0-.38-.36-1-.89a8,8,0,0,0-2.71-1.54,8.25,8.25,0,0,0-3.09-.39,6.91,6.91,0,0,1-1.33.12c0-.06.44-.32,1.28-.48a6.76,6.76,0,0,1,3.31.26,6.69,6.69,0,0,1,2.8,1.77C439.75,451.28,440,451.77,439.91,451.8Z" style="fill:#263238"></path><path d="M412,408.66a2.11,2.11,0,0,0,.35,3c2.54,2,7.06,5.34,7.45,5,.55-.47,17-17.39,16.92-18.57s-7.2-9.1-8.62-8.55C426.94,390,416.12,403.62,412,408.66Z" style="fill:#e0e0e0"></path><path d="M436.51,398.25c.11.1-3.5,4.26-8.05,9.29s-8.32,9-8.43,8.93,3.5-4.25,8.05-9.28S436.4,398.16,436.51,398.25Z" style="fill:#263238"></path><path d="M423.55,412.07a3.26,3.26,0,0,1-1.62-.2,10.62,10.62,0,0,1-3.46-1.83,19.85,19.85,0,0,1-2.8-2.7c-.65-.76-1-1.25-.95-1.3s.51.36,1.22,1a32.34,32.34,0,0,0,2.85,2.55,13.49,13.49,0,0,0,3.26,1.89A12.61,12.61,0,0,1,423.55,412.07Z" style="fill:#263238"></path><path d="M428.29,406.3c-.11.12-2-1.47-4.52-3.05s-4.77-2.59-4.71-2.73a15.63,15.63,0,0,1,5,2.29A15.86,15.86,0,0,1,428.29,406.3Z" style="fill:#263238"></path><path d="M433.89,401a24.78,24.78,0,0,0-4-4.12,24.44,24.44,0,0,0-5.12-2.62,10,10,0,0,1,5.43,2.2A10.13,10.13,0,0,1,433.89,401Z" style="fill:#263238"></path><path d="M456.75,433.6a4.55,4.55,0,0,1-1.62-1.55,8.93,8.93,0,0,1-.26-10.34,4.85,4.85,0,0,1,1.55-1.64c.07.07-.55.66-1.23,1.83a9.3,9.3,0,0,0,.24,9.94C456.16,433,456.81,433.54,456.75,433.6Z" style="fill:#263238"></path><polygon points="480 268.93 470.2 300 449.2 329.66 462.48 339.22 485.43 310.9 493.12 275.79 480 268.93" style="fill:#ffbe9d"></polygon><path d="M535.64,183.05a4.33,4.33,0,0,1,3.87,4.4h0l-2.59,52.94c-.11,6.91-10.21,10.79-17.6,10.62h0c-7.48-1.76-7.75-6.25-7.84-12.82-.16-11-.11-7.13-.12-7.06s-9.43-1.59-11.36-13.91c-1-6.13-.63-16.18-.1-24.38.49-7.39,5.4-16.45,12.76-15.65Z" style="fill:#ffbe9d"></path><path d="M503.06,201.89a1.58,1.58,0,0,0,1.52,1.6,1.51,1.51,0,0,0,1.63-1.42,1.57,1.57,0,0,0-1.51-1.6A1.52,1.52,0,0,0,503.06,201.89Z" style="fill:#263238"></path><path d="M502.07,198.5c.2.21,1.39-.67,3.09-.66s2.95.86,3.13.65-.11-.46-.65-.86a4.29,4.29,0,0,0-2.5-.78,4.1,4.1,0,0,0-2.46.79C502.15,198,502,198.41,502.07,198.5Z" style="fill:#263238"></path><path d="M518.89,201.89a1.58,1.58,0,0,0,1.52,1.6,1.51,1.51,0,0,0,1.63-1.42,1.58,1.58,0,0,0-1.52-1.6A1.51,1.51,0,0,0,518.89,201.89Z" style="fill:#263238"></path><path d="M518.93,198.5c.2.21,1.4-.67,3.09-.66s3,.86,3.13.65-.1-.46-.65-.86a4.29,4.29,0,0,0-2.5-.78,4.1,4.1,0,0,0-2.46.79C519,198,518.83,198.41,518.93,198.5Z" style="fill:#263238"></path><path d="M512.58,211a11.64,11.64,0,0,0-2.76-.5c-.43,0-.84-.13-.92-.43a2.28,2.28,0,0,1,.3-1.29l1.29-3.3c1.79-4.7,3.09-8.57,2.9-8.64s-1.8,3.68-3.59,8.39c-.43,1.16-.84,2.26-1.24,3.32a2.53,2.53,0,0,0-.23,1.7,1.11,1.11,0,0,0,.72.64,3,3,0,0,0,.73.1A10.64,10.64,0,0,0,512.58,211Z" style="fill:#263238"></path><path d="M511.36,231.13a31.35,31.35,0,0,0,16.51-4.37s-4.18,8.69-16.51,7.51Z" style="fill:#eb996e"></path><path d="M512.85,215.15a4.52,4.52,0,0,1,3.27-2.16,2,2,0,0,1,1.92,1.06,3.09,3.09,0,0,1-.28,2.83,2.61,2.61,0,0,1-2.57,1.25,4.38,4.38,0,0,1-2.13-1.39,1.5,1.5,0,0,1-.43-.61,1,1,0,0,1,.13-.89" style="fill:#eb996e"></path><path d="M517.58,212.2c-.27,0-.28,1.83-1.86,3.13s-3.55,1.1-3.57,1.36.44.36,1.27.38a4.55,4.55,0,0,0,3-1,4,4,0,0,0,1.45-2.63C517.91,212.65,517.71,212.19,517.58,212.2Z" style="fill:#263238"></path><path d="M518,194.6c.21.44,1.88.06,3.89.1s3.67.43,3.89,0c.1-.21-.22-.61-.92-1a6.74,6.74,0,0,0-5.92-.07C518.2,194,517.87,194.39,518,194.6Z" style="fill:#263238"></path><path d="M502.22,195.7c.37.39,1.83,0,3.58,0s3.23.25,3.57-.15c.15-.2-.09-.58-.74-.95a5.76,5.76,0,0,0-2.9-.62,5.63,5.63,0,0,0-2.85.78C502.26,195.11,502.06,195.51,502.22,195.7Z" style="fill:#263238"></path><path d="M544.37,224.61l-.21,0-.59-.17a5.77,5.77,0,0,1-2-1.12,3.57,3.57,0,0,1-1.2-3.09,2.32,2.32,0,0,1,1.07-1.72,1.14,1.14,0,0,1,1.13-.06,1,1,0,0,1,.51,1.06.8.8,0,0,1-.41.49,1.31,1.31,0,0,1-.57.15,2.58,2.58,0,0,1-1.08-.22,5,5,0,0,1-1.68-1.11,4.78,4.78,0,0,1-1.41-3,5,5,0,0,1,.35-2.24,3.69,3.69,0,0,1,.29-.55c.07-.12.12-.18.13-.17s-.13.27-.31.76a5,5,0,0,0-.25,2.18,4.72,4.72,0,0,0,3,3.89,2.13,2.13,0,0,0,1,.19.72.72,0,0,0,.72-.42.66.66,0,0,0-.37-.72.86.86,0,0,0-.85.05,2.08,2.08,0,0,0-.94,1.51,3.2,3.2,0,0,0,.22,1.67,3.4,3.4,0,0,0,.86,1.23,5.84,5.84,0,0,0,1.87,1.16C544.1,224.51,544.38,224.59,544.37,224.61Z" style="fill:#263238"></path><path d="M514.5,170a3.74,3.74,0,0,1-1.35-4.66c-.51-.73.1-1.82.94-2.12a4.41,4.41,0,0,1,2.63.18c-.23-.41.39-.77.85-.84l3.26-.52a5.07,5.07,0,0,1-3.41-2.9,7.82,7.82,0,0,1-.46-4.54,1.67,1.67,0,0,1,.57-1.17,12.35,12.35,0,0,1,2.28,3.82,3.26,3.26,0,0,1,2.33,1.17.89.89,0,0,1,1.33-.36c.69-1.92,2-4,4-4.19-.64-.89.52-2,1.5-2.46a6.47,6.47,0,0,1,2.27-.79,2.16,2.16,0,0,1,2.08.95,1.32,1.32,0,0,1-.77,1.91,2.23,2.23,0,0,1,.79,2.64,2.24,2.24,0,0,1,2.68-.54,8.62,8.62,0,0,1,4.48-.66,2.12,2.12,0,0,1,1.1.39c.23.19.38.46.62.64a2.29,2.29,0,0,0,1.21.33,4.79,4.79,0,0,1,2.7,1,2.31,2.31,0,0,1,.73,2.62c2.25.73,4.48-1.86,6.8-1.4a4.54,4.54,0,0,1,2.89,2.77,7.73,7.73,0,0,1-3.62.53,1.57,1.57,0,0,1-1.5,1.19.9.9,0,0,1-.51,1.41,8,8,0,0,1,4.32.07c2.17.51,4.54,1.65,5,3.82a6.87,6.87,0,0,1,0,2.35c-.14,1.16-.73,2.7-1.89,2.48-.71-.13-1.08-.89-1.46-1.51a6.22,6.22,0,0,0-3.78-2.73c-.55.54.47,1.23.92,1.85s.26,1.47.37,2.22c.17,1.15,1,2.06,1.52,3.1,1.08,2.26.51,4.92-.08,7.35-.16.66-.91,1.48-1.31.93a1.84,1.84,0,0,1,1.37,1.87,5.28,5.28,0,0,1-.78,2.38c-.16.33-.37.68-.72.76-.51.12-.92-.39-1.19-.84l-2.22-3.63a5.47,5.47,0,0,1-.06,2.51,4.71,4.71,0,0,1-2.86,3.68,6.15,6.15,0,0,1-3.31-.25" style="fill:#263238"></path><path d="M538.75,208.26c-.48-.2-2.41.59-2.72.18-1.61-2.09-2.48-8.05-2.88-10.66s1.22-5.51,1-8.13c-.2-2.1-.59-4.32-2-5.9a7.68,7.68,0,0,0-3.19-2,12.33,12.33,0,0,0-11.18,1.49c-1.32.93-2.56,2.18-4.17,2.33s-3.05-.83-4.43-1.65-3.08-1.55-4.54-.88a4.57,4.57,0,0,0-1.45,1.18c-1,1.15-3.07,6.2-3.1,8.19a16.94,16.94,0,0,1,.73-8.94c2.12-5.19,7.83-11.05,16.92-12.53,14.56-2.36,21.38,5.74,24,11.54,1.11,2.48,2,9,1.23,14A36.15,36.15,0,0,1,538.75,208.26Z" style="fill:#263238"></path><path d="M542.65,184.44c-.22.07-.81-1.56-2.26-3.9a28,28,0,0,0-2.88-3.85,17.36,17.36,0,0,0-4.46-3.63,17.7,17.7,0,0,0-5.47-1.79,20.09,20.09,0,0,0-4.76-.16c-2.72.24-4.36.87-4.45.65s.33-.36,1.06-.69a13.6,13.6,0,0,1,3.26-1,17.71,17.71,0,0,1,5.07-.15,17.18,17.18,0,0,1,6,1.84,16.7,16.7,0,0,1,4.78,4,21.87,21.87,0,0,1,2.76,4.22C542.58,182.61,542.82,184.4,542.65,184.44Z" style="fill:#FFA15E"></path><path d="M528.43,171.8a8.15,8.15,0,0,1-.88.1,21,21,0,0,0-2.36.39,17.58,17.58,0,0,0-12,9.51,17.54,17.54,0,0,0-.92,2.22,5.45,5.45,0,0,1-.3.83.61.61,0,0,1,0-.22c0-.15.08-.37.16-.64a16.29,16.29,0,0,1,.84-2.28,17.07,17.07,0,0,1,12.1-9.62,15.39,15.39,0,0,1,2.41-.3c.28,0,.5,0,.65,0A.6.6,0,0,1,528.43,171.8Z" style="fill:#455a64"></path><path d="M532.31,173.55a17.23,17.23,0,0,1-1.7.93,42.54,42.54,0,0,0-4,2.45,40.3,40.3,0,0,0-3.65,2.91,15.27,15.27,0,0,1-1.46,1.28,2,2,0,0,1,.33-.41c.22-.25.56-.6,1-1a29.62,29.62,0,0,1,7.67-5.39c.54-.26,1-.46,1.3-.58A1.7,1.7,0,0,1,532.31,173.55Z" style="fill:#455a64"></path><path d="M540.19,180.09a2,2,0,0,1,0,.49c0,.31-.11.76-.23,1.31a22.91,22.91,0,0,1-1.35,4.17,22.53,22.53,0,0,1-2.15,3.83c-.32.45-.6.81-.81,1.05s-.32.37-.34.35.38-.58,1-1.52a28.08,28.08,0,0,0,2-3.83,27.76,27.76,0,0,0,1.42-4.1A15.74,15.74,0,0,1,540.19,180.09Z" style="fill:#455a64"></path><path d="M536.13,197.7s.59-.72,1.44-1.95a20.93,20.93,0,0,0,1.35-2.24,24,24,0,0,0,1.24-2.95,23,23,0,0,0,.76-3.11,21.1,21.1,0,0,0,.25-2.6c.05-1.5,0-2.42,0-2.43a2.78,2.78,0,0,1,.11.65,13.27,13.27,0,0,1,.1,1.78,17.71,17.71,0,0,1-.2,2.64,19.66,19.66,0,0,1-.75,3.16,19.07,19.07,0,0,1-1.28,3,17.6,17.6,0,0,1-1.41,2.24,12.82,12.82,0,0,1-1.14,1.38A3.6,3.6,0,0,1,536.13,197.7Z" style="fill:#455a64"></path><path d="M489.65,184.77s.23.24.67.65a6.22,6.22,0,0,0,2.09,1.34,4.11,4.11,0,0,0,3.52-.21,3,3,0,0,0,1.31-1.62,2.41,2.41,0,0,0-.23-2.15,1,1,0,0,0-.89-.49.73.73,0,0,0-.69.6,2.63,2.63,0,0,0,.48,2,3.27,3.27,0,0,0,1.48,1.2,2.82,2.82,0,0,0,1.66.12,3.41,3.41,0,0,0,2-1.35,5.24,5.24,0,0,0,.43-.82.79.79,0,0,1-.05.24,2.52,2.52,0,0,1-.29.64,3.35,3.35,0,0,1-2,1.49,3,3,0,0,1-1.79-.1,3.51,3.51,0,0,1-1.62-1.26,3,3,0,0,1-.54-2.22,1.17,1.17,0,0,1,.32-.57,1,1,0,0,1,.64-.25,1.33,1.33,0,0,1,1.14.61,2.72,2.72,0,0,1,.26,2.42,3.27,3.27,0,0,1-1.44,1.75,4.35,4.35,0,0,1-3.74.18,6.1,6.1,0,0,1-2.09-1.46c-.21-.22-.36-.4-.46-.52S489.64,184.78,489.65,184.77Z" style="fill:#263238"></path><path d="M564.39,181.14a1.3,1.3,0,0,1-.33.08l-.95.13a9.76,9.76,0,0,1-3.54-.14,5.47,5.47,0,0,1-2.19-1.13,3.68,3.68,0,0,1-1.26-2.52,3.08,3.08,0,0,1,.28-1.54,2.65,2.65,0,0,1,1.13-1.19,3.44,3.44,0,0,1,3.32,0,1.74,1.74,0,0,1,.93,1.48,1.69,1.69,0,0,1-1,1.39,3.3,3.3,0,0,1-1.62.25,8.21,8.21,0,0,1-1.51-.26,7.84,7.84,0,0,1-5.73-6.16,6.25,6.25,0,0,1-.11-.95,1.8,1.8,0,0,1,0-.34s0,.46.21,1.27a8.13,8.13,0,0,0,1.46,3.14,7.78,7.78,0,0,0,4.23,2.78,7.67,7.67,0,0,0,1.46.24,3.06,3.06,0,0,0,1.47-.23,1.41,1.41,0,0,0,.83-1.14,1.43,1.43,0,0,0-.79-1.22,3.19,3.19,0,0,0-3,0,2.55,2.55,0,0,0-1.28,2.46,3.42,3.42,0,0,0,1.16,2.36,5.22,5.22,0,0,0,2.08,1.11,10.51,10.51,0,0,0,3.47.23l.95-.08Z" style="fill:#263238"></path><path d="M507.46,154.53a5.07,5.07,0,0,0-.32,1.12,3.86,3.86,0,0,0,.85,2.95,4.19,4.19,0,0,0,4.22,1.25,2.65,2.65,0,0,0,2-1.63,1.64,1.64,0,0,0-.21-1.31,1.07,1.07,0,0,0-1.17-.49,1.61,1.61,0,0,0-1,.91,1.85,1.85,0,0,0,0,1.35,4.67,4.67,0,0,0,1.67,2.12,8.42,8.42,0,0,0,4.33,1.69,8.68,8.68,0,0,0,3.16-.28c.72-.22,1.1-.42,1.11-.38l-.27.15a7.17,7.17,0,0,1-.81.33,8.27,8.27,0,0,1-3.21.39,8.53,8.53,0,0,1-4.48-1.69,5,5,0,0,1-1.78-2.24,2.19,2.19,0,0,1,.06-1.57,1.9,1.9,0,0,1,1.21-1.07,1.37,1.37,0,0,1,1.48.62,1.89,1.89,0,0,1,.24,1.55,2.39,2.39,0,0,1-.89,1.22,3.79,3.79,0,0,1-1.29.6,4.4,4.4,0,0,1-4.45-1.39,3.92,3.92,0,0,1-.8-3.1,2.84,2.84,0,0,1,.27-.84C507.39,154.61,507.45,154.52,507.46,154.53Z" style="fill:#263238"></path><path d="M535.73,206.45a3.73,3.73,0,0,1,5.47-3.18c1.29.75,2.29,2.25,2.17,5.15-.32,7.72-8,5.8-8,5.58S535.57,209.64,535.73,206.45Z" style="fill:#ffbe9d"></path><path d="M537.84,211.18s.13.1.35.21a1.34,1.34,0,0,0,1,.06c.83-.26,1.57-1.53,1.66-2.92a4.36,4.36,0,0,0-.3-1.94,1.53,1.53,0,0,0-1-1.07.67.67,0,0,0-.8.33c-.12.21-.07.37-.12.38s-.16-.14-.08-.45a.9.9,0,0,1,.32-.47,1,1,0,0,1,.75-.17A1.9,1.9,0,0,1,541,206.4a4.63,4.63,0,0,1,.38,2.17c-.12,1.55-1,3-2.1,3.25a1.4,1.4,0,0,1-1.22-.26C537.85,211.36,537.81,211.19,537.84,211.18Z" style="fill:#eb996e"></path><polygon points="510.78 239.56 536.8 237.36 540.56 237.74 523.96 251.38 515.48 254.34 508.02 250.85 506.22 245.85 510.78 239.56" style="fill:#ffbe9d"></polygon><path d="M475.75,263.37s9.55-14.39,12.44-17c3.48-3.09,9.79-5.48,9.79-5.48l12.8-1.37s-7.89,9.11,1.16,10.24,28.62-12.06,28.62-12.06,13.68,2.56,17.07,4.6,12,7.24,11.54,21v11.09s-25.8-.91-26,0-5.42,41.62-5.42,41.62L524.61,324s-31.44-17.19-33.7-16.74-4.53-33.47-4.53-33.47S477.33,269.48,475.75,263.37Z" style="fill:#263238"></path><path d="M479.25,330h0l4.84-27.87s-4.63-10.61-3.81-15.78,8.15-14.43,8.15-14.43l41.12-2.45v38.92s-2.51,11.65,2.15,14,10.91,7.79,10.91,7.79-1.85,25.47-3.56,34-11.33,8.41-11.33,8.41L496,372.13l-78.92-36.82C438.8,337.2,459.56,335.56,479.25,330Z" style="fill:#FFA15E"></path><path d="M489.53,304.52c0,.14-.67.26-1.5.26s-1.5-.12-1.5-.26.67-.26,1.5-.26S489.53,304.37,489.53,304.52Z" style="fill:#263238"></path><path d="M495.53,304.51c0,.14-.67.26-1.5.26s-1.5-.11-1.5-.26.67-.26,1.5-.26S495.53,304.37,495.53,304.51Z" style="fill:#263238"></path><path d="M501.53,304.5c0,.15-.67.26-1.5.27s-1.5-.12-1.5-.26.67-.26,1.5-.27S501.53,304.36,501.53,304.5Z" style="fill:#263238"></path><path d="M507.52,304.5c0,.14-.67.26-1.49.26s-1.5-.12-1.5-.26.67-.26,1.5-.26S507.52,304.35,507.52,304.5Z" style="fill:#263238"></path><path d="M512.12,301.6c.13,0,.06.75-.4,1.51s-1.22,1.05-1.26.91.43-.52.82-1.19S512,301.55,512.12,301.6Z" style="fill:#263238"></path><path d="M513.93,295.88c.14.05.05.72-.2,1.51s-.56,1.4-.7,1.35,0-.72.2-1.51S513.79,295.84,513.93,295.88Z" style="fill:#263238"></path><path d="M515.73,290.16c.14,0,0,.72-.2,1.51s-.56,1.39-.7,1.35,0-.72.2-1.51S515.6,290.12,515.73,290.16Z" style="fill:#263238"></path><path d="M517.54,284.44c.13,0,0,.72-.21,1.51s-.56,1.39-.7,1.35,0-.72.21-1.51S517.4,284.39,517.54,284.44Z" style="fill:#263238"></path><path d="M519.18,279.22c.14,0,.08.6-.12,1.26s-.49,1.14-.62,1.1-.09-.61.12-1.26S519,279.18,519.18,279.22Z" style="fill:#263238"></path><path d="M533.73,265.23c.11.09-.21.69-.71,1.35s-1,1.11-1.12,1,.2-.7.7-1.35S533.61,265.14,533.73,265.23Z" style="fill:#263238"></path><path d="M537.38,260.47c.12.09-.2.69-.71,1.35s-1,1.12-1.12,1,.21-.69.71-1.35S537.27,260.38,537.38,260.47Z" style="fill:#263238"></path><path d="M541,255.71c.11.09-.2.7-.71,1.35s-1,1.12-1.12,1,.2-.69.71-1.35S540.93,255.63,541,255.71Z" style="fill:#263238"></path><path d="M544.7,251c.11.09-.21.69-.71,1.35s-1,1.11-1.12,1,.2-.7.71-1.35S544.58,250.87,544.7,251Z" style="fill:#263238"></path><path d="M548.35,246.2c.12.09-.2.69-.7,1.35s-1,1.12-1.12,1,.2-.69.7-1.35S548.24,246.11,548.35,246.2Z" style="fill:#263238"></path><path d="M552.37,241.77c.08.12-.38.59-1,1.16s-1.09,1-1.2.92.23-.7.84-1.29S552.29,241.65,552.37,241.77Z" style="fill:#263238"></path><path d="M529.11,262.72c.1.09-.27.66-.83,1.27s-1.11,1-1.21.93.26-.68.82-1.28S529,262.62,529.11,262.72Z" style="fill:#263238"></path><path d="M533,258.15c.11.09-.23.68-.76,1.32s-1,1.08-1.16,1,.23-.68.76-1.32S532.89,258.06,533,258.15Z" style="fill:#263238"></path><path d="M536.64,253.38c.12.08-.19.69-.69,1.36s-1,1.14-1.1,1,.19-.7.69-1.36S536.52,253.3,536.64,253.38Z" style="fill:#263238"></path><path d="M540,248.42c.12.07-.15.7-.61,1.39s-.92,1.19-1,1.11.15-.7.61-1.39S539.89,248.34,540,248.42Z" style="fill:#263238"></path><path d="M543.32,243.41c.11.1-.18.72-.65,1.39s-.95,1.15-1.07,1.07.17-.69.65-1.38S543.21,243.32,543.32,243.41Z" style="fill:#263238"></path><path d="M548.12,239.93c.06.14-.51.5-1.23.88s-1.31.67-1.4.55.41-.62,1.16-1S548.07,239.8,548.12,239.93Z" style="fill:#263238"></path><path d="M495.49,265.53c.14,0,.11.71-.08,1.52s-.45,1.44-.59,1.41-.1-.72.08-1.52S495.35,265.5,495.49,265.53Z" style="fill:#263238"></path><path d="M497,259.71c.13.05.07.72-.15,1.52s-.5,1.42-.64,1.39-.08-.72.14-1.52S496.85,259.67,497,259.71Z" style="fill:#263238"></path><path d="M498.92,254c.13.05,0,.72-.28,1.49s-.62,1.37-.76,1.32,0-.72.27-1.5S498.78,254,498.92,254Z" style="fill:#263238"></path><path d="M501.57,248.65c.12.08-.1.72-.49,1.45s-.81,1.25-.94,1.19.09-.71.48-1.44S501.44,248.58,501.57,248.65Z" style="fill:#263238"></path><path d="M505.13,243.83c.1.1-.23.69-.75,1.33s-1,1.08-1.16,1,.22-.68.75-1.33S505,243.73,505.13,243.83Z" style="fill:#263238"></path><path d="M509.27,240.22c.08.12-.3.56-.84,1s-1.06.66-1.15.55.28-.54.84-1S509.19,240.1,509.27,240.22Z" style="fill:#263238"></path><path d="M489.69,265c.14,0,.16.71,0,1.52s-.32,1.47-.46,1.45-.17-.69,0-1.52S489.54,264.93,489.69,265Z" style="fill:#263238"></path><path d="M491.17,259.15c.13.05.06.73-.17,1.51s-.54,1.4-.68,1.37-.06-.71.18-1.51S491,259.11,491.17,259.15Z" style="fill:#263238"></path><path d="M493.46,253.61c.13.06,0,.72-.39,1.47s-.72,1.31-.85,1.26,0-.71.38-1.47S493.33,253.54,493.46,253.61Z" style="fill:#263238"></path><path d="M496.5,248.44c.11.08-.15.71-.59,1.4s-.9,1.2-1,1.13.13-.7.58-1.41S496.38,248.35,496.5,248.44Z" style="fill:#263238"></path><path d="M500.23,243.74c.1.1-.24.69-.78,1.31s-1.06,1.06-1.17,1,.23-.67.78-1.31S500.12,243.65,500.23,243.74Z" style="fill:#263238"></path><path d="M504.24,239.93c.09.11-.26.57-.78,1s-1,.75-1.12.65.25-.57.78-1S504.15,239.82,504.24,239.93Z" style="fill:#263238"></path><path d="M486.83,301.42c.14,0,.2.69.12,1.52s-.26,1.49-.41,1.47-.19-.71-.11-1.52S486.69,301.42,486.83,301.42Z" style="fill:#263238"></path><path d="M486.71,295.42c.14,0,.29.66.33,1.49s-.05,1.51-.19,1.51-.29-.66-.33-1.49S486.57,295.43,486.71,295.42Z" style="fill:#263238"></path><path d="M486.36,289.43c.14,0,.29.66.34,1.49s0,1.5-.19,1.51-.29-.66-.33-1.49S486.22,289.44,486.36,289.43Z" style="fill:#263238"></path><path d="M486.62,283.44c.14,0,.2.7.13,1.52s-.25,1.48-.39,1.47-.2-.68-.13-1.52S486.48,283.42,486.62,283.44Z" style="fill:#263238"></path><g style="opacity:0.30000000000000004"><path d="M531.54,344.45a76.83,76.83,0,0,1,.93,15.89,15.74,15.74,0,0,0,3.88-13.25c-.46-2.59-1.54-5.44-.18-7.69.91-1.52,3.32-3.26,3-5,0,0-2.11,0-4-.07l-4.73-.16c1.62,4.15,1.49,6.71.85,10.42"></path></g><path d="M489.86,319.79l48.32-7.25,5-38.08h24.21s-5.75,26.83-7,33.7c-1.82,9.87-8.59,23.07-12.21,25.56S487,331.21,487,331.21Z" style="fill:#ffbe9d"></path><path d="M462.42,324.2a1.86,1.86,0,0,0,1.71,1.15,2.57,2.57,0,0,0,.46-.07c1.08-.27,1.12-2.42,1.12-2.42l5.1-.49s6.29,4.66,8.44,7.62,8.26,1.08,8.26,1.08l2.77-10.63-8.74-9s.54.54,0-1.08-3.5-1.21-3.5-1.21c-.4-.8-2.29-1.21-2.29-1.21l-8.21.41a5.58,5.58,0,0,0-4.25,2.3l-3.81,5.23s-2.07,3.81-1.84,4.74a1.62,1.62,0,0,0,1.83,1.19s.23,2.61.9,2.75a5.72,5.72,0,0,0,2.05-.35Z" style="fill:#ffbe9d"></path><path d="M480.27,317.6c0,.09-1.09-.08-2.83-.12a24.77,24.77,0,0,0-6.74.81,23.33,23.33,0,0,0-3.52,1.24c-1,.49-2.08.88-2.44,1.57a1,1,0,0,0,0,1,1.4,1.4,0,0,0,.58.56,2,2,0,0,0,.71.15s-.27.21-.78,0a1.59,1.59,0,0,1-.76-.6,1.3,1.3,0,0,1-.1-1.28,2.5,2.5,0,0,1,1.08-1.08c.47-.27.95-.53,1.49-.78a21.3,21.3,0,0,1,10.47-2A9.88,9.88,0,0,1,480.27,317.6Z" style="fill:#eb996e"></path><path d="M480.5,322.84c0,.15-3.32-.2-7.41-.23s-7.41.25-7.43.1a8.32,8.32,0,0,1,2.16-.38,47.71,47.71,0,0,1,5.27-.24,46.92,46.92,0,0,1,5.26.33A7.89,7.89,0,0,1,480.5,322.84Z" style="fill:#eb996e"></path><path d="M462.48,324a4.27,4.27,0,0,1,0-.87,18.36,18.36,0,0,1,.15-2.39,10.35,10.35,0,0,1,.33-1.64,5.14,5.14,0,0,1,.92-1.72,11.21,11.21,0,0,1,3.26-2.93,15.29,15.29,0,0,1,4-1.71,14,14,0,0,1,3.55-.31c1,0,1.82.11,2.38.16a2.7,2.7,0,0,1,.87.15,28.78,28.78,0,0,1-3.25.06,15,15,0,0,0-3.44.4,15.61,15.61,0,0,0-3.87,1.7,11,11,0,0,0-3.15,2.78,6.16,6.16,0,0,0-1.27,3.12C462.63,322.75,462.59,324,462.48,324Z" style="fill:#eb996e"></path><path d="M475.22,310c0,.08-1.22,0-3.19.12s-4.9.11-6.78,2.58a27.9,27.9,0,0,0-4.53,6.13,15.58,15.58,0,0,0-1,3,2.09,2.09,0,0,1,0-.87,8.28,8.28,0,0,1,.62-2.28,24.18,24.18,0,0,1,4.49-6.33,8.91,8.91,0,0,1,1.69-1.5,5.81,5.81,0,0,1,2-.77,17,17,0,0,1,3.49-.32A11.8,11.8,0,0,1,475.22,310Z" style="fill:#eb996e"></path><path d="M477.58,328.14a4.05,4.05,0,0,1-.46-.41l-1.29-1.18a56.4,56.4,0,0,0-5.11-4l.11,0-5.1.53.19-.2a5.71,5.71,0,0,1-.18,1.22,2.29,2.29,0,0,1-.65,1.18,1.23,1.23,0,0,1-.69.26,1.88,1.88,0,0,1-.71,0,2.09,2.09,0,0,1-1.21-.78,2,2,0,0,1-.2-.31l0-.09,0,0v0h0l.29.13h0l-.16.06c-.22.07-.44.13-.67.18a5.4,5.4,0,0,1-.7.13l-.38,0a1,1,0,0,1-.46-.12,1.54,1.54,0,0,1-.45-.7,5.15,5.15,0,0,1-.21-.71,11.82,11.82,0,0,1-.23-1.45l.28.22a2,2,0,0,1-1.84-.76,1.62,1.62,0,0,1-.28-1,4.31,4.31,0,0,1,.25-1,26.78,26.78,0,0,1,1.63-3.54h0l2-2.8,1.29-1.76a10.11,10.11,0,0,1,1.39-1.71,5.61,5.61,0,0,1,1.91-1.09,7.13,7.13,0,0,1,2.11-.3l7.74-.36h.06a7.05,7.05,0,0,1,1.32.44,2.34,2.34,0,0,1,1.12.89l-.28-.1a2.8,2.8,0,0,1,2.61.32,3.22,3.22,0,0,1,1.16,2.14l-.05-.11,6,6.18,1.63,1.7a4.71,4.71,0,0,1,.53.62,4.15,4.15,0,0,1-.61-.54l-1.7-1.63-6.15-6.05,0,0v-.07a2.91,2.91,0,0,0-1-1.87,2.39,2.39,0,0,0-2.2-.24l-.18.06-.09-.17a2,2,0,0,0-.91-.68,7.19,7.19,0,0,0-1.24-.4h.06l-7.74.41a6.75,6.75,0,0,0-2,.27,4.89,4.89,0,0,0-1.72,1,9.79,9.79,0,0,0-1.32,1.62c-.43.59-.85,1.18-1.29,1.77-.69,1-1.38,1.9-2,2.79l0,0a26.81,26.81,0,0,0-1.6,3.46,4.1,4.1,0,0,0-.22.85,1.11,1.11,0,0,0,.19.71,1.43,1.43,0,0,0,1.35.55l.26,0,0,.25a12.58,12.58,0,0,0,.22,1.39,2.43,2.43,0,0,0,.45,1.12.52.52,0,0,0,.21,0,1.63,1.63,0,0,0,.31,0,4.76,4.76,0,0,0,.64-.11c.22,0,.43-.11.64-.18l.15,0h0l.3.13h0l0,0,0,.06a1.53,1.53,0,0,0,.16.25,1.58,1.58,0,0,0,.93.62,1.32,1.32,0,0,0,.56,0,.78.78,0,0,0,.47-.16,3.14,3.14,0,0,0,.7-2.07v-.19h.17l5.11-.46h.06l.05,0a48,48,0,0,1,5,4.18c.55.53,1,1,1.23,1.26S477.6,328.12,477.58,328.14Z" style="fill:#eb996e"></path><path d="M437.74,339.22s-46.32-15.91-57.25-16.88-19.85,4.4-22.1,7.94-3.74,19.32-2.14,23.82,27.17,31.73,27.17,31.73l24.15-13,81.2-.16-23.71-32.14Z" style="fill:#FFA15E"></path><path d="M450,352a81,81,0,0,1-39.86-5.42,51.66,51.66,0,0,0-6.65-2.48,19.58,19.58,0,0,0-6.86-.48c-1.81.2-3.74.74-4.84,2.19-1.62,2.14-.79,5.17.11,7.7,1.05,3,2.15,6,4.21,8.37,2.41,2.77,5.91,4.35,9.41,5.46,6.86,2.16,14.1,2.78,21.28,3.06L451.47,369Z" style="fill:#e0e0e0"></path><path d="M446.33,368.89a7.38,7.38,0,0,1-1.74-1.87,15.73,15.73,0,0,1-2.74-11.8,7.32,7.32,0,0,1,.75-2.44c.09,0-.2,1-.38,2.5a18,18,0,0,0,.32,6,17.64,17.64,0,0,0,2.35,5.53C445.73,368.12,446.4,368.83,446.33,368.89Z" style="fill:#263238"></path><path d="M402.34,344.08a2,2,0,0,1,.38.67,10,10,0,0,1,.65,2,12.85,12.85,0,0,1-.27,6.81,13,13,0,0,1-3.75,5.71,11.42,11.42,0,0,1-1.68,1.22c-.43.24-.68.34-.69.31s.89-.61,2.12-1.8A13.43,13.43,0,0,0,403,346.79C402.71,345.1,402.26,344.12,402.34,344.08Z" style="fill:#263238"></path><path d="M446.08,356.08a4,4,0,0,1-1.95.35,4,4,0,0,1-2-.17c0-.15.87-.3,1.95-.35A4,4,0,0,1,446.08,356.08Z" style="fill:#263238"></path><path d="M445.33,362.82c.06.12-.42.45-1.12.45s-1.17-.33-1.11-.45.54-.07,1.11-.07S445.28,362.68,445.33,362.82Z" style="fill:#263238"></path><path d="M531.28,337c-1.92-5.46-2.25-13.5-14.14-17.36s-20.89,3.54-27,6.11-39.54,20.9-39.54,20.9-6.3,11.22-4.5,16.18,9.93,9.85,9.93,9.85h37.38c9.64,0,27.59-.32,27.59-.32a111.63,111.63,0,0,0,6.43-12.21l.32-1.61C527.75,357.22,533.21,342.44,531.28,337Z" style="fill:#FFA15E"></path><path d="M510.78,239.56l-7.3.34s-5.19,2.84-9.71,11.26a41.46,41.46,0,0,0-5,17.32l6.57-.18s2.33-10,4.86-15A47.75,47.75,0,0,1,510.78,239.56Z" style="fill:#FFA15E"></path><path d="M549.9,238.32c-.87.62-5.75,1.84-8.53,6s-14.88,20.47-14.88,20.47l6,3.49,16.91-22.11s3.42-5,6.72-5.16Z" style="fill:#FFA15E"></path><path d="M485.93,281.55a5.2,5.2,0,0,1,.63-.07l1.89-.15,7.16-.51,25.17-1.68.35,0-.11.34c-2.09,6.3-4.4,13.21-6.88,20.45l-1.46,4.2-.38,1-.2.52-.06.14,0,.08,0,.06s0,.08-.22.1-.24-.22-.24-.16a.2.2,0,0,0,.07.09c.12.07,0,0,0,0l-.12,0c-.7-.05-1.43-.06-2.14-.08-2.86,0-5.66,0-8.36,0l-15,.12h-.21v-.21c-.16-3.68-.33-7-.52-10s-.6-5.53-.39-7.68a32.76,32.76,0,0,1,.69-4.88c.11-.55.22-1,.29-1.26a2.26,2.26,0,0,1,.14-.42,3.34,3.34,0,0,1-.07.44l-.24,1.27a39.85,39.85,0,0,0-.57,4.86c-.17,2.11.32,4.67.49,7.65s.43,6.32.61,10l-.22-.2,15-.18c2.7,0,5.5,0,8.37,0,.72,0,1.43,0,2.18.08l.14,0a.43.43,0,0,1,.26.08.31.31,0,0,1,.09.11c-.45.2-.1,0-.23.07s0,0-.06,0-.13-.1-.14-.1l0,0,.05-.12.2-.5.37-1,1.46-4.19c2.45-7.24,4.79-14.15,6.91-20.43l.25.31-25,1.45-7.22.38-1.93.09-.5,0Z" style="fill:#263238"></path><path d="M510.58,365.37a1.11,1.11,0,0,1-.28.5,6.47,6.47,0,0,1-1.23,1.11,31.27,31.27,0,0,1-5.28,3,33.23,33.23,0,0,1-3.91,1.54,28.13,28.13,0,0,1-4.71,1,89.42,89.42,0,0,1-11,.44c-7.77.12-14.82.41-19.93.35-2.55,0-4.62-.12-6-.27-.71-.07-1.26-.15-1.63-.22a2.08,2.08,0,0,1-.56-.14s.79.09,2.21.16,3.48.13,6,.11c5.1,0,12.14-.39,19.92-.52a95,95,0,0,0,10.93-.38,28.71,28.71,0,0,0,4.65-1,35.19,35.19,0,0,0,3.88-1.45,37.06,37.06,0,0,0,5.31-2.79,8.28,8.28,0,0,0,1.27-1C510.49,365.54,510.54,365.35,510.58,365.37Z" style="fill:#263238"></path><path d="M519.46,283.34a5.8,5.8,0,0,1-1.32.26c-.85.14-2.09.3-3.62.49-3.07.37-7.32.77-12,1s-9,.36-12.07.34c-1.54,0-2.79,0-3.66-.06a6.63,6.63,0,0,1-1.34-.11,6.3,6.3,0,0,1,1.34-.1l3.66-.1c3.08-.08,7.34-.22,12-.49s8.94-.62,12-.89l3.64-.32A7.5,7.5,0,0,1,519.46,283.34Z" style="fill:#263238"></path><path d="M531.85,267.91a8.08,8.08,0,0,0,1,.23,2.56,2.56,0,0,0,2.33-1.09,2.46,2.46,0,0,0,.41-1.73,2.41,2.41,0,0,0-1.05-1.7l-4.48-2.57a2.41,2.41,0,0,0-3.58,1.73,2.44,2.44,0,0,0,.54,1.93,6.13,6.13,0,0,0,1.55,1.09c1,.62,1.86,1.13,2.43,1.5a4.05,4.05,0,0,1,.85.61,4.29,4.29,0,0,1-1-.44l-2.51-1.35-.82-.46a2.87,2.87,0,0,1-.06-5.1,2.92,2.92,0,0,1,2.82,0c1.6.93,3.1,1.78,4.49,2.63a2.86,2.86,0,0,1,.67,4,2.74,2.74,0,0,1-2.66,1.07,2.65,2.65,0,0,1-.75-.26C531.92,268,531.84,267.92,531.85,267.91Z" style="fill:#e0e0e0"></path><path d="M494.4,268.48a8.54,8.54,0,0,0,1-.3,2.58,2.58,0,0,0,1.47-2.1,2.47,2.47,0,0,0-.5-1.71,2.42,2.42,0,0,0-1.77-.94h-5.16a2.38,2.38,0,0,0-2,1.12,2.42,2.42,0,0,0,1.23,3.57,6.66,6.66,0,0,0,1.88.17c1.2,0,2.18.05,2.85.08a3.85,3.85,0,0,1,1,.1,3.85,3.85,0,0,1-1,.1l-2.85.09h-.95a3.13,3.13,0,0,1-1.07-.14,2.89,2.89,0,0,1,.94-5.62c1.84,0,3.57,0,5.2,0a2.85,2.85,0,0,1,2.6,3.16,2.76,2.76,0,0,1-1.76,2.26,2.64,2.64,0,0,1-.79.15C494.49,268.51,494.4,268.5,494.4,268.48Z" style="fill:#e0e0e0"></path><path d="M494.32,268.31a14.33,14.33,0,0,0,0,2.59,10.12,10.12,0,0,1,0,2.9,2.94,2.94,0,0,1-2.54,2.48,2,2,0,0,1-1.76-.89,3.18,3.18,0,0,1-.55-1.71,15.86,15.86,0,0,1,.37-2.86,4.32,4.32,0,0,0-.28-2.5s.23.16.42.59a4.06,4.06,0,0,1,.23,1.95,19.21,19.21,0,0,0-.26,2.79,2.71,2.71,0,0,0,.49,1.44,1.48,1.48,0,0,0,1.32.67,2.13,2.13,0,0,0,1.4-.7,3,3,0,0,0,.69-1.36,11.23,11.23,0,0,0,.14-2.78A4.5,4.5,0,0,1,494.32,268.31Z" style="fill:#e0e0e0"></path><path d="M493.06,271.42l-.62-.29a2.55,2.55,0,1,0,.62.29Z" style="fill:#455a64"></path><path d="M527.28,265.2q-1.29,1.86-2.73,3.58c-.67.79-1.64,1.84-1.1,3a1.5,1.5,0,0,0,1.13.78,4.53,4.53,0,0,0,.74.07,7.38,7.38,0,0,1,1,.15,1.36,1.36,0,0,0,1.32-.33,4.56,4.56,0,0,0,.83-1.41,10.71,10.71,0,0,1,2.73-3.4c.12-.11-.06-.28-.18-.18a13.92,13.92,0,0,0-2.21,2.45,9.14,9.14,0,0,0-.7,1.31c-.22.48-.51,1.15-1,1.32s-1.1-.12-1.62-.16a2.41,2.41,0,0,1-1.59-.4,1.5,1.5,0,0,1-.08-1.81,10.54,10.54,0,0,1,1.13-1.44c.9-1.09,1.74-2.21,2.54-3.36.1-.13-.12-.26-.21-.13Z" style="fill:#e0e0e0"></path><path d="M527,268.88l-.62-.29a2.55,2.55,0,1,0,.62.29Z" style="fill:#455a64"></path><path d="M456,372.65a4.3,4.3,0,0,1-.49-.26c-.32-.18-.79-.47-1.39-.87a32.53,32.53,0,0,1-4.92-3.91,15.16,15.16,0,0,1-2.78-3.58,8.26,8.26,0,0,1-.55-5.32,44.63,44.63,0,0,1,4.52-12.19l0,0,.05,0c6.12-3.37,13.14-7.2,20.82-11.32,3.84-2.06,7.84-4.19,12-6.33,2.08-1.07,4.18-2.16,6.39-3.15s4.29-2.15,6.48-3.27a36.51,36.51,0,0,1,9.66-3.63,23.15,23.15,0,0,1,5-.46,22.8,22.8,0,0,1,4.9.7,23.18,23.18,0,0,1,8.56,4.09,16.79,16.79,0,0,1,3.11,3.37,19.35,19.35,0,0,1,2,3.95c.53,1.36.91,2.73,1.29,4.06a36.16,36.16,0,0,1,1.07,4,26,26,0,0,1-.64,7.64c-.48,2.39-1.07,4.61-1.66,6.69-.3,1-.59,2-.88,3a28,28,0,0,0-.73,2.77v0c-.13.61-.23,1.11-.33,1.6h0a38.93,38.93,0,0,1-4.29,9.31,16.12,16.12,0,0,1-2.27,2.86s0-.07.14-.19l.44-.54a24.89,24.89,0,0,0,1.56-2.21,40.6,40.6,0,0,0,4.15-9.31h0l.32-1.61v0a24.42,24.42,0,0,1,.72-2.86c.27-1,.56-2,.85-3,.57-2.07,1.15-4.29,1.61-6.66a25.81,25.81,0,0,0,.6-7.51,35.78,35.78,0,0,0-1.07-3.9c-.39-1.33-.77-2.68-1.29-4a18.42,18.42,0,0,0-2-3.85,16.62,16.62,0,0,0-3-3.26,22.88,22.88,0,0,0-8.38-4,22.49,22.49,0,0,0-4.79-.68,22.82,22.82,0,0,0-4.92.45,36.14,36.14,0,0,0-9.52,3.59c-2.18,1.11-4.29,2.34-6.52,3.28s-4.28,2.07-6.35,3.13c-4.15,2.14-8.16,4.26-12,6.31L450.7,346.79l.08-.08a44.8,44.8,0,0,0-4.56,12.06,8,8,0,0,0,.48,5.13,14.83,14.83,0,0,0,2.69,3.55,34.9,34.9,0,0,0,4.82,4l1.36.92Z" style="fill:#263238"></path><path d="M518,356.14a4,4,0,0,1-.34,1.55,12.26,12.26,0,0,1-1.81,3.37,9.07,9.07,0,0,1-4.26,3.26c-.1-.15,2.08-1.27,3.85-3.58S517.77,356.08,518,356.14Z" style="fill:#263238"></path><path d="M514.08,358.28a7.34,7.34,0,0,1-1.08,3.88,8.78,8.78,0,0,1-2.42,3.21c-.12-.1,1-1.51,2-3.45S513.94,358.26,514.08,358.28Z" style="fill:#263238"></path><path d="M528.29,371.33c-.09,0,.63-1.42,1.5-3.76A39.94,39.94,0,0,0,532,348.4c-.32-2.48-.71-4-.62-4a3.8,3.8,0,0,1,.35,1,24,24,0,0,1,.64,2.92,36,36,0,0,1-2.21,19.35,26.77,26.77,0,0,1-1.28,2.7A4.72,4.72,0,0,1,528.29,371.33Z" style="fill:#263238"></path><path d="M411.56,369.73a7.57,7.57,0,0,1-1.42-.25c-.9-.19-2.21-.49-3.8-1a30.8,30.8,0,0,1-5.45-2.12,17,17,0,0,1-5.59-4.48,20.21,20.21,0,0,1-3.32-6.35,37.14,37.14,0,0,1-1.32-5.69c-.26-1.64-.41-3-.49-3.89a7.77,7.77,0,0,1-.08-1.44,7.69,7.69,0,0,1,.28,1.41c.15.92.35,2.24.65,3.86a41.08,41.08,0,0,0,1.42,5.6,20,20,0,0,0,3.27,6.17,16.87,16.87,0,0,0,5.4,4.38,31.73,31.73,0,0,0,5.33,2.19c1.57.51,2.86.86,3.75,1.12A7.08,7.08,0,0,1,411.56,369.73Z" style="fill:#263238"></path><path d="M393.82,333.79a6,6,0,0,1,.25,2,18.55,18.55,0,0,1-.51,4.78,18.82,18.82,0,0,1-1.7,4.49,5.39,5.39,0,0,1-1.12,1.64,41.49,41.49,0,0,0,2.31-6.25A42.4,42.4,0,0,0,393.82,333.79Z" style="fill:#263238"></path><path d="M385.54,335.4c0-.06.59.11,1.36.65a8,8,0,0,1,3.35,6.23,3.14,3.14,0,0,1-.21,1.49,7.59,7.59,0,0,1-.16-1.46,9.31,9.31,0,0,0-3.2-6C386,335.76,385.51,335.47,385.54,335.4Z" style="fill:#263238"></path><g style="opacity:0.30000000000000004"><path d="M522,355.85c-.08-.73-.37-1.6-1.1-1.75s-1.48.83-1.84,1.66c-3.84,8.88-16.46,15.79-26.09,16.68a88.47,88.47,0,0,0,14-1.14,21.23,21.23,0,0,0,10.66-4.87A12.93,12.93,0,0,0,522,355.85Z"></path></g><g style="opacity:0.30000000000000004"><path d="M390.74,346.67a24.92,24.92,0,0,0,.66-14.44c-.1-.45-.09-1.09.36-1.18a.78.78,0,0,1,.62.28,5,5,0,0,1,1.17,2.95,19.55,19.55,0,0,1-2.81,12.39"></path></g><path d="M448.25,343.77a31.67,31.67,0,0,1-5.36-2,32.4,32.4,0,0,1-5.15-2.52,32,32,0,0,1,5.36,2A32.36,32.36,0,0,1,448.25,343.77Z" style="fill:#263238"></path><g style="opacity:0.30000000000000004"><path d="M486.35,305.57a24.42,24.42,0,0,0,24.9.34Z"></path></g><path d="M388.18,296l18.16,40.17a4.7,4.7,0,0,0,4.22,2.77l53,.69,6.67-3.6-10.45-.76-16.28-39.06a3.36,3.36,0,0,0-3.08-2.07l-50.74-.39A1.59,1.59,0,0,0,388.18,296Z" style="fill:#455a64"></path><path d="M458.19,339.52a2,2,0,0,1-.24-.44c-.17-.35-.37-.78-.61-1.3-.53-1.21-1.25-2.84-2.13-4.81-1.77-4.08-4.17-9.72-6.76-16s-4.87-12-6.45-16.11c-.79-2.08-1.42-3.77-1.83-4.94-.18-.54-.33-1-.46-1.36a2.29,2.29,0,0,1-.13-.48s.1.15.23.45l.55,1.32,2,4.87c1.71,4.18,4,9.82,6.59,16l6.62,16.05c.82,2,1.48,3.65,2,4.87L458,339A1.4,1.4,0,0,1,458.19,339.52Z" style="fill:#263238"></path><path d="M425.33,315.44a2.6,2.6,0,1,1-2.59-2.6A2.59,2.59,0,0,1,425.33,315.44Z" style="fill:#fff"></path></g><g id="freepik--character-2--inject-127"><path d="M439.46,277.31l-75.29-.05a16.4,16.4,0,0,1-16.39-16.4l0-188.75a16.41,16.41,0,0,1,16.41-16.4l75.29,0a16.39,16.39,0,0,1,16.39,16.4l0,188.75A16.41,16.41,0,0,1,439.46,277.31Z" style="fill:#263238"></path><path d="M439.38,62.53h-14.6a3.62,3.62,0,0,0-3.54,3.7v2.65a3.62,3.62,0,0,1-3.54,3.7H389.24a3.63,3.63,0,0,1-3.55-3.71V66.2a3.62,3.62,0,0,0-3.54-3.71H364.24A11.48,11.48,0,0,0,352.75,74l0,184.23a11.5,11.5,0,0,0,11.48,11.49l75.14,0a11.48,11.48,0,0,0,11.49-11.48l0-184.23A11.48,11.48,0,0,0,439.38,62.53Z" style="fill:#fff"></path><rect x="358.33" y="243.91" width="88.81" height="17.95" rx="8.03" style="fill:#fff"></rect><path d="M439.11,261.86l.51,0a3.25,3.25,0,0,0,.63-.07,5.64,5.64,0,0,0,.86-.17,7.56,7.56,0,0,0,2.23-1,8.1,8.1,0,0,0,2.39-2.31,8,8,0,0,0,1.32-3.91,14.54,14.54,0,0,0-.39-4.93,7.9,7.9,0,0,0-6.4-5.36A27.34,27.34,0,0,0,437,244l-70.61,0a7.87,7.87,0,0,0-4.71,1.57,8,8,0,0,0-2.85,4c-.66,3.14-.68,6.86,1.52,9.32a7.88,7.88,0,0,0,3.94,2.52,8.32,8.32,0,0,0,2.33.29h11.53l31.74,0,21.4,0,5.82,0h2l-.52,0h-1.51l-5.82,0-21.4,0-31.74,0H366.59a8.79,8.79,0,0,1-2.39-.29,8.21,8.21,0,0,1-4.07-2.6,8.65,8.65,0,0,1-1.29-2.12,8.76,8.76,0,0,1-.6-2.42c-.06-.85,0-1.67,0-2.5a8.91,8.91,0,0,1,.36-2.51,8.17,8.17,0,0,1,2.93-4.13,8.07,8.07,0,0,1,4.86-1.62l70.61,0a27.83,27.83,0,0,1,3.31.1,8.12,8.12,0,0,1,6.52,5.49,8.6,8.6,0,0,1,.4,2.57c0,.84,0,1.64,0,2.41a7.93,7.93,0,0,1-3.79,6.27,7.32,7.32,0,0,1-2.26,1,4.64,4.64,0,0,1-.86.17,4.11,4.11,0,0,1-.64.06Z" style="fill:#FFA15E"></path><path d="M443.65,252.78a5.37,5.37,0,1,1-5.37-5.37A5.37,5.37,0,0,1,443.65,252.78Z" style="fill:#FFA15E"></path><path d="M438.14,256.09h0A.16.16,0,0,1,438,256l-.69-2.54-2.38-.84a.17.17,0,0,1,0-.32l5.61-2a.16.16,0,0,1,.17,0,.15.15,0,0,1,0,.18L438.29,256A.18.18,0,0,1,438.14,256.09Zm-2.68-3.66,2,.72a.14.14,0,0,1,.11.11l.59,2.17,2.08-4.72Z" style="fill:#fff"></path><path d="M437.43,253.47a.16.16,0,0,1-.12-.06.16.16,0,0,1,0-.23l3.14-2.87a.16.16,0,0,1,.22.24l-3.14,2.87A.16.16,0,0,1,437.43,253.47Z" style="fill:#fff"></path><path d="M378.37,251.4h-.87v-.22h2v.22h-.87v2.23h-.25Z" style="fill:#263238"></path><path d="M381.28,251.79l-.92,2.06c-.16.36-.35.48-.62.48a.66.66,0,0,1-.45-.17l.12-.18a.46.46,0,0,0,.34.14c.16,0,.27-.08.38-.31l.08-.18-.82-1.84h.25l.7,1.57.69-1.57Z" style="fill:#263238"></path><path d="M383.5,252.71a.9.9,0,0,1-.92.94.81.81,0,0,1-.7-.36v1h-.25v-2.52h.24v.36a.81.81,0,0,1,.71-.38A.9.9,0,0,1,383.5,252.71Zm-.25,0a.69.69,0,1,0-.69.72A.68.68,0,0,0,383.25,252.71Z" style="fill:#263238"></path><path d="M385.61,252.79h-1.54a.68.68,0,0,0,.72.64.73.73,0,0,0,.57-.24l.14.16a.93.93,0,0,1-.71.3.91.91,0,0,1-1-.94.9.9,0,1,1,1.79,0Zm-1.54-.19h1.31a.64.64,0,0,0-.66-.61A.63.63,0,0,0,384.07,252.6Z" style="fill:#263238"></path><path d="M388.43,252.49v1.14h-.23v-.29a.71.71,0,0,1-.64.31c-.42,0-.67-.22-.67-.54s.18-.52.71-.52h.58v-.11c0-.32-.17-.49-.52-.49a.94.94,0,0,0-.61.22l-.11-.19a1.21,1.21,0,0,1,.75-.25A.65.65,0,0,1,388.43,252.49Zm-.25.59v-.3h-.57c-.36,0-.48.14-.48.33s.18.34.47.34A.57.57,0,0,0,388.18,253.08Z" style="fill:#263238"></path><path d="M393.07,252.56v1.07h-.25v-1c0-.39-.19-.59-.53-.59a.58.58,0,0,0-.61.66v1h-.25v-1c0-.39-.2-.59-.54-.59a.59.59,0,0,0-.61.66v1H390v-1.84h.24v.34a.73.73,0,0,1,.67-.36.66.66,0,0,1,.66.39.82.82,0,0,1,.73-.39A.69.69,0,0,1,393.07,252.56Z" style="fill:#263238"></path><path d="M395.36,252.79h-1.54a.68.68,0,0,0,.72.64.73.73,0,0,0,.57-.24l.14.16a.93.93,0,0,1-.71.3.91.91,0,0,1-1-.94.9.9,0,1,1,1.79,0Zm-1.54-.19h1.31a.65.65,0,0,0-.66-.61A.63.63,0,0,0,393.82,252.6Z" style="fill:#263238"></path><path d="M395.62,253.42l.11-.19a1.17,1.17,0,0,0,.66.2c.35,0,.49-.12.49-.3,0-.48-1.2-.1-1.2-.83,0-.3.26-.53.73-.53a1.19,1.19,0,0,1,.65.18l-.1.2a.91.91,0,0,0-.55-.16c-.33,0-.48.13-.48.3,0,.5,1.2.13,1.2.83,0,.32-.28.53-.76.53A1.22,1.22,0,0,1,395.62,253.42Z" style="fill:#263238"></path><path d="M397.33,253.42l.11-.19a1.17,1.17,0,0,0,.66.2c.35,0,.49-.12.49-.3,0-.48-1.19-.1-1.19-.83,0-.3.26-.53.73-.53a1.19,1.19,0,0,1,.65.18l-.11.2a.88.88,0,0,0-.54-.16c-.34,0-.48.13-.48.3,0,.5,1.19.13,1.19.83,0,.32-.28.53-.76.53A1.24,1.24,0,0,1,397.33,253.42Z" style="fill:#263238"></path><path d="M400.69,252.49v1.14h-.23v-.29a.71.71,0,0,1-.64.31c-.42,0-.67-.22-.67-.54s.18-.52.71-.52h.58v-.11c0-.32-.17-.49-.52-.49a.94.94,0,0,0-.61.22l-.11-.19a1.21,1.21,0,0,1,.75-.25A.65.65,0,0,1,400.69,252.49Zm-.25.59v-.3h-.57c-.36,0-.48.14-.48.33s.18.34.47.34A.57.57,0,0,0,400.44,253.08Z" style="fill:#263238"></path><path d="M403.08,251.79v1.62a.81.81,0,0,1-.92.92,1.33,1.33,0,0,1-.86-.28l.13-.19a1.15,1.15,0,0,0,.73.25c.46,0,.68-.21.68-.67v-.24a.83.83,0,0,1-.72.36.9.9,0,1,1,0-1.79.84.84,0,0,1,.73.37v-.35Zm-.24.87a.7.7,0,0,0-1.4,0,.7.7,0,0,0,1.4,0Z" style="fill:#263238"></path><path d="M405.39,252.79h-1.54a.68.68,0,0,0,.72.64.73.73,0,0,0,.57-.24l.14.16a.94.94,0,0,1-.72.3.91.91,0,0,1-1-.94.9.9,0,1,1,1.79,0Zm-1.54-.19h1.3a.65.65,0,0,0-1.3,0Z" style="fill:#263238"></path><path d="M405.74,253.46a.18.18,0,0,1,.19-.19.19.19,0,0,1,0,.38A.18.18,0,0,1,405.74,253.46Z" style="fill:#263238"></path><path d="M406.48,253.46a.19.19,0,1,1,.19.19A.19.19,0,0,1,406.48,253.46Z" style="fill:#263238"></path><path d="M407.23,253.46a.18.18,0,0,1,.18-.19.19.19,0,0,1,0,.38A.18.18,0,0,1,407.23,253.46Z" style="fill:#263238"></path><path d="M366.51,254.42a1,1,0,0,1-1.49-1.24l2-2.42a.63.63,0,1,1,1,.81l-1.71,2h0a.39.39,0,0,1-.45,0,.37.37,0,0,1-.09-.44l1.31-1.58-.18-.15-1.25,1.5h0l-.06.07h0a.58.58,0,0,0,.88.74h0l0,0,0,0h0l1.66-2h0a.86.86,0,0,0-1.32-1.11h0l-2.1,2.52h0a1.21,1.21,0,0,0,1.85,1.54h0l1.7-2-.19-.15Z" style="fill:#FFA15E"></path><path d="M434.92,240.4H390.47a8.6,8.6,0,0,1-8.6-8.6h0a8.6,8.6,0,0,1,8.6-8.6h44.45a8.6,8.6,0,0,1,8.6,8.6h0A8.6,8.6,0,0,1,434.92,240.4Z" style="fill:#f5f5f5"></path><circle cx="370.72" cy="232.01" r="6.62" style="fill:#e0e0e0"></circle><path d="M373.07,229.81a2.35,2.35,0,1,1-2.35-2.35A2.35,2.35,0,0,1,373.07,229.81Z" style="fill:#fafafa"></path><path d="M366.09,235.92s1.46-3.43,4.76-3.43,4.65,3.29,4.65,3.29a5.5,5.5,0,0,1-4.62,2.34A6,6,0,0,1,366.09,235.92Z" style="fill:#fafafa"></path><path d="M391.63,229.65v1.68h1.94v-1.68h.53v4h-.53v-1.88h-1.94v1.88h-.52v-4Z"></path><path d="M395.27,232.32a.93.93,0,0,0,1,1,2,2,0,0,0,.8-.15l.09.37a2.24,2.24,0,0,1-1,.18,1.34,1.34,0,0,1-1.42-1.45,1.4,1.4,0,0,1,1.35-1.56,1.22,1.22,0,0,1,1.19,1.36c0,.11,0,.19,0,.24Zm1.54-.37c0-.34-.14-.86-.73-.86a.88.88,0,0,0-.81.86Z"></path><path d="M398,229.44h.53v4.23H398Z"></path><path d="M399.37,229.44h.52v4.23h-.52Z"></path><path d="M403.39,232.2a1.42,1.42,0,0,1-1.44,1.54,1.38,1.38,0,0,1-1.38-1.49,1.4,1.4,0,0,1,1.43-1.53A1.36,1.36,0,0,1,403.39,232.2Zm-2.29,0c0,.64.36,1.11.87,1.11s.88-.47.88-1.12c0-.49-.24-1.11-.86-1.11S401.1,231.68,401.1,232.23Z"></path><path d="M404,233.37a.35.35,0,0,1,.35-.37.34.34,0,0,1,.35.37.35.35,0,1,1-.7,0Zm.15-.86-.09-2.86h.57l-.08,2.86Z"></path><path d="M405.32,233.37a.35.35,0,0,1,.35-.37.34.34,0,0,1,.35.37.35.35,0,1,1-.7,0Zm.15-.86-.09-2.86H406l-.09,2.86Z"></path><path d="M411.91,231.8a.86.86,0,0,0-.2-.47.8.8,0,0,0-.41-.27.63.63,0,0,0-.52.08.69.69,0,0,0-.22.23.67.67,0,0,0-.19-.22.66.66,0,0,0-.51-.12.78.78,0,0,0-.43.25.86.86,0,0,0-.24.45,1,1,0,0,0,.11.64,1.41,1.41,0,0,0,.48.49l.75.47s.38-.26.71-.44a1.44,1.44,0,0,0,.52-.46A1,1,0,0,0,411.91,231.8Z" style="fill:#FFA15E"></path><path d="M416.18,231.8a.94.94,0,0,0-.2-.47.83.83,0,0,0-.42-.27.64.64,0,0,0-.52.08.8.8,0,0,0-.22.23.65.65,0,0,0-.18-.22.69.69,0,0,0-.52-.12.86.86,0,0,0-.43.25.78.78,0,0,0-.23.45,1,1,0,0,0,.1.64,1.44,1.44,0,0,0,.49.49l.75.47a7.86,7.86,0,0,1,.71-.44,1.53,1.53,0,0,0,.52-.46A1.13,1.13,0,0,0,416.18,231.8Z" style="fill:#FFA15E"></path><path d="M368.42,74.71c1.15,0,1.28,0,1.74,0a2.74,2.74,0,0,1,.8.14,1.47,1.47,0,0,1,.5.32,1.34,1.34,0,0,1,.32.49,2.29,2.29,0,0,1,.16.8c0,.45,0,.59,0,1.74s0,1.29,0,1.74a2.19,2.19,0,0,1-.14.8,1.36,1.36,0,0,1-.31.5,1.41,1.41,0,0,1-.5.33,2.28,2.28,0,0,1-.79.15c-.46,0-.59,0-1.74,0s-1.29,0-1.74,0a2.57,2.57,0,0,1-.81-.14,1.34,1.34,0,0,1-.49-.32,1.25,1.25,0,0,1-.33-.49A2.56,2.56,0,0,1,365,80c0-.45,0-.59,0-1.74s0-1.29,0-1.74a2.19,2.19,0,0,1,.14-.8,1.38,1.38,0,0,1,.32-.5,1.37,1.37,0,0,1,.49-.33,2.36,2.36,0,0,1,.8-.15c.45,0,.59,0,1.74,0m0-.78c-1.17,0-1.32,0-1.78,0a3.27,3.27,0,0,0-1,.21,2.31,2.31,0,0,0-.76.51,2.19,2.19,0,0,0-.49.77,3.27,3.27,0,0,0-.19,1c0,.46,0,.61,0,1.78s0,1.31.05,1.77a3.08,3.08,0,0,0,.21,1,2.2,2.2,0,0,0,1.27,1.24,2.9,2.9,0,0,0,1.05.19c.46,0,.6,0,1.77,0s1.32,0,1.78,0a3.21,3.21,0,0,0,1-.21,2,2,0,0,0,.76-.51,2.1,2.1,0,0,0,.49-.76,3.4,3.4,0,0,0,.19-1c0-.46,0-.61,0-1.78s0-1.31-.05-1.77a3.08,3.08,0,0,0-.21-1,2,2,0,0,0-.5-.75,2.06,2.06,0,0,0-.77-.49,2.86,2.86,0,0,0-1.05-.19c-.46,0-.6,0-1.77,0" style="fill:#FFA15E"></path><path d="M368.43,76a2.22,2.22,0,1,0,2.23,2.19A2.23,2.23,0,0,0,368.43,76m0,3.65a1.44,1.44,0,1,1,1.42-1.45,1.44,1.44,0,0,1-1.42,1.45" style="fill:#FFA15E"></path><path d="M371.24,75.91a.51.51,0,0,1-.51.52.52.52,0,0,1-.52-.51.51.51,0,0,1,.51-.52.5.5,0,0,1,.52.51" style="fill:#FFA15E"></path><path d="M422.86,78.17c0,.15-8.64.26-19.3.26s-19.31-.11-19.31-.26,8.65-.26,19.31-.26S422.86,78,422.86,78.17Z" style="fill:#FFA15E"></path><path d="M418.93,90.24l7.94,8.81c1.31,1.46,2.69,3.09,2.81,5,.12,2.2-1.4,4.48-.53,6.51s3.39,2.58,4.19,4.5c1.14,2.73-2.06,5.83-1,8.6.83,2.16,4,3.39,3.57,5.66-.24,1.18-1.51,2.13-1.27,3.31.3,1.56,2.63,1.51,3.79,2.59,1.87,1.73-.15,5.09,1.09,7.32.95,1.69,3.38,2,4.5,3.59a4.14,4.14,0,0,1-.08,4.33,12.09,12.09,0,0,1-3.16,3.26,38.22,38.22,0,0,1-8.82,5.8c-3.25,1.36-7.06,1.78-10.28.34-2.45-1.11-4.32-3.16-6.36-4.91s-4.54-3.3-7.22-3.06" style="fill:#263238"></path><path d="M394.23,89c-1.94-.68-7.85,4.56-8.5,6.5s-.78,4.17-2.14,5.7c-1.2,1.35-3.24,2-3.84,3.69-.72,2,1.11,4.34.36,6.37-.93,2.49-5.07,2.77-5.58,5.38-.38,1.91,1.57,3.77,1,5.64s-3.56,2.58-3.86,4.61,2.06,3.26,2.27,5.17c.17,1.42-.87,2.67-1.25,4a5.58,5.58,0,0,0,2,5.6,9.23,9.23,0,0,0,5.85,1.9A14,14,0,0,0,391,139c4.57-5.12,4.7-12.68,5-19.55a184.17,184.17,0,0,1,3.32-28.56" style="fill:#263238"></path><path d="M422.86,94.92c-2.52-6.85-12.1-11.55-20.51-10.39-7.08,1-15.24,7-16.6,14-2,10.21,2.41,21.41-2.14,30.78-5.29,10.9-10.7,6.63-11.86,23.06-.34,4.94.42,17.22,2.41,21.78,1,2.36,2.75,4.63,5.26,5.35,3.12.9,7.43,1.95,10.19.27,7.45-4.54,14-4.63,16.52-12.91,3.76-12.21-3.1-28.25-1.77-38.33s.7-20.3.08-30.45" style="fill:#263238"></path><path d="M432.12,139.48c-2.44-3-13-4.9-13.76-4.9l-23.82-2.06a149,149,0,0,0-18.11,5.93l1,25.1,4.68,25.74c-6.33,7.57-13.43,21.23-14.77,28h63.3l-6.11-28Z" style="fill:#FFA15E"></path><path d="M430,137.89a13.93,13.93,0,0,1,7.81,6.5c1.4,2.6,7.24,24.7,7.24,24.7l-17.83,3.63-.39-3.95Z" style="fill:#FFA15E"></path><path d="M376.63,138.57a17.4,17.4,0,0,0-7.49,9.83,97.17,97.17,0,0,0-2.31,15.21l14.58,2.73Z" style="fill:#FFA15E"></path><path d="M424.15,192.23a7,7,0,0,1,.12-1.41c.14-1,.32-2.29.53-3.84.47-3.23,1.16-7.68,1.94-12.6s1.52-9.37,2.08-12.59c.27-1.54.5-2.82.68-3.81a9.39,9.39,0,0,1,.32-1.39,6.78,6.78,0,0,1-.13,1.42c-.13,1-.31,2.28-.53,3.82-.47,3.24-1.15,7.7-1.93,12.62s-1.52,9.37-2.08,12.59l-.69,3.81A8.46,8.46,0,0,1,424.15,192.23Z" style="fill:#263238"></path><path d="M427.68,167a3.24,3.24,0,0,1,.08,1,10.3,10.3,0,0,1-.32,2.56,11.91,11.91,0,0,1-12.91,9.07A10.81,10.81,0,0,1,412,179a3.22,3.22,0,0,1-.86-.4,24.47,24.47,0,0,0,3.41.62,12,12,0,0,0,12.54-8.81A24.69,24.69,0,0,0,427.68,167Z" style="fill:#263238"></path><path d="M391.87,193a47.51,47.51,0,0,1-4.95-1.39,51.39,51.39,0,0,1-4.95-1.42,27.66,27.66,0,0,1,9.9,2.81Z" style="fill:#263238"></path><path d="M395.09,189.76a24.55,24.55,0,0,1-6.37,0,25.39,25.39,0,0,1-6.27-1.15c0-.14,2.83.34,6.31.66S395.09,189.62,395.09,189.76Z" style="fill:#263238"></path><path d="M382.07,189.29a6.8,6.8,0,0,1-.3-1.28c-.17-.92-.38-2.1-.64-3.51-.52-3-1.2-7.08-1.93-11.62s-1.35-8.67-1.78-11.65c-.2-1.42-.36-2.61-.49-3.54a7.41,7.41,0,0,1-.11-1.31,5.93,5.93,0,0,1,.3,1.28c.17.92.39,2.1.64,3.51.52,3,1.21,7.08,1.93,11.63s1.35,8.66,1.79,11.65q.28,2.13.48,3.54A6.28,6.28,0,0,1,382.07,189.29Z" style="fill:#263238"></path><g style="opacity:0.2"><path d="M392.44,181.24c2.9-.43,4.25-1.76,6.61-3s5.05-2.46,7.65-1.78c1.81.47,3.31,1.8,5.12,2.29a22.63,22.63,0,0,0,3.78.38,4.76,4.76,0,0,1,3.38,1.53,3.59,3.59,0,0,1,.14,3.85A6,6,0,0,1,416,187a9.08,9.08,0,0,1-6.23.15c-1.61-.54-3.06-1.54-4.73-1.82a9.14,9.14,0,0,0-4.2.5c-1.35.44-2.66,1-4,1.34a6.81,6.81,0,0,1-4.19-.12,3.73,3.73,0,0,1-2.41-3.22,2.59,2.59,0,0,1,2.72-2.6"></path></g><path d="M401,176.81s-.17.22-.54.55a6.24,6.24,0,0,1-.72.57,10.22,10.22,0,0,1-1,.66,14.78,14.78,0,0,1-2.86,1.31,17.58,17.58,0,0,1-3.78.75,17,17,0,0,1-3.84-.2,14.81,14.81,0,0,1-3-.87,10.32,10.32,0,0,1-1.09-.51,7.27,7.27,0,0,1-.79-.46,2.6,2.6,0,0,1-.62-.47c.05-.08,1,.52,2.62,1.11a16,16,0,0,0,3,.75,18.17,18.17,0,0,0,3.74.15,17.46,17.46,0,0,0,3.67-.69,16.35,16.35,0,0,0,2.83-1.17C400.11,177.46,400.94,176.74,401,176.81Z" style="fill:#263238"></path><path d="M375.16,135.92a4.21,4.21,0,0,1-.1-.76c-.05-.55-.11-1.28-.19-2.2-.15-2-.36-4.72-.61-8.1-.12-1.72-.25-3.59-.4-5.6s-.48-4.19.13-6.48a4.69,4.69,0,0,1,2.15-2.84c1-.62,2.25-1,2.92-1.93a5.59,5.59,0,0,0,.71-3.47,12.2,12.2,0,0,1,.28-3.92,8.41,8.41,0,0,1,5.34-5.39,7.89,7.89,0,0,1,3.69-.26,5.25,5.25,0,0,0,1.68,0,2.21,2.21,0,0,0,1.29-.81,6.28,6.28,0,0,0,.87-3A11.49,11.49,0,0,1,393.5,88a8.51,8.51,0,0,1,3.62-4.32,7.71,7.71,0,0,1,4.52-1.06,8.2,8.2,0,0,1,3.38,1,7,7,0,0,1,1.79,1.31,4.06,4.06,0,0,1,.39.43c.08.1.12.15.11.16a9.65,9.65,0,0,0-2.38-1.73,8.36,8.36,0,0,0-3.31-.87A7.53,7.53,0,0,0,397.3,84a8.19,8.19,0,0,0-3.41,4.16,10.71,10.71,0,0,0-.54,3,6.57,6.57,0,0,1-.94,3.27,2.66,2.66,0,0,1-1.55,1,5.92,5.92,0,0,1-1.83,0,7.26,7.26,0,0,0-3.49.26,7.93,7.93,0,0,0-5,5.06,11.58,11.58,0,0,0-.25,3.77,6,6,0,0,1-.82,3.76c-.81,1.11-2.1,1.47-3.06,2.06a4.18,4.18,0,0,0-2,2.56c-.6,2.13-.23,4.32-.16,6.33s.24,3.88.34,5.59c.19,3.39.34,6.15.45,8.11,0,.93.07,1.66.1,2.21A7.45,7.45,0,0,1,375.16,135.92Z" style="fill:#263238"></path><path d="M393.31,103.75A14.8,14.8,0,0,1,408.69,89a15.23,15.23,0,0,1,14.62,14.78c.22,6.92.28,13.88-.06,16.36-1,7.5-5.84,9.87-7.76,10.53a10.19,10.19,0,0,1-2.07.25h0a0,0,0,0,0-.05.05l.65,8.82c.08,5.74-3.74,10.38-9.58,10.51s-9.83-4.77-10-10.52Z" style="fill:#b78876"></path><path d="M421,108.26a1.21,1.21,0,0,1-1.15,1.24,1.17,1.17,0,0,1-1.29-1.06,1.21,1.21,0,0,1,1.15-1.24A1.18,1.18,0,0,1,421,108.26Z" style="fill:#263238"></path><path d="M421.3,105.6c-.15.16-1.09-.49-2.41-.46s-2.26.7-2.41.54.08-.35.49-.66a3.34,3.34,0,0,1,1.92-.63,3.38,3.38,0,0,1,1.93.56C421.23,105.25,421.37,105.53,421.3,105.6Z" style="fill:#263238"></path><path d="M408.09,108.87a1.2,1.2,0,0,1-1.15,1.23,1.17,1.17,0,0,1-1.29-1,1.21,1.21,0,0,1,1.15-1.24A1.17,1.17,0,0,1,408.09,108.87Z" style="fill:#263238"></path><path d="M408.37,106.11c-.15.16-1.1-.49-2.41-.46s-2.26.7-2.41.54.07-.35.49-.66a3.31,3.31,0,0,1,1.92-.63,3.24,3.24,0,0,1,1.92.57C408.29,105.76,408.44,106,408.37,106.11Z" style="fill:#263238"></path><path d="M413.39,115.61a8.74,8.74,0,0,1,2.13-.43c.34,0,.65-.11.71-.34a1.7,1.7,0,0,0-.25-1l-1.06-2.49a43.4,43.4,0,0,1-2.41-6.54,43,43,0,0,1,2.93,6.33c.36.88.7,1.71,1,2.51a1.86,1.86,0,0,1,.21,1.29.83.83,0,0,1-.54.5,2.09,2.09,0,0,1-.57.09A8.94,8.94,0,0,1,413.39,115.61Z" style="fill:#263238"></path><path d="M413.37,130.92s-5.07.51-11.53-3.11c0,0,2.18,6.56,11.7,5.49Z" style="fill:#aa6550"></path><path d="M412.92,118.74a2.41,2.41,0,0,0-2.15-.83,2.19,2.19,0,0,0-1.47.82,1.33,1.33,0,0,0-.07,1.55,1.62,1.62,0,0,0,1.74.39,5.21,5.21,0,0,0,1.66-1,1.66,1.66,0,0,0,.36-.39.42.42,0,0,0,0-.48" style="fill:#aa6550"></path><path d="M409.54,116.58c.22,0,.26,1.39,1.51,2.36s2.76.79,2.78,1-.33.28-1,.31a3.56,3.56,0,0,1-2.32-.74,3,3,0,0,1-1.16-2C409.3,116.93,409.45,116.58,409.54,116.58Z" style="fill:#263238"></path><path d="M408.9,103.84c-.12.35-1.44.21-3,.43s-2.78.65-3,.34c-.09-.15.11-.48.61-.83a5.32,5.32,0,0,1,4.55-.59C408.66,103.4,409,103.67,408.9,103.84Z" style="fill:#263238"></path><path d="M420.75,103c-.23.3-1.14,0-2.23,0s-2,.24-2.23-.06,0-.45.44-.73a3.06,3.06,0,0,1,1.8-.52,3.19,3.19,0,0,1,1.79.55C420.71,102.53,420.85,102.83,420.75,103Z" style="fill:#263238"></path><path d="M418.22,90.3a15.72,15.72,0,0,1-12.43,11.08c.23-.7.47-1.39.7-2.08a22.23,22.23,0,0,1-13.34,9,15.39,15.39,0,0,1,5.33-18.49c5.81-3.94,14.65-4.16,19.71.72" style="fill:#263238"></path><path d="M404.92,98.4a16.62,16.62,0,0,0-4.45,3.57,5.58,5.58,0,0,0-1.07,5.36,15.48,15.48,0,0,1,1.25,2.64c.57,2.91-3.53,4.75-3.93,7.69-.36,2.65,2.41,4.78,2.65,7.44.29,3.42-3.63,6.16-3.27,9.57.19,1.84,1.58,3.28,2.73,4.72s2.16,3.35,1.47,5.06c-.51,1.25-1.77,2-2.73,2.94a7.64,7.64,0,0,0-2.05,7c.58,2.51,2.41,5.21,1,7.39-1,1.63-3.32,1.87-5.22,1.55a9.38,9.38,0,0,1-5.16-2.43,5.57,5.57,0,0,1-1.59-5.3c.51-1.8,2.14-3.49,1.52-5.26-.55-1.55-2.59-2.17-3.12-3.72-.61-1.75,1-3.42,1.52-5.19.88-2.91-1.18-6.19,0-9,.74-1.81,2.68-3,3.21-4.86.66-2.39-1.18-4.71-1.58-7.15a12.6,12.6,0,0,1,.84-5.67l3.86-12.36" style="fill:#263238"></path><path d="M437.17,138.23s.73-.59,1.83-1.83a4.84,4.84,0,0,0,1.24-2.65,3.26,3.26,0,0,0-.31-1.76,3.08,3.08,0,0,0-1.51-1.29,19.29,19.29,0,0,1-2.14-1,3.54,3.54,0,0,1-1.5-2.15,5.86,5.86,0,0,1,0-2.79,10.73,10.73,0,0,1,1.17-2.7c1-1.71,2.23-3.45,2.21-5.56a3.66,3.66,0,0,0-1.1-2.77,4.74,4.74,0,0,0-3-.87,9.59,9.59,0,0,1-3.42-.47,4,4,0,0,1-2.18-2.57,8.06,8.06,0,0,1-.27-3.22c.09-1,.25-2,.3-3a10.19,10.19,0,0,0-1.24-5.28,15.11,15.11,0,0,0-2.94-3.79,30.91,30.91,0,0,0-5.73-4.05l-1.67-1a4.49,4.49,0,0,1-.57-.35,3.16,3.16,0,0,1,.62.27c.39.19,1,.48,1.71.87a28.88,28.88,0,0,1,5.88,4,15.12,15.12,0,0,1,3.06,3.86A10.47,10.47,0,0,1,429,103.6c-.07,2-.68,4.07,0,6.06a3.52,3.52,0,0,0,1.92,2.27,9.39,9.39,0,0,0,3.24.43,5.14,5.14,0,0,1,3.32,1,4.12,4.12,0,0,1,1.25,3.14,7,7,0,0,1-.79,3.14c-.46,1-1,1.8-1.5,2.65a9.87,9.87,0,0,0-1.14,2.57,5.43,5.43,0,0,0-.07,2.59,3.11,3.11,0,0,0,1.31,1.93,18.26,18.26,0,0,0,2.09,1,3.1,3.1,0,0,1,1.93,3.4,5,5,0,0,1-1.36,2.75,11.67,11.67,0,0,1-1.43,1.3A2.94,2.94,0,0,1,437.17,138.23Z" style="fill:#263238"></path><path d="M392.33,157.79a5.13,5.13,0,0,1,.57-.36c.38-.22.94-.54,1.63-1a8.78,8.78,0,0,0,2.18-2,4.65,4.65,0,0,0,.92-3.67c-.27-1.43-1.4-2.71-1.89-4.48a4.61,4.61,0,0,1,.18-2.79,10.14,10.14,0,0,1,1.46-2.55c1.16-1.6,2.7-3.09,3.34-5.07a4.29,4.29,0,0,0-.15-3,11.67,11.67,0,0,0-1.81-2.75,16.63,16.63,0,0,1-2-2.81,4.92,4.92,0,0,1-.43-3.34,9.32,9.32,0,0,1,1.41-2.9,28.83,28.83,0,0,0,1.6-2.55,8.74,8.74,0,0,0,.71-5.33c-.22-1.72-.65-3.31-.86-4.8a11.27,11.27,0,0,1,0-4.06,6.57,6.57,0,0,1,1.32-2.77,4.42,4.42,0,0,1,1.51-1.21,2.36,2.36,0,0,1,.64-.22,5.13,5.13,0,0,0-2,1.55,6.49,6.49,0,0,0-1.2,2.71,11.25,11.25,0,0,0,.07,4c.24,1.46.69,3,.93,4.79a9.15,9.15,0,0,1-.72,5.6c-.89,1.8-2.43,3.34-2.93,5.35a4.29,4.29,0,0,0,.4,3,15,15,0,0,0,1.9,2.72,11.72,11.72,0,0,1,1.87,2.87,4.7,4.7,0,0,1,.16,3.36c-.71,2.15-2.29,3.64-3.43,5.2a10.06,10.06,0,0,0-1.43,2.42,4.31,4.31,0,0,0-.18,2.55c.42,1.64,1.55,3,1.84,4.51a4.89,4.89,0,0,1-1.05,3.9,8.63,8.63,0,0,1-2.3,2c-.71.45-1.29.74-1.68.94A2.52,2.52,0,0,1,392.33,157.79Z" style="fill:#263238"></path><path d="M378.45,137.32a2.08,2.08,0,0,1-.4-.6,4,4,0,0,1-.41-2,4.28,4.28,0,0,1,1.33-3c1-.93,2.47-1.27,3.65-2.25a2.57,2.57,0,0,0,1-2,5.28,5.28,0,0,0-1-2.4,4.14,4.14,0,0,1,.39-5.7c.71-.82,1.56-1.5,2.28-2.3a5.09,5.09,0,0,0,1.39-2.86c.34-2.2-.58-4.6,0-7.1a4,4,0,0,1,2.33-2.86,29.64,29.64,0,0,1,3.42-.83,2.88,2.88,0,0,0,2.26-1.93c.23-1-.2-2-.21-3.16a4.16,4.16,0,0,1,1.24-2.92,7.46,7.46,0,0,1,2.47-1.64,31.63,31.63,0,0,1,5.11-1.21,8.41,8.41,0,0,0,3.82-1.69,7.23,7.23,0,0,0,1.9-2.54,8.78,8.78,0,0,0,.65-2.65s0,.06,0,.18a3.41,3.41,0,0,1,0,.54,6.48,6.48,0,0,1-.48,2,7.14,7.14,0,0,1-1.9,2.67,8.81,8.81,0,0,1-3.93,1.83,31.1,31.1,0,0,0-5,1.24,7.13,7.13,0,0,0-2.32,1.56,3.74,3.74,0,0,0-1.1,2.62c0,1,.47,2.06.22,3.27a2.54,2.54,0,0,1-1,1.5,4.69,4.69,0,0,1-1.6.79,33.22,33.22,0,0,0-3.37.81,3.5,3.5,0,0,0-2,2.53c-.6,2.3.29,4.67-.05,7a5.49,5.49,0,0,1-1.52,3.11c-.76.84-1.61,1.51-2.28,2.29a3.72,3.72,0,0,0-.38,5.2,5.58,5.58,0,0,1,1,2.59,2.89,2.89,0,0,1-1.18,2.28,9,9,0,0,1-2,1.16,7.11,7.11,0,0,0-1.69,1,4.16,4.16,0,0,0-1.33,2.78,4.3,4.3,0,0,0,.31,2C378.32,137.11,378.47,137.31,378.45,137.32Z" style="fill:#455a64"></path><path d="M394.7,160.17s-.05,0-.15.05a3.88,3.88,0,0,1-.45.08,4.5,4.5,0,0,1-1.75-.17,5.5,5.5,0,0,1-2.38-1.45,4.84,4.84,0,0,1-1.38-3.4,33.27,33.27,0,0,1,.74-4.37,5.41,5.41,0,0,0-.15-2.36,17.44,17.44,0,0,0-1-2.37,8,8,0,0,1-.84-2.68,5,5,0,0,1,.76-2.86c.49-.87,1.08-1.66,1.47-2.55a3.67,3.67,0,0,0,.17-2.8c-.29-.95-.79-1.84-1.17-2.8a4.82,4.82,0,0,1-.31-3c.55-2,2-3.37,2.47-5a3.84,3.84,0,0,0-.06-2.44c-.25-.78-.64-1.51-.94-2.26a7.24,7.24,0,0,1-.34-4.44,10.71,10.71,0,0,1,1.42-3.4,20,20,0,0,1,1.63-2.24c.49-.58.88-1,1.15-1.31a2.47,2.47,0,0,1,.44-.43,4.46,4.46,0,0,1-.36.5l-1.08,1.36a14,14,0,0,0-2.86,5.59,6.93,6.93,0,0,0,.38,4.22c.3.72.7,1.45,1,2.28a4.22,4.22,0,0,1,.07,2.7c-.52,1.8-2,3.21-2.43,5a4.32,4.32,0,0,0,.3,2.75c.36.92.87,1.81,1.19,2.84a4.76,4.76,0,0,1,.21,1.6,4.61,4.61,0,0,1-.41,1.54c-.43,1-1,1.76-1.5,2.59a4.55,4.55,0,0,0-.71,2.58,7.52,7.52,0,0,0,.78,2.53,16.53,16.53,0,0,1,1,2.44,5.9,5.9,0,0,1,.14,2.53,35,35,0,0,0-.8,4.32,4.55,4.55,0,0,0,1.24,3.21,5.22,5.22,0,0,0,2.23,1.45A5.64,5.64,0,0,0,394.7,160.17Z" style="fill:#455a64"></path><path d="M435.64,137.1s-.1,0-.3,0a4.37,4.37,0,0,1-.81-.24,5.91,5.91,0,0,1-3.53-6.39,11,11,0,0,0,.25-2.62,2.33,2.33,0,0,0-.46-1.19,3.69,3.69,0,0,0-1.07-.85,14.32,14.32,0,0,1-1.28-.76,3,3,0,0,1-1-1.16,5.1,5.1,0,0,1-.28-2.78c.09-.86.24-1.66.26-2.41a9.13,9.13,0,0,0-.15-2.07,12.75,12.75,0,0,0-1.5-3.86,3.33,3.33,0,0,1,.7.9,9.24,9.24,0,0,1,1.15,2.89,9.62,9.62,0,0,1,.21,2.15c0,.79-.14,1.61-.22,2.45a4.81,4.81,0,0,0,.27,2.52,4.29,4.29,0,0,0,2.09,1.7,4.05,4.05,0,0,1,1.21,1,2.7,2.7,0,0,1,.55,1.44,11.12,11.12,0,0,1-.28,2.73,5.5,5.5,0,0,0,.92,4.2,5.8,5.8,0,0,0,2.24,1.95C435.25,137,435.65,137.06,435.64,137.1Z" style="fill:#455a64"></path><path d="M379.22,181.94c.14-1.46-.64-16.15-.64-16.15l-9.69-1.87-1.37-25.24-11.12.72s-4.52,47.92,1.25,55.65c5.38,7.2,13.3,3.06,13.3,3.06S378.11,193.7,379.22,181.94Z" style="fill:#b78876"></path><path d="M367.32,140s2.13-2.71,2-5.1-4.17-15.61-4.17-15.61-1.85.18-2,3a58.15,58.15,0,0,0,.48,6.54l-5.94-9c-1.33-2-3.46-5-4.67-4.61s1.29,4.36,2,6.24,1.78,4.51,1.78,4.51-5.43-7.86-7.49-9.58c-1.5-1.26-2.83.83-1.43,2.58,0,0-2.16-1.14-1.91.79s5.72,9.59,5.13,9.88-5.39-5.7-6.61-5.59c-.69.06-.8,1.1.34,2.68s9.9,13.39,11.48,14.72a4.87,4.87,0,0,0,2.68,1.34Z" style="fill:#b78876"></path><path d="M356.79,134.89a3.64,3.64,0,0,1,1.62-.28,10,10,0,0,1,3.95.71l-.34.24v-.17a11.6,11.6,0,0,1,.65-4.06,4.06,4.06,0,0,1,.77-1.52,20.52,20.52,0,0,0-.92,5.57v.54l-.35-.14A16,16,0,0,0,356.79,134.89Z" style="fill:#aa6550"></path><path d="M347.7,118.61a41.56,41.56,0,0,1,3.82,4.67,22.65,22.65,0,0,1,3.22,5.11c-.11.07-1.6-2.17-3.61-4.82A32.57,32.57,0,0,1,347.7,118.61Z" style="fill:#aa6550"></path><path d="M359.56,141.7c0-.14,1.32-.11,2.87-.42s2.76-.83,2.82-.7a5,5,0,0,1-2.72,1.18A5.06,5.06,0,0,1,359.56,141.7Z" style="fill:#aa6550"></path><path d="M369.54,191.7c-.06,0,.23-.69.54-2a23.48,23.48,0,0,0,.67-5.49c.13-4.7-1.3-11.11-1.84-18.29s-.94-13.67-1.22-18.38c-.13-2.3-.23-4.18-.31-5.57,0-.61-.05-1.11-.07-1.51a2.09,2.09,0,0,1,0-.54,2.54,2.54,0,0,1,.09.53c0,.4.1.9.16,1.51.13,1.31.3,3.21.47,5.56.37,4.7.75,11.2,1.37,18.36s1.9,13.57,1.69,18.34a21.77,21.77,0,0,1-.83,5.53,11,11,0,0,1-.51,1.44A2.47,2.47,0,0,1,369.54,191.7Z" style="fill:#aa6550"></path><polygon points="443.67 169.34 445.13 198.8 444.34 217.32 431.19 217.32 427.49 172.67 443.67 169.34" style="fill:#b78876"></polygon><path d="M447.6,217.32c0,.14-19.3.26-43.1.26s-43.1-.12-43.1-.26,19.29-.26,43.1-.26S447.6,217.17,447.6,217.32Z" style="fill:#263238"></path></g><g id="freepik--character-1--inject-127"><rect x="157.14" y="152.55" width="168.03" height="157.98" rx="3.93" style="fill:#fff"></rect><path d="M321.24,310.53a4.32,4.32,0,0,0,1.61-.37,4,4,0,0,0,1.55-1.29,4,4,0,0,0,.72-2.65c0-4.31,0-10.64-.05-18.8,0-16.34-.05-40-.08-69.15,0-14.59,0-30.58,0-47.75q0-6.44,0-13.08a10.85,10.85,0,0,0-.06-1.63,3.81,3.81,0,0,0-.6-1.44,3.75,3.75,0,0,0-2.65-1.57c-2.2-.05-4.51,0-6.78,0h-28.2l-125.57,0a3.67,3.67,0,0,0-3.21,1.87,3.76,3.76,0,0,0-.48,1.86v58.78c0,21,0,41.27,0,60.57q0,14.48,0,28.21v1.71a7.27,7.27,0,0,0,.1,1.64,3.74,3.74,0,0,0,1.91,2.44,3.82,3.82,0,0,0,1.52.41H179l47.75,0,69.14.08,18.8.05,4.89,0,1.66,0-1.66,0-4.89,0-18.8.05-69.14.08-47.75,0H160.88a4.27,4.27,0,0,1-1.71-.46,4.17,4.17,0,0,1-2.14-2.73,7.55,7.55,0,0,1-.12-1.75V304.1q0-13.73,0-28.21c0-19.3,0-39.56,0-60.57q0-15.75,0-32V156.54a4.4,4.4,0,0,1,.54-2.12,4.23,4.23,0,0,1,3.67-2.13l125.57,0h28.2c2.3,0,4.53,0,6.83,0a4.15,4.15,0,0,1,3,1.76,4,4,0,0,1,.68,1.62,11.12,11.12,0,0,1,.07,1.71q0,6.65,0,13.08c0,17.17,0,33.16,0,47.75,0,29.19-.07,52.81-.08,69.15,0,8.16,0,14.49,0,18.8a4.18,4.18,0,0,1-.77,2.7,3.92,3.92,0,0,1-1.59,1.28,3.8,3.8,0,0,1-1.21.32Z" style="fill:#263238"></path><path d="M325.15,166c0,.14-37.43.26-83.58.26S158,166.13,158,166s37.41-.26,83.59-.26S325.15,165.85,325.15,166Z" style="fill:#263238"></path><path d="M166,159.47a1.48,1.48,0,1,1-1.48-1.48A1.48,1.48,0,0,1,166,159.47Z" style="fill:#263238"></path><path d="M172.89,159.47a1.48,1.48,0,1,1-1.48-1.48A1.48,1.48,0,0,1,172.89,159.47Z" style="fill:#263238"></path><path d="M179.81,159.47a1.48,1.48,0,1,1-1.48-1.48A1.48,1.48,0,0,1,179.81,159.47Z" style="fill:#263238"></path><path d="M281.14,227.22s18.66-36.84,20.45-39.74c3.16-5.11-10.62-44.33-10.62-44.33l-13.31,1.64,6.46,35.5-20.94,35.8Z" style="fill:#ffbe9d"></path><path d="M282.62,225.85s-16.33,31.46-16.45,30.66-17.9-20.46-17.9-20.46l14.91-24.71Z" style="fill:#FFA15E"></path><path d="M240.23,302.82a50,50,0,0,0,9.82,3.64,25.29,25.29,0,0,0-4.81-2.07A25.14,25.14,0,0,0,240.23,302.82Z" style="fill:#eb996e"></path><path d="M262.71,236.49l18,73.85s-25,0-24,.19L224.27,310l-5.16-18.16-15.56-47.42c4.32-8,12.61-9.89,15.38-10.22l22.33-1.57Z" style="fill:#FFA15E"></path><path d="M265.86,248.47a11,11,0,0,0,.33,1.82c.29,1.24.67,2.9,1.12,4.9,1,4.13,2.34,9.83,3.89,16.12s3,12,4.05,16.08c.52,2,1,3.63,1.28,4.86a11.47,11.47,0,0,0,.55,1.77,13.77,13.77,0,0,0-.34-1.82c-.29-1.24-.66-2.9-1.12-4.9-1-4.13-2.34-9.83-3.89-16.12s-3-12-4-16.08c-.53-2-1-3.63-1.29-4.86A15.11,15.11,0,0,0,265.86,248.47Z" style="fill:#263238"></path><g style="opacity:0.30000000000000004"><path d="M230.46,248c4.55,12.92-4.62,27.38-13.22,38L215,279.45S225.91,235.09,230.46,248Z"></path></g><path d="M245.25,310.34l-4-14.63-31.12-4,15-31.87c3.41-7.83,2.73-15.74-5.07-19.23-8-3.59-16.74,3-20.09,11.16l-11.84,29.93a42.46,42.46,0,0,0,.12,27.78h0Z" style="fill:#ffbe9d"></path><path d="M226.43,261.59C222,269.15,215,280.85,215,280.85L189.27,270.2s11.13-21,14.7-26.38c1.45-2.18,4.66-6.63,14.1-7.77a19.66,19.66,0,0,1,2.92.75,12.48,12.48,0,0,1,8.68,9.54l.23,1.13C230.42,252.1,228.8,257.58,226.43,261.59Z" style="fill:#FFA15E"></path><path d="M215,280.85a11.75,11.75,0,0,0,1.06-1.52l2.72-4.25,4-6.34c1.47-2.4,3.18-5,4.7-7.89a24.64,24.64,0,0,0,1.84-4.42,20.15,20.15,0,0,0,.77-4.4,22.34,22.34,0,0,0-.5-7.51,10,10,0,0,0-2.33-4.49l-.58-.56-.47-.34c-.26-.18-.4-.27-.41-.25a1.87,1.87,0,0,0,.34.33l.44.38.52.58a10.23,10.23,0,0,1,2.12,4.45,23.12,23.12,0,0,1,.37,7.37,20.89,20.89,0,0,1-.78,4.29A26.11,26.11,0,0,1,227,260.6c-1.5,2.86-3.2,5.47-4.65,7.88s-2.77,4.55-3.88,6.4-1.93,3.24-2.58,4.34A10.55,10.55,0,0,0,215,280.85Z" style="fill:#263238"></path><path d="M193.73,299.12c.08.05.55-1,1.68-2.38a14,14,0,0,1,12.29-5.23c1.79.15,2.86.53,2.88.44s-.24-.16-.72-.33a11.22,11.22,0,0,0-2.12-.49,13.34,13.34,0,0,0-12.63,5.38,11.16,11.16,0,0,0-1.12,1.86A2.13,2.13,0,0,0,193.73,299.12Z" style="fill:#eb996e"></path><path d="M282.34,147.8s-3.75-.34-5.54-2.25-9.26-15-9.26-15,1.52-1.34,3.84.68a62.8,62.8,0,0,1,4.83,5.28L273.5,125c-.61-2.57-1.38-6.5-.16-7.16s2.49,4.29,3.45,6.26,2.25,4.8,2.25,4.8c0,.17-2.18-10.2-2-13.12.12-2.14,2.78-1.64,3.12.79,0,0,.71-2.56,2.06-.92s3.33,11.72,4,11.47-.48-8.55.52-9.44c.56-.5,1.47.19,1.86,2.28s3.23,17.89,3.1,20.14a5.35,5.35,0,0,1-.95,3.14Z" style="fill:#ffbe9d"></path><path d="M286.21,135.65c0-.06-.65.28-1.45,1.07a10.79,10.79,0,0,0-2.4,3.67l.47-.1-.13-.13a12.64,12.64,0,0,0-3.72-2.53,4.29,4.29,0,0,0-1.79-.51,22.44,22.44,0,0,1,5.11,3.45l.12.13.32.3.15-.4A17.84,17.84,0,0,1,286.21,135.65Z" style="fill:#eb996e"></path><path d="M280.08,116.23a42.13,42.13,0,0,0,.83,6.54,24.76,24.76,0,0,0,1.66,6.39c.15,0-.5-2.91-1.1-6.49S280.25,116.2,280.08,116.23Z" style="fill:#eb996e"></path><path d="M260,192a18.24,18.24,0,0,0-18.14-16.8h-.94c-10.18.58-15.38,9.54-14.53,19.71l1.76,40.73h0l23.27,9.13-.08-18.2s9.79-1.5,9.93-11.29C261.31,210.5,260.66,200.76,260,192Z" style="fill:#ffbe9d"></path><path d="M251.4,226.5a23.79,23.79,0,0,1-12.82-3.78s3,7,12.77,6.18Z" style="fill:#eb996e"></path><path d="M257.18,199.09a1.39,1.39,0,0,1-1.35,1.41,1.33,1.33,0,0,1-1.43-1.27,1.39,1.39,0,0,1,1.34-1.4A1.33,1.33,0,0,1,257.18,199.09Z" style="fill:#263238"></path><path d="M257.86,196.73c-.18.18-1.23-.6-2.74-.6s-2.61.75-2.77.56.1-.41.58-.76a3.85,3.85,0,0,1,2.22-.67,3.65,3.65,0,0,1,2.17.7C257.79,196.32,257.94,196.65,257.86,196.73Z" style="fill:#263238"></path><path d="M243.49,199.09a1.4,1.4,0,0,1-1.35,1.41,1.34,1.34,0,0,1-1.44-1.27,1.4,1.4,0,0,1,1.35-1.4A1.34,1.34,0,0,1,243.49,199.09Z" style="fill:#263238"></path><path d="M243.08,197c-.18.18-1.24-.6-2.74-.6s-2.61.75-2.77.56.1-.41.58-.75a3.78,3.78,0,0,1,2.22-.68,3.65,3.65,0,0,1,2.17.7C243,196.57,243.16,196.9,243.08,197Z" style="fill:#263238"></path><path d="M248.51,208.14a10.43,10.43,0,0,1,2.44-.43c.39,0,.75-.12.82-.38a1.94,1.94,0,0,0-.26-1.14c-.36-.93-.73-1.9-1.13-2.92-1.57-4.17-2.7-7.59-2.53-7.66s1.57,3.27,3.14,7.43c.38,1,.74,2,1.08,3a2.15,2.15,0,0,1,.2,1.5.94.94,0,0,1-.63.56,2.41,2.41,0,0,1-.66.09A9.5,9.5,0,0,1,248.51,208.14Z" style="fill:#263238"></path><path d="M244.08,209.17c.25,0,.25,1.62,1.64,2.78s3.13,1,3.15,1.22-.39.31-1.13.33a4.07,4.07,0,0,1-2.62-.92,3.52,3.52,0,0,1-1.27-2.33C243.79,209.57,244,209.16,244.08,209.17Z" style="fill:#263238"></path><path d="M243.48,191.09c-.15.41-1.65.21-3.42.42s-3.19.69-3.42.32c-.11-.18.14-.56.72-1a5.69,5.69,0,0,1,2.54-.89,5.79,5.79,0,0,1,2.67.32C243.21,190.57,243.54,190.9,243.48,191.09Z" style="fill:#263238"></path><path d="M257.31,192.38c-.26.34-1.3,0-2.54,0s-2.3.23-2.55-.13c-.1-.17.06-.52.53-.84a3.49,3.49,0,0,1,2.07-.55,3.57,3.57,0,0,1,2,.69C257.28,191.86,257.43,192.21,257.31,192.38Z" style="fill:#263238"></path><path d="M263.59,183.39a1.87,1.87,0,0,0-1.92-1.56,4,4,0,0,0,1.37-.65,1.37,1.37,0,0,0,.5-1.35c-.23-.76-1.2-1-2-1.19a5,5,0,0,1-2.5-1.77c-.9-1.2-1.21-2.74-2-4a6.5,6.5,0,0,0-10.05-1.39,6.77,6.77,0,0,0-10.92,1.35,7.9,7.9,0,0,0-11,8.34l6,3.9a3.28,3.28,0,0,1,4.09-2.74c1.82.58,2.94,2.74,4.85,2.94,1.48.15,2.77-1,4.22-1.31a7.11,7.11,0,0,1,5.14,1.26,20.32,20.32,0,0,0,4.76,2.57,10,10,0,0,0,6.22-.57,6.52,6.52,0,0,0,2.34-1.35A2.89,2.89,0,0,0,263.59,183.39Z" style="fill:#263238"></path><path d="M232.21,182.21l27.89.61a12.77,12.77,0,0,0-4.09-4.74,21.75,21.75,0,0,0-12.63-4.54c-4.55-.08-13.82,5.46-17.11,8.59-2.64,2.51-2.62,4.69-2.62,4.69-.42,3.61,1.6,7.72,2.41,11.28.41,1.83,1.22,7.37,1.22,7.37h0c1.53,0,2.1-1.23,1.87-2.75l-.29-6a9,9,0,0,0,2.75-10.52C231.22,185.7,230.37,183.22,232.21,182.21Z" style="fill:#263238"></path><path d="M238.07,203.36A.18.18,0,0,1,238,203a.16.16,0,0,1,.19.14A.17.17,0,0,1,238.07,203.36Z" style="fill:#eb996e"></path><path d="M240.94,202.72a.19.19,0,0,1-.2-.18.17.17,0,1,1,.32-.06A.19.19,0,0,1,240.94,202.72Z" style="fill:#eb996e"></path><path d="M242.88,202.67c-.1,0-.18-.1-.2-.25s0-.27.13-.29.18.1.2.25S243,202.66,242.88,202.67Z" style="fill:#eb996e"></path><path d="M239.48,205.17c-.1,0-.17,0-.17-.11s.07-.1.17-.1.16,0,.16.1S239.57,205.17,239.48,205.17Z" style="fill:#eb996e"></path><path d="M242.11,204.56a.18.18,0,0,1-.18-.17.18.18,0,0,1,.15-.2.18.18,0,0,1,.18.17A.17.17,0,0,1,242.11,204.56Z" style="fill:#eb996e"></path><path d="M255.83,203a.18.18,0,0,1-.2-.15.16.16,0,0,1,.12-.21.18.18,0,0,1,.2.15A.16.16,0,0,1,255.83,203Z" style="fill:#eb996e"></path><path d="M257.78,202.78c-.09,0-.17-.08-.18-.19s0-.22.14-.23a.2.2,0,0,1,.19.2A.2.2,0,0,1,257.78,202.78Z" style="fill:#eb996e"></path><path d="M254.1,203a.15.15,0,0,1-.19-.11.16.16,0,0,1,.13-.18.17.17,0,0,1,.19.11A.16.16,0,0,1,254.1,203Z" style="fill:#eb996e"></path><path d="M255.54,205a.18.18,0,0,1-.23-.11.19.19,0,0,1,.08-.24.18.18,0,0,1,.23.11A.18.18,0,0,1,255.54,205Z" style="fill:#eb996e"></path><path d="M257.22,204.63c-.09,0-.15-.11-.13-.18a.16.16,0,0,1,.2-.09.15.15,0,0,1,.12.18A.16.16,0,0,1,257.22,204.63Z" style="fill:#eb996e"></path><path d="M228.44,196.35c-1.28-5-2.44-10.31-.79-15.18l-.83-.06-.35.25a3.9,3.9,0,0,0-4.55,5.89,3.38,3.38,0,0,0-3.48,2.86,6.31,6.31,0,0,0,.81,3.28,7.51,7.51,0,0,1,1,3.25,2.44,2.44,0,0,1-1.92,2.47,2.78,2.78,0,0,0,3.11,1.62,5.48,5.48,0,0,1-2,2.36c1.78,1.29,4.29.94,6.29,0a5.32,5.32,0,0,0,2.87-2.52A6.68,6.68,0,0,0,228.44,196.35Z" style="fill:#263238"></path><path d="M227.82,202.09c-.16-.07-6.71-2-6.51,4.69s6.87,5.11,6.88,4.92S227.82,202.09,227.82,202.09Z" style="fill:#ffbe9d"></path><path d="M226.66,209.22s-.12.09-.31.18a1.13,1.13,0,0,1-.87,0,2.86,2.86,0,0,1-1.41-2.55,3.81,3.81,0,0,1,.27-1.68,1.38,1.38,0,0,1,.85-.92.6.6,0,0,1,.7.3c.09.18.06.32.09.33s.14-.12.08-.39a.74.74,0,0,0-.28-.41.83.83,0,0,0-.65-.15,1.64,1.64,0,0,0-1.18,1.07,4,4,0,0,0-.35,1.88,3,3,0,0,0,1.79,2.83,1.26,1.26,0,0,0,1.06-.2C226.65,209.38,226.68,209.23,226.66,209.22Z" style="fill:#eb996e"></path><path d="M221,196.36s-.18-.26-.1-.78a2.54,2.54,0,0,1,1.3-1.71,7.6,7.6,0,0,1,3.08-.65,3.74,3.74,0,0,0,3.09-1.46,5.58,5.58,0,0,0,.62-3.5c-.13-1.12-.4-2.15-.52-3a4.93,4.93,0,0,1,.13-2.86,13,13,0,0,0,.23,2.8c.17.85.47,1.85.64,3a5.86,5.86,0,0,1-.66,3.83,3.33,3.33,0,0,1-1.63,1.3,6.78,6.78,0,0,1-1.86.36,8,8,0,0,0-3,.5,2.39,2.39,0,0,0-1.27,1.42C221,196.08,221.09,196.35,221,196.36Z" style="fill:#455a64"></path><path d="M219.51,193.4s-.14-.19-.19-.61a3,3,0,0,1,.38-1.71,3.21,3.21,0,0,1,.82-.93,3.45,3.45,0,0,1,1.3-.56,3.45,3.45,0,0,0,1.28-.49,1.49,1.49,0,0,0,.54-1.21c0-.5,0-1,0-1.58a8,8,0,0,1,.21-1.51,7.25,7.25,0,0,1,1-2.36,1.84,1.84,0,0,1,1.5-.9c.44,0,.62.22.6.24s-.22-.08-.59,0a1.72,1.72,0,0,0-1.21.9,8,8,0,0,0-1,3.69c0,.49,0,1,0,1.6a2,2,0,0,1-.75,1.58,3.92,3.92,0,0,1-1.47.55,2.73,2.73,0,0,0-1.92,1.22A3.76,3.76,0,0,0,219.51,193.4Z" style="fill:#455a64"></path><path d="M259.08,176.88c.05,0-.51.35-1.37-.09a3.8,3.8,0,0,1-1.23-1.11,5.49,5.49,0,0,0-1.52-1.42,4.63,4.63,0,0,0-5,.2c-.85.57-1.6,1.39-2.58,2.06a4.43,4.43,0,0,1-1.69.73,3.62,3.62,0,0,1-1.9-.23c-1.19-.47-2.12-1.23-3.15-1.64a8.5,8.5,0,0,0-8.23,1,9,9,0,0,0-2.46,2.73c-.44.76-.6,1.23-.65,1.22a1.17,1.17,0,0,1,.08-.36,7.13,7.13,0,0,1,.39-1,8.74,8.74,0,0,1,2.42-2.93,8.55,8.55,0,0,1,5.34-1.78,8.76,8.76,0,0,1,3.31.66c1.1.44,2,1.2,3.13,1.62a3.2,3.2,0,0,0,1.63.21,3.88,3.88,0,0,0,1.49-.64c.92-.62,1.69-1.43,2.6-2a4.84,4.84,0,0,1,2.94-.88,5.08,5.08,0,0,1,2.56.77,5.55,5.55,0,0,1,1.55,1.55,4,4,0,0,0,1.1,1.11A1.88,1.88,0,0,0,259.08,176.88Z" style="fill:#455a64"></path><path d="M238.8,295.05s9.11-2.5,10.67-2.56c1.19,0,8.1,1.13,11.28,1.69a2.3,2.3,0,0,1,1.95,2.56,1.41,1.41,0,0,1-.06.22,2.1,2.1,0,0,1-1.75,1.34,2.45,2.45,0,0,1,1.33,2.53c-.25,1.8-2.48,1.85-2.48,1.85s.11.12.27.32a2.18,2.18,0,0,1-1.61,3.45l-1,.07a2.14,2.14,0,0,1,1,2c-.39,2.36-5.79,2-5.79,2l-14.49-.28Z" style="fill:#ffbe9d"></path><path d="M260,291.19c-.18.77-.61,2.4-2.06,2.95l-7.29-1.4s5.75-1.05,6.67-1.87a6.59,6.59,0,0,1,1.2-.86A1.05,1.05,0,0,1,260,291.19Z" style="fill:#ffbe9d"></path><path d="M254.07,293.19a10.67,10.67,0,0,0,3.31.75,13.16,13.16,0,0,0,3.38.27,10.89,10.89,0,0,0-3.32-.75A14.26,14.26,0,0,0,254.07,293.19Z" style="fill:#eb996e"></path><path d="M255.09,297.54a10.88,10.88,0,0,0,5.79.67,13.09,13.09,0,0,0-2.89-.41A13.91,13.91,0,0,0,255.09,297.54Z" style="fill:#eb996e"></path><path d="M251.44,296.45c-.12.05,0,.47.33.8s.8.36.84.24-.23-.34-.52-.6S251.56,296.39,251.44,296.45Z" style="fill:#eb996e"></path><path d="M253.57,302.06a20.76,20.76,0,0,0,6.34.75,21.62,21.62,0,0,0-6.34-.75Z" style="fill:#eb996e"></path><path d="M249.68,299.46c-.05,0-.19.11-.27.39a1.55,1.55,0,0,0,.15,1.12,1.57,1.57,0,0,0,.89.71c.28.07.46,0,.47,0s-.6-.3-.94-.91S249.8,299.51,249.68,299.46Z" style="fill:#eb996e"></path><path d="M251.77,306.44a8.85,8.85,0,0,0,2.87.32,8.49,8.49,0,0,0,2.89-.16,17.4,17.4,0,0,0-5.76-.16Z" style="fill:#eb996e"></path><path d="M248,303.51c-.06,0-.17.13-.2.41a1.78,1.78,0,0,0,.24,1.06c.43.73,1,1.06,1.08,1s-.31-.6-.66-1.22S248.15,303.55,248,303.51Z" style="fill:#eb996e"></path><path d="M226.76,261.06c-.06.13-5.92-2.45-13.08-5.76s-12.92-6.11-12.86-6.24,5.91,2.45,13.08,5.76S226.82,260.93,226.76,261.06Z" style="fill:#fff"></path><path d="M223.89,264.93a4.63,4.63,0,0,1-1-.42l-2.7-1.29c-2.27-1.09-5.42-2.59-8.93-4.16s-6.73-2.91-9.06-3.86l-2.76-1.15a4.36,4.36,0,0,1-1-.47,4.24,4.24,0,0,1,1.06.28c.67.22,1.64.56,2.82,1,2.37.87,5.62,2.17,9.14,3.74s6.65,3.12,8.89,4.3c1.11.59,2,1.09,2.62,1.44A4.57,4.57,0,0,1,223.89,264.93Z" style="fill:#fff"></path><path d="M274.13,241.8a29.94,29.94,0,0,1-3-2c-1.85-1.25-4.42-2.94-7.31-4.73s-5.54-3.34-7.48-4.44a29.5,29.5,0,0,1-3.1-1.86,3.7,3.7,0,0,1,.91.36c.57.26,1.38.66,2.37,1.17,2,1,4.68,2.53,7.58,4.33s5.44,3.54,7.24,4.86c.9.66,1.62,1.21,2.1,1.61S274.16,241.77,274.13,241.8Z" style="fill:#fff"></path><path d="M275.27,238.87a25.08,25.08,0,0,1-3-1.86l-7.11-4.69c-2.79-1.82-5.33-3.44-7.21-4.52a24,24,0,0,0-2.28-1.19,4.07,4.07,0,0,0-.64-.22c-.15,0-.24,0-.24,0s.07,0,.25-.06a3.15,3.15,0,0,1,.7.14,16.52,16.52,0,0,1,2.38,1.05c1.95,1,4.53,2.59,7.33,4.41s5.26,3.55,7,4.82A24.12,24.12,0,0,1,275.27,238.87Z" style="fill:#fff"></path></g></svg>