<svg xmlns="http://www.w3.org/2000/svg" viewBox="0 0 500 500"><g id="freepik--background-simple--inject-41"><path d="M357,149.89c-35.08-17.27-82.19-8.5-105.85,22.64C235.85,192.66,229,221.38,206,232c-18.27,8.47-39.86,1.85-59.73,5.1-36.12,5.92-60,46.65-54,82.77s35.91,65.11,70.33,77.59,72.5,10.62,108.36,3.29c50.68-16.77,58.24-24.07,89-48.16s52-67.5,52.81-106.6S392.09,167.17,357,149.89Z" style="fill:#e0e0e0"></path></g><g id="freepik--Plants--inject-41"><path d="M257.31,185.56c-2.42-3.45-5.9-8.47-10-14.82-1.43-2.25-2.94-4.67-4.5-7.24l.07-.77a72.34,72.34,0,0,1,4.79-25.19,2.1,2.1,0,0,0,.2-1.36,1.38,1.38,0,0,0-1.64-.74,3.42,3.42,0,0,0-1.59,1.12c-3.29,3.62-4.63,8.69-4.6,13.58a46.28,46.28,0,0,0,2,12.15c-1.15-1.9-2.31-3.88-3.5-5.93-.7-3.72-2.72-17.93,2.68-37.27,0,0-6.14,5-4.91,21.42.67,9,1.34,13.14,1.8,15.1l-.83-1.45c-.76-7.39-1.86-14.74-2.51-22.15a2.08,2.08,0,0,0-.74-1.71,1.4,1.4,0,0,0-1.81.75,4.12,4.12,0,0,0-.18,2.15,95.4,95.4,0,0,0,3.38,17.67c-.54-1-1.08-1.94-1.62-2.93-1.25-2.25-2.52-4.57-3.81-6.94-1.1-4.16-.53-8.73.45-13,1.19-5.15,2.93-10.27,2.82-15.56,0-.84-.37-1.94-1.2-1.9s-1,.87-1.18,1.56l-2.76,12.11a20.22,20.22,0,0,0-1.56-7.67,35.48,35.48,0,0,0-.08,17.93l-.16-.3c-1.9-3.58-3.83-7.26-5.74-11l.16-.69a72.09,72.09,0,0,1,8-24.37,2,2,0,0,0,.37-1.32,1.36,1.36,0,0,0-1.52-1,3.46,3.46,0,0,0-1.73.91c-3.73,3.17-5.7,8-6.3,12.87a47,47,0,0,0,.48,12.41c-.46-.91-.92-1.83-1.37-2.75l-.18-.37c-.21-4.18-.2-18.28,7.45-36.34,0,0-6.73,4.18-7.61,20.62-.47,8.72-.37,13-.17,15-.46-.94-.92-1.87-1.37-2.8-.35-.75-.7-1.49-1-2.23.22-7.64.06-15.28.36-22.92a2.05,2.05,0,0,0-.51-1.8,1.4,1.4,0,0,0-1.88.52,4,4,0,0,0-.46,2.11,92.28,92.28,0,0,0,1.44,19.85c-1.09-2.32-2.07-4.64-3.09-6.9l-.78-1.87.1.06-.12-.11c-.69-1.64-1.36-3.27-2-4.87-.08-4.39,1.69-8.77,3.78-12.71,2.47-4.67,5.47-9.17,6.73-14.31.19-.81.15-2-.68-2.14-.68-.14-1.21.58-1.53,1.2q-2.89,5.49-5.8,11a20,20,0,0,0,.47-7.82,35.71,35.71,0,0,0-4.57,20.66c-.47-1.21-.92-2.4-1.34-3.59-1.65-4.6-3.1-9-4.36-13.19a57.89,57.89,0,0,1,12.79-15.55,1.63,1.63,0,0,0,.65-.87,1.09,1.09,0,0,0-.86-1.15,2.77,2.77,0,0,0-1.55.18,16,16,0,0,0-8.42,7.79,35.12,35.12,0,0,0-3,8.36c-.52-1.76-1-3.48-1.49-5.15q-.25-1-.51-2c1-6.21,1.79-12.42,2.85-18.62a2.39,2.39,0,0,0-.09-1.61c-.3-.42-.9-.18-1.22.34a4.94,4.94,0,0,0-.54,1.83,123.66,123.66,0,0,0-1.59,15.86c-.13-.52-.28-1.06-.41-1.57-.46-1.82-.86-3.57-1.27-5.22-.12-.51-.24-1-.35-1.5-.68-3.64,1.11-8.14,2.82-11.43S203.18,39.6,204,36c.14-.57.1-1.38-.48-1.5s-.85.41-1.07.85l-4,7.76a14,14,0,0,0,.29-5.5A28.16,28.16,0,0,0,194.88,50c-.25-1.11-.47-2.14-.65-3.08,1.07-8.65,1.51-13,2.68-22.25.07-.6.1-1.32-.38-1.68a1.17,1.17,0,0,0-1.5.25,3.22,3.22,0,0,0-.68,1.5,53.71,53.71,0,0,0-1.57,15.82c0-.1-.06-.15-.08-.15a5.42,5.42,0,0,0,.11,1.71c.06.53.15,1.19.26,2,.12,1.09.28,2.18.47,3.26.28,1.9.72,4.14,1.18,6.71A79.9,79.9,0,0,0,186.17,40a2.55,2.55,0,0,0-.89-.87.87.87,0,0,0-1.11.27,1.25,1.25,0,0,0,0,.93c1.72,6,6,11.93,10.95,15.95.19,1,.39,2,.62,3,.36,1.66.71,3.43,1.14,5.28.25,1,.52,2.13.79,3.24l-.29-.53c-5-5-10.34-10.21-17.21-11.81-1.2-.28-2.72-.33-3.4.71a2.28,2.28,0,0,0,.41,2.65,6.7,6.7,0,0,0,2.46,1.48l18,7.58c.19.8.39,1.62.59,2.45.42,1.67.91,3.4,1.39,5.16a53,53,0,0,0-17.15-9.36c-1.18-.34-2.62-.56-2.92.18-.23.59.48,1.5,1.35,2a10.74,10.74,0,0,0,2.77,1.05A66,66,0,0,1,200,76.53h0c1.22,4.29,2.65,8.84,4.3,13.57.37,1.08.77,2.16,1.18,3.25a82.87,82.87,0,0,0-7.76-9.76,3.07,3.07,0,0,0-1.22-.93,1.07,1.07,0,0,0-1.32.49,1.58,1.58,0,0,0,.16,1.14,38.63,38.63,0,0,0,12.85,16.08q.87,2.17,1.8,4.39c1,2.36,2.06,4.8,3.2,7.22a65.59,65.59,0,0,0-10.9-12.61,5.37,5.37,0,0,0-3.3-1.71c-.77,0-1.66.55-1.56,1.32a1.83,1.83,0,0,0,.59.92c3.28,3.37,8,6.49,11.55,9.53-4.34-3.06-9.77-6.5-15.1-7.32a5.15,5.15,0,0,0-2.07,0,2,2,0,0,0-1.5,1.3,2,2,0,0,0,.49,1.81,4.77,4.77,0,0,0,1.62,1.07c2.73,1.2,5.77,1.44,8.68,2.08a32.9,32.9,0,0,1,12.82,6.44l.65,1.42.69,1.4c-4.67-3.34-14.21-6.32-21.65-5.85-1.48.1-3.28.57-3.6,2a2.55,2.55,0,0,0,1.8,2.69,8.24,8.24,0,0,0,3.5.17,48.94,48.94,0,0,1,20.87,2.85c.09.19.19.39.28.59.25.51.51,1,.76,1.52a27.42,27.42,0,0,0-16.14-.49c-.67.18-1.46.55-1.5,1.24a1.18,1.18,0,0,0,.79,1.08,3.37,3.37,0,0,0,1.41.15l5.19-.14a4.89,4.89,0,0,0-3,1.41c-.69.88-.4,2.52.7,2.68.81.12,1.48-.56,2-1.14A15.14,15.14,0,0,1,218,122c2.24,4.51,4.54,8.87,6.79,13.08q3,5.48,5.83,10.58l-.1-.07a83.09,83.09,0,0,0-15-16.38,3,3,0,0,0-1.33-.76,1.08,1.08,0,0,0-1.24.66,1.52,1.52,0,0,0,.3,1.11,38.62,38.62,0,0,0,17.47,15.61c.57,1,1.12,2,1.68,3,4.89,8.73,9.65,16.4,13.87,22.68s7.89,11.2,10.5,14.53c1.31,1.66,2.35,2.93,3.08,3.77S260.94,191,261,191,259.75,189,257.31,185.56Z" style="fill:#263238"></path><path d="M215.61,157.59c-1.46.28-3.19,1-3.32,2.46a2.56,2.56,0,0,0,2.13,2.44,8.19,8.19,0,0,0,3.5-.28,49.08,49.08,0,0,1,22.64.53C237.72,158.92,224.7,155.82,215.61,157.59Z" style="fill:#263238"></path><path d="M222.6,153.24a33.54,33.54,0,0,1,14.5,5.34A65.43,65.43,0,0,0,222,144.27a5.3,5.3,0,0,0-3.48-1.28c-.77.09-1.58.76-1.38,1.5a1.81,1.81,0,0,0,.7.85c3.69,2.91,8.81,5.4,12.68,8-4.7-2.49-10.53-5.2-15.91-5.33a5.11,5.11,0,0,0-2.06.25,1.8,1.8,0,0,0-.6,3.21,4.49,4.49,0,0,0,1.74.85C216.58,153.13,219.63,153,222.6,153.24Z" style="fill:#263238"></path><path d="M212.66,134.48a13.32,13.32,0,0,0-7.76-2.66c-.68,0-1.53.25-1.6.93s.6,1,1.17,1.27l15,6.71A35.61,35.61,0,0,0,212.66,134.48Z" style="fill:#263238"></path><path d="M191.92,88.05a13.31,13.31,0,0,0-7.35-3.64c-.67-.07-1.55.06-1.7.72s.46,1.09,1,1.42c4.66,2.85,10.83,5.85,15.5,8.71C197.94,92.87,194,89.93,191.92,88.05Z" style="fill:#263238"></path><path d="M179.66,48.42c3.06,2.45,7.18,5.13,10.24,7.58-.79-1.83-3.36-4.27-4.64-5.79a9.49,9.49,0,0,0-4.9-3.24c-.48-.12-1.11-.1-1.28.36S179.31,48.14,179.66,48.42Z" style="fill:#263238"></path><path d="M252.85,201.54s12.45-32.95,35.1-42.92c0,0-24.05-19.4-7.93-44.55,0,0-21.32-23.88-4.92-41.77,0,0-25.6-22.2-18.13-42.14,0,0-9.34,29.7-18.68,34,0,0,12.31,27.93-10.79,46.2,0,0,12.66,25.68-6.89,43.36C220.61,153.71,252.13,186.13,252.85,201.54Z" style="fill:#455a64"></path><path d="M256.74,39a1.2,1.2,0,0,1,0,.41c0,.3,0,.7,0,1.23,0,1.09,0,2.67,0,4.69,0,4.1-.06,10-.1,17.27-.13,14.59-.36,34.73-.67,57s-.63,42.41-.9,57c-.15,7.28-.28,13.17-.36,17.27-.07,2-.11,3.6-.15,4.69,0,.52,0,.93,0,1.22a2,2,0,0,1-.05.42,2.24,2.24,0,0,1,0-.42c0-.29,0-.7,0-1.22,0-1.09,0-2.67,0-4.7,0-4.09.06-10,.11-17.27.13-14.58.36-34.73.66-57s.63-42.39.9-57c.16-7.28.28-13.18.37-17.27.06-2,.11-3.61.14-4.7,0-.52,0-.93.06-1.22A1.65,1.65,0,0,1,256.74,39Z" style="fill:#263238"></path><path d="M271.26,113.55a34.69,34.69,0,0,1-2.4,4.21c-1.55,2.57-3.68,6.11-5.95,10.06s-4.25,7.59-5.67,10.22a31,31,0,0,1-2.43,4.2,27.11,27.11,0,0,1,1.92-4.46c1.3-2.71,3.21-6.39,5.48-10.36s4.49-7.47,6.16-10A26.21,26.21,0,0,1,271.26,113.55Z" style="fill:#263238"></path><path d="M242.25,126.12a5.44,5.44,0,0,1,.63,1.41c.35.92.83,2.26,1.42,3.93,1.16,3.32,2.72,7.94,4.39,13s3.14,9.75,4.17,13.12c.51,1.69.91,3.06,1.17,4a5.94,5.94,0,0,1,.33,1.5,5.89,5.89,0,0,1-.63-1.4c-.35-.93-.83-2.27-1.42-3.93-1.16-3.33-2.72-7.94-4.39-13.05s-3.14-9.75-4.17-13.13c-.51-1.68-.91-3-1.17-4A6,6,0,0,1,242.25,126.12Z" style="fill:#263238"></path><path d="M269.46,71.5a3.43,3.43,0,0,1-.56,1l-1.73,2.68c-1.44,2.27-3.37,5.44-5.28,9.06s-3.43,7-4.48,9.49a28.42,28.42,0,0,1-1.77,4,18.88,18.88,0,0,1,1.24-4.2A79.48,79.48,0,0,1,266.7,74.9c.79-1.09,1.46-2,1.94-2.54S269.42,71.47,269.46,71.5Z" style="fill:#263238"></path><path d="M259.37,208.26s24.06-11.32,41.57-4.81c0,0-2.83-23.15,19.11-28.31,0,0,1-24.14,19.29-25.21,0,0-2.22-25.48,12.31-32.36,0,0-20.66,11.18-28,8.6,0,0-8,21.6-30.13,19.36,0,0-6.63,20.56-26.51,19.87C267,165.4,267.08,199.52,259.37,208.26Z" style="fill:#455a64"></path><path d="M346.58,122.55s-.06.09-.2.25l-.63.67L343.29,126l-9.13,9.3c-7.73,7.84-18.44,18.63-30.3,30.52s-22.62,22.65-30.43,30.4l-9.27,9.16-2.54,2.47-.67.63-.25.21s.06-.09.2-.25l.63-.67,2.46-2.55,9.14-9.3c7.73-7.84,18.44-18.63,30.3-30.53S326,142.78,333.85,135l9.27-9.16,2.55-2.47.67-.63Z" style="fill:#263238"></path><path d="M315.27,170.57a23.5,23.5,0,0,1-3.52,1c-2.18.57-5.19,1.37-8.5,2.32s-6.29,1.88-8.44,2.55a24.49,24.49,0,0,1-3.53,1,19.79,19.79,0,0,1,3.39-1.41c2.12-.78,5.09-1.78,8.41-2.73s6.36-1.7,8.57-2.16A20,20,0,0,1,315.27,170.57Z" style="fill:#263238"></path><path d="M293,162.15a4.57,4.57,0,0,1-.4,1.09c-.29.68-.74,1.66-1.3,2.87-1.11,2.41-2.69,5.73-4.47,9.38s-3.43,6.93-4.64,9.3c-.61,1.18-1.11,2.13-1.47,2.79a4.63,4.63,0,0,1-.61,1,3.93,3.93,0,0,1,.4-1.09c.29-.68.73-1.66,1.29-2.87,1.12-2.42,2.7-5.73,4.48-9.38s3.42-6.93,4.64-9.3c.61-1.18,1.11-2.14,1.47-2.79A3.81,3.81,0,0,1,293,162.15Z" style="fill:#263238"></path><path d="M336.39,146.85a2.6,2.6,0,0,1-.85.27l-2.35.55c-2,.46-4.68,1.16-7.62,2.12s-5.54,2-7.41,2.79a21.57,21.57,0,0,1-3.05,1.23,15.18,15.18,0,0,1,2.87-1.62,59.89,59.89,0,0,1,15.13-4.95c1-.18,1.82-.3,2.39-.35A2.45,2.45,0,0,1,336.39,146.85Z" style="fill:#263238"></path><path d="M238.76,184.82s-8.58-25.15-.18-41.84c0,0-23.32.26-26-22.12,0,0-23.88-3.66-22.93-22,0,0-25.56-.62-30.79-15.81,0,0,8.83,21.76,5.45,28.75,0,0,20.58,10.34,15.91,32.08,0,0,19.71,8.86,16.82,28.54C197,172.46,230.93,176.2,238.76,184.82Z" style="fill:#455a64"></path><path d="M163.23,88.67a1.11,1.11,0,0,1,.22.23l.6.7,2.27,2.73,8.23,10.1c6.93,8.56,16.47,20.39,27,33.49s20,25,26.85,33.61l8.08,10.22c.93,1.21,1.67,2.15,2.17,2.8l.55.74a1.41,1.41,0,0,1,.18.27,1.3,1.3,0,0,1-.23-.23l-.6-.7-2.26-2.73L228,169.8c-6.93-8.55-16.47-20.39-27-33.5s-20-25-26.84-33.6l-8.08-10.22L164,89.68c-.24-.32-.42-.57-.56-.74S163.22,88.68,163.23,88.67Z" style="fill:#263238"></path><path d="M207.49,125.11a23.45,23.45,0,0,1,.63,3.6c.33,2.24.79,5.32,1.37,8.71s1.17,6.46,1.6,8.68a22.37,22.37,0,0,1,.61,3.61,19.43,19.43,0,0,1-1-3.52c-.54-2.2-1.2-5.26-1.78-8.66s-1-6.51-1.2-8.76A20,20,0,0,1,207.49,125.11Z" style="fill:#263238"></path><path d="M196.65,146.36a4.1,4.1,0,0,1,1,.52c.65.36,1.57.91,2.71,1.6,2.28,1.38,5.4,3.31,8.83,5.49s6.51,4.17,8.73,5.64c1.1.73,2,1.33,2.6,1.76a4.82,4.82,0,0,1,.92.72,3.92,3.92,0,0,1-1-.52c-.65-.36-1.58-.91-2.71-1.6-2.28-1.38-5.4-3.32-8.83-5.49s-6.51-4.17-8.73-5.64c-1.11-.73-2-1.34-2.61-1.76A4.5,4.5,0,0,1,196.65,146.36Z" style="fill:#263238"></path><path d="M186.25,101.49a2.67,2.67,0,0,1,.17.88c.08.62.17,1.42.29,2.39.24,2,.64,4.78,1.27,7.81s1.37,5.73,2,7.67a24.45,24.45,0,0,1,.89,3.17,14.35,14.35,0,0,1-1.3-3,59.94,59.94,0,0,1-2.14-7.69,59.15,59.15,0,0,1-1.1-7.89c-.07-1-.1-1.85-.09-2.42A2.69,2.69,0,0,1,186.25,101.49Z" style="fill:#263238"></path></g><g id="freepik--candy-canes--inject-41"><path d="M258.72,151.28l-14.78-19.16c-.14,2.14-.39,3.58-.39,3.58l-1.66,11.92L256.37,167l-2.72,17.42L239.34,165.9l-1.39,10L252,194.78C253.84,183.32,257.31,161.36,258.72,151.28Z" style="fill:#FF725E"></path><path d="M204.15,119c1.63-4.16,7-12.57,7-12.57l10.65,14.26c1.89-3.14,4.45-5.94,7.86-7.11L219,99.75C210.46,104.52,206.11,113.51,204.15,119Z" style="fill:#FF725E"></path><polygon points="235.39 194.33 234.68 199.44 239.99 200.31 235.39 194.33" style="fill:#FF725E"></polygon><path d="M203.84,119.87c-.71,2.1-1,3.52-1.07,3.68-1.24,4.44-3,11.61,4.86,13.77,4.54,1.25,7-.31,8.25-1.84l-12-15.61Z" style="fill:#FF725E"></path><path d="M239,97.35a38,38,0,0,0-5.12-.73l27,36.22C261.53,119.19,258.87,101.59,239,97.35Z" style="fill:#FF725E"></path><path d="M204.15,119c-.11.31-.22.6-.31.89h0l12,15.61a6.5,6.5,0,0,0,1.2-2.21,42,42,0,0,1,4.69-12.6l-10.65-14.26S205.78,114.82,204.15,119Z" style="fill:#FF725E"></path><path d="M204.15,119c-.11.31-.22.6-.31.89h0l12,15.61a6.5,6.5,0,0,0,1.2-2.21,42,42,0,0,1,4.69-12.6l-10.65-14.26S205.78,114.82,204.15,119Z" style="fill:#fff;opacity:0.5"></path><polygon points="256.37 167.03 241.89 147.63 239.34 165.91 253.65 184.45 256.37 167.03" style="fill:#FF725E"></polygon><polygon points="256.37 167.03 241.89 147.63 239.34 165.91 253.65 184.45 256.37 167.03" style="fill:#fff;opacity:0.5"></polygon><path d="M259.21,147.58c.34-2.91,1.36-8.4,1.67-14.74l-27-36.22A26.09,26.09,0,0,0,219,99.75l10.65,13.81a10.84,10.84,0,0,1,4.47-.55c9.82.81,10.26,12.92,9.84,19.11l14.78,19.16C258.93,149.74,259.1,148.48,259.21,147.58Z" style="fill:#FF725E"></path><path d="M259.21,147.58c.33-2.83,1.3-8.08,1.64-14.17a1.55,1.55,0,0,0-.31-1L234.28,97.21a1.57,1.57,0,0,0-1.17-.63,26.32,26.32,0,0,0-12.43,2.3,1.54,1.54,0,0,0-.56,2.34L229,112.73a1.51,1.51,0,0,0,1.57.55,11.06,11.06,0,0,1,3.54-.27c9.53.78,10.23,12.2,9.88,18.53a1.51,1.51,0,0,0,.32,1l12.17,15.79a1.53,1.53,0,0,0,2.73-.75Z" style="fill:#fff;opacity:0.5"></path><path d="M250.85,202.07s.46-2.86,1.16-7.29L238,175.94l-2.56,18.39,4.6,6Z" style="fill:#FF725E"></path><path d="M250.85,202.07s.46-2.86,1.16-7.29L238,175.94l-2.56,18.39,4.6,6Z" style="fill:#fff;opacity:0.5"></path><path d="M234.76,96.7a15.68,15.68,0,0,1-1.81,0,32.33,32.33,0,0,0-4.89.31,27.18,27.18,0,0,0-7,1.91,22.12,22.12,0,0,0-7.26,4.94,46,46,0,0,0-8.71,13.53c-.82,1.91-1.39,3.49-1.76,4.59a13,13,0,0,1-.61,1.7,1.47,1.47,0,0,1,.08-.46c.08-.3.17-.74.34-1.3a45.06,45.06,0,0,1,1.61-4.67,43.94,43.94,0,0,1,8.67-13.75,22.12,22.12,0,0,1,7.46-5A26.32,26.32,0,0,1,228,96.63a28.17,28.17,0,0,1,4.94-.14c.58,0,1,.09,1.34.13A1.36,1.36,0,0,1,234.76,96.7Z" style="fill:#fff"></path><path d="M248,100.76l10.31,12.36S255.23,104.71,248,100.76Z" style="fill:#fff;opacity:0.5"></path><path d="M244.06,131.37a1.59,1.59,0,0,1,0,.5c0,.39-.07.86-.12,1.42-.1,1.24-.29,3-.54,5.23-.5,4.4-1.31,10.47-2.3,17.16s-1.93,12.66-2.6,17.12c-.33,2.13-.6,3.88-.81,5.18q-.13.84-.24,1.41a2.41,2.41,0,0,1-.11.48,1.46,1.46,0,0,1,0-.5c0-.38.09-.85.14-1.42.14-1.23.36-3,.64-5.21.58-4.39,1.46-10.45,2.45-17.14s1.86-12.74,2.45-17.13c.3-2.14.54-3.89.71-5.2q.13-.84.21-1.41A3,3,0,0,1,244.06,131.37Z" style="fill:#fff"></path><path d="M263.1,165.41l17.13-8.5c-.64,1.57-1,2.68-1,2.68l-2.94,9-17,8.77-4.1,13.33,16.58-8.23-2.48,7.6-16.51,8.53C255.49,189.86,260.62,173.06,263.1,165.41Z" style="fill:#FF725E"></path><path d="M313.05,161.34c.28-3.52-.61-11.34-.61-11.34L300,156.44a12.31,12.31,0,0,0-3.13-7.77l12.35-6.13C313.57,148.88,313.55,156.77,313.05,161.34Z" style="fill:#FF725E"></path><polygon points="264.79 204.07 263.52 207.95 259.45 206.72 264.79 204.07" style="fill:#FF725E"></polygon><path d="M313,162.08c-.22,1.74-.49,2.85-.51,3-.66,3.58-1.91,9.28-8.22,8.1-3.65-.68-4.86-2.63-5.22-4.15L313,162.08Z" style="fill:#FF725E"></path><path d="M295.8,133.93a29.45,29.45,0,0,1,3.88,1.25L268,151.56C272.2,141.64,280.18,130.06,295.8,133.93Z" style="fill:#FF725E"></path><path d="M313.05,161.34l-.09.74h0L299,169a5,5,0,0,1-.09-2,33.5,33.5,0,0,0,1-10.58L312.44,150S313.33,157.82,313.05,161.34Z" style="fill:#FF725E"></path><path d="M313.05,161.34l-.09.74h0L299,169a5,5,0,0,1-.09-2,33.5,33.5,0,0,0,1-10.58L312.44,150S313.33,157.82,313.05,161.34Z" style="fill:#fff;opacity:0.5"></path><polygon points="259.32 177.41 276.33 168.64 271.81 182.5 255.23 190.74 259.32 177.41" style="fill:#FF725E"></polygon><polygon points="259.32 177.41 276.33 168.64 271.81 182.5 255.23 190.74 259.32 177.41" style="fill:#fff;opacity:0.5"></polygon><path d="M264,162.61c.76-2.18,1.93-6.44,3.91-11.05l31.73-16.38a20.66,20.66,0,0,1,9.49,7.36l-12.35,6.13a8.58,8.58,0,0,0-3-1.93c-7.26-2.83-11.77,5.63-13.61,10.17l-17.13,8.5C263.48,164.25,263.8,163.29,264,162.61Z" style="fill:#FF725E"></path><path d="M264,162.61c.76-2.18,1.93-6.44,3.91-11.05l31.73-16.38a20.66,20.66,0,0,1,9.49,7.36l-12.35,6.13a8.58,8.58,0,0,0-3-1.93c-7.26-2.83-11.77,5.63-13.61,10.17l-17.13,8.5C263.48,164.25,263.8,163.29,264,162.61Z" style="fill:#fff;opacity:0.5"></path><path d="M251.13,204.22s.66-2.19,1.69-5.58l16.51-8.53-4.54,14-5.34,2.65Z" style="fill:#FF725E"></path><path d="M251.13,204.22s.66-2.19,1.69-5.58l16.51-8.53-4.54,14-5.34,2.65Z" style="fill:#fff;opacity:0.5"></path><path d="M299,134.92a7,7,0,0,1,1.36.45,22.12,22.12,0,0,1,3.47,1.8,20.63,20.63,0,0,1,4.44,3.77,17.48,17.48,0,0,1,3.57,6.16,34.43,34.43,0,0,1,1.39,12.79,32.65,32.65,0,0,1-.49,3.87,7.35,7.35,0,0,1-.33,1.4,7.86,7.86,0,0,1,.13-1.43c.12-.91.25-2.23.33-3.86a36.79,36.79,0,0,0-1.53-12.61,17.4,17.4,0,0,0-3.44-6,21.35,21.35,0,0,0-4.27-3.77A44.57,44.57,0,0,0,299,134.92Z" style="fill:#fff"></path><path d="M288.21,133.23l-11.6,5.21S281.69,133.53,288.21,133.23Z" style="fill:#fff;opacity:0.5"></path><path d="M280.4,156.34a7.5,7.5,0,0,1-.41,1.46c-.33,1-.76,2.35-1.27,3.95-1.1,3.42-2.56,8-4.17,13s-3.09,9.71-4.21,13c-.56,1.65-1,3-1.36,3.91a8.22,8.22,0,0,1-.58,1.42,9.28,9.28,0,0,1,.39-1.48c.31-1,.71-2.36,1.2-4,1.07-3.43,2.49-8,4.06-13.06s3.14-9.69,4.32-13c.59-1.65,1.08-3,1.43-3.89A8.8,8.8,0,0,1,280.4,156.34Z" style="fill:#fff"></path></g><g id="freepik--christmas-stocking--inject-41"><path d="M184.2,212.4,150.49,313a41.22,41.22,0,0,0,14.95,46.51l103.33,74.64a49.81,49.81,0,0,0,69.86-12h0a49.81,49.81,0,0,0-5.9-64l-54.18-53.36,18.3-74.52Z" style="fill:#FF725E"></path><g style="opacity:0.5"><path d="M160.68,279.18a.26.26,0,0,1-.28.26.26.26,0,0,1-.27-.26.28.28,0,0,1,.55,0Z" style="fill:#fff"></path><path d="M246.23,222.63a.85.85,0,0,1-.2.15l-.64.4-2.46,1.49-9.07,5.47c-7.64,4.63-18.14,11.13-29.53,18.63s-21.52,14.57-28.8,19.76l-8.6,6.16-2.35,1.67-.62.43-.22.13a1.07,1.07,0,0,1,.19-.18l.59-.46,2.29-1.75c2-1.51,4.89-3.67,8.51-6.3,7.22-5.27,17.32-12.39,28.72-19.9s21.94-14,29.64-18.51c3.84-2.28,7-4.09,9.15-5.32l2.51-1.41.66-.36C246.15,222.65,246.23,222.62,246.23,222.63Z" style="fill:#fff"></path><path d="M293.4,232c.07.12-28.89,18.28-64.69,40.56s-64.89,40.24-65,40.12,28.89-18.28,64.7-40.56S293.32,231.89,293.4,232Z" style="fill:#fff"></path><path d="M282.23,281.89s-.07.07-.22.18l-.69.48-2.66,1.82L268.8,291c-8.34,5.53-19.9,13.13-32.86,21.22s-24.88,15.13-33.52,20.2l-10.25,6-2.8,1.59-.73.4a1,1,0,0,1-.26.12,1.27,1.27,0,0,1,.23-.16l.71-.45,2.75-1.68,10.17-6.1c8.58-5.15,20.46-12.24,33.42-20.32s24.54-15.64,32.94-21.09l9.95-6.45,2.72-1.73L282,282A1.15,1.15,0,0,1,282.23,281.89Z" style="fill:#fff"></path><path d="M166.8,312.49a95,95,0,0,1-5.15-8.5,97.42,97.42,0,0,1-4.7-8.76,93.25,93.25,0,0,1,5.15,8.5A97.42,97.42,0,0,1,166.8,312.49Z" style="fill:#fff"></path><path d="M262.21,427.74s-.1-.15-.27-.46l-.74-1.35-2.79-5.21c-2.43-4.53-5.89-11.11-10.14-19.26-8.5-16.3-20.05-38.91-32.44-64.07s-23.26-48.11-31-64.78c-3.86-8.34-7-15.1-9.08-19.78l-2.43-5.4c-.26-.6-.47-1.07-.61-1.41s-.2-.48-.2-.48.09.15.24.46l.67,1.39,2.52,5.36c2.18,4.67,5.34,11.4,9.23,19.7C193,289.08,203.92,312,216.3,337.16s23.89,47.79,32.3,64.13l10,19.33,2.72,5.27.69,1.37C262.14,427.57,262.21,427.74,262.21,427.74Z" style="fill:#fff"></path><path d="M295.6,403.69a5.45,5.45,0,0,1-.28-.48l-.77-1.4c-.67-1.27-1.65-3.1-2.91-5.44-2.5-4.76-6.11-11.61-10.57-20.07-8.9-17-21.11-40.44-34.45-66.45s-25.26-49.64-33.78-66.8c-4.24-8.58-7.67-15.53-10-20.36-1.15-2.4-2-4.27-2.68-5.56l-.68-1.45c-.15-.33-.22-.5-.22-.5s.1.16.27.48.42.81.73,1.43L203,222.6c2.41,4.81,5.87,11.74,10.14,20.29,8.6,17.12,20.56,40.72,33.91,66.73s25.52,49.47,34.31,66.51l10.43,20.14c1.22,2.37,2.17,4.21,2.82,5.49.31.61.55,1.09.73,1.43S295.6,403.69,295.6,403.69Z" style="fill:#fff"></path><path d="M316.38,375.26a4.39,4.39,0,0,1-.25-.38l-.68-1.12-2.57-4.35-9.39-16c-4-6.77-8.68-14.82-13.84-23.81s-10.79-18.9-16.38-29.49c-11.2-21.16-19.91-41-25.9-55.52-3-7.26-5.33-13.15-6.9-17.24l-1.81-4.71-.46-1.23a2.87,2.87,0,0,1-.14-.43,2.86,2.86,0,0,1,.19.41l.51,1.21,1.9,4.67c1.62,4.07,4.05,9.94,7.05,17.18,6.08,14.44,14.83,34.27,26,55.42,5.59,10.57,11.2,20.49,16.33,29.49l13.75,23.87,9.25,16.1,2.48,4.4c.27.48.48.87.64,1.14A2.53,2.53,0,0,1,316.38,375.26Z" style="fill:#fff"></path><path d="M289.8,316.38c.09.12-20.16,15.41-45.22,34.16S199.13,384.41,199,384.29s20.16-15.41,45.23-34.16S289.72,316.27,289.8,316.38Z" style="fill:#fff"></path><path d="M313.3,338.05c.1.1-16,16.84-36,37.39s-36.28,37.12-36.39,37,16-16.84,36-37.39S313.19,338,313.3,338.05Z" style="fill:#fff"></path><path d="M332.73,358.19s0,.08-.14.22l-.45.61-1.78,2.31c-1.54,2-3.82,4.87-6.65,8.39-5.68,7-13.69,16.65-22.79,27s-17.58,19.58-23.77,26.18c-3.09,3.3-5.61,5.95-7.37,7.77-.85.89-1.53,1.58-2,2.09l-.53.54-.2.17s.05-.08.16-.21l.5-.57,2-2.16,7.24-7.88c6.12-6.66,14.54-15.9,23.64-26.27s17.15-19.93,22.9-26.91l6.79-8.29,1.85-2.25.49-.57C332.66,358.25,332.72,358.18,332.73,358.19Z" style="fill:#fff"></path><path d="M290.72,256.15c-.13.06-3.43-6.4-7.38-14.43s-7-14.6-6.92-14.66,3.44,6.4,7.39,14.43S290.85,256.08,290.72,256.15Z" style="fill:#fff"></path><path d="M200.29,384.12a4.87,4.87,0,0,1-.75-.85c-.46-.56-1.11-1.4-1.88-2.45-1.56-2.1-3.62-5.06-5.74-8.44s-3.88-6.53-5.09-8.84c-.61-1.15-1.08-2.1-1.39-2.76a4.62,4.62,0,0,1-.43-1,4.4,4.4,0,0,1,.61,1l1.53,2.68c1.29,2.26,3.11,5.37,5.22,8.73s4.11,6.36,5.59,8.51c.68,1,1.26,1.85,1.74,2.54A4.77,4.77,0,0,1,200.29,384.12Z" style="fill:#fff"></path></g><path d="M165.44,359.55A41.22,41.22,0,0,1,150.49,313s20-6.07,32.55,13.16c14.28,22-3.21,43.75-3.21,43.75Z" style="opacity:0.30000000000000004"></path><path d="M332.73,358.18l-64,76a49.82,49.82,0,0,0,69.86-12h0A49.81,49.81,0,0,0,332.73,358.18Z" style="opacity:0.30000000000000004"></path><path d="M186.86,218.83a7.72,7.72,0,0,1,.62-3,8.14,8.14,0,0,1,1.17-2.78,15.79,15.79,0,0,1-1.79,5.73Z" style="fill:#fff"></path><path d="M179.6,242a32.61,32.61,0,0,1,1.54-5.88,32.23,32.23,0,0,1,2.09-5.7,32.4,32.4,0,0,1-1.54,5.87A32.54,32.54,0,0,1,179.6,242Z" style="fill:#fff"></path><path d="M172.35,265.12a32.63,32.63,0,0,1,1.54-5.87c1-3.2,1.93-5.75,2.09-5.7a32.63,32.63,0,0,1-1.54,5.87A32.79,32.79,0,0,1,172.35,265.12Z" style="fill:#fff"></path><path d="M165.1,288.27a31.43,31.43,0,0,1,1.54-5.87,32.32,32.32,0,0,1,2.08-5.7,32.85,32.85,0,0,1-1.54,5.87A32.71,32.71,0,0,1,165.1,288.27Z" style="fill:#fff"></path><path d="M157.84,311.42a32.61,32.61,0,0,1,1.54-5.88,32.23,32.23,0,0,1,2.09-5.7,64.43,64.43,0,0,1-3.63,11.58Z" style="fill:#fff"></path><path d="M156.06,335.24a23.84,23.84,0,0,1-.95-12c.17,0,0,2.72.28,6S156.23,335.2,156.06,335.24Z" style="fill:#fff"></path><path d="M168.74,355.44a18,18,0,0,1-4.57-4,17.79,17.79,0,0,1-3.41-5c.15-.1,1.64,2.17,3.84,4.66S168.85,355.3,168.74,355.44Z" style="fill:#fff"></path><path d="M188.36,369.7a32.31,32.31,0,0,1-5.08-3.32,32.16,32.16,0,0,1-4.75-3.78,32.31,32.31,0,0,1,5.08,3.32A32.16,32.16,0,0,1,188.36,369.7Z" style="fill:#fff"></path><path d="M208,383.9a32.31,32.31,0,0,1-5.08-3.32,32.16,32.16,0,0,1-4.75-3.78,32.64,32.64,0,0,1,5.09,3.32A31.72,31.72,0,0,1,208,383.9Z" style="fill:#fff"></path><path d="M227.69,398.1a31.59,31.59,0,0,1-5.09-3.31,31.38,31.38,0,0,1-4.74-3.79,33.77,33.77,0,0,1,5.08,3.32A33.65,33.65,0,0,1,227.69,398.1Z" style="fill:#fff"></path><path d="M247.35,412.31a32.31,32.31,0,0,1-5.08-3.32,32.94,32.94,0,0,1-4.75-3.78,31.78,31.78,0,0,1,5.08,3.31A32.57,32.57,0,0,1,247.35,412.31Z" style="fill:#fff"></path><path d="M267.05,426.46c-.09.15-2.42-1.29-5.12-3.27a32.83,32.83,0,0,1-4.75-3.78,32.11,32.11,0,0,1,5.09,3.32A41.76,41.76,0,0,1,267.05,426.46Z" style="fill:#fff"></path><path d="M289.64,434.74a30.52,30.52,0,0,1-11.76-2.88c.06-.16,2.63.69,5.87,1.48S289.66,434.57,289.64,434.74Z" style="fill:#fff"></path><path d="M313.57,432.42a19.56,19.56,0,0,1-5.77,1.94,20,20,0,0,1-6.06.63c0-.16,2.68-.48,5.94-1.19S313.51,432.26,313.57,432.42Z" style="fill:#fff"></path><path d="M332.69,418.13a24,24,0,0,1-8.44,8.64c-.1-.14,2.05-1.8,4.36-4.18S332.55,418,332.69,418.13Z" style="fill:#fff"></path><path d="M339.84,395.34a24.8,24.8,0,0,1-1.8,12c-.16-.05.59-2.66,1.07-6S339.67,395.34,339.84,395.34Z" style="fill:#fff"></path><path d="M333.48,372.21a20.45,20.45,0,0,1,2.94,5.32,19.62,19.62,0,0,1,1.73,5.83c-.16.05-1-2.54-2.26-5.6S333.33,372.29,333.48,372.21Z" style="fill:#fff"></path><path d="M317.82,353.8a31.81,31.81,0,0,1,4.49,4.08,28,28,0,0,1,4.05,4.54,38.48,38.48,0,0,1-4.45-4.13A32.84,32.84,0,0,1,317.82,353.8Z" style="fill:#fff"></path><path d="M300.68,336.64a64.33,64.33,0,0,1,8.57,8.58,33.13,33.13,0,0,1-4.49-4.08C302.39,338.77,300.56,336.76,300.68,336.64Z" style="fill:#fff"></path><path d="M283.53,319.49a32.84,32.84,0,0,1,4.49,4.09,31.81,31.81,0,0,1,4.08,4.49,32.84,32.84,0,0,1-4.49-4.09A31.57,31.57,0,0,1,283.53,319.49Z" style="fill:#fff"></path><path d="M272.2,300.85a32.27,32.27,0,0,1-1.23,5.88c-.15-.55,0-.16-.07-.28h0l0,0,.06.05.11.11.21.22.42.42c.27.28.53.54.78.81l1.31,1.39a5.73,5.73,0,0,1,1.1,1.39,5.73,5.73,0,0,1-1.39-1.1l-1.39-1.31-.81-.78-.42-.42-.22-.22-.11-.1-.05-.06,0,0h0c0-.12.08.27-.07-.28A31.7,31.7,0,0,1,272.2,300.85Z" style="fill:#fff"></path><path d="M279,274.56a41.26,41.26,0,0,1-1.43,6.65,39.59,39.59,0,0,1-2,6.5,41.26,41.26,0,0,1,1.43-6.65A40,40,0,0,1,279,274.56Z" style="fill:#fff"></path><path d="M285.81,248.28a39.31,39.31,0,0,1-1.42,6.65,40.43,40.43,0,0,1-2,6.49,41.27,41.27,0,0,1,1.43-6.64A40.2,40.2,0,0,1,285.81,248.28Z" style="fill:#fff"></path><path d="M290.72,229.34a8,8,0,0,1-.47,3,8.19,8.19,0,0,1-1,2.83,8,8,0,0,1,.47-3A8.19,8.19,0,0,1,290.72,229.34Z" style="fill:#fff"></path><path d="M178.75,228.66s114.18,17.6,114.36,16.88l1-3.94L183.35,210.76Z" style="opacity:0.30000000000000004"></path><path d="M205.55,277.5a98.18,98.18,0,0,1-.26-10,98.46,98.46,0,0,1,.26-10,98.46,98.46,0,0,1,.26,10A98.18,98.18,0,0,1,205.55,277.5Z" style="fill:#fff"></path><path d="M212.05,266.18a47.1,47.1,0,0,1-7.06.26,47.29,47.29,0,0,1-7.07-.26,49,49,0,0,1,7.07-.26A48.75,48.75,0,0,1,212.05,266.18Z" style="fill:#fff"></path><path d="M211.32,272.62a60.5,60.5,0,0,1-5.45-5.86,62.53,62.53,0,0,1-5.06-6.2,60.5,60.5,0,0,1,5.45,5.86A60.83,60.83,0,0,1,211.32,272.62Z" style="fill:#fff"></path><path d="M210.34,260.39a52.88,52.88,0,0,1-4.43,6,51.46,51.46,0,0,1-4.85,5.68,54.27,54.27,0,0,1,4.44-6A53.41,53.41,0,0,1,210.34,260.39Z" style="fill:#fff"></path><path d="M236.23,344.25a93.1,93.1,0,0,1-.27-10,93.1,93.1,0,0,1,.27-10,98.18,98.18,0,0,1,.26,10A98.18,98.18,0,0,1,236.23,344.25Z" style="fill:#fff"></path><path d="M242.73,332.94a49,49,0,0,1-7.07.26,48.75,48.75,0,0,1-7.06-.26,47.1,47.1,0,0,1,7.06-.26A47.29,47.29,0,0,1,242.73,332.94Z" style="fill:#fff"></path><path d="M242,339.37a60.5,60.5,0,0,1-5.45-5.86,60.83,60.83,0,0,1-5.06-6.2,63.56,63.56,0,0,1,5.45,5.86A62.53,62.53,0,0,1,242,339.37Z" style="fill:#fff"></path><path d="M241,327.14a52.75,52.75,0,0,1-4.44,6,53.41,53.41,0,0,1-4.84,5.68,52.75,52.75,0,0,1,4.44-6A53.41,53.41,0,0,1,241,327.14Z" style="fill:#fff"></path><path d="M278.08,409.2a94.54,94.54,0,0,1-6.65-7.51,96.2,96.2,0,0,1-6.26-7.85,98,98,0,0,1,6.66,7.51A99.38,99.38,0,0,1,278.08,409.2Z" style="fill:#fff"></path><path d="M275.78,396.36a48.27,48.27,0,0,1-5.24,4.74,47.12,47.12,0,0,1-5.58,4.34,49,49,0,0,1,5.25-4.74A47.53,47.53,0,0,1,275.78,396.36Z" style="fill:#fff"></path><path d="M279.36,401.75a58.64,58.64,0,0,1-7.94-1,62.07,62.07,0,0,1-7.87-1.49,62.81,62.81,0,0,1,7.95,1A61.66,61.66,0,0,1,279.36,401.75Z" style="fill:#fff"></path><path d="M270.74,393a51.33,51.33,0,0,1,.47,7.44,52.77,52.77,0,0,1-.06,7.47,54.34,54.34,0,0,1-.46-7.45A55.44,55.44,0,0,1,270.74,393Z" style="fill:#fff"></path><path d="M231.32,394.92a99.47,99.47,0,0,1-6.66-7.52,97.28,97.28,0,0,1-6.25-7.85,95.9,95.9,0,0,1,6.65,7.52A94.23,94.23,0,0,1,231.32,394.92Z" style="fill:#fff"></path><path d="M229,382.07a49.46,49.46,0,0,1-5.24,4.74,48.91,48.91,0,0,1-5.58,4.35,47.7,47.7,0,0,1,5.24-4.75A47.12,47.12,0,0,1,229,382.07Z" style="fill:#fff"></path><path d="M232.6,387.47a63,63,0,0,1-7.95-1,63.12,63.12,0,0,1-7.86-1.5,63,63,0,0,1,8,1A63.12,63.12,0,0,1,232.6,387.47Z" style="fill:#fff"></path><path d="M224,378.73a54.17,54.17,0,0,1,.46,7.45,53.52,53.52,0,0,1-.05,7.46,53.16,53.16,0,0,1-.47-7.45A54.37,54.37,0,0,1,224,378.73Z" style="fill:#fff"></path><path d="M288.92,349.94a94.54,94.54,0,0,1-6.65-7.51,96.2,96.2,0,0,1-6.26-7.85,98,98,0,0,1,6.66,7.51A99.38,99.38,0,0,1,288.92,349.94Z" style="fill:#fff"></path><path d="M286.62,337.1a48.27,48.27,0,0,1-5.24,4.74,47.12,47.12,0,0,1-5.58,4.34,49.46,49.46,0,0,1,5.24-4.74A48.08,48.08,0,0,1,286.62,337.1Z" style="fill:#fff"></path><path d="M290.2,342.49a58.64,58.64,0,0,1-7.94-1,62.07,62.07,0,0,1-7.87-1.49,62.81,62.81,0,0,1,7.95,1A62.12,62.12,0,0,1,290.2,342.49Z" style="fill:#fff"></path><path d="M281.58,333.76a53.09,53.09,0,0,1,.47,7.44,52.77,52.77,0,0,1-.06,7.47,54.34,54.34,0,0,1-.46-7.45A53.52,53.52,0,0,1,281.58,333.76Z" style="fill:#fff"></path><path d="M256.74,289a98.19,98.19,0,0,1-6.65-7.52,96.2,96.2,0,0,1-6.26-7.85,95.9,95.9,0,0,1,6.65,7.52A94.23,94.23,0,0,1,256.74,289Z" style="fill:#fff"></path><path d="M254.44,276.18a49.46,49.46,0,0,1-5.24,4.74,48.91,48.91,0,0,1-5.58,4.35,47.7,47.7,0,0,1,5.24-4.75A47.12,47.12,0,0,1,254.44,276.18Z" style="fill:#fff"></path><path d="M258,281.58a63,63,0,0,1-7.95-1,63.12,63.12,0,0,1-7.86-1.5,63,63,0,0,1,7.95,1A61,61,0,0,1,258,281.58Z" style="fill:#fff"></path><path d="M249.4,272.84a54.17,54.17,0,0,1,.46,7.45,53.52,53.52,0,0,1-.05,7.46,53.16,53.16,0,0,1-.47-7.45A54.37,54.37,0,0,1,249.4,272.84Z" style="fill:#fff"></path><path d="M196,245a95.9,95.9,0,0,1-6.65-7.52,94.23,94.23,0,0,1-6.26-7.85,99.47,99.47,0,0,1,6.66,7.52A97.28,97.28,0,0,1,196,245Z" style="fill:#fff"></path><path d="M193.71,232.1a48.22,48.22,0,0,1-5.24,4.74,48.91,48.91,0,0,1-5.58,4.35,48.27,48.27,0,0,1,5.24-4.74A48.91,48.91,0,0,1,193.71,232.1Z" style="fill:#fff"></path><path d="M197.29,237.5a62.77,62.77,0,0,1-7.94-1,59,59,0,0,1-7.87-1.5,63,63,0,0,1,8,1A63.12,63.12,0,0,1,197.29,237.5Z" style="fill:#fff"></path><path d="M188.67,228.76a55.22,55.22,0,0,1,.47,7.45,54.37,54.37,0,0,1-.06,7.46,54.17,54.17,0,0,1-.46-7.45A53.65,53.65,0,0,1,188.67,228.76Z" style="fill:#fff"></path><path d="M265,244.74a95.9,95.9,0,0,1-6.65-7.52,94.23,94.23,0,0,1-6.26-7.85,99.47,99.47,0,0,1,6.66,7.52A97.28,97.28,0,0,1,265,244.74Z" style="fill:#fff"></path><path d="M262.68,231.89a48.27,48.27,0,0,1-5.24,4.74,47.92,47.92,0,0,1-5.58,4.35,49,49,0,0,1,5.25-4.74A48.35,48.35,0,0,1,262.68,231.89Z" style="fill:#fff"></path><path d="M266.26,237.29a62.77,62.77,0,0,1-7.94-1,58.19,58.19,0,0,1-7.86-1.5,63,63,0,0,1,7.94,1A62.18,62.18,0,0,1,266.26,237.29Z" style="fill:#fff"></path><path d="M257.64,228.55a51.56,51.56,0,0,1,.47,7.45,52.52,52.52,0,0,1-.06,7.46,54.17,54.17,0,0,1-.46-7.45A55.58,55.58,0,0,1,257.64,228.55Z" style="fill:#fff"></path><path d="M197.06,325.35a97.12,97.12,0,0,1-6.66-7.52,95.27,95.27,0,0,1-6.25-7.85,98.19,98.19,0,0,1,6.65,7.52A96.2,96.2,0,0,1,197.06,325.35Z" style="fill:#fff"></path><path d="M194.75,312.5a47.13,47.13,0,0,1-5.24,4.74,48.35,48.35,0,0,1-5.57,4.35,46.59,46.59,0,0,1,5.24-4.75A48.89,48.89,0,0,1,194.75,312.5Z" style="fill:#fff"></path><path d="M198.34,317.9a62.81,62.81,0,0,1-8-1,61,61,0,0,1-7.86-1.5,62.77,62.77,0,0,1,7.94,1A63.06,63.06,0,0,1,198.34,317.9Z" style="fill:#fff"></path><path d="M189.72,309.16a54.34,54.34,0,0,1,.46,7.45,53.52,53.52,0,0,1-.05,7.46,51.4,51.4,0,0,1-.47-7.45A52.59,52.59,0,0,1,189.72,309.16Z" style="fill:#fff"></path><path d="M288.44,242.07l-100.08-25.4a24.47,24.47,0,0,1-17.7-29.74h0a24.47,24.47,0,0,1,29.74-17.7l100.08,25.39a24.47,24.47,0,0,1,17.71,29.74h0A24.48,24.48,0,0,1,288.44,242.07Z" style="fill:#fafafa"></path><path d="M288.44,242.07s.32,0,.92.15a19.28,19.28,0,0,0,2.69.4,24.36,24.36,0,0,0,10.31-1.23,26,26,0,0,0,6.64-3.52,24.29,24.29,0,0,0,9.54-16.18,24.07,24.07,0,0,0-4-16.89,26.09,26.09,0,0,0-1.95-2.55c-.36-.4-.76-.77-1.14-1.17l-.57-.58-.63-.53a23.73,23.73,0,0,0-5.66-3.64l-1.59-.67c-.53-.22-1.1-.35-1.65-.54-1.11-.37-2.28-.61-3.44-.92l-29.66-7.5-68-17.22a24.22,24.22,0,0,0-18.1,44.43c.59.31,1.16.66,1.76.94l1.82.77c1.25.42,2.49.82,3.77,1.13l7.53,1.91,14.39,3.67,25.83,6.58,37.4,9.58,10.16,2.63,2.64.69c.59.16.89.26.89.26s-.31-.06-.9-.21l-2.66-.64-10.18-2.54-37.44-9.41-25.84-6.52L197,219.11l-7.53-1.91c-1.27-.3-2.56-.71-3.82-1.13l-1.87-.79c-.61-.28-1.19-.64-1.79-.95A24.72,24.72,0,0,1,200.47,169l68,17.26,29.65,7.54c1.16.31,2.32.56,3.45.94.56.18,1.14.32,1.68.55l1.62.68a24.26,24.26,0,0,1,5.74,3.71l.64.54.58.6c.39.4.79.78,1.16,1.19a30,30,0,0,1,2,2.59,24.51,24.51,0,0,1,3.95,17.16,24.59,24.59,0,0,1-9.71,16.33,25.77,25.77,0,0,1-6.73,3.51A24.22,24.22,0,0,1,292,242.72a17.72,17.72,0,0,1-2.69-.44Z" style="fill:#263238"></path><path d="M189.77,205.71s-.27-.15-.7-.5a14.3,14.3,0,0,1-1.69-1.64,19.54,19.54,0,0,1-2.08-2.81,22.06,22.06,0,0,1-1.83-3.87,22.73,22.73,0,0,1-1-4.16,20.56,20.56,0,0,1-.13-3.5,14.43,14.43,0,0,1,.29-2.33,3.17,3.17,0,0,1,.23-.83c.1,0-.13,1.22-.15,3.17a21.88,21.88,0,0,0,.24,3.42,23.58,23.58,0,0,0,1,4.06,24.82,24.82,0,0,0,1.75,3.8,23.32,23.32,0,0,0,1.95,2.81C188.9,204.84,189.84,205.64,189.77,205.71Z" style="fill:#263238"></path><path d="M193.63,206.46a15,15,0,0,1-3.7-4.74,15.24,15.24,0,0,1-2-5.66c.16,0,.9,2.54,2.49,5.41S193.75,206.36,193.63,206.46Z" style="fill:#263238"></path><path d="M199.79,208.76a10.34,10.34,0,0,1-3.55-3.13,10.08,10.08,0,0,1-2.21-4.18c.14-.06,1,1.85,2.62,3.86S199.89,208.63,199.79,208.76Z" style="fill:#263238"></path><path d="M304.25,206.51a3.72,3.72,0,0,1,.47.85,7.94,7.94,0,0,1,.44,1,11.43,11.43,0,0,1,.47,1.43,18.85,18.85,0,0,1,.65,3.88,21.7,21.7,0,0,1-.28,4.81,22,22,0,0,1-1.4,4.6,18.75,18.75,0,0,1-2,3.42,11.59,11.59,0,0,1-.93,1.18,7.23,7.23,0,0,1-.78.83c-.45.43-.71.66-.73.63s.92-1,2.14-2.85a20.71,20.71,0,0,0,1.81-3.39,22.84,22.84,0,0,0,1.33-4.52,23.28,23.28,0,0,0,.31-4.69,20.58,20.58,0,0,0-.53-3.81C304.76,207.8,304.15,206.56,304.25,206.51Z" style="fill:#263238"></path><path d="M307.87,207.2a5,5,0,0,1,1,1.65,13.75,13.75,0,0,1,.81,9.25,5.06,5.06,0,0,1-.73,1.8,18,18,0,0,0-1.11-12.7Z" style="fill:#263238"></path><path d="M303.31,208.73a13.36,13.36,0,0,1-.49,11.17,37,37,0,0,0,.95-5.55A35.22,35.22,0,0,0,303.31,208.73Z" style="fill:#263238"></path><path d="M297.69,184.94s-27.63-3.66-44.28,7.58l2.25.72S268.84,189,274.2,193C274.2,193,295.51,190.46,297.69,184.94Z" style="fill:#FF725E"></path><path d="M251.83,191s-16.4-22.87-35-31.92l-7.42,16.07s29,0,40.75,16.37Z" style="fill:#FF725E"></path><path d="M297.69,184.94s-27.63-3.66-44.28,7.58l2.25.72S268.84,189,274.2,193C274.2,193,295.51,190.46,297.69,184.94Z" style="opacity:0.4"></path><path d="M251.83,191s-16.4-22.87-35-31.92l-7.42,16.07s29,0,40.75,16.37Z" style="opacity:0.4"></path><path d="M216.88,159.06,206.45,180s39.1,13.14,44.36,14.2l.72-2.25S220.94,174.87,216.88,159.06Z" style="fill:#FF725E"></path><path d="M297.69,184.94s-3.89,8.91-44.28,7.58l-.8,2.51s37.75,14.09,41,11.62C296.6,200.42,297.76,193.07,297.69,184.94Z" style="fill:#FF725E"></path><path d="M253.66,193.41c-.48,1.47-1.72,2.4-2.78,2.06s-1.54-1.82-1.06-3.29,1.71-2.4,2.77-2.06S254.13,191.93,253.66,193.41Z" style="fill:#FF725E"></path><path d="M252.94,232.43l-1.77-37.86,1.06-.18s20.47,35.85,20.22,35.66-12.34-7-12.34-7Z" style="fill:#FF725E"></path><path d="M250.11,193.37s-28.9,7.08-36.71,14.81l11.27,2.75s1,13,.59,12.44,23.35-30,24.52-29Z" style="fill:#FF725E"></path><g style="opacity:0.2"><path d="M249.68,192.44a12.45,12.45,0,0,1-1.73-.29c-1.12-.23-2.72-.58-4.69-1.09a101.94,101.94,0,0,1-15-5.09,64.53,64.53,0,0,1-13.74-7.89c-.83-.59-1.49-1.24-2.12-1.75a20.26,20.26,0,0,1-1.51-1.41,12.48,12.48,0,0,1-1.21-1.29,11,11,0,0,1,1.35,1.14c.41.38.92.85,1.56,1.34s1.31,1.11,2.15,1.67a69.49,69.49,0,0,0,13.73,7.71,119.53,119.53,0,0,0,14.9,5.22c1.95.55,3.53,1,4.63,1.24A10.09,10.09,0,0,1,249.68,192.44Z" style="fill:#fff"></path><path d="M250,191.4a13.12,13.12,0,0,1-1.74-.42c-.55-.15-1.23-.34-2-.61s-1.67-.53-2.62-.92a60.78,60.78,0,0,1-6.62-2.93,70,70,0,0,1-7.6-4.58,71.18,71.18,0,0,1-6.89-5.58,63.39,63.39,0,0,1-5-5.22c-.69-.76-1.25-1.51-1.77-2.14s-.93-1.21-1.26-1.68a11.18,11.18,0,0,1-1-1.49,12.2,12.2,0,0,1,1.16,1.37c.35.45.79,1,1.33,1.61s1.11,1.35,1.81,2.09c1.37,1.53,3.08,3.28,5.07,5.11a68.34,68.34,0,0,0,14.39,10.09,70.12,70.12,0,0,0,6.53,3c.94.41,1.83.7,2.59,1s1.43.51,2,.68A10.24,10.24,0,0,1,250,191.4Z" style="fill:#fff"></path><path d="M295.9,200.5a10.49,10.49,0,0,1-1.69.3c-.55.09-1.22.17-2,.24s-1.67.17-2.66.21c-2,.13-4.34.15-6.95.06s-5.49-.37-8.48-.81a81.84,81.84,0,0,1-15-3.75c-1.86-.66-3.35-1.25-4.36-1.71a9.74,9.74,0,0,1-1.54-.74,12.45,12.45,0,0,1,1.62.55c1,.4,2.53.94,4.4,1.55A93.47,93.47,0,0,0,274.2,200c3,.43,5.82.69,8.42.84s4.94.13,6.91,0c1,0,1.87-.09,2.65-.13s1.46-.1,2-.15A11.4,11.4,0,0,1,295.9,200.5Z" style="fill:#fff"></path><path d="M297.54,191.94a13.3,13.3,0,0,1-1.59.8c-.51.25-1.15.53-1.9.82s-1.61.65-2.59.95-2,.67-3.2,1-2.41.58-3.73.86a60.32,60.32,0,0,1-8.74.94,58,58,0,0,1-8.77-.48c-1.33-.21-2.61-.38-3.78-.66s-2.26-.52-3.24-.79-1.86-.56-2.63-.81-1.43-.5-2-.72a11.86,11.86,0,0,1-1.62-.71,10.35,10.35,0,0,1,1.69.52c.53.19,1.19.41,2,.63s1.64.51,2.63.73,2.06.52,3.24.73,2.43.41,3.75.61a63.11,63.11,0,0,0,8.7.43,64.08,64.08,0,0,0,8.66-.89c1.31-.27,2.56-.49,3.71-.81s2.23-.59,3.2-.89,1.83-.61,2.59-.88,1.41-.51,1.94-.73A12,12,0,0,1,297.54,191.94Z" style="fill:#fff"></path><path d="M262.32,198.52a6.82,6.82,0,0,1-.19-3,6,6,0,0,1,.69-2.9,15.28,15.28,0,0,1-.17,2.94A11.58,11.58,0,0,1,262.32,198.52Z" style="fill:#fff"></path><path d="M271.28,201.56a20.63,20.63,0,0,1-.09-4.56,19.84,19.84,0,0,1,.44-4.54,20.72,20.72,0,0,1,.09,4.56A19.65,19.65,0,0,1,271.28,201.56Z" style="fill:#fff"></path><path d="M281.72,204.11c-.15,0,.29-2.82.48-6.3s.09-6.3.24-6.31a22.12,22.12,0,0,1,.28,6.34A22.38,22.38,0,0,1,281.72,204.11Z" style="fill:#fff"></path><path d="M290.88,206.94a20.22,20.22,0,0,1,.47-2.64,55.25,55.25,0,0,0,.86-6.38,57.39,57.39,0,0,0,.09-6.43,17.05,17.05,0,0,1-.08-2.68,11,11,0,0,1,.44,2.65,38.85,38.85,0,0,1,.07,6.5,38.45,38.45,0,0,1-1,6.42A10.65,10.65,0,0,1,290.88,206.94Z" style="fill:#fff"></path><path d="M219.44,166.48a16.78,16.78,0,0,1-1.48,2.07,51.61,51.61,0,0,0-6.1,10.55,16.38,16.38,0,0,1-1.05,2.31,10.1,10.1,0,0,1,.71-2.45,37.32,37.32,0,0,1,2.63-5.58,36.85,36.85,0,0,1,3.52-5.06A9.85,9.85,0,0,1,219.44,166.48Z" style="fill:#fff"></path><path d="M225.47,172.38c.13.1-1.88,2.3-3.63,5.48s-2.57,6-2.72,6a5.72,5.72,0,0,1,.4-1.91,23.64,23.64,0,0,1,1.86-4.33,23.32,23.32,0,0,1,2.69-3.87A5.79,5.79,0,0,1,225.47,172.38Z" style="fill:#fff"></path><path d="M232.14,177.91c.12.09-1.19,2-2.51,4.51s-2.16,4.65-2.31,4.6a21.29,21.29,0,0,1,4.82-9.11Z" style="fill:#fff"></path><path d="M237.35,182.68a23,23,0,0,1-2.85,6.25,23,23,0,0,1,2.85-6.25Z" style="fill:#fff"></path><path d="M244,185.58a10,10,0,0,1-.86,3.06,9.57,9.57,0,0,1-1.35,2.87,9.92,9.92,0,0,1,.86-3A9.71,9.71,0,0,1,244,185.58Z" style="fill:#fff"></path><path d="M249.63,193.89a4.78,4.78,0,0,1-.9.77c-.61.47-1.5,1.13-2.61,1.92-2.23,1.6-5.35,3.73-8.82,6l-8.91,5.91-2.7,1.79a5.55,5.55,0,0,1-1,.6,4.69,4.69,0,0,1,.91-.77c.6-.47,1.49-1.13,2.6-1.92,2.23-1.6,5.35-3.73,8.83-6.05l8.9-5.91,2.7-1.79A5.55,5.55,0,0,1,249.63,193.89Z" style="fill:#fff"></path><path d="M247.69,194.08a6.77,6.77,0,0,1-1.26.63L243,196.29l-11.44,5.29c-4.46,2.07-8.53,3.91-11.5,5.15-1.49.63-2.71,1.11-3.55,1.43a8,8,0,0,1-1.34.44,6.77,6.77,0,0,1,1.26-.63l3.48-1.58,11.44-5.29c4.46-2.07,8.52-3.91,11.5-5.15,1.49-.62,2.71-1.11,3.55-1.42A7.64,7.64,0,0,1,247.69,194.08Z" style="fill:#fff"></path><path d="M230.64,216c-.1,0,0-1-.33-2.51a10.33,10.33,0,0,0-.94-2.53,13,13,0,0,0-2-2.66,17.84,17.84,0,0,0-4.93-3.5c-1.41-.68-2.34-1-2.32-1.06a7.77,7.77,0,0,1,2.47.72,15.77,15.77,0,0,1,5.15,3.48,12.36,12.36,0,0,1,2,2.8,9.18,9.18,0,0,1,.88,2.68,6.8,6.8,0,0,1,.09,1.89C230.72,215.72,230.68,216,230.64,216Z" style="fill:#fff"></path><path d="M236,208.78a21.2,21.2,0,0,0-2.84-5,20.84,20.84,0,0,0-4.4-3.65,3.94,3.94,0,0,1,1.6.64,11.94,11.94,0,0,1,3.2,2.67,11.8,11.8,0,0,1,2.08,3.62A4.31,4.31,0,0,1,236,208.78Z" style="fill:#fff"></path><path d="M241.3,203.18a31.27,31.27,0,0,0-1.43-3.31,35.42,35.42,0,0,0-2.2-2.85,5.69,5.69,0,0,1,2.65,2.59A5.59,5.59,0,0,1,241.3,203.18Z" style="fill:#fff"></path><path d="M252.39,195.19c.15,0,1,7.14,1.83,16s1.46,16,1.31,16-1-7.13-1.83-16S252.25,195.2,252.39,195.19Z" style="fill:#fff"></path><path d="M263.2,224.55a5.4,5.4,0,0,1-.43-1.11l-1-3.08c-.86-2.6-2.08-6.18-3.53-10.09s-2.87-7.43-3.91-10l-1.22-3a5.22,5.22,0,0,1-.4-1.13,5.54,5.54,0,0,1,.58,1c.35.68.82,1.69,1.38,2.94,1.13,2.49,2.6,6,4.06,9.92s2.62,7.53,3.39,10.16c.39,1.31.68,2.38.87,3.13A4.69,4.69,0,0,1,263.2,224.55Z" style="fill:#fff"></path><path d="M266.67,219.09a21.17,21.17,0,0,0-14.7,3.62,6.43,6.43,0,0,1,1.78-1.47,16.9,16.9,0,0,1,10.67-2.62A6.45,6.45,0,0,1,266.67,219.09Z" style="fill:#fff"></path><path d="M263.34,213a28,28,0,0,0-5.75.66,27,27,0,0,0-5.3,2.33,12.45,12.45,0,0,1,11-3Z" style="fill:#fff"></path><path d="M258.88,206.38a19.14,19.14,0,0,0-3.84.36,18,18,0,0,0-3.49,1.63,5.53,5.53,0,0,1,3.36-2.13A5.6,5.6,0,0,1,258.88,206.38Z" style="fill:#fff"></path><path d="M256.86,202.37a21,21,0,0,0-2.92-.41,19,19,0,0,0-2.9.49,3.87,3.87,0,0,1,2.9-1A3.91,3.91,0,0,1,256.86,202.37Z" style="fill:#fff"></path></g><path d="M253.84,192.53a2,2,0,0,1-.16.94,5.54,5.54,0,0,1-.42,1,2.45,2.45,0,0,1-1,1.07l.08,0a1.52,1.52,0,0,1-1.25.22,2,2,0,0,1-1.18-.66,3.24,3.24,0,0,1-.47-2.28,3.49,3.49,0,0,1,.65-1.76c.68-.89,1.45-1,1.43-.89s-.61.27-1.13,1.09a3.51,3.51,0,0,0-.47,1.6,2.93,2.93,0,0,0,.4,1.92,1.54,1.54,0,0,0,1.72.39l0,0,.05,0a2.38,2.38,0,0,0,.84-.83,6.87,6.87,0,0,0,.49-.89C253.66,192.84,253.78,192.52,253.84,192.53Z" style="fill:#263238"></path><path d="M251.34,195.43c-.15-.05.15-1.17,0-2.54s-.58-2.44-.45-2.51a4.59,4.59,0,0,1,.42,5.05Z" style="fill:#263238"></path><path d="M252.62,202.93a15.27,15.27,0,0,1-.57-3.91,14.52,14.52,0,0,1,0-3.94,30.38,30.38,0,0,1,.61,7.85Z" style="fill:#263238"></path><path d="M249.65,194a32.94,32.94,0,0,1-4,1.89,32.64,32.64,0,0,1-4.06,1.83,13.59,13.59,0,0,1,3.84-2.3A13.75,13.75,0,0,1,249.65,194Z" style="fill:#263238"></path></g></svg>