<svg xmlns="http://www.w3.org/2000/svg" viewBox="0 0 500 500"><g id="freepik--background-complete--inject-32"><rect y="382.4" width="500" height="0.25" style="fill:#ebebeb"></rect><rect x="416.78" y="398.49" width="33.12" height="0.25" style="fill:#ebebeb"></rect><rect x="322.53" y="401.21" width="8.69" height="0.25" style="fill:#ebebeb"></rect><rect x="396.59" y="389.21" width="19.19" height="0.25" style="fill:#ebebeb"></rect><rect x="52.46" y="390.89" width="43.19" height="0.25" style="fill:#ebebeb"></rect><rect x="104.56" y="390.89" width="6.33" height="0.25" style="fill:#ebebeb"></rect><rect x="131.47" y="395.11" width="93.68" height="0.25" style="fill:#ebebeb"></rect><path d="M237,337.8H43.91a5.71,5.71,0,0,1-5.7-5.71V60.66A5.71,5.71,0,0,1,43.91,55H237a5.71,5.71,0,0,1,5.71,5.71V332.09A5.71,5.71,0,0,1,237,337.8ZM43.91,55.2a5.46,5.46,0,0,0-5.45,5.46V332.09a5.46,5.46,0,0,0,5.45,5.46H237a5.47,5.47,0,0,0,5.46-5.46V60.66A5.47,5.47,0,0,0,237,55.2Z" style="fill:#ebebeb"></path><path d="M453.31,337.8H260.21a5.72,5.72,0,0,1-5.71-5.71V60.66A5.72,5.72,0,0,1,260.21,55h193.1A5.71,5.71,0,0,1,459,60.66V332.09A5.71,5.71,0,0,1,453.31,337.8ZM260.21,55.2a5.47,5.47,0,0,0-5.46,5.46V332.09a5.47,5.47,0,0,0,5.46,5.46h193.1a5.47,5.47,0,0,0,5.46-5.46V60.66a5.47,5.47,0,0,0-5.46-5.46Z" style="fill:#ebebeb"></path><polygon points="372.84 308.75 372.84 325.44 379.89 330.57 346.97 330.57 357.49 326.67 357.49 309.91 372.84 308.75" style="fill:#e0e0e0"></polygon><path d="M284,330.09v52.59H431V330.09Zm2.65,3.41h115v17.19h-115Z" style="fill:#e0e0e0"></path><path d="M284,330.09v52.59H405.25V330.09Zm2.65,3.41h115v17.19h-115Z" style="fill:#ebebeb"></path><rect x="286.68" y="333.5" width="23.71" height="17.19" transform="translate(597.06 684.18) rotate(180)" style="fill:#e0e0e0"></rect><rect x="372.38" y="342.09" width="29.33" height="8.59" transform="translate(774.09 692.78) rotate(180)" style="fill:#e0e0e0"></rect><rect x="348.14" y="345.58" width="22.08" height="5.1" transform="translate(718.35 696.27) rotate(180)" style="fill:#e0e0e0"></rect><rect x="321.99" y="340.25" width="21.04" height="10.44" transform="translate(665.03 690.93) rotate(180)" style="fill:#e0e0e0"></rect><polygon points="380.86 354.43 381.49 356.48 389.94 356.48 390.57 354.43 401.71 354.43 401.71 377.25 364.72 377.25 364.72 354.43 380.86 354.43" style="fill:#e0e0e0"></polygon><polygon points="336.9 354.43 337.53 356.48 345.97 356.48 346.6 354.43 362.75 354.43 362.75 377.25 325.75 377.25 325.75 354.43 336.9 354.43" style="fill:#e0e0e0"></polygon><polygon points="302.93 354.43 303.56 356.48 312.01 356.48 312.64 354.43 323.78 354.43 323.78 377.25 286.79 377.25 286.79 354.43 302.93 354.43" style="fill:#e0e0e0"></polygon><rect x="301.37" y="247.64" width="117.64" height="71.08" rx="3.53" transform="translate(720.39 566.36) rotate(180)" style="fill:#e0e0e0"></rect><rect x="298.61" y="247.64" width="117.64" height="71.08" rx="3.53" transform="translate(714.86 566.36) rotate(180)" style="fill:#e6e6e6"></rect><rect x="325.34" y="227.82" width="64.17" height="110.73" transform="translate(640.61 -74.25) rotate(90)" style="fill:#f0f0f0"></rect><path d="M206,241.48H100.68A20.67,20.67,0,0,0,80,262.16v82.2H226.63v-82.2A20.67,20.67,0,0,0,206,241.48Z" style="fill:#e6e6e6"></path><path d="M257.76,302.41H238.92a12.29,12.29,0,0,0-12.29,12.29v68H270v-68A12.28,12.28,0,0,0,257.76,302.41Z" style="fill:#e0e0e0"></path><path d="M257.76,302.41h-.4a12.29,12.29,0,0,0-12.29,12.29v68h25v-68A12.28,12.28,0,0,0,257.76,302.41Z" style="fill:#ebebeb"></path><rect x="95.34" y="351.45" width="144.48" height="31.23" style="fill:#e6e6e6"></rect><rect x="88.2" y="322.89" width="164.32" height="32.76" rx="12.49" style="fill:#f5f5f5"></rect><rect x="88.42" y="322.89" width="42.26" height="32.76" rx="12.49" style="fill:#e0e0e0;isolation:isolate"></rect><path d="M99.05,302.41H80.21A12.28,12.28,0,0,0,67.93,314.7v68h43.41v-68A12.29,12.29,0,0,0,99.05,302.41Z" style="fill:#e0e0e0"></path><path d="M99.05,302.41h-.4A12.28,12.28,0,0,0,86.37,314.7v68h25v-68A12.29,12.29,0,0,0,99.05,302.41Z" style="fill:#f0f0f0"></path><path d="M111,153.6s-4.35,10.29-2.37,14.12a7.24,7.24,0,0,0,5.54,4.06s1.88,12.05,3.51,13.62,7.56,1.92,7.56,1.92,7.52,9.23,8.12,9.58,5.06-1.94,5.06-1.94,8.44,10.53,14.25,9.39,7-3,7-3,5.54,2.51,8.7,1.41,8-7.75,8-7.75,1.18,5.15,7.09,1.94,8.34-18.08,8.34-18.08,2.19,3.53,5.21-1.48c2.42-4,3.68-9.79,4.09-12,.07.45.6.51,2.73-1.74,3.73-3.93-8.54-18.41-8.54-18.41s7.8-1.23,7.86-5.83-11.32-13-16.12-13.17c0,0,7-1.25,6.84-4.26s-17.56-4.25-17.56-4.25-.18-5.62-2.86-7.72-13.75,2.94-13.75,2.94-13-8.12-16.39-4-.4,7.23-.4,7.23-15.26-1.62-17.64.39,2.15,4.54,2.15,4.54-15.2,3.42-16,8,3.16,5.26,3.16,5.26-7.51,11.1-7.51,15.09A4.18,4.18,0,0,0,111,153.6Zm15.63,1.33c1.38-.59.39-9.69,2.77-9.69s3-10.28,3-10.28,4.55-.2,6.14-4,6.72-2.77,7.71-1.19,10.48-4.15,10.48-4.15,6.93,3,8.15,3.36,2.14-1.18,3.72,2,5.94,3.16,5.94,1.58,7.51,6.73,7.51,6.73-1.58,5.54,0,9.49,3.37,0,3.37,0-.2,5.94-1.79,9.61,1.79,6,1.79,6a19,19,0,0,0-5.54,5.21c-2.38,3.42-1,4.28-1,4.28s-3.17.42-7.91,6.85-4.95,3.26-9.7,2.6-6.13,4.22-6.52,2.3-5.54-2.63-11.08-1.24-1.58-3.17-3.42-4.95-6.67,2.57-6.67-.59-6.13-7.52-4.35-7.69.59-5-3.56-9.92S125.25,155.53,126.64,154.93Z" style="fill:#ebebeb"></path><path d="M150.58,122.2a4.26,4.26,0,1,0,4.26-4.25A4.25,4.25,0,0,0,150.58,122.2Z" style="fill:#e0e0e0"></path><path d="M176.3,186.1a4.25,4.25,0,1,0,4.25-4.25A4.25,4.25,0,0,0,176.3,186.1Z" style="fill:#e0e0e0"></path><polygon points="195.88 132.47 194.39 135.48 191.07 135.97 193.48 138.31 192.91 141.62 195.88 140.06 198.85 141.62 198.28 138.31 200.69 135.97 197.37 135.48 195.88 132.47" style="fill:#e0e0e0"></polygon><polygon points="117.15 153.84 115.67 156.85 112.35 157.33 114.75 159.68 114.18 162.99 117.15 161.42 120.13 162.99 119.56 159.68 121.96 157.33 118.64 156.85 117.15 153.84" style="fill:#e0e0e0"></polygon><polygon points="146.65 186.15 144.1 188.33 140.86 187.46 142.14 190.56 140.31 193.38 143.66 193.12 145.77 195.72 146.56 192.46 149.69 191.26 146.83 189.5 146.65 186.15" style="fill:#e0e0e0"></polygon><path d="M141.48,223.79a1,1,0,0,1-.59-1.81c5.79-4.3,10.88-18.25,13.35-26-4.41,5.51-12.25,14.14-18.38,14.44a6,6,0,0,1-5-2.24,4.79,4.79,0,0,1-1.12-4.8c2.47-7.48,24.36-12.84,26.85-13.43h.26c8.9.15,20.45,7.6,22.48,14.49a5.66,5.66,0,0,1-2.45,6.72,5.58,5.58,0,0,1-4.84.72c-4.69-1.35-9.41-8.15-12.53-13.56,1.92,6.93,5.65,16.87,12.09,21.9a1,1,0,0,1-1.23,1.58c-8.25-6.45-12.2-19.85-13.74-26.62-2.31,7.52-7.83,23.44-14.52,28.42A1,1,0,0,1,141.48,223.79Zm16.94-31.74c2.11,4.29,8.42,16.25,14.15,17.9a3.92,3.92,0,0,0,4.81-4.95C175.88,199.88,166.59,193,158.42,192.05Zm-4.07.54c-7.6,2-21.15,6.62-22.74,11.43a2.83,2.83,0,0,0,.75,2.88,4,4,0,0,0,3.4,1.53C141.46,208.16,150,198.35,154.35,192.59Z" style="fill:#e0e0e0"></path><rect x="401.94" y="164.64" width="27.53" height="38.96" transform="translate(231.59 599.83) rotate(-90)" style="fill:#e0e0e0"></rect><rect x="403.74" y="166.47" width="23.94" height="35.3" transform="translate(231.59 599.83) rotate(-90)" style="fill:#ebebeb"></rect><rect x="388.43" y="130.05" width="27.53" height="38.96" transform="translate(252.67 551.72) rotate(-90)" style="fill:#e0e0e0"></rect><rect x="390.23" y="131.88" width="23.94" height="35.3" transform="translate(252.67 551.72) rotate(-90)" style="fill:#ebebeb"></rect><rect x="364.05" y="170.35" width="24.79" height="35.08" transform="translate(752.88 375.78) rotate(180)" style="fill:#e0e0e0"></rect><rect x="365.66" y="172" width="21.56" height="31.78" transform="translate(752.88 375.78) rotate(180)" style="fill:#ebebeb"></rect><rect x="349.94" y="124.33" width="27.53" height="38.96" transform="translate(727.42 287.62) rotate(180)" style="fill:#e0e0e0"></rect><rect x="351.74" y="126.16" width="23.94" height="35.3" transform="translate(727.42 287.62) rotate(180)" style="fill:#ebebeb"></rect><rect x="329.6" y="165.88" width="21.56" height="30.51" transform="translate(521.5 -159.25) rotate(90)" style="fill:#e0e0e0"></rect><rect x="331" y="167.31" width="18.75" height="27.64" transform="translate(521.5 -159.25) rotate(90)" style="fill:#ebebeb"></rect><path d="M278.81,119c-27.62,0-51.69-27.11-55.92-32.15a82.48,82.48,0,0,1-26.26,12.61c-14.56,4-36.25,5-57.3-12.67-4.25,3.56-28.15,22.61-53.72,22.61a44.83,44.83,0,0,1-23.76-6.54,1,1,0,0,1-.34-1.38,1,1,0,0,1,1.38-.33c33.71,20.55,75.35-16.05,75.77-16.42a1,1,0,0,1,1.31,0C156.48,98.9,175.35,103.22,196,97.58a80.58,80.58,0,0,0,26.38-12.86,1,1,0,0,1,1.4.16c.26.32,26.16,32.15,55,32.15,29.08,0,82.51-26.8,83-27.07a1,1,0,0,1,1.15.17c22.18,21.63,40.72,26.33,52.37,26.46,12.58.12,20.06-4.87,20.14-4.92a1,1,0,0,1,1.13,1.65c-.32.21-7.82,5.27-20.74,5.27h-.4c-12-.1-30.89-4.8-53.38-26.53C355.68,95.27,307,119,278.81,119Z" style="fill:#e0e0e0"></path><path d="M92.83,112a4.59,4.59,0,1,1-4.59-4.58A4.59,4.59,0,0,1,92.83,112Z" style="fill:#f0f0f0"></path><path d="M189.39,104.38a4.59,4.59,0,1,1-4.59-4.58A4.58,4.58,0,0,1,189.39,104.38Z" style="fill:#f0f0f0"></path><path d="M263.68,118a4.59,4.59,0,1,1-4.59-4.59A4.59,4.59,0,0,1,263.68,118Z" style="fill:#f0f0f0"></path><path d="M409.52,120.58a4.59,4.59,0,1,1-4.58-4.59A4.58,4.58,0,0,1,409.52,120.58Z" style="fill:#f0f0f0"></path></g><g id="freepik--Shadow--inject-32"><ellipse id="freepik--path--inject-32" cx="250" cy="416.24" rx="193.89" ry="11.32" style="fill:#f5f5f5"></ellipse></g><g id="freepik--christmas-tree--inject-32"><rect x="255" y="289.91" width="29.46" height="82.59" transform="translate(539.46 662.41) rotate(180)" style="fill:#40FF96"></rect><rect x="255" y="289.91" width="29.46" height="82.59" transform="translate(539.46 662.41) rotate(180)" style="opacity:0.2;isolation:isolate"></rect><path d="M307.9,233.82s25.47,70.28,42,93.33c0,0-4.56,8.19-19.33-17.54,0,0,10,29.61,3.17,33.06s-21.1-26.34-21.1-26.34,6.59,22.08,4,24.62S305,319.56,305,319.56s5.8,28.12,0,30.64-16.09-26.75-16.09-26.75,3.71,21.36,2.51,22.94-6.73-21.34-6.73-21.34,3.17,28.09-5.54,29.86-12.39-22.54-12.39-22.54,1.43,18.09-3.11,20.27-8.5-22.42-8.5-22.42-.3,23-6.61,23.42-6-26.49-6-26.49-5.09,23.7-8.78,23.05S238,325.3,238,325.3,223.9,349.49,217.5,341s1-28.08,1-28.08-9.61,23-13.91,21.25,7.07-24.51,7.07-24.51-10.37,20.6-20.36,17.85c0,0,35.13-53.07,44.88-91.84Z" style="fill:#40FF96"></path><path d="M307.9,233.82s25.47,70.28,42,93.33c0,0-4.56,8.19-19.33-17.54,0,0,10,29.61,3.17,33.06s-21.1-26.34-21.1-26.34,6.59,22.08,4,24.62S305,319.56,305,319.56s5.8,28.12,0,30.64-16.09-26.75-16.09-26.75,3.71,21.36,2.51,22.94-6.73-21.34-6.73-21.34,3.17,28.09-5.54,29.86-12.39-22.54-12.39-22.54,1.43,18.09-3.11,20.27-8.5-22.42-8.5-22.42-.3,23-6.61,23.42-6-26.49-6-26.49-5.09,23.7-8.78,23.05S238,325.3,238,325.3,223.9,349.49,217.5,341s1-28.08,1-28.08-9.61,23-13.91,21.25,7.07-24.51,7.07-24.51-10.37,20.6-20.36,17.85c0,0,35.13-53.07,44.88-91.84Z" style="fill:#fff;opacity:0.5;isolation:isolate"></path><path d="M213.09,255.56c9.44-10.3,30.44-59.2,30.44-59.2L264,200.44v2.88c.43-1.93.67-3,.67-3l36.8-2.32c8.82,24.64,30.38,54.32,30.38,54.32-5.37,1.66-12.05-6.19-12.05-6.19s7.78,13.88,4.9,15.69-7.3-11.51-7.3-11.51,4.25,19-1.64,21.56-13.32-15.43-13.32-15.43,4.87,15.42,1.95,17-7.56-15.53-7.56-15.53,1.67,21.6-4.26,22-8.42-17.58-8.42-17.58,1.22,19.51-1.5,19.13-2.27-19.61-2.27-19.61-2.05,19.75-6.45,18.83-3.7-22.87-3.7-22.87-.16,20.18-3,20.9-3.33-16.8-3.33-16.8c-.58,4.28-3.07,20.3-8.16,19.34s-5-14.83-4.94-18.45l-.11.13c-.54,3.93-2.69,18.19-4.92,17.27-1.66-.69-.58-8.64.41-14.23l-.14,0,.21-.38c.52-2.9,1-5.07,1-5.07s-5.7,18.74-9.82,16.71.68-23.27.68-23.27-5.79,17.1-8.66,17.08,4-17.56,4-17.56-12.51,16.41-13.79,14.4S225,246.31,225,246.31C216.67,257.81,213.09,255.56,213.09,255.56Z" style="fill:#40FF96"></path><path d="M213.09,255.56c9.44-10.3,30.44-59.2,30.44-59.2L264,200.44v2.88c.43-1.93.67-3,.67-3l36.8-2.32c8.82,24.64,30.38,54.32,30.38,54.32-5.37,1.66-12.05-6.19-12.05-6.19s7.78,13.88,4.9,15.69-7.3-11.51-7.3-11.51,4.25,19-1.64,21.56-13.32-15.43-13.32-15.43,4.87,15.42,1.95,17-7.56-15.53-7.56-15.53,1.67,21.6-4.26,22-8.42-17.58-8.42-17.58,1.22,19.51-1.5,19.13-2.27-19.61-2.27-19.61-2.05,19.75-6.45,18.83-3.7-22.87-3.7-22.87-.16,20.18-3,20.9-3.33-16.8-3.33-16.8c-.58,4.28-3.07,20.3-8.16,19.34s-5-14.83-4.94-18.45l-.11.13c-.54,3.93-2.69,18.19-4.92,17.27-1.66-.69-.58-8.64.41-14.23l-.14,0,.21-.38c.52-2.9,1-5.07,1-5.07s-5.7,18.74-9.82,16.71.68-23.27.68-23.27-5.79,17.1-8.66,17.08,4-17.56,4-17.56-12.51,16.41-13.79,14.4S225,246.31,225,246.31C216.67,257.81,213.09,255.56,213.09,255.56Z" style="fill:#fff;opacity:0.6000000000000001;isolation:isolate"></path><path d="M291,161.18s17.28,43.36,25.92,52.94c0,0-3.74,1.6-11.13-8.89,0,0,5.06,17.1,3.63,18.7s-12.67-13.44-12.67-13.44,5.52,15.49,2.66,15.26S292,210.49,292,210.49s3.2,18.45-1.06,19.82-8.54-15.05-8.54-15.05,2.65,16.19,0,16.87-3.68-16-3.68-16-.41,15.55-6.33,16-6.74-18-6.74-18-2.66,15-5.72,14.14,0-14.6,0-14.6-5.31,16.19-11.44,14.83-4.09-18-4.09-18-2.86,11.84-5.92,10.7,3.06-13.91,3.06-13.91-5.72,7.53-11.23,6.84c0,0,18-28,23.9-50Z" style="fill:#40FF96"></path><path d="M291,161.18s17.28,43.36,25.92,52.94c0,0-3.74,1.6-11.13-8.89,0,0,5.06,17.1,3.63,18.7s-12.67-13.44-12.67-13.44,5.52,15.49,2.66,15.26S292,210.49,292,210.49s3.2,18.45-1.06,19.82-8.54-15.05-8.54-15.05,2.65,16.19,0,16.87-3.68-16-3.68-16-.41,15.55-6.33,16-6.74-18-6.74-18-2.66,15-5.72,14.14,0-14.6,0-14.6-5.31,16.19-11.44,14.83-4.09-18-4.09-18-2.86,11.84-5.92,10.7,3.06-13.91,3.06-13.91-5.72,7.53-11.23,6.84c0,0,18-28,23.9-50Z" style="fill:#fff;opacity:0.7000000000000001;isolation:isolate"></path><path d="M271.75,118s-9,24.28-29.86,60.14c0,0,1.75,5.11,10.28-4,0,0-3.69,12.91-1.55,16.15s11.06-18.15,11.06-18.15-4.57,22.9-.18,23.67,7.09-20.42,7.09-20.42,2.7,24.92,6.56,24.89,4.64-24.18,4.64-24.18S283,192,286,190.33s0-20.76,0-20.76,6.52,24.26,10,19.25-4.59-23.14-4.59-23.14,10.72,14.86,12.63,10.21C304,175.89,279.93,140.71,271.75,118Z" style="fill:#40FF96"></path><path d="M271.75,118s-9,24.28-29.86,60.14c0,0,1.75,5.11,10.28-4,0,0-3.69,12.91-1.55,16.15s11.06-18.15,11.06-18.15-4.57,22.9-.18,23.67,7.09-20.42,7.09-20.42,2.7,24.92,6.56,24.89,4.64-24.18,4.64-24.18S283,192,286,190.33s0-20.76,0-20.76,6.52,24.26,10,19.25-4.59-23.14-4.59-23.14,10.72,14.86,12.63,10.21C304,175.89,279.93,140.71,271.75,118Z" style="fill:#fff;opacity:0.8"></path><path d="M258.68,155.42a19.88,19.88,0,0,1-3.73-.36,1,1,0,0,1,.39-2c13.55,2.67,26.57-12.42,26.7-12.58a1,1,0,0,1,1.53,1.3C283.06,142.41,271.85,155.42,258.68,155.42Z" style="fill:#263238"></path><path d="M258.75,209c-7.33,0-14.35-2.64-20.92-7.88a1,1,0,0,1,1.24-1.56c7.48,6,15.54,8.35,24,7.12,19.93-2.91,35.65-25.21,35.81-25.44a1,1,0,1,1,1.64,1.14c-.66.95-16.36,23.24-37.15,26.28A31,31,0,0,1,258.75,209Z" style="fill:#263238"></path><path d="M247.37,252.3c-10.05,0-19.15-3.08-25.44-11.4a1,1,0,0,1,1.6-1.21c5.27,7,13.27,10.53,23.77,10.56h.11c27.84,0,63.6-24,66-26.76a1,1,0,0,1,.71-.6,1,1,0,0,1,1.19.77c.12.55.31,1.4-8.77,7.14a184.57,184.57,0,0,1-20.89,11.32C273.84,247.53,259.88,252.3,247.37,252.3Zm66-28.22Zm0,0h0Z" style="fill:#263238"></path><path d="M253.85,312.25c-13.6,0-28.32-4.55-42.85-17.35a1,1,0,0,1-.09-1.41,1,1,0,0,1,1.41-.09c18.05,15.89,38.36,20.6,60.38,14,28.05-8.41,48.31-32,49.32-34.75a1,1,0,0,1,1.92-.42c.91,2.18-10.2,14.06-22.37,22.77C290.58,302.86,273.38,312.25,253.85,312.25ZM322.1,273h0Z" style="fill:#263238"></path><polygon points="267.28 152.86 266.19 155.09 263.73 155.45 265.51 157.18 265.09 159.62 267.28 158.47 269.48 159.62 269.06 157.18 270.84 155.45 268.38 155.09 267.28 152.86" style="fill:#40FF96"></polygon><polygon points="270.84 206.03 269.74 208.25 267.28 208.61 269.06 210.34 268.64 212.79 270.84 211.63 273.03 212.79 272.61 210.34 274.39 208.61 271.93 208.25 270.84 206.03" style="fill:#40FF96"></polygon><polygon points="263.44 249.24 262.61 251.58 260.22 252.23 262.19 253.74 262.07 256.21 264.11 254.8 266.43 255.69 265.72 253.31 267.27 251.38 264.79 251.32 263.44 249.24" style="fill:#40FF96"></polygon><polygon points="295.24 298.06 294.75 300.49 292.47 301.46 294.63 302.68 294.85 305.15 296.68 303.48 299.09 304.03 298.06 301.77 299.34 299.64 296.87 299.93 295.24 298.06" style="fill:#40FF96"></polygon><polygon points="231.78 307.76 229.81 309.26 227.45 308.5 228.28 310.83 226.81 312.84 229.3 312.78 230.75 314.79 231.46 312.41 233.82 311.65 231.78 310.24 231.78 307.76" style="fill:#40FF96"></polygon><polygon points="237.73 420.03 301.73 420.03 311.73 372.48 227.73 372.48 237.73 420.03"></polygon><polygon points="237.73 420.03 301.73 420.03 311.73 372.48 227.73 372.48 237.73 420.03" style="fill:#fff;opacity:0.30000000000000004;isolation:isolate"></polygon><rect x="223.12" y="370.62" width="93.22" height="8.09" rx="2.58" transform="translate(539.46 749.34) rotate(180)" style="fill:#263238"></rect></g><g id="freepik--character-2--inject-32"><path d="M245.91,420c-2.11,0-4.07,0-5.87-.11-11.94-.51-13.76-2.52-14-4.43-.58-5.34,16.46-7.47,18.4-7.69,14.44-1.67,29.47,1.61,42.73,4.5,8.41,1.83,15.68,3.42,21.34,3.42,4.35,0,7.63-1.28,10-3.92,4.12-4.55,5.58-13.24,4.33-25.82-.63-6.37-1.81-12.65-2.95-18.73-3.1-16.56-6.31-33.69,1-54.59,6.89-19.64,4.86-31.11,1.49-50.11-1.41-8-3-17-4.34-28.48-3.61-31.4,5.07-60.9,8.86-71.85-8.06,5.2-26.34,15.13-35.92,5.51a1.49,1.49,0,0,1,0-2.12,1.51,1.51,0,0,1,2.12,0c10.42,10.47,35.68-8.31,35.94-8.5a1.49,1.49,0,0,1,2.28,1.77c-.15.36-14.75,36.15-10.3,74.85,1.32,11.4,2.91,20.38,4.31,28.3,3.46,19.48,5.55,31.24-1.61,51.62-7.08,20.14-4.08,36.13-.91,53.05,1.15,6.14,2.34,12.49,3,19,1.35,13.65-.32,22.85-5.09,28.13-2.95,3.26-7.08,4.91-12.25,4.91-6,0-13.39-1.62-22-3.49-13-2.84-27.8-6.06-41.74-4.45-9.3,1.07-14.52,3.26-15.61,4.36,1.3.8,9.52,4,53.71-.37a1.5,1.5,0,0,1,.3,3C267.88,419.25,255.37,420,245.91,420Z" style="fill:#40FF96"></path><path d="M327.56,170A6.53,6.53,0,1,0,329.8,161,6.54,6.54,0,0,0,327.56,170Z" style="fill:#263238"></path><path d="M330.72,161.28a.26.26,0,0,1-.22-.13c-.18-.31-1.75-3.08-1.24-4.43a1.07,1.07,0,0,1,.69-.67,1.09,1.09,0,0,1,.93.12c1.23.79,1.62,4.13,1.67,4.51a.25.25,0,0,1-.23.27.24.24,0,0,1-.27-.22c-.11-1-.57-3.58-1.44-4.14a.55.55,0,0,0-.5-.06.58.58,0,0,0-.39.37c-.36.95.76,3.21,1.22,4a.27.27,0,0,1-.09.34A.22.22,0,0,1,330.72,161.28Z" style="fill:#263238"></path><path d="M332.28,172.52h-.09a3.52,3.52,0,0,1-3.25-2.52c-1.2-2.94-.71-4.83-.09-5.91a4.43,4.43,0,0,1,3.22-2.16c1.51-.2,2.95,1.07,3.54,2.37a2.69,2.69,0,0,1-.53,3.3,2.24,2.24,0,0,1-3.64-2.6.5.5,0,1,1,.9.42,1.39,1.39,0,0,0,.28,1.75c.49.36,1.16.24,1.81-.32a1.79,1.79,0,0,0,.27-2.14,2.78,2.78,0,0,0-2.5-1.79,3.44,3.44,0,0,0-2.49,1.67c-.73,1.26-.67,3,.16,5a2.58,2.58,0,0,0,2.35,1.9c2,0,4.75-2.23,5.64-4.15,1.18-2.52-1.94-4.43-2.08-4.52a.5.5,0,0,1-.17-.68.5.5,0,0,1,.69-.17c1.4.83,3.71,3.12,2.47,5.79C337.84,169.79,334.94,172.52,332.28,172.52Z" style="fill:#fff;opacity:0.8"></path><circle cx="291.13" cy="175.65" r="6.52" transform="translate(-17.52 318.3) rotate(-55.91)" style="fill:#263238"></circle><path d="M292.35,170.06h-.06a.24.24,0,0,1-.18-.3c.23-.94.69-3.56.07-4.39a.57.57,0,0,0-.45-.23.56.56,0,0,0-.49.22c-.67.77-.4,3.27-.24,4.17a.24.24,0,0,1-.2.29.25.25,0,0,1-.29-.2c-.06-.35-.59-3.5.35-4.59a1.11,1.11,0,0,1,.88-.39,1,1,0,0,1,.83.43c.89,1.17.11,4.44,0,4.81A.26.26,0,0,1,292.35,170.06Z" style="fill:#263238"></path><path d="M294.15,180.09a1.55,1.55,0,0,1-1.09-.48c-1-1-.86-2.63-.76-3.83,0-.31.05-.72,0-1a5.43,5.43,0,0,0-1.41,1.45c-.83,1.09-1.77,2.32-3.06,1.76-.95-.42-1.23-1.75-1.47-2.92a6.79,6.79,0,0,0-.31-1.19,1.53,1.53,0,0,0-.21.22.5.5,0,0,1-.76-.65,1.3,1.3,0,0,1,1.23-.61c.65.17.82,1,1,2,.17.85.41,2,.89,2.21s1.09-.42,1.87-1.44a5.32,5.32,0,0,1,1.9-1.83.89.89,0,0,1,.92.06c.46.34.41,1,.33,2s-.18,2.38.48,3a.51.51,0,0,0,.47.18c.81-.13,2-1.84,2.58-3a.51.51,0,0,1,.68-.22.5.5,0,0,1,.22.67c-.17.34-1.69,3.29-3.32,3.56Z" style="fill:#fff;opacity:0.8"></path><path d="M322.76,117.18c2.46,2.39,4.77,4.22,1.19,7.52s-2.9,8.75,1.67,11.18,27.48,10.73,36,1.17,2.16-16.14-2-17.93-.15-6.5.24-9.91-15.26-17.36-22.57-18.27-12.22,5.4-12.14,11.78S318.75,113.29,322.76,117.18Z" style="fill:#263238"></path><polygon points="364.39 346.66 371.15 346.66 369.08 337.31 367.16 328.73 358.69 327.43 361.7 337.61 364.39 346.66" style="fill:#b97964"></polygon><polygon points="361.77 337.82 369.14 337.49 367.19 328.82 358.71 327.48 361.77 337.82" style="opacity:0.2;isolation:isolate"></polygon><polygon points="378.39 346.66 385.15 346.66 383.08 337.31 381.16 328.73 372.69 327.43 375.7 337.61 378.39 346.66" style="fill:#b97964"></polygon><polygon points="375.77 337.82 383.14 337.49 381.19 328.82 372.71 327.48 375.77 337.82" style="opacity:0.2;isolation:isolate"></polygon><path d="M390.63,168s.34.73.88,2.08c2.55,6.29,9.52,26.15,6.92,49.19-1.55,13.62-16.6,38.14-18.84,51.5-2.61,15.55,4.22,43,2.47,63.07l-10.76.94-3.24-2-9.22-1.37s-24-54.58-23.56-73.45c.34-14.82,23.56-67.95,23.56-67.95l-2.21-19.64" style="fill:#40FF96"></path><path d="M366.37,332.46l1.69.25,2.76,1.74c-1.76-6.13-16.92-59.2-17.19-70.88-.3-12.41,17.36-56.45,17.36-56.45l-4.53-8.18.68,12.45s-16.71,34.25-18,52.18C347.84,280.76,365,328.59,366.37,332.46Z" style="opacity:0.2;isolation:isolate"></path><path d="M373.05,346.37c0-.75-9.18-.16-9.18-.16s-5.63,5.73-11.11,7-2.41,4.57,3.71,4.57H371.6C376,357.8,373.23,354.1,373.05,346.37Z" style="fill:#263238"></path><path d="M359.05,348.55a1.27,1.27,0,0,1-.81-.22.9.9,0,0,1-.22-1,1,1,0,0,1,.49-.62,3.92,3.92,0,0,1,2.06-.22c-.75-.4-1.4-.88-1.43-1.36,0-.32.19-.57.6-.77a1.42,1.42,0,0,1,1.19,0c1.24.52,2,2.64,2,2.75a.3.3,0,0,1,0,.1h0a.14.14,0,0,1,0,.07h0l0,.06h0a.16.16,0,0,1-.08.06A11.49,11.49,0,0,1,359.05,348.55Zm.78-1.6a2.37,2.37,0,0,0-1.08.2.57.57,0,0,0-.26.32c-.09.36,0,.46.06.49.43.35,2.11-.15,3.46-.72A10.82,10.82,0,0,0,359.83,347Zm.54-2.24a1.07,1.07,0,0,0-.42.1c-.12.06-.33.18-.33.31,0,.41,1.34,1.12,2.69,1.64a4,4,0,0,0-1.57-2A1,1,0,0,0,360.37,344.71Z" style="fill:#40FF96"></path><polygon points="371.3 331.17 356.12 329.09 357.39 334.75 369.92 336.33 371.3 331.17" style="fill:#263238"></polygon><path d="M387.05,346.37c0-.75-9.18-.16-9.18-.16s-5.63,5.73-11.11,7-2.41,4.57,3.71,4.57H385.6C390,357.8,387.23,354.1,387.05,346.37Z" style="fill:#263238"></path><path d="M373.05,348.55a1.27,1.27,0,0,1-.81-.22.9.9,0,0,1-.22-1,1,1,0,0,1,.49-.62,3.92,3.92,0,0,1,2.06-.22c-.75-.4-1.4-.88-1.43-1.36,0-.32.19-.57.6-.77a1.42,1.42,0,0,1,1.19,0c1.24.52,2,2.64,2,2.75a.3.3,0,0,1,0,.1h0a.14.14,0,0,1,0,.07h0l0,.06h0a.16.16,0,0,1-.08.06A11.49,11.49,0,0,1,373.05,348.55Zm.78-1.6a2.37,2.37,0,0,0-1.08.2.57.57,0,0,0-.26.32c-.09.36,0,.46.06.49.43.35,2.11-.15,3.46-.72A10.82,10.82,0,0,0,373.83,347Zm.54-2.24a1.07,1.07,0,0,0-.42.1c-.12.06-.33.18-.33.31,0,.41,1.34,1.12,2.69,1.64a4,4,0,0,0-1.57-2A1,1,0,0,0,374.37,344.71Z" style="fill:#40FF96"></path><polygon points="384.27 331.17 368.06 329.09 369.42 334.75 382.8 336.33 384.27 331.17" style="fill:#263238"></polygon><polygon points="388.66 163.56 390.25 168.12 358.25 176.57 356.37 171.18 388.66 163.56" style="fill:#263238"></polygon><rect x="378.84" y="164.82" width="1.64" height="8.35" transform="translate(791.46 224.89) rotate(163.74)" style="fill:#40FF96"></rect><rect x="364.7" y="168.76" width="7.24" height="5.49" transform="translate(767.29 248.31) rotate(165.93)" style="fill:#fff"></rect><rect x="359.07" y="169.36" width="1.64" height="8.35" transform="translate(753.99 239.26) rotate(163.73)" style="fill:#40FF96"></rect><path d="M332.14,134.53c1.39,1.8,2.67,3.51,3.87,5.13,4.66,6.24,8,10.67,10.52,14.24a74.23,74.23,0,0,1,7.4,12.31c.83,1.75,1.65,3.67,2.56,5.93l32.17-8.59c-6.06-22.48-11.25-34.28-13.84-40.16,0-.06-.05-.12-.08-.19a8.14,8.14,0,0,0-9.54-4.53c-2.31.63-5,1.41-7.52,2.26a106.37,106.37,0,0,0-13.59,6.16A98.41,98.41,0,0,0,332.14,134.53Z" style="fill:#40FF96"></path><path d="M332.13,134.53q2.08,2.7,3.87,5.13c4.63,6.18,7.93,10.59,10.46,14.13l.07.1a74.69,74.69,0,0,1,7.4,12.32l.21.44c.75,1.63,1.51,3.42,2.34,5.48l32.18-8.58c-6.06-22.48-11.25-34.28-13.84-40.16l-.09-.19a8.13,8.13,0,0,0-9.53-4.53c-2.32.63-5,1.41-7.53,2.26a106.18,106.18,0,0,0-13.58,6.15A97.37,97.37,0,0,0,332.13,134.53Z" style="fill:#fff;opacity:0.6000000000000001;isolation:isolate"></path><polygon points="355.47 139.37 353.47 148.28 355.47 147.75 354.47 155.13 356.97 154.61 356.11 162.5 361.48 160.28 363.36 164.36 366.24 163.31 364.87 159.62 371.27 158.17 364.28 152.89 366.24 151.87 360.07 146.17 362.37 145.24 355.47 139.37" style="fill:#40FF96"></polygon><path d="M346.46,153.79l.07.1a74.69,74.69,0,0,1,7.4,12.32l.21.44c6.5-.47,19.26-1.9,22.68-6,4.64-5.54.68-24.53-2.65-33.89l-5.85,1.84s-1,15.43-3.15,18.2C363.38,149.17,350.4,152.74,346.46,153.79Z" style="opacity:0.2;isolation:isolate"></path><path d="M365.2,118.67c4.23-1.11-2,13.78-11.62,16.68s-15.42-.66-15.42-3.43S352.42,122,365.2,118.67Z" style="fill:#b97964"></path><path d="M352.91,133.38c5.41-6.16,4.95-10.38,4.95-10.38-7.09-.24-9.45-9.41-9.45-9.41l-6.14,7.85a28.63,28.63,0,0,1,3,2.84c4,4.41,2,6.23,2,6.23C348.12,134.06,352.91,133.38,352.91,133.38Z" style="fill:#b97964"></path><path d="M342.27,121.44a28.63,28.63,0,0,1,3,2.84c2.82-4,3.13-10.69,3.13-10.69Z" style="opacity:0.2;isolation:isolate"></path><path d="M335.58,92.49c-8.28,2-9.87,7.1-8.39,15.78,1.83,10.85,6.05,17.86,15.85,13.06C356.35,114.81,349.34,89.14,335.58,92.49Z" style="fill:#b97964"></path><path d="M332.43,106.51a17.81,17.81,0,0,1-1.58,4,2.35,2.35,0,0,0,2.41.4Z" style="fill:#a24e3f"></path><path d="M337.33,104.6c.15.68.64,1.15,1.1,1.05s.7-.73.55-1.42-.64-1.15-1.09-1S337.18,103.91,337.33,104.6Z" style="fill:#263238"></path><path d="M338.08,103.17l-1.61-.26S337.48,104,338.08,103.17Z" style="fill:#263238"></path><path d="M328.79,106.31c.15.69.64,1.16,1.1,1.06s.71-.73.56-1.42-.65-1.15-1.1-1S328.64,105.63,328.79,106.31Z" style="fill:#263238"></path><path d="M329.55,104.89l-1.62-.26S329,105.72,329.55,104.89Z" style="fill:#263238"></path><path d="M339.92,99.6a.35.35,0,0,1-.22-.08,4.17,4.17,0,0,0-3.55-.33.36.36,0,1,1-.26-.67,4.76,4.76,0,0,1,4.25.42.37.37,0,0,1,.07.51A.35.35,0,0,1,339.92,99.6Z" style="fill:#263238"></path><path d="M326.78,101.82a.31.31,0,0,1-.24-.1.36.36,0,0,1,0-.51,4.34,4.34,0,0,1,3.45-1.6.36.36,0,1,1-.08.72,3.65,3.65,0,0,0-2.83,1.37A.36.36,0,0,1,326.78,101.82Z" style="fill:#263238"></path><path d="M348,104.25S342.5,98.38,341.81,93c0,0-18.05-2.71-14.8,14.15,0,0-5.2-14.41,8.95-18.2s19.17,17,13.33,25C349.29,114,351.46,107.92,348,104.25Z" style="fill:#263238"></path><path d="M347.11,106.32a3.73,3.73,0,0,1,3.1-4.27c2.63-.34,5.14,4.63-.94,7.45C348.4,109.9,347.67,109.13,347.11,106.32Z" style="fill:#b97964"></path><path d="M322,110.87c2.16-2,1.83-5.53.14-9.05s2.68-6.11,2.68-6.11.35-4.45,3.76-6.23,24.85,6.86,29.65,14.77c4.25,7-1.28,8.89-2.6,11.32,0,0-2.93-1.39-2.68-2.23,2-6.7-1.49-11-4.18-10s-4.63.78-6.58-1.69-.6-5.13-5.11-5.73-5-3.2-5-3.2a6.38,6.38,0,0,1-3.71,5.4c-3.77,2-2.29,4.36-1.76,7.72s-1.14,4.66-4.06,7.1.17,4.21.17,4.21A3.78,3.78,0,0,1,322,110.87Z" style="fill:#263238"></path><path d="M328,91.53s2.78-15.51,17.87-15.8c9.78-.19,17.11,10,16.9,22.59l-1.88.72s-.6-3.07-1.69-3.17-2.17,5.19-2.17,5.19S348.41,90.34,328,91.53Z" style="fill:#40FF96"></path><path d="M359.57,100.5a2.81,2.81,0,1,0,2.81-2.8A2.81,2.81,0,0,0,359.57,100.5Z" style="fill:#40FF96"></path><path d="M359.57,100.5a2.81,2.81,0,1,0,2.81-2.8A2.81,2.81,0,0,0,359.57,100.5Z" style="fill:#fff;opacity:0.7000000000000001"></path><path d="M358.25,104.25s-27.46-20.85-33.41-8.54a4.22,4.22,0,0,1,.35-4.45c4.47-6.21,15.62-4.58,31,7.06C360.66,101.75,358.25,104.25,358.25,104.25Z" style="fill:#40FF96"></path><path d="M358.25,104.25s-27.46-20.85-33.41-8.54a4.22,4.22,0,0,1,.35-4.45c4.47-6.21,15.62-4.58,31,7.06C360.66,101.75,358.25,104.25,358.25,104.25Z" style="fill:#fff;opacity:0.7000000000000001"></path><path d="M333.89,114.69a20.84,20.84,0,0,1,2,2.13,4.83,4.83,0,0,0,.45-.26c2-1.22,2.57-2.45,2.55-3.45a3,3,0,0,0-.4-1.38,2.59,2.59,0,0,0-.48-.67,11.17,11.17,0,0,1-3.48,3.2C334.16,114.53,333.89,114.69,333.89,114.69Z" style="fill:#263238"></path><path d="M334.57,114.26l.62.61c1.91-1.14,3.09-2.21,3.34-3.14a2.59,2.59,0,0,0-.48-.67A11.17,11.17,0,0,1,334.57,114.26Z" style="fill:#fff"></path><path d="M336.38,116.56c2-1.22,2.57-2.45,2.55-3.45a7.43,7.43,0,0,0-2,1.8A2.88,2.88,0,0,0,336.38,116.56Z" style="fill:#de5753"></path><path d="M296,114.36l-6.13-5.94a22.35,22.35,0,0,0-1.9-3.71c-.76-.94-8.78,1.25-8.92,1.84a20.52,20.52,0,0,0,1.64,6c.56.77,7-.9,7-.9l2.45,2.43Z" style="fill:#b97964"></path><path d="M336,131.85c-11.66.21-23.24-2.17-25.17-3.35-1.63-1-16.75-17.8-16.75-17.8l-4.38,3.36s14.45,18.6,18.14,21.5,31.07,6,31.07,6Z" style="fill:#40FF96"></path><path d="M289.72,114.05s14.45,18.61,18.14,21.51c2.34,1.84,14.19,3.75,22.55,4.9,2.46.34,4.61.61,6.14.8l2.38.28L336,131.85c-11.66.2-23.24-2.18-25.17-3.36-1.63-1-16.75-17.8-16.75-17.8Z" style="fill:#fff;opacity:0.6000000000000001;isolation:isolate"></path><path d="M330.41,140.46c2.46.34,4.61.61,6.14.8a20.91,20.91,0,0,1-3.29-5.26A11.11,11.11,0,0,0,330.41,140.46Z" style="opacity:0.2;isolation:isolate"></path><path d="M349.8,156.88l-8.44,1.26a22.41,22.41,0,0,0-4.1-.75c-1.21,0-4.34,7.73-4,8.2a20.49,20.49,0,0,0,5.8,2.38c.94,0,3.56-6.13,3.56-6.13l7.62-1Z" style="fill:#b97964"></path><path d="M370.85,120c5.54,3,5.91,30.16.2,35-6.13,5.23-26.34,7.7-26.34,7.7l-1.57-6s20.7-3.4,22.7-8.06,2.1-21,1.47-24.29S368.09,118.52,370.85,120Z" style="fill:#40FF96"></path><path d="M370.85,120c5.54,3,5.91,30.16.2,35-6.13,5.23-26.34,7.7-26.34,7.7l-1.57-6s20.7-3.4,22.7-8.06,2.1-21,1.47-24.29S368.09,118.52,370.85,120Z" style="fill:#fff;opacity:0.6000000000000001;isolation:isolate"></path><polygon points="284.6 99.82 276.45 115.36 280.44 116.9 284.6 99.82" style="fill:#40FF96"></polygon><polygon points="284.6 99.82 276.45 115.36 280.44 116.9 284.6 99.82" style="opacity:0.2;isolation:isolate"></polygon><polygon points="286.48 94.42 281.3 99.18 274.44 97.61 277.37 104.01 273.76 110.05 280.75 109.24 285.38 114.54 286.77 107.65 293.24 104.88 287.11 101.43 286.48 94.42" style="fill:#40FF96"></polygon><polygon points="288.96 104.48 284.94 102.93 284.94 98.45 281.98 101.77 277.89 100.1 279.6 103.59 277.23 107.42 281.78 106.17 284.28 110.32 284.6 105.77 288.96 104.48" style="fill:#fff;opacity:0.30000000000000004;isolation:isolate"></polygon><circle cx="314.33" cy="241.89" r="6.52" transform="translate(-82.21 233.48) rotate(-36.37)" style="fill:#263238"></circle><path d="M317.43,237a.22.22,0,0,1-.13,0,.25.25,0,0,1-.07-.35c.53-.81,1.84-3.12,1.53-4.11a.56.56,0,0,0-.35-.37.62.62,0,0,0-.53,0c-.89.51-1.47,3-1.62,3.86a.25.25,0,0,1-.29.21.24.24,0,0,1-.2-.29c.06-.35.61-3.49,1.86-4.21a1.09,1.09,0,0,1,1-.07,1,1,0,0,1,.64.68c.45,1.4-1.38,4.22-1.59,4.54A.26.26,0,0,1,317.43,237Z" style="fill:#263238"></path><path d="M316.87,245.23a.44.44,0,0,1-.27-.09.48.48,0,0,1-.23-.41v-3.18l-3.41,2a.52.52,0,0,1-.51,0,.52.52,0,0,1-.25-.44v-3.93L310,240.87a.51.51,0,0,1-.53,0,.5.5,0,0,1-.28-.45V238.2a.5.5,0,0,1,.5-.5.5.5,0,0,1,.5.5v1.26l2.17-1.66a.49.49,0,0,1,.52-.05.5.5,0,0,1,.28.45v4.06l3.41-2a.52.52,0,0,1,.51,0,.49.49,0,0,1,.25.43V244l2.25-1a.5.5,0,1,1,.4.92l-2.95,1.28A.49.49,0,0,1,316.87,245.23Z" style="fill:#fff;opacity:0.8"></path><path d="M324,331.47a6.53,6.53,0,1,0-1.28-9.14A6.53,6.53,0,0,0,324,331.47Z" style="fill:#263238"></path><path d="M323.54,322.24a.3.3,0,0,1-.16-.05c-.28-.22-2.78-2.2-2.81-3.65a1.07,1.07,0,0,1,.39-.87,1,1,0,0,1,.91-.24c1.44.27,3.05,3.22,3.23,3.55a.24.24,0,0,1-.1.34.25.25,0,0,1-.34-.1c-.46-.85-1.86-3.11-2.89-3.3a.5.5,0,0,0-.48.13.56.56,0,0,0-.22.48c0,1,1.9,2.7,2.62,3.26a.26.26,0,0,1,.05.35A.25.25,0,0,1,323.54,322.24Z" style="fill:#263238"></path><path d="M324.13,331.07h0a.5.5,0,0,1-.47-.53c.36-6.46,6.88-9.5,7.16-9.62a.5.5,0,0,1,.66.25.49.49,0,0,1-.25.66c-.06,0-6.24,2.92-6.57,8.77A.51.51,0,0,1,324.13,331.07Z" style="fill:#fff;opacity:0.8"></path><path d="M322.39,328.7a.5.5,0,0,1-.5-.46c-.41-5.58,5.22-8.29,5.46-8.41a.5.5,0,0,1,.66.24.51.51,0,0,1-.23.67c-.06,0-5.25,2.54-4.89,7.42a.5.5,0,0,1-.46.54Z" style="fill:#fff;opacity:0.8"></path><path d="M217.81,406.76a6.52,6.52,0,1,0,6.83,6.2A6.51,6.51,0,0,0,217.81,406.76Z" style="fill:#263238"></path><path d="M227.33,416.42a12,12,0,0,1-3.68-.88.25.25,0,0,1,.18-.46c.9.36,3.43,1.19,4.33.69a.59.59,0,0,0,.3-.41.62.62,0,0,0-.15-.52c-.67-.77-3.19-.86-4.1-.82a.25.25,0,0,1,0-.5c.37,0,3.55-.09,4.5,1a1.07,1.07,0,0,1,.26.92,1.08,1.08,0,0,1-.54.77A2.37,2.37,0,0,1,227.33,416.42Z" style="fill:#263238"></path><path d="M217.36,419.53a2.8,2.8,0,0,1-1.33-.31.49.49,0,0,1-.21-.67.5.5,0,0,1,.68-.21,2.64,2.64,0,0,0,2.32-.2c.27-.17.33-.31.33-.33a4.08,4.08,0,0,0-1-.35c-.93-.25-2.21-.6-2.37-1.77s1.44-1.75,2.74-2.13a10.26,10.26,0,0,0,1-.32c-.24-.15-.71-.39-1.05-.57-1.29-.66-2.75-1.41-2.67-2.62.13-1.83,3.16-2.29,3.5-2.34a.5.5,0,0,1,.56.43.49.49,0,0,1-.43.56c-.83.12-2.58.61-2.63,1.42,0,.55,1.26,1.22,2.12,1.66s1.66.85,1.73,1.43c.1.75-.8,1-1.83,1.31-.73.21-2.08.6-2,1s.74.69,1.63.93,1.57.42,1.72,1.1a1.22,1.22,0,0,1-.58,1.27A3.81,3.81,0,0,1,217.36,419.53Z" style="fill:#fff;opacity:0.8"></path><path d="M326.37,418.71a6.53,6.53,0,1,0-1.28-9.14A6.52,6.52,0,0,0,326.37,418.71Z" style="fill:#263238"></path><path d="M326,409.48a.27.27,0,0,1-.15-.05c-.29-.22-2.79-2.2-2.82-3.65a1.1,1.1,0,0,1,.39-.88,1,1,0,0,1,.91-.23c1.44.27,3.05,3.22,3.23,3.55a.25.25,0,0,1-.1.34.26.26,0,0,1-.34-.1c-.46-.85-1.86-3.11-2.88-3.3a.52.52,0,0,0-.49.13.56.56,0,0,0-.22.48c0,1,1.9,2.7,2.62,3.26a.25.25,0,0,1,0,.35A.25.25,0,0,1,326,409.48Z" style="fill:#263238"></path><path d="M332.58,418.2a.52.52,0,0,1-.29-.09c-.21-.15-5.33-3.78-6-8.81a.5.5,0,1,1,1-.14c.65,4.6,5.58,8.1,5.63,8.13a.51.51,0,0,1,.12.7A.49.49,0,0,1,332.58,418.2Z" style="fill:#fff;opacity:0.8"></path><path d="M329.66,419.59a.5.5,0,0,1-.26-.08c-.23-.14-5.48-3.46-5.13-7.39a.5.5,0,0,1,.54-.45.48.48,0,0,1,.45.54c-.29,3.33,4.62,6.42,4.67,6.45a.51.51,0,0,1,.16.69A.52.52,0,0,1,329.66,419.59Z" style="fill:#fff;opacity:0.8"></path><path d="M335.25,416.13a.51.51,0,0,1-.5-.44c0-.05-.62-4.73-3.67-7.19a.5.5,0,0,1-.08-.7.51.51,0,0,1,.71-.08c3.37,2.72,4,7.64,4,7.85a.5.5,0,0,1-.44.55Z" style="fill:#fff;opacity:0.8"></path><polygon points="343.37 420.03 346.16 420.03 354.43 360.06 349.58 360.06 343.37 420.03" style="fill:#40FF96"></polygon><polygon points="382.37 420.03 379.59 420.03 374.41 360.06 379.27 360.06 382.37 420.03" style="fill:#40FF96"></polygon><polygon points="343.37 420.03 346.16 420.03 354.43 360.06 349.58 360.06 343.37 420.03" style="fill:#fff;opacity:0.4;isolation:isolate"></polygon><polygon points="382.37 420.03 379.59 420.03 374.41 360.06 379.27 360.06 382.37 420.03" style="fill:#fff;opacity:0.4;isolation:isolate"></polygon><polygon points="357.86 420.03 360.64 420.03 365.81 360.06 360.96 360.06 357.86 420.03" style="fill:#40FF96"></polygon><polygon points="396.86 420.03 394.07 420.03 385.8 360.06 390.65 360.06 396.86 420.03" style="fill:#40FF96"></polygon><polygon points="357.86 420.03 360.64 420.03 365.81 360.06 360.96 360.06 357.86 420.03" style="fill:#fff;opacity:0.6000000000000001;isolation:isolate"></polygon><polygon points="396.86 420.03 394.07 420.03 385.8 360.06 390.65 360.06 396.86 420.03" style="fill:#fff;opacity:0.6000000000000001;isolation:isolate"></polygon><rect x="347.81" y="383.41" width="44.22" height="3.26" rx="1.57" transform="translate(739.84 770.07) rotate(180)" style="fill:#40FF96"></rect><rect x="347.81" y="383.41" width="44.22" height="3.26" rx="1.57" transform="translate(739.84 770.07) rotate(180)" style="fill:#fff;opacity:0.6000000000000001;isolation:isolate"></rect><rect x="343.41" y="356.5" width="53.42" height="5.05" rx="2.44" transform="translate(740.23 718.05) rotate(180)" style="fill:#40FF96"></rect></g><g id="freepik--character-1--inject-32"><g id="freepik--group--inject-32"><path d="M241.3,295.06l3.1-2.41s.49-4,1.47-4.06,8.6-3,9.34-2.4,1.18,6.16,1.16,7.51-8.75,3.06-8.7,2.7l-3.85,3.79Z" style="fill:#eec1bb"></path><path d="M196.55,290.52s2.36,3.29,5.71,7.46c6,7.46,15.09,17.73,19.4,17,6.73-1.16,25.11-16.53,25.11-16.53l-4.35-5.32S224.85,306.3,221.69,304s-13.57-19.39-13.57-19.39-1,.25-2.41.68C202.47,286.33,197.05,288.31,196.55,290.52Z" style="fill:#40FF96"></path><path d="M196.55,290.52s2.36,3.29,5.71,7.46c2.31-3.78,3.21-10.51,3.45-12.65C202.47,286.33,197.05,288.31,196.55,290.52Z" style="opacity:0.2;isolation:isolate"></path><polygon points="133.44 404.94 146.6 406.41 158.74 407.75 157.51 397.49 157.51 397.46 157.5 397.46 156.63 397.46 147.1 397.36 137.34 397.27 133.44 404.94" style="fill:#eec1bb"></polygon><polygon points="146.6 406.41 158.74 407.75 157.51 397.49 157.5 397.46 156.63 397.46 147.1 397.35 147.1 397.36 146.6 406.41" style="opacity:0.2;isolation:isolate"></polygon><polygon points="152.09 393.51 153.01 410.91 148.55 410.34 148.45 393.01 152.09 393.51" style="fill:#40FF96"></polygon><path d="M134.76,405.22l6.61-8.24a.78.78,0,0,0,0-1l-5-6.18a1.29,1.29,0,0,0-1.81-.18,1.26,1.26,0,0,0-.2.2c-2.1,2.71-3.49,4.78-6.18,8.13-1.65,2.07-6.86,8.12-9.14,11s.23,5.48,1.43,4.52c5.33-4.32,10.07-7,12.91-7.46A2.13,2.13,0,0,0,134.76,405.22Z" style="fill:#263238"></path><path d="M134.76,405.22l6.61-8.24a.78.78,0,0,0,0-1l-5-6.18a1.29,1.29,0,0,0-1.81-.18,1.26,1.26,0,0,0-.2.2c-2.1,2.71-3.49,4.78-6.18,8.13-1.65,2.07-6.86,8.12-9.14,11s.23,5.48,1.43,4.52c5.33-4.32,10.07-7,12.91-7.46A2.13,2.13,0,0,0,134.76,405.22Z" style="opacity:0.2;isolation:isolate"></path><path d="M150.73,312.45l.33,48.87s2.37,2.29,5.67,5.69c8.49,8.71,23.21,24.73,20.42,28.31-3.87,5-16.78,3.8-16.78,3.8L156,412.38l-1,3s.34.1.95.25a114.27,114.27,0,0,0,20.86,3.09c12.64.56,26.6-1.7,29.3-13.69,5.15-22.84-18.67-49.55-27.51-61.14-2.18-2.85-.81-28.51-.81-28.51Z" style="fill:#263238"></path><path d="M155.91,415.62a114.27,114.27,0,0,0,20.86,3.09,34,34,0,0,0,14.67-12.86c10.67-17.74-22-50.61-22-50.61v-7.69l-12.54,7.69-.2,11.77c8.49,8.71,23.21,24.73,20.42,28.31-3.87,5-16.78,3.8-16.78,3.8L156,412.38Z" style="opacity:0.2;isolation:isolate"></path><path d="M133.44,404.93a.23.23,0,0,1,.24,0,.2.2,0,0,1,.09.21c0,.36-.45,3.64-1.44,4.08a.63.63,0,0,1-.67-.09,1.19,1.19,0,0,1-.59-1,2.55,2.55,0,0,1,.7-1.58A11.36,11.36,0,0,1,133.44,404.93Zm-.15.65a4.22,4.22,0,0,0-1.81,2.52.83.83,0,0,0,.4.68c.14.09.24.09.28,0a.41.41,0,0,0,.2-.17A8.29,8.29,0,0,0,133.29,405.58Z" style="fill:#40FF96"></path><path d="M133.44,404.86a.25.25,0,0,1,.21,0c.09.09,1.91,1.82,1.92,3.12a1.12,1.12,0,0,1-.34.84.66.66,0,0,1-.84.18c-.83-.43-1.23-3-1-4l.06-.08A.21.21,0,0,1,133.44,404.86Zm1.77,3.21a4.83,4.83,0,0,0-1.48-2.51c0,1.13.41,2.9.92,3.16,0,0,.18.11.35-.1l.06-.08A.67.67,0,0,0,135.21,408.07Z" style="fill:#40FF96"></path><polygon points="92.58 411.05 105.74 412.51 117.88 413.86 116.66 403.6 116.65 403.57 116.64 403.57 115.77 403.56 106.24 403.46 96.48 403.37 92.58 411.05" style="fill:#eec1bb"></polygon><path d="M93.9,411.33l6.61-8.25a.77.77,0,0,0,0-.95l-5-6.18a1.29,1.29,0,0,0-1.81-.18,1.26,1.26,0,0,0-.2.2c-2.1,2.7-3.49,4.78-6.18,8.13-1.65,2.06-6.86,8.12-9.14,11s.23,5.47,1.43,4.52c5.33-4.32,10.07-7,12.91-7.47A2.07,2.07,0,0,0,93.9,411.33Z" style="fill:#263238"></path><path d="M92.58,411a.23.23,0,0,1,.24,0,.18.18,0,0,1,.09.2c0,.37-.45,3.64-1.44,4.08a.61.61,0,0,1-.67-.08,1.22,1.22,0,0,1-.59-1,2.55,2.55,0,0,1,.7-1.58A10.39,10.39,0,0,1,92.58,411Zm-.15.65a4.23,4.23,0,0,0-1.81,2.51.82.82,0,0,0,.4.68c.14.1.24.1.28.05a.41.41,0,0,0,.2-.17A8.35,8.35,0,0,0,92.43,411.69Z" style="fill:#40FF96"></path><path d="M92.58,411a.22.22,0,0,1,.21,0c.09.09,1.91,1.81,1.92,3.11a1.12,1.12,0,0,1-.34.85.68.68,0,0,1-.84.18c-.83-.44-1.23-3-1-4l.06-.08A.21.21,0,0,1,92.58,411Zm1.77,3.21a4.83,4.83,0,0,0-1.48-2.51c0,1.12.41,2.89.92,3.16,0,0,.18.11.35-.1l.06-.08A.67.67,0,0,0,94.35,414.18Z" style="fill:#40FF96"></path><polygon points="105.74 412.51 117.88 413.86 116.66 403.6 116.64 403.57 115.77 403.56 106.24 403.45 106.24 403.46 105.74 412.51" style="opacity:0.2;isolation:isolate"></polygon><path d="M164,315l-1.12,27.8c8,22.56,20.93,59.86,7.67,71.87-12.76,11.56-60.37.66-60.37.66l-.74-14.43s37.47,1.24,41.41-3.11-14.12-30-17.39-43c-6.64-26.47,4.63-46.32,4.63-46.32Z" style="fill:#263238"></path><polygon points="111.23 399.62 112.15 417.02 107.69 416.44 107.59 399.12 111.23 399.62" style="fill:#40FF96"></polygon><path d="M135.24,312.45,178,325s11-28.45,30.12-40.31a40.87,40.87,0,0,0-7.11-8.52,51.7,51.7,0,0,0-20.9-12c-5.26-1.56-14.58-.42-14.58-.42S146.72,271.29,135.24,312.45Z" style="fill:#40FF96"></path><path d="M138.85,301.16l44.64,12.31a107.75,107.75,0,0,1,9.22-14.26l-46.94-13.53A112.24,112.24,0,0,0,138.85,301.16Z" style="fill:#fff;opacity:0.7000000000000001"></path><polygon points="184.06 299.5 184.92 303.34 184.06 303.11 184.49 306.3 183.41 306.07 183.79 309.48 181.47 308.52 180.66 310.29 179.41 309.83 180 308.24 177.24 307.61 180.26 305.33 179.41 304.89 182.08 302.43 181.08 302.03 184.06 299.5" style="fill:#40FF96"></polygon><polygon points="175.36 296.99 176.22 300.84 175.36 300.61 175.79 303.8 174.71 303.57 175.08 306.98 172.77 306.02 171.95 307.78 170.71 307.32 171.3 305.73 168.54 305.11 171.56 302.83 170.71 302.38 173.38 299.93 172.38 299.53 175.36 296.99" style="fill:#40FF96"></polygon><polygon points="166.65 294.49 167.52 298.33 166.65 298.1 167.09 301.29 166.01 301.06 166.38 304.47 164.06 303.51 163.25 305.27 162.01 304.82 162.6 303.23 159.83 302.6 162.85 300.32 162.01 299.88 164.67 297.42 163.68 297.02 166.65 294.49" style="fill:#40FF96"></polygon><polygon points="157.95 291.98 158.81 295.82 157.95 295.6 158.38 298.79 157.31 298.56 157.68 301.96 155.36 301 154.54 302.77 153.31 302.31 153.89 300.72 151.13 300.09 154.15 297.82 153.31 297.37 155.97 294.91 154.97 294.52 157.95 291.98" style="fill:#40FF96"></polygon><polygon points="149.25 289.47 150.11 293.32 149.25 293.09 149.68 296.28 148.6 296.05 148.97 299.46 146.66 298.5 145.84 300.26 144.6 299.81 145.19 298.21 142.43 297.59 145.45 295.31 144.6 294.87 147.26 292.41 146.27 292.01 149.25 289.47" style="fill:#40FF96"></polygon><path d="M179,263.88c.56,4.22,2.45,12.11,8.86,14.11,6.62,2.06,9.36-2.09,10.33-4.35a52,52,0,0,0-18.06-9.48C179.76,264.05,179.38,264,179,263.88Z" style="fill:#fff;opacity:0.7000000000000001"></path><path d="M156.83,307.78c2,6.29,10.68,12.19,18.54,16.41L178,325a115.9,115.9,0,0,1,8.73-17.09c-6.48-2.5-15.62-6.34-16.46-8.37-1.32-3.18,1.13-20.05,1.13-20.05l-12.11-4.62S152.89,295.64,156.83,307.78Z" style="opacity:0.2;isolation:isolate"></path><path d="M181.27,264.86c5.44,19.88,15.52,8.82,15.52,8.82a3.86,3.86,0,0,1-.46-2.06,5.27,5.27,0,0,1,2.29-3.92,17.05,17.05,0,0,1,2-1.33l-1.22-15.63a68.75,68.75,0,0,1-6.11,8C189.72,262.64,185.4,265.89,181.27,264.86Z" style="fill:#eec1bb"></path><path d="M196.33,271.62a5.27,5.27,0,0,1,2.29-3.92,17.05,17.05,0,0,1,2-1.33l-1.22-15.63a68.75,68.75,0,0,1-6.11,8C193,264.06,193.54,269.29,196.33,271.62Z" style="opacity:0.2;isolation:isolate"></path><path d="M207.88,236.87s5.5,8.1,1.83,14.89-13.16-13-13.16-13Z" style="fill:#263238"></path><path d="M196.26,267.31a12.22,12.22,0,0,0,1.17.73,10.67,10.67,0,0,0,12.84-1.58,11.9,11.9,0,0,0,3.72-7.93,8.79,8.79,0,0,0,0-1.26,23.75,23.75,0,0,0-.26-2.68c-1.13-7.57-5.63-17-13.55-17.85A11.59,11.59,0,0,0,188,252.27C190.62,259.63,191.9,264.31,196.26,267.31Z" style="fill:#eec1bb"></path><path d="M201,251c.15.67.69,1.1,1.13,1s.63-.77.44-1.43-.7-1.1-1.12-1S200.85,250.33,201,251Z" style="fill:#263238"></path><path d="M208.52,248.86c.14.67.7,1.1,1.13,1s.62-.76.44-1.42-.7-1.1-1.13-1S208.34,248.23,208.52,248.86Z" style="fill:#263238"></path><path d="M206.23,249.87a24.55,24.55,0,0,0,4.79,4.76,4,4,0,0,1-3,1.5Z" style="fill:#d4827d"></path><path d="M198,249.25a.42.42,0,0,0,.33-.26,3.26,3.26,0,0,1,2.12-2,.41.41,0,0,0,.31-.47.42.42,0,0,0-.48-.32h0a4,4,0,0,0-2.7,2.5.4.4,0,0,0,.21.53h0A.69.69,0,0,0,198,249.25Z" style="fill:#263238"></path><path d="M211,245.36a.37.37,0,0,0,.23-.05.4.4,0,0,0,0-.57h0a4,4,0,0,0-3.42-1.39.41.41,0,0,0-.34.46h0a.41.41,0,0,0,.46.34h0a3.25,3.25,0,0,1,2.7,1.14A.45.45,0,0,0,211,245.36Z" style="fill:#263238"></path><path d="M191.4,257.34c-.66.46,1.65,6.78,1.65,6.78s-3.63-.61-7-5.39c-6.59-9.42-5.65-12.33-3.54-14.81,3.92-4.6,12.2-1.15,12.2-1.15-2.34.3-3.75,2.94-2.21,4.79,2.14,2.59,2,7.76.36,10.37C192.89,257.93,192.39,256.67,191.4,257.34Z" style="fill:#263238"></path><path d="M186.4,260a8,8,0,0,0,5.55,2.64c2.82.13,3.6-2.55,2.29-4.88-1.18-2.06-4.09-4.69-6.66-3.69S184.67,258,186.4,260Z" style="fill:#eec1bb"></path><path d="M190.27,241.36s2.68,4.29,10.23,2.85c0,0-3.53-.05-4.72-1,0,0,8.1.88,13.95-1.83s-3.15-9.75-6.77-9.3S188.06,235.85,190.27,241.36Z" style="fill:#263238"></path><path d="M204.51,232.66s-8.76-13.1-22.71-7.32c-9,3.75-11.68,16-6.44,27.47l2-.09s-.68-3.06.28-3.58,4.06,3.88,4.06,3.88S185.33,239.75,204.51,232.66Z" style="fill:#40FF96"></path><path d="M179.17,253.52a2.81,2.81,0,1,1-3.69-1.44A2.8,2.8,0,0,1,179.17,253.52Z" style="fill:#40FF96"></path><path d="M179.17,253.52a2.81,2.81,0,1,1-3.69-1.44A2.8,2.8,0,0,1,179.17,253.52Z" style="fill:#fff;opacity:0.7000000000000001"></path><path d="M181.88,256.43s16.81-30.1,27.19-21.21a4.2,4.2,0,0,0-2.1-3.93c-6.58-3.91-16.14,2.05-25.54,18.86C178.67,255.11,181.88,256.43,181.88,256.43Z" style="fill:#40FF96"></path><path d="M181.88,256.43s16.81-30.1,27.19-21.21a4.2,4.2,0,0,0-2.1-3.93c-6.58-3.91-16.14,2.05-25.54,18.86C178.67,255.11,181.88,256.43,181.88,256.43Z" style="fill:#fff;opacity:0.7000000000000001"></path><path d="M208.45,259.35a20.53,20.53,0,0,0-1.46,2.57l-.5-.15c-2.26-.68-3.08-1.74-3.31-2.71a3.12,3.12,0,0,1,0-1.44,3.38,3.38,0,0,1,.3-.77,11.19,11.19,0,0,0,4.16,2.25C208.15,259.27,208.45,259.35,208.45,259.35Z" style="fill:#263238"></path><path d="M207.68,259.1l-.44.75c-2.13-.64-3.55-1.38-4-2.23a3.38,3.38,0,0,1,.3-.77A11.19,11.19,0,0,0,207.68,259.1Z" style="fill:#fff"></path><path d="M206.49,261.77c-2.26-.68-3.08-1.74-3.31-2.71a7.6,7.6,0,0,1,2.36,1.25A2.79,2.79,0,0,1,206.49,261.77Z" style="fill:#de5753"></path><path d="M193.1,319a6.53,6.53,0,1,0,6.53-6.53A6.52,6.52,0,0,0,193.1,319Z" style="fill:#263238"></path><path d="M201.93,313.72l-.1,0a.24.24,0,0,1-.12-.33c.4-.88,1.35-3.37.89-4.3a.54.54,0,0,0-.39-.31.58.58,0,0,0-.52.12c-.8.63-1,3.14-1,4.06a.24.24,0,0,1-.25.24h0a.25.25,0,0,1-.25-.25c0-.36.09-3.55,1.22-4.44a1.08,1.08,0,0,1,.93-.22,1.07,1.07,0,0,1,.74.58c.65,1.31-.73,4.38-.89,4.72A.24.24,0,0,1,201.93,313.72Z" style="fill:#263238"></path><path d="M200.41,322.37a.45.45,0,0,1-.16,0l-2.23-.79a.49.49,0,0,1-.33-.54l.64-4.67-.7-.57-1.39,2.47a.52.52,0,0,1-.66.21l-1.68-.82a.5.5,0,0,1,.44-.9l1.25.61,1.45-2.58a.49.49,0,0,1,.35-.24.51.51,0,0,1,.41.1l1.38,1.12a.51.51,0,0,1,.18.46l-.63,4.54,1.36.48,1.08-3.37a.49.49,0,0,1,.47-.35h2.17a.5.5,0,0,1,.5.5v2.11a3.79,3.79,0,0,0,.92.17.5.5,0,0,1,.46.54.49.49,0,0,1-.53.46c-1.23-.09-1.85-.42-1.85-1V318.5H202L200.89,322a.5.5,0,0,1-.25.3A.59.59,0,0,1,200.41,322.37Z" style="fill:#fff;opacity:0.8"></path><path d="M187.32,311l3.63,1.49s3.73-1.58,4.26-.75,6.85,6,6.72,6.9-4.75,4.09-5.93,4.75-7-6.06-6.67-6.2l-5.2-1.45Z" style="fill:#eec1bb"></path><path d="M172,276.58s-4.06,19.63-3.28,23.43,20.62,11.13,20.62,11.13L186.89,318s-19.93-6.27-25.64-10-1.74-35-1.74-35C162.19,271.16,172,276.58,172,276.58Z" style="fill:#40FF96"></path><path d="M283.08,417.74a1.5,1.5,0,0,1-.18-3c10.55-1.25,17.76-5.57,19.28-11.55,1.33-5.23-1.78-11-8.54-15.77-34.52-24.45-38.09-58.52-40.21-78.87-.76-7.26-1.36-13-3-16.23-2.33-4.62-5.12-7.57-8.06-8.54a6.26,6.26,0,0,0-4.55.12,1.5,1.5,0,0,1-1.4-2.65,9.17,9.17,0,0,1,6.78-.35c3.81,1.2,7.15,4.59,9.91,10.07,1.87,3.72,2.5,9.7,3.29,17.27,2.21,21.13,5.55,53.07,39,76.74,7.83,5.54,11.37,12.45,9.72,18.95-1.87,7.34-9.83,12.36-21.83,13.79Z" style="fill:#40FF96"></path><path d="M256,362a6.52,6.52,0,1,0,7.5-5.38A6.52,6.52,0,0,0,256,362Z" style="fill:#263238"></path><path d="M265.63,358.21a.23.23,0,0,1-.14,0,.25.25,0,0,1-.07-.35c.54-.8,1.89-3.09,1.58-4.09a.53.53,0,0,0-.34-.37.56.56,0,0,0-.53,0c-.89.5-1.51,2.94-1.67,3.84a.25.25,0,0,1-.49-.09c.06-.35.65-3.48,1.92-4.18a1.08,1.08,0,0,1,1-.06,1,1,0,0,1,.63.69c.43,1.4-1.43,4.2-1.65,4.51A.23.23,0,0,1,265.63,358.21Z" style="fill:#263238"></path><path d="M262.56,368.76a5,5,0,0,1-3.81-1.85,2.85,2.85,0,0,1-.83-2.34.78.78,0,0,1,.39-.5c.65-.36,2,0,4.11.7a24.56,24.56,0,0,0,2.46.69c-.53-.38-1.46-.91-2.14-1.29-2.11-1.19-3.4-2-3.53-2.78a.8.8,0,0,1,.21-.69c.64-.71,2-.29,4.27.45,1,.35,2.79.93,3.13.71-.09-1.14-3.27-2.68-5.51-3.42a.51.51,0,0,1-.32-.63.5.5,0,0,1,.64-.32c1,.33,6,2.1,6.16,4.31a1,1,0,0,1-.36.86c-.68.52-2,.13-4.05-.56a11.09,11.09,0,0,0-3.13-.76,15.31,15.31,0,0,0,3,2c2.1,1.19,3.37,1.9,3,2.75s-1.78.4-4.09-.33a13.76,13.76,0,0,0-3.24-.79,2.34,2.34,0,0,0,.63,1.34,4.06,4.06,0,0,0,3.3,1.48.5.5,0,0,1,.08,1Z" style="fill:#fff;opacity:0.8"></path></g></g></svg>